<?xml version="1.0" encoding="utf-8"?>
<!-- Generator: Adobe Illustrator 19.2.1, SVG Export Plug-In . SVG Version: 6.00 Build 0)  -->
<svg version="1.1" id="Layer_1" xmlns="http://www.w3.org/2000/svg" xmlns:xlink="http://www.w3.org/1999/xlink" x="0px" y="0px"
	 viewBox="0 0 175 84.5" style="enable-background:new 0 0 175 84.5;" xml:space="preserve">
<style type="text/css">
	.st0{fill:#2B698C;}
	.st1{fill:#244161;}
	.st2{fill:#256183;}
	.st3{fill-rule:evenodd;clip-rule:evenodd;fill:#8AD2D3;}
	.st4{fill-rule:evenodd;clip-rule:evenodd;fill:#2B698C;}
	.st5{fill:#FFFFFF;}
	.st6{fill:#214E69;}
	.st7{fill-rule:evenodd;clip-rule:evenodd;fill:#244161;}
	.st8{fill-rule:evenodd;clip-rule:evenodd;fill:#FFFFFF;}
</style>
<path class="st0" d="M161.9,56.7c0,2.2,0,4-0.1,5c-0.1,0.7-0.2,1.2-0.7,1.3c-0.2,0-0.5,0.1-0.8,0.1c-0.3,0-0.4,0.1-0.4,0.2
	c0,0.2,0.2,0.2,0.5,0.2c0.5,0,1.1,0,1.6,0c0.6,0,1.1,0,1.3,0c0.7,0,1.4,0,2.5,0.1c1,0,2.3,0.1,4.1,0.1c0.9,0,1.1,0,1.3-0.6
	c0.1-0.5,0.3-2.1,0.3-2.6c0-0.2,0-0.4-0.2-0.4c-0.2,0-0.2,0.1-0.3,0.4c-0.2,1-0.4,1.5-1.1,1.7c-0.6,0.3-1.6,0.3-2.2,0.3
	c-2.4,0-2.8-0.4-2.8-2c0-0.7,0-2.9,0-3.7v-1.9c0-0.1,0-0.2,0.1-0.2c0.6,0,2.9,0,3.4,0.1c0.9,0.1,1.2,0.4,1.3,0.9
	c0.1,0.3,0.1,0.6,0.1,0.8c0,0.1,0,0.2,0.2,0.2c0.2,0,0.2-0.3,0.2-0.4c0-0.2,0.1-1.1,0.1-1.6c0.1-1.2,0.2-1.6,0.2-1.7
	c0-0.1-0.1-0.2-0.2-0.2c-0.1,0-0.2,0.1-0.4,0.3c-0.2,0.2-0.6,0.3-1.1,0.4c-0.5,0-3.3,0-3.8,0c-0.1,0-0.2-0.1-0.2-0.3v-6
	c0-0.2,0-0.2,0.2-0.2c0.5,0,2.9,0,3.4,0.1c1.2,0.1,1.4,0.4,1.6,0.8c0.1,0.3,0.1,0.7,0.1,0.8c0,0.2,0,0.3,0.2,0.3s0.2-0.1,0.2-0.3
	c0-0.3,0.1-1.3,0.1-1.6c0.1-1.1,0.2-1.4,0.2-1.5c0-0.1,0-0.2-0.1-0.2c-0.1,0-0.3,0.1-0.4,0.1c-0.2,0-0.6,0.1-1,0.1
	c-0.4,0-5.1,0-5.9,0c-0.3,0-0.9,0-1.5,0c-0.6,0-1.3,0-1.9,0c-0.4,0-0.5,0-0.5,0.2c0,0.2,0.1,0.2,0.4,0.2c0.3,0,0.7,0,0.9,0.1
	c0.8,0.2,1,0.5,1,1.3c0,0.8,0,1.4,0,5V56.7z M147.2,62.7c-4.5,0-7.2-3.9-7.2-8.8c0-5.9,3.1-7.4,5.8-7.4c3.9,0,6.9,3.3,6.9,8.6
	C152.6,61.9,148.8,62.7,147.2,62.7z M146.2,63.9c6,0,9.8-4.3,9.8-9.7c0-5.4-3.7-8.8-9.5-8.8c-7.1,0-9.7,5.2-9.7,9.3
	C136.7,58.8,139.4,63.9,146.2,63.9z M118.6,53.2c-0.1,0-0.1,0-0.1-0.2v-0.5c0-3.6,0-4.2,0-5c0-0.8,0.2-1.2,0.9-1.3
	c0.3,0,0.5-0.1,0.7-0.1c0.3,0,0.4,0,0.4-0.2c0-0.2-0.2-0.2-0.5-0.2c-0.9,0-2.4,0.1-3,0.1c-0.6,0-2.1-0.1-3.4-0.1
	c-0.3,0-0.5,0-0.5,0.2c0,0.2,0.1,0.2,0.4,0.2c0.3,0,0.7,0,0.9,0.1c0.8,0.2,1,0.5,1,1.3c0,0.8,0,1.4,0,5v4.2c0,2.2,0,4-0.1,5
	c-0.1,0.7-0.2,1.2-0.7,1.3c-0.2,0-0.5,0.1-0.8,0.1c-0.3,0-0.4,0.1-0.4,0.2c0,0.2,0.2,0.2,0.5,0.2c0.9,0,2.4-0.1,3-0.1
	c0.7,0,2.1,0.1,3.7,0.1c0.3,0,0.5-0.1,0.5-0.2c0-0.1-0.1-0.2-0.4-0.2c-0.4,0-0.9,0-1.2-0.1c-0.7-0.1-0.8-0.6-0.9-1.3
	c-0.1-1-0.1-2.9-0.1-5v-2.1c0-0.1,0.1-0.1,0.1-0.1h9c0.1,0,0.1,0,0.1,0.1v2.1c0,2.2,0,4-0.1,5c-0.1,0.7-0.2,1.2-0.7,1.3
	c-0.2,0-0.5,0.1-0.8,0.1c-0.3,0-0.4,0.1-0.4,0.2c0,0.2,0.2,0.2,0.5,0.2c0.9,0,2.4-0.1,2.9-0.1c0.7,0,2.1,0.1,3.7,0.1
	c0.3,0,0.5-0.1,0.5-0.2c0-0.1-0.1-0.2-0.4-0.2c-0.4,0-0.9,0-1.2-0.1c-0.7-0.1-0.8-0.6-0.9-1.3c-0.1-1-0.1-2.9-0.1-5v-4.2
	c0-3.6,0-4.2,0-5c0-0.8,0.2-1.2,0.9-1.3c0.3,0,0.5-0.1,0.7-0.1c0.3,0,0.4,0,0.4-0.2c0-0.2-0.2-0.2-0.5-0.2c-0.9,0-2.4,0.1-3,0.1
	c-0.6,0-2.1-0.1-3.4-0.1c-0.3,0-0.5,0-0.5,0.2c0,0.2,0.1,0.2,0.4,0.2c0.3,0,0.7,0,0.9,0.1c0.8,0.2,1,0.5,1,1.3c0,0.8,0,1.4,0,5v0.5
	c0,0.1-0.1,0.2-0.1,0.2H118.6z M99.4,56.2c-0.1,0-0.1-0.1-0.1-0.2l2.2-5.8c0-0.1,0.1-0.2,0.1-0.2c0.1,0,0.1,0.1,0.1,0.2l2.1,5.8
	c0,0.1,0,0.1-0.1,0.1H99.4z M104.2,57.4c0.1,0,0.2,0,0.2,0.2l1.9,5c0.1,0.3,0,0.5-0.2,0.5c-0.2,0-0.3,0.1-0.3,0.2
	c0,0.2,0.3,0.2,0.7,0.2c1.9,0,3.6,0,4.5,0c0.9,0,1.1,0,1.1-0.2c0-0.2-0.1-0.2-0.3-0.2c-0.3,0-0.6,0-1-0.1c-0.5-0.1-1.2-0.5-2.1-2.6
	c-1.5-3.6-5.3-13.2-5.9-14.5c-0.2-0.5-0.4-0.8-0.6-0.8c-0.2,0-0.4,0.3-0.7,0.9L95.7,61c-0.5,1.2-0.9,2-2,2.1c-0.2,0-0.5,0-0.7,0
	c-0.2,0-0.3,0-0.3,0.2c0,0.2,0.1,0.2,0.4,0.2c1.2,0,2.5-0.1,2.8-0.1c0.7,0,1.7,0.1,2.5,0.1c0.3,0,0.4,0,0.4-0.2
	c0-0.1-0.1-0.2-0.4-0.2h-0.4c-0.7,0-0.9-0.3-0.9-0.7c0-0.3,0.1-0.8,0.4-1.4l1.3-3.4c0-0.1,0.1-0.2,0.2-0.2H104.2z M84.8,56.7
	c0,2.2,0,4-0.1,5c-0.1,0.7-0.2,1.2-0.7,1.3c-0.2,0-0.5,0.1-0.8,0.1c-0.3,0-0.4,0.1-0.4,0.2c0,0.2,0.2,0.2,0.5,0.2
	c0.9,0,2.4-0.1,3-0.1c0.7,0,2.1,0.1,3.7,0.1c0.3,0,0.4-0.1,0.4-0.2c0-0.1-0.1-0.2-0.4-0.2c-0.4,0-0.9,0-1.2-0.1
	c-0.7-0.1-0.8-0.6-0.9-1.3c-0.1-1-0.1-2.9-0.1-5v-9.7l3,0.1c2.1,0,2.7,0.7,2.8,1.3l0,0.3c0,0.4,0.1,0.5,0.3,0.5
	c0.1,0,0.2-0.1,0.2-0.4c0-0.6,0.1-2.2,0.1-2.7c0-0.4,0-0.5-0.2-0.5c-0.1,0-0.3,0-0.6,0.1c-0.4,0-0.9,0.1-1.6,0.1h-9.3
	c-0.8,0-1.7,0-2.4-0.1c-0.6,0-0.8-0.3-1-0.3c-0.1,0-0.2,0.1-0.3,0.4c0,0.2-0.5,2.3-0.5,2.7c0,0.3,0,0.4,0.2,0.4
	c0.1,0,0.2-0.1,0.3-0.3c0-0.2,0.2-0.5,0.4-0.8c0.4-0.5,0.9-0.6,2.3-0.7l3.5-0.1V56.7z M58.7,56.7c0,2.2,0,4-0.1,5
	c-0.1,0.7-0.2,1.2-0.7,1.3c-0.2,0-0.5,0.1-0.8,0.1c-0.3,0-0.4,0.1-0.4,0.2c0,0.2,0.2,0.2,0.5,0.2c0.5,0,1.1,0,1.6,0
	c0.6,0,1.1,0,1.3,0c0.7,0,1.4,0,2.5,0.1c1,0,2.3,0.1,4.1,0.1c0.9,0,1.1,0,1.3-0.6c0.1-0.5,0.3-2.1,0.3-2.6c0-0.2,0-0.4-0.2-0.4
	c-0.2,0-0.2,0.1-0.3,0.4c-0.2,1-0.4,1.5-1.1,1.7c-0.6,0.3-1.6,0.3-2.2,0.3c-2.4,0-2.8-0.4-2.8-2c0-0.7,0-2.9,0-3.7v-1.9
	c0-0.1,0-0.2,0.1-0.2c0.6,0,2.9,0,3.4,0.1c0.9,0.1,1.2,0.4,1.3,0.9c0.1,0.3,0.1,0.6,0.1,0.8c0,0.1,0,0.2,0.2,0.2
	c0.2,0,0.2-0.3,0.2-0.4c0-0.2,0.1-1.1,0.1-1.6c0.1-1.2,0.2-1.6,0.2-1.7c0-0.1-0.1-0.2-0.2-0.2c-0.1,0-0.2,0.1-0.4,0.3
	c-0.2,0.2-0.6,0.3-1.1,0.4c-0.5,0-3.3,0-3.8,0c-0.1,0-0.2-0.1-0.2-0.3v-6c0-0.2,0-0.2,0.2-0.2c0.5,0,2.9,0,3.4,0.1
	c1.2,0.1,1.4,0.4,1.6,0.8c0.1,0.3,0.1,0.7,0.1,0.8c0,0.2,0,0.3,0.2,0.3c0.2,0,0.2-0.1,0.2-0.3c0-0.3,0.1-1.3,0.1-1.6
	c0.1-1.1,0.2-1.4,0.2-1.5c0-0.1,0-0.2-0.1-0.2c-0.1,0-0.3,0.1-0.4,0.1c-0.2,0-0.6,0.1-1,0.1c-0.4,0-5.1,0-5.9,0c-0.3,0-0.9,0-1.5,0
	c-0.6,0-1.3,0-1.9,0c-0.4,0-0.5,0-0.5,0.2c0,0.2,0.1,0.2,0.4,0.2c0.3,0,0.7,0,0.9,0.1c0.8,0.2,1,0.5,1,1.3c0,0.8,0,1.4,0,5V56.7z
	 M42.5,52.6c0-3.6,0-4.2,0-5c0-0.8,0.2-1.2,0.9-1.3c0.3,0,0.4-0.1,0.7-0.1c0.2,0,0.3,0,0.3-0.2c0-0.2-0.2-0.2-0.5-0.2
	c-0.8,0-2.3,0.1-2.9,0.1c-0.6,0-2.1-0.1-3.3-0.1c-0.4,0-0.5,0-0.5,0.2c0,0.2,0.1,0.2,0.4,0.2c0.3,0,0.7,0,0.9,0.1
	c0.8,0.2,1,0.5,1,1.3c0,0.8,0,1.4,0,5v4.2c0,2.2,0,4-0.1,5c-0.1,0.7-0.2,1.2-0.7,1.3c-0.2,0-0.5,0.1-0.8,0.1c-0.3,0-0.4,0.1-0.4,0.2
	c0,0.2,0.2,0.2,0.5,0.2c0.9,0,2.4-0.1,3-0.1c0.6,0,2.1,0.1,3.4,0.1c0.3,0,0.4-0.1,0.4-0.2c0-0.1-0.1-0.2-0.3-0.2
	c-0.3,0-0.8,0-1.2-0.1c-0.6-0.1-0.8-0.6-0.8-1.3c-0.1-1-0.1-2.9-0.1-5v-2.1h0.1l0.3,0.4c0.5,0.7,5.1,6.1,6.2,7.1
	c1,0.9,1.7,1.4,2.9,1.5c0.5,0,0.9,0,1.6,0h2.1c0.4,0,0.6-0.1,0.6-0.2c0-0.1-0.1-0.2-0.3-0.2c-0.3,0-0.8-0.1-1.5-0.4
	c-1.3-0.5-2.3-1.6-3.4-2.5c-0.9-0.9-5.5-5.9-6.4-7c0.8-0.8,4.4-4.4,5.1-5.1c1-1,1.8-1.5,2.5-1.8c0.4-0.2,1-0.3,1.4-0.3
	c0.2,0,0.4,0,0.4-0.2c0-0.2-0.2-0.2-0.4-0.2c-0.7,0-2,0.1-2.8,0.1c-0.6,0-1.9-0.1-2.4-0.1c-0.3,0-0.4,0-0.4,0.2
	c0,0.1,0.1,0.2,0.3,0.2c0.2,0,0.3,0.2,0.3,0.5c0,0.4-0.5,1-1.2,1.8c-0.7,0.8-4.1,4.3-4.9,5.2h-0.1V52.6z M23.5,56.2
	c-0.1,0-0.1-0.1-0.1-0.2l2.2-5.8c0-0.1,0.1-0.2,0.1-0.2c0.1,0,0.1,0.1,0.1,0.2l2.1,5.8c0,0.1,0,0.1-0.1,0.1H23.5z M28.3,57.4
	c0.1,0,0.2,0,0.2,0.2l1.9,5c0.1,0.3,0,0.5-0.2,0.5c-0.2,0-0.3,0.1-0.3,0.2c0,0.2,0.3,0.2,0.7,0.2c1.9,0,3.6,0,4.5,0
	c0.9,0,1.1,0,1.1-0.2c0-0.2-0.1-0.2-0.3-0.2c-0.3,0-0.6,0-1-0.1c-0.5-0.1-1.2-0.5-2.1-2.6c-1.5-3.6-5.3-13.2-5.9-14.5
	c-0.2-0.5-0.4-0.8-0.6-0.8c-0.2,0-0.4,0.3-0.7,0.9L19.7,61c-0.5,1.2-0.9,2-2,2.1c-0.2,0-0.5,0-0.7,0c-0.2,0-0.3,0-0.3,0.2
	c0,0.2,0.1,0.2,0.4,0.2c1.2,0,2.5-0.1,2.8-0.1c0.7,0,1.7,0.1,2.5,0.1c0.3,0,0.4,0,0.4-0.2c0-0.1-0.1-0.2-0.4-0.2h-0.4
	c-0.7,0-0.9-0.3-0.9-0.7c0-0.3,0.1-0.8,0.4-1.4l1.3-3.4c0-0.1,0.1-0.2,0.2-0.2H28.3z M9.3,52.6c0-3.6,0-4.2,0-5
	c0-0.8,0.2-1.2,0.9-1.3c0.3,0,0.7-0.1,0.9-0.1c0.3,0,0.4,0,0.4-0.2c0-0.2-0.2-0.2-0.5-0.2c-0.9,0-2.6,0.1-3.2,0.1
	c-0.6,0-2.1-0.1-3.2-0.1c-0.4,0-0.5,0-0.5,0.2c0,0.2,0.1,0.2,0.4,0.2c0.3,0,0.6,0,0.8,0.1c0.8,0.2,1,0.5,1,1.3c0,0.8,0,1.4,0,5v4.2
	c0,2.2,0,4-0.1,5C6.1,62.4,6,63,5.5,63.1c-0.2,0-0.5,0.1-0.8,0.1c-0.3,0-0.4,0.1-0.4,0.2c0,0.2,0.2,0.2,0.5,0.2c0.5,0,1.1,0,1.6,0
	c0.6,0,1.1,0,1.3,0c1,0,1.8,0,2.9,0.1c1.1,0,2.3,0.1,4,0.1c1.2,0,1.3-0.1,1.5-0.6c0.2-0.7,0.4-2.5,0.4-2.7c0-0.3,0-0.4-0.2-0.4
	c-0.2,0-0.2,0.1-0.3,0.4c0,0.4-0.3,1.1-0.6,1.4c-0.6,0.6-1.5,0.7-2.8,0.7c-1.8,0-2.5-0.2-2.9-0.5c-0.5-0.4-0.5-2.1-0.5-5.1V52.6z"/>
<path class="st1" d="M129,72c0-2,0-2.4,0-2.8c0-0.5,0.1-0.7,0.5-0.7c0.2,0,0.4,0,0.5,0c0.2,0,0.2,0,0.2-0.1c0-0.1-0.1-0.1-0.3-0.1
	c-0.5,0-1.5,0-1.8,0c-0.4,0-1.2,0-1.8,0c-0.2,0-0.3,0-0.3,0.1c0,0.1,0.1,0.1,0.2,0.1c0.2,0,0.3,0,0.4,0c0.4,0.1,0.5,0.3,0.6,0.7
	c0,0.4,0,0.8,0,2.8v2.3c0,1.2,0,2.2-0.1,2.8c-0.1,0.4-0.1,0.7-0.4,0.7c-0.1,0-0.3,0.1-0.5,0.1c-0.2,0-0.2,0-0.2,0.1
	c0,0.1,0.1,0.1,0.3,0.1c0.3,0,0.6,0,0.9,0c0.3,0,0.6,0,0.7,0c0.5,0,1,0,1.6,0c0.6,0,1.3,0,2.2,0c0.7,0,0.7-0.1,0.8-0.4
	c0.1-0.4,0.2-1.4,0.2-1.5c0-0.2,0-0.2-0.1-0.2c-0.1,0-0.1,0.1-0.1,0.2c0,0.2-0.2,0.6-0.3,0.8c-0.3,0.4-0.8,0.4-1.5,0.4
	c-1,0-1.4-0.1-1.6-0.3c-0.3-0.2-0.3-1.1-0.3-2.8V72z M112.4,74C112.3,74,112.3,74,112.4,74l1.2-3.3c0-0.1,0-0.1,0.1-0.1
	c0,0,0.1,0.1,0.1,0.1l1.2,3.2c0,0,0,0.1-0.1,0.1H112.4z M115,74.7c0.1,0,0.1,0,0.1,0.1l1,2.8c0.1,0.2,0,0.3-0.1,0.3
	c-0.1,0-0.2,0-0.2,0.1c0,0.1,0.2,0.1,0.4,0.1c1,0,2,0,2.5,0c0.5,0,0.6,0,0.6-0.1c0-0.1-0.1-0.1-0.2-0.1c-0.2,0-0.4,0-0.6-0.1
	c-0.3-0.1-0.7-0.3-1.2-1.4c-0.8-2-2.9-7.3-3.3-8.1c-0.1-0.3-0.2-0.4-0.3-0.4c-0.1,0-0.2,0.1-0.4,0.5l-3.3,8.2
	c-0.3,0.7-0.5,1.1-1.1,1.2c-0.1,0-0.3,0-0.4,0c-0.1,0-0.2,0-0.2,0.1c0,0.1,0.1,0.1,0.2,0.1c0.7,0,1.4,0,1.5,0c0.4,0,1,0,1.4,0
	c0.1,0,0.2,0,0.2-0.1c0-0.1,0-0.1-0.2-0.1h-0.2c-0.4,0-0.5-0.2-0.5-0.4c0-0.2,0.1-0.5,0.2-0.8l0.7-1.9c0-0.1,0.1-0.1,0.1-0.1H115z
	 M98.2,74.3c0,1.2,0,2.2-0.1,2.8c0,0.4-0.1,0.7-0.4,0.7c-0.1,0-0.3,0.1-0.5,0.1c-0.2,0-0.2,0-0.2,0.1c0,0.1,0.1,0.1,0.3,0.1
	c0.5,0,1.4,0,1.7,0c0.4,0,1.2,0,2.1,0c0.1,0,0.2,0,0.2-0.1c0-0.1-0.1-0.1-0.2-0.1c-0.2,0-0.5,0-0.7-0.1c-0.4-0.1-0.5-0.3-0.5-0.7
	c-0.1-0.6-0.1-1.6-0.1-2.8v-5.4l1.7,0c1.2,0,1.5,0.4,1.5,0.7l0,0.1c0,0.2,0,0.3,0.1,0.3c0.1,0,0.1-0.1,0.1-0.2c0-0.3,0-1.2,0-1.5
	c0-0.2,0-0.3-0.1-0.3c-0.1,0-0.2,0-0.4,0.1c-0.2,0-0.5,0.1-0.9,0.1h-5.2c-0.4,0-0.9,0-1.3-0.1c-0.3,0-0.5-0.2-0.6-0.2
	c-0.1,0-0.1,0.1-0.2,0.2c0,0.1-0.3,1.3-0.3,1.5c0,0.1,0,0.2,0.1,0.2c0.1,0,0.1-0.1,0.1-0.2c0-0.1,0.1-0.3,0.2-0.5
	c0.2-0.3,0.5-0.4,1.3-0.4l2-0.1V74.3z M78.1,70.8L78.1,70.8c0.3,0.2,1.7,1.9,3.2,3.3c1.4,1.4,3,3.1,3.9,3.9c0.1,0.1,0.3,0.3,0.4,0.3
	c0.1,0,0.2-0.1,0.2-0.4l0.1-8.3c0-0.7,0.1-1,0.5-1.1c0.2,0,0.3,0,0.4,0c0.2,0,0.2,0,0.2-0.1c0-0.1-0.1-0.1-0.3-0.1
	c-0.6,0-1.1,0-1.3,0c-0.3,0-0.9,0-1.6,0c-0.2,0-0.3,0-0.3,0.1c0,0.1,0.1,0.1,0.2,0.1c0.2,0,0.5,0,0.7,0.1c0.3,0.1,0.4,0.4,0.4,1.2
	l0.1,5.9h-0.1c-0.2-0.2-2-2.1-2.9-3c-1.9-1.9-3.9-4-4.1-4.2c-0.2-0.2-0.3-0.4-0.5-0.4c-0.1,0-0.2,0.2-0.2,0.4l-0.1,7.8
	c0,1.1-0.1,1.5-0.4,1.6c-0.2,0.1-0.4,0.1-0.6,0.1c-0.1,0-0.2,0-0.2,0.1c0,0.1,0.1,0.1,0.3,0.1c0.7,0,1.3,0,1.4,0c0.2,0,0.8,0,1.6,0
	c0.2,0,0.3,0,0.3-0.1c0-0.1-0.1-0.1-0.2-0.1c-0.2,0-0.5,0-0.7-0.1c-0.3-0.1-0.4-0.4-0.5-1.5L78.1,70.8z M62.6,74.3
	c0,1.2,0,2.2-0.1,2.8c-0.1,0.4-0.1,0.7-0.4,0.7c-0.1,0-0.3,0.1-0.5,0.1c-0.2,0-0.2,0-0.2,0.1c0,0.1,0.1,0.1,0.3,0.1
	c0.3,0,0.6,0,0.9,0c0.3,0,0.6,0,0.7,0c0.4,0,0.8,0,1.4,0c0.6,0,1.3,0,2.3,0c0.5,0,0.6,0,0.7-0.3c0.1-0.3,0.2-1.2,0.2-1.5
	c0-0.1,0-0.2-0.1-0.2c-0.1,0-0.1,0.1-0.1,0.2c-0.1,0.5-0.2,0.8-0.6,1c-0.3,0.2-0.9,0.2-1.2,0.2c-1.3,0-1.5-0.2-1.6-1.1
	c0-0.4,0-1.6,0-2v-1c0-0.1,0-0.1,0.1-0.1c0.3,0,1.6,0,1.9,0c0.5,0.1,0.7,0.2,0.7,0.5c0,0.2,0,0.3,0.1,0.5c0,0.1,0,0.1,0.1,0.1
	c0.1,0,0.1-0.1,0.1-0.2c0-0.1,0-0.6,0.1-0.9c0.1-0.7,0.1-0.9,0.1-1c0-0.1,0-0.1-0.1-0.1c-0.1,0-0.1,0.1-0.2,0.2
	c-0.1,0.1-0.3,0.2-0.6,0.2c-0.3,0-1.8,0-2.1,0c-0.1,0-0.1-0.1-0.1-0.1V69c0-0.1,0-0.1,0.1-0.1c0.3,0,1.6,0,1.9,0.1
	c0.7,0.1,0.8,0.2,0.9,0.5c0.1,0.2,0.1,0.4,0.1,0.5c0,0.1,0,0.2,0.1,0.2c0.1,0,0.1-0.1,0.1-0.1c0-0.2,0.1-0.7,0.1-0.9
	c0-0.6,0.1-0.8,0.1-0.9c0-0.1,0-0.1-0.1-0.1c-0.1,0-0.1,0-0.2,0.1c-0.1,0-0.3,0.1-0.6,0.1c-0.2,0-2.9,0-3.3,0c-0.2,0-0.5,0-0.8,0
	c-0.3,0-0.7,0-1.1,0c-0.2,0-0.3,0-0.3,0.1c0,0.1,0.1,0.1,0.2,0.1c0.2,0,0.4,0,0.5,0c0.4,0.1,0.5,0.3,0.6,0.7c0,0.4,0,0.8,0,2.8V74.3
	z M45.5,71.8c0-1,0-2.2,0-2.6c0-0.1,0-0.2,0.2-0.3c0.1-0.1,0.6-0.1,0.9-0.1c1,0,2.5,0.2,3.7,1.3c0.6,0.5,1.3,1.6,1.3,3.3
	c0,1.4-0.3,2.5-1.1,3.3c-0.8,0.7-1.7,0.9-3,0.9c-1,0-1.5-0.3-1.7-0.5c-0.1-0.1-0.1-0.7-0.1-1c0-0.2,0-1.3,0-2.6V71.8z M43.8,74.3
	c0,1.2,0,2.2-0.1,2.8c-0.1,0.4-0.1,0.7-0.4,0.7c-0.1,0-0.3,0.1-0.5,0.1c-0.2,0-0.2,0-0.2,0.1c0,0.1,0.1,0.1,0.3,0.1
	c0.3,0,0.6,0,0.9,0c0.3,0,0.6,0,0.7,0c0.3,0,0.8,0,1.3,0.1c0.5,0,1,0.1,1.5,0.1c2.4,0,3.8-0.9,4.4-1.5c0.7-0.7,1.4-2,1.4-3.7
	c0-1.6-0.6-2.6-1.3-3.3c-1.4-1.5-3.6-1.5-5.3-1.5c-0.8,0-1.6,0-2,0c-0.4,0-1.2,0-1.9,0c-0.2,0-0.3,0-0.3,0.1c0,0.1,0.1,0.1,0.2,0.1
	c0.2,0,0.4,0,0.5,0c0.4,0.1,0.5,0.3,0.6,0.7c0,0.4,0,0.8,0,2.8V74.3z"/>
<path class="st2" d="M126.6,25.7l2.3-0.7c0,0,3.1,1.3,4.4,1.7c1.3,0.4,2.2,0.4,3.2,0.7c1.1,0.3,1.1-0.5,2,1l0.9,1.5
	c0,0-3.2-0.7-4.2-1.1c-1.1-0.4-0.2-0.6-0.6-0.5c-0.4,0.1-5.3-1.3-5.3-1.3l-3.3-1L126.6,25.7z"/>
<path class="st3" d="M64.6,10.4C77.7,10.5,93,1.6,90.8,3.2c-7.1,5.2-3.4,4.6,1.5,3c15-4.9,1,3.1,1,3.1c3.5-0.1,12.7-2.4,26.9-6.6
	c0.6-0.2-11.2,7.2-5.4,7.2c1.9,0,25.6-2.5,10,0.5c-1.4,0.3,15.2-0.4,13.9,0.1C135.9,11.5,92.3,14,109,17c5.2,0.9,42.6-4.1,18.8,0.8
	c-17.8,3.6-33.4,7.5-49.5,10c-5.3-0.3-14.9-1.6-16.3-1.6c-1.7-0.1-7.5,0.9-8,1.1c-0.3,0.1,1.5-1,2.2-1.4c5-1.3,9-2.4,7.8-2.8
	c-4.3-1.4-11.7,0.2-16.5-0.1c-5.6-0.4,15.9-3.7,18.6-4.7c6.1-2.3-8.2-1.5-9.4-1.5c-3.6,0,14-3.5,16.3-4.3
	C80.1,9.9,62.1,12.7,64.6,10.4"/>
<path class="st4" d="M109.2,14.3l1.4,0.4l0.5,0.1l0.1,0l0,0l0,0c1.1,0.8,2.7,2.5,5,3l7.9,1.8l11.5,6.8l-2.7,0.5l3,0.7l-1.5,0.3
	l5.4,1.9c0,0,6.2,0.6,5.4,0.6c-0.2,0-2.5,1-6.1,1.3c-7.6,0.6-19.6,0.9-19.6,0.9l5,1.3c0,0-8-0.4-17.5-0.9c-26.6-1.3-33.6-0.1-56-0.1
	c-8.5,0-14.5,0.4-17.9,0.6c-3.9,0.2-4.8,0.2-3.5-0.1c1.5-0.4,6.9-1.8,9.8-3.1c1.6-0.7,1.7-1.3,1.4-1.6c-0.7-0.6-4.5-0.2-5.3-0.1
	l4.3-1.1c1.5-0.2,2.9-0.4,4.4-0.5c1-0.1,2-0.2,3-0.2l-1.5-1.1l-3.5,0.7c0-0.1,0.2-0.3,0.6-0.7c0.9-0.7,2.1-0.8,3.2-1
	c4.5-0.9,14.3-2.1,16.4-2.3l7-1.8l6.8-4.1c1.2-0.2,2.3-0.3,3.5-0.6c0.6-0.2,1.2-0.2,1.8-0.5c0.1-0.1,0.2-0.1,0.3-0.2
	c0.4-0.3,5.3-3.2,5.3-3.1c0.2-0.1,0.4-0.2,0.5-0.3c0.4-0.2,0.4-0.2,0.9-0.2l1.6,0.1l1.1-0.4l4.1-1.9c0.7-0.3,0.6-0.3,1.3,0.1
	l0.4,0.3l1.5,1.1l0.1,0.1l0.8-0.1l2.3,2.2l2.3,0.2l0.8-0.4C106.4,13.3,107.5,13.5,109.2,14.3"/>
<path class="st0" d="M100.8,26c0,0-0.6-1.8-0.8-3.2c-0.3-1.4-0.2-3.2-0.2-3.2l3.4,6.8L100.8,26z"/>
<path class="st5" d="M129.8,24.2C129.8,24.2,129.8,24.2,129.8,24.2C129.8,24.2,129.8,24.2,129.8,24.2 M129.7,24.2
	C129.7,24.2,129.8,24.2,129.7,24.2C129.8,24.2,129.7,24.2,129.7,24.2z M129.7,24.1C129.7,24.2,129.7,24.2,129.7,24.1
	C129.7,24.2,129.7,24.2,129.7,24.1z M129.6,24.1C129.7,24.1,129.7,24.1,129.6,24.1C129.7,24.1,129.7,24.1,129.6,24.1z M129.6,24.1
	C129.6,24.1,129.6,24.1,129.6,24.1C129.6,24.1,129.6,24.1,129.6,24.1z M129.6,24.1C129.6,24.1,129.6,24.1,129.6,24.1
	C129.6,24.1,129.6,24.1,129.6,24.1z M129.5,24.1C129.5,24.1,129.6,24.1,129.5,24.1C129.6,24.1,129.5,24.1,129.5,24.1z M129.5,24.1
	C129.5,24.1,129.5,24.1,129.5,24.1C129.5,24.1,129.5,24.1,129.5,24.1z M129.4,24.2C129.5,24.2,129.5,24.1,129.4,24.2
	C129.5,24.1,129.5,24.2,129.4,24.2z M129.4,24.2C129.4,24.2,129.4,24.2,129.4,24.2C129.4,24.2,129.4,24.2,129.4,24.2z M129.4,24.2
	C129.4,24.2,129.4,24.2,129.4,24.2C129.4,24.2,129.4,24.2,129.4,24.2z M129.4,24.2C129.4,24.2,129.4,24.2,129.4,24.2
	C129.4,24.2,129.4,24.2,129.4,24.2z M129.4,24.3C129.4,24.3,129.4,24.2,129.4,24.3C129.4,24.2,129.4,24.3,129.4,24.3z M129.3,24.4
	c0,0,0-0.1,0-0.1C129.3,24.3,129.3,24.4,129.3,24.4z M129.3,24.4C129.3,24.4,129.3,24.4,129.3,24.4
	C129.3,24.4,129.3,24.4,129.3,24.4z M129.3,25.4c0-0.3,0-0.7,0.1-0.9C129.3,24.7,129.3,25.1,129.3,25.4z M125.4,25
	C125.4,24.9,125.3,24.9,125.4,25C125.3,24.9,125.4,24.9,125.4,25z M125.9,26c0.1-0.2-0.1-0.6-0.5-1C125.8,25.4,126,25.8,125.9,26z
	 M42,26.3l5.3-1l1.6-0.5l1.2-0.1l0.8-0.2l13.1-1.4l4.4-1.1l3.7-1.9l4.1-2.6L73.2,21l2.6-0.6c-1.5,3.2-4.9,5.6-10.7,5.2l6,0.9
	c1.3-0.1,2.6-0.1,3.6-0.1c4.9,0,9-1.4,13.8-1.4c2.3,0,6.3,0.7,10.4,1.2l0,0c1.5,0.2,3,0.4,4.4,0.5c2.9-0.3,5.6-0.9,7.2-0.9
	c3.3,0-1.3-3.2,0.5-2.3l0,0l0.1,0c0.1,0,0.9,0.8,1.9,1.6c0.2,0.2,0.4,0.3,0.6,0.5c1.3,1,2.6,1.8,2.9,1.3c0.9-2.1-3.1-4.1-1.1-4.1
	c0.4,0,0.9,0.2,1.4,0.4c0.5,0.2,1,0.5,1.4,0.7c0.2,0.1,0.3,0.1,0.5,0.2c2.6,0.9,4.5,1.8,6.5,1.9c0.4,0,0.6,0,0.7-0.2
	c-0.5-0.3,0-0.2-2.1-1.1c-0.2-0.9-1.4-1.6-3-2.3c-2.2,0-5.1-0.7-7.1-1.6c-1.5-0.7-1.4-1.3-0.7,0.6c0.2,0.5,0.8,1.3,0.1,0.6
	c-0.5-0.5-1.2-0.9-1.5-1.5l-1.1-2.4c-0.3-0.6-0.6-0.8-0.8-0.9c-0.3-0.1-0.4,0.1-0.4,0.4c0,0.2,0,1.1,0.2,1.1c0.2,0,2.9,3.8,3.3,4.4
	c0.3,0.5,1.8,2.2,1.8,2.2c-0.5,0-2.2-2.2-2.5-2.6c-1.1-1.3-2.1-1.7-3.6-2.5c-0.1,0-0.1-0.1-0.1-0.1c-0.1,0-0.5-0.3-0.5-0.4
	c-0.1-0.4-0.6-0.5-1-0.7c-0.6-0.3-0.7-0.4-0.9-1c-0.2-0.4-0.3-0.8-0.5-1.2c-0.1-0.2-0.3-0.3-0.4-0.3c-0.3,0-0.4,0.2-0.3,0.5
	c0.1,0.8,0.7,1.8,1.1,2.6c0,0.1,0.1,0.2,0.1,0.2c0.6,0.7,1.4,0.7,2.1,1.4c0.2,0.2,1.7,1.4,1.3,1.2c-0.9-0.5-1.4-0.5-2.2-1.2
	c-1.1-1.1-1.2,0.7-1.8-0.1c-0.6-0.7-0.2-1-0.8-0.2c-0.4,0.5-0.8,0.4-1.1,0.2c-0.2-0.2-0.3-0.3-0.5-0.4c-0.5-0.2-1-0.3-1.5,0.6
	c-0.4,0.7-0.8,1.4-1.3,2c-1.6,2.4-0.8-0.3-0.8-2.6c0-2-1,1.2-1.6-0.2c-0.2-0.4,0.1-1.5-0.4-1.5c-0.7-0.1-2,1.8-2.4,2.4
	c-0.7,0.9-1.9,1.4-2.8,2.3c0-0.4,0.3-0.6,0.4-1.2c0.2-1.2,1-2.7,1.8-3.6c0.4-0.4,0.8-2,1.3-2.6l-0.1,0l1.8-3.1l1.1-1.3l0.9,0
	l0.5,0.4l0.5,0.4l-0.4,1.2l1.1-0.3l2.8,0.6l0.3-0.1l0.5-0.2l0.1,0c0.9,0.2,1.5,0.2,2.5,0.4l0.8,0.3l0,0l1.3,0.6l2,0.5l0.1,0.1
	l-0.1-0.1c0,0,6.9,4.2,9.1,5.6c1,0.6,1.3,1.2,4.7,3.3c-0.6-0.6-1.4-1.1-1.9-1.4c0,0-0.1,0-0.1,0c0,0,0,0,0,0c0,0,0,0-0.1,0
	c-0.4-0.1,2.1,0.7,3.3,1.3l0,0c0.3,0.1,0.5,0.3,0.6,0.4c0.5,0.4,0.8,0.6,1.1,0.8c0.7,0.3,0.9,0.1,1-0.4l-2-0.5l-8.4-5.4l5.4,0.8
	l7.3,4.9c2.3,1,6.3,2.1,6.3,2.1l0,0c0,0,0.1,0,0.1,0c0.1,0.5,0.8,0.9,1.6,1.3c0.9,0.4,1.3,0.8,1.9,1.1c0.1,0,0.1,0.1,0.2,0.1
	c-0.9,0-1.7,0-2.6,0c-6.1,0.1-13.2,0.6-18.6-1c-3.9-1.1-9.6-1.5-14.9-1.7c-0.2,0-0.4,0-0.6,0l-0.1,0l-0.1,0l-0.1,0
	c-1.4,0-2.8,0-4.3-0.1c-0.1,0-0.1,0-0.2,0h0c-0.1,0-0.1,0-0.2,0c-0.1,0-0.2,0-0.3,0h0l-0.2,0L98.2,27c-4.4-0.3-8.6-0.9-11.6-0.8
	c-5.4,0.1-8.9,0.9-7.4,0.9c0.9,0.1,2,0.1,3.1,0.3l0,0c0.8,0.1,1.6,0.2,2.3,0.4l0.1,0l0,0l0.2,0l0,0l0,0l0.1,0l0,0l0,0l0,0l0.1,0l0,0
	l0.1,0l0.1,0l0,0l0,0l0.2,0l0,0l0.1,0l0,0l0.1,0l0.1,0l0.1,0l0,0l0.1,0l0.1,0l0,0l0.1,0l0.1,0l0,0l0.1,0l0,0l0,0l0.1,0l0,0l0,0l0,0
	l0.1,0l0,0l0,0l0,0c0.1,0,0.1,0,0.2,0.1c3.5,1.1-1,0.5-2.6,0.5c-3,0-8.6-0.8-12.5-1.3l-0.1,0l-0.1,0l0,0l0,0l-0.1,0l-0.1,0l0,0
	l-0.1,0l-0.1,0l-0.1,0l0,0l-0.1,0l-0.6-0.1l0,0l-0.4,0l-0.1,0l-0.2,0l-0.1,0l0,0l0,0l-0.1,0l-0.1,0l0,0l-0.1,0l-0.1,0l0,0l0,0
	c-0.7-0.1-1.4-0.1-2.1-0.2l0,0c-2.4-0.2-4.7-0.3-7.1-0.4c-3.8-0.2-7.9-0.2-11.7-0.1c-2,0.1-3.9,0.2-5.8,0.4l-0.1,0l0,0l0,0
	c-0.6,0.1-1.1,0.1-1.8,0.2c-1.4,0.3-3.1,0.7-4.3,1L42,26.3z M75.3,22l3.3-3l-2.8,1c0,0,1.9-2.2,3.3-2.8c1-0.4,1.7-0.3,2.6-0.8l6.6-4
	l1.5,0.3l0.6,0l0,0l0.8-0.4l4.8-2.3l0.5,0.3l-0.4,3.9l-1.2,0.5c-1.9,4.3-1-1.3-4.5,3.6l0.6-1.9c-0.3-0.1-0.6-0.2-0.7-0.4l-1.2,0.8
	l0,0l-4.5,3l1.7-2l-1.8,0.5l2.4-2.4c-1.4,0.2-3.1,0.3-3.4,0.6c-0.7,0.8-2.2,3.1-2.5,3.5c-0.2,0.3,0.3-0.8,0.3-1.5
	c0-0.4,0-0.7-0.1-0.9c-1.1,1.2-3.3,3.3-3.6,3.4C77,21.4,75.3,22,75.3,22z"/>
<path class="st6" d="M58.7,26.6c0.1,0,0.2,0,0.2,0c-0.1,0-0.1,0-0.1-0.1c0.1,0,0.2,0,0.3-0.1L58.7,26.6z"/>
<path class="st7" d="M127.4,24.3L127.4,24.3c-0.1-0.1-0.1-0.2-0.1-0.3l-0.1-0.1l0.2-0.2c0.1-0.1,0.1-0.1,0.2-0.2
	c0.2-0.1,0.2,0.2,0.2,0c0-0.1,0.1-0.3,0.1-0.4c0.1-0.1,0.2,0.1,0.2,0.1l0,0l0,0.1l0,0.1l0,0c-0.1,0.2-0.2,0-0.3,0.1
	c-0.1,0.1-0.3,0.3-0.3,0.5C127.6,24.1,127.5,24.1,127.4,24.3L127.4,24.3z M130.5,24.8L130.5,24.8c-0.1-0.2-0.1-0.4,0.1-0.4
	c0.1,0,0.2,0.1,0.3,0.2l0,0l0,0C130.8,24.7,130.6,24.6,130.5,24.8L130.5,24.8z M131.2,24.9l0-0.1c0-0.1,0-0.1,0-0.2
	c0-0.1,0.1,0,0.2,0c0,0,0,0,0.1,0l0,0l-0.1,0.1C131.3,24.8,131.2,24.8,131.2,24.9L131.2,24.9z M130.7,25.1L130.7,25.1l-0.1-0.2
	c0,0,0.1,0,0.1,0.1L130.7,25.1z M129.7,25.5l-0.2-0.4c-0.1-0.2-0.4-0.4-0.3-0.6l0,0l0,0c0,0,0.1,0.1,0.1,0.1c0,0.1,0.1,0.1,0.2,0.2
	l0.1,0.1l0,0c0,0,0,0.1,0.1,0.1c0.1,0.1,0.2,0.1,0.3,0.1C130,25.2,129.9,25.3,129.7,25.5L129.7,25.5z M130.7,25.5v-0.1l0,0
	L130.7,25.5L130.7,25.5L130.7,25.5z M130.7,25.7L130.7,25.7c0,0,0-0.1,0-0.1h0.1L130.7,25.7z M130.8,26.2L130.8,26.2
	c-0.1,0-0.1-0.1-0.1-0.1l0,0l0.1,0c0,0,0.1,0,0.2,0C130.9,26.1,130.8,26.1,130.8,26.2L130.8,26.2z M127.2,26.3L127.2,26.3
	c-0.1-0.1-0.2-0.1-0.2-0.2c0,0,0.3,0,0.3,0c-0.1-0.1-0.1-0.1-0.2-0.3c0-0.1,0-0.1,0-0.2c0,0-0.2,0-0.1-0.2h0.1c0,0,0-0.1,0-0.1
	c0-0.1,0.3,0.1,0.3,0c0-0.2-0.3-0.2-0.4-0.4c0-0.1,0-0.1,0-0.2c-0.1-0.1-0.1,0-0.2-0.1c0-0.2-0.1-0.4,0.1-0.4c0.1,0,0.2,0.2,0.3,0.2
	l0.1,0l0,0c0,0,0,0.3,0,0.3c0.1,0,0.1-0.1,0.2-0.2c0.1,0,0.1-0.1,0.1-0.1l0.1-0.1l0,0c0,0.2,0.1,0.1,0.1,0.4c0,0.2-0.3,0.2-0.2,0.3
	c0,0.1,0,0.2,0,0.2c0,0.1,0.1,0,0.2,0c0.2,0.3-0.2,0.3-0.2,0.3c-0.1,0.1,0,0.2-0.1,0.3C127.3,26.1,127.3,26.2,127.2,26.3L127.2,26.3
	z M127.5,26.8l-0.1-0.1l-0.1-0.1l0.1,0c0.1,0,0.3,0,0.3,0C127.6,26.6,127.6,26.6,127.5,26.8L127.5,26.8z M131.2,26.8l-0.1-0.2h0
	c0.1,0,0.2,0,0.3,0.1c0,0-0.1,0-0.1,0L131.2,26.8z M116.6,27.1L116.6,27.1C116.6,27.1,116.6,27.1,116.6,27.1
	C116.6,27,116.7,27.1,116.6,27.1L116.6,27.1L116.6,27.1C116.7,27.1,116.6,27.1,116.6,27.1L116.6,27.1z M116.7,27.3L116.7,27.3
	C116.7,27.2,116.7,27.2,116.7,27.3L116.7,27.3L116.7,27.3c0.1-0.1,0.2-0.1,0.2,0C116.8,27.3,116.8,27.3,116.7,27.3L116.7,27.3z
	 M116.8,27.5C116.8,27.5,116.8,27.5,116.8,27.5L116.8,27.5l-0.1,0c0,0,0,0,0-0.1c0,0,0,0,0,0v0l0,0
	C116.8,27.4,116.9,27.4,116.8,27.5z M117.4,28.3C117.5,28.2,117.5,28.2,117.4,28.3c0.1,0,0.1,0,0.2,0l0,0l0,0c0,0-0.1,0-0.1,0
	L117.4,28.3L117.4,28.3z M118.8,28.1C118.7,28.1,118.7,28.1,118.8,28.1c-0.1,0-0.1,0-0.1,0c0,0,0,0-0.1,0l0,0l0,0c0,0,0,0,0,0
	c-0.1-0.1-0.1,0-0.2-0.1c0-0.1,0.1-0.2,0.1-0.3c0,0,0,0,0-0.1l0,0l0,0c0,0.2,0.2,0.4,0.2,0c0,0.1,0,0.1,0.1,0.2c0,0,0,0.1,0,0.1
	C118.7,27.9,118.7,28,118.8,28.1C118.8,28.1,118.8,28.1,118.8,28.1z M118.9,28.2C118.9,28.2,118.9,28.1,118.9,28.2
	c0-0.1,0-0.1,0-0.1l0.1,0l0,0L118.9,28.2z M116.8,27.7L116.8,27.7L116.8,27.7c0,0,0-0.1,0-0.1l0,0l0,0
	C116.9,27.6,116.9,27.7,116.8,27.7C116.8,27.7,116.8,27.7,116.8,27.7L116.8,27.7z M116.3,27.7v0.1c0,0,0,0,0,0c0,0,0,0.1,0,0.1
	c0,0,0,0,0,0l0,0l0,0c0,0,0,0-0.1-0.1c0,0,0,0,0,0c0,0-0.1,0-0.1-0.1h0.1c0,0,0,0,0-0.1c0,0,0,0,0,0c0,0-0.1,0,0,0h0c0,0,0,0,0,0v0
	l0,0C116.2,27.7,116.3,27.7,116.3,27.7z M116.3,27.5L116.3,27.5c0,0.1-0.1,0.1-0.1,0.1l0,0l0,0c0,0,0,0,0,0c0,0,0,0,0,0c0,0,0,0,0,0
	c0,0,0,0,0-0.1c0,0,0,0,0,0c0,0,0,0,0.1,0l0,0l0,0c0,0,0,0,0,0c0,0,0,0,0,0L116.3,27.5C116.2,27.5,116.2,27.5,116.3,27.5L116.3,27.5
	L116.3,27.5C116.2,27.5,116.3,27.5,116.3,27.5z M116.3,27.3L116.3,27.3C116.3,27.4,116.2,27.4,116.3,27.3L116.3,27.3
	c-0.1,0.1-0.1,0-0.2,0l0,0l0,0C116.2,27.4,116.2,27.3,116.3,27.3z M133.6,26.8v0.4c-0.1-0.1-0.2-0.3-0.3-0.4c0,0,0-0.1,0-0.2
	c-0.1-0.1-0.4-0.3-0.4-0.6c0-0.1,0.4,0,0.5,0c-0.1-0.2-0.2-0.3-0.3-0.7c0-0.2,0-0.3-0.1-0.4c0,0-0.4,0-0.2-0.4c0,0,0,0,0,0l0,0v0
	c0,0,0,0,0,0c0,0.1,0,0.2,0.1,0.2c0.2,0,0.3-0.1,0.5-0.1c-0.1,0.1-0.1,0.4,0,0.6c0.1,0.1,0.2,0,0.2,0.1c0,0.1,0.1,0.3,0.2,0.2
	c0.2-0.2,0.2-0.3,0-0.6c0-0.1-0.1,0-0.1,0c0-0.2,0-0.3-0.1-0.4c-0.1-0.1-0.2-0.2-0.2-0.3c0-0.1,0-0.2-0.1-0.3l0,0l0,0
	c-0.1-0.3-0.4-0.4-0.5-0.7l0,0l0,0c0.1,0,0.1,0.1,0.1,0.1c0,0.2,0.2,0.3,0.3,0.1c0,0.1,0.1,0.2,0.2,0.2c0,0,0.3,0,0.2-0.1
	c-0.1-0.2-0.3-0.3-0.4-0.3c0,0,0-0.2-0.1-0.3c0,0-0.2,0-0.2,0c0-0.2-0.1-0.2-0.2-0.3h0v0c0,0,0-0.1,0-0.1c-0.1-0.2-0.2,0-0.3-0.3
	c0-0.1,0-0.1,0-0.2l0,0l0.1,0.1c0.1,0,0.4,0.5,0.2,0c0,0,0,0,0,0c0-0.1-0.1-0.1-0.2-0.1c0,0-0.1-0.1-0.1-0.2l-0.1-0.1l0-0.1
	c0-0.2,0-0.3,0.2-0.3c0.3,0,0,0.6,0.3,0.5l0,0l0,0.1c0,0,0,0.1,0.1,0.1c0.1,0,0.1-0.1,0.2-0.1c0,0.1-0.1,0.2-0.1,0.3
	c0,0.1,0.2-0.1,0.2,0c0.1,0.2-0.2,0.4,0.1,0.4c0.1,0,0.1-0.2,0.1-0.3c0-0.1,0.1-0.1,0.1-0.1c0.1-0.1,0-0.5-0.1-0.6h-0.1
	c-0.1,0,0-0.4-0.1-0.5l0,0l0,0c-0.1-0.1-0.2-0.2-0.2-0.3l-0.1-0.1l0.1,0c0.1,0.1,0.3,0.1,0.5,0.2c0.1,0.1,0-0.2,0-0.2
	c-0.1-0.2-0.3,0-0.4-0.1c-0.1-0.1-0.2-0.1-0.3-0.2c0,0-0.1,0-0.1,0l0,0l0,0c-0.1-0.1-0.2-0.3-0.2-0.4c0-0.1,0-0.2,0-0.3l0,0l0,0
	c0.1,0.1,0.2-0.1,0.2-0.1c0.1-0.1,0.1,0.9,0.3,0.3c0,0,0.3,0.7,0.3,0.2c0-0.1,0-0.2,0-0.3c-0.1-0.1-0.2-0.1-0.2-0.1
	c-0.1-0.1,0-0.3-0.2-0.4c0,0-0.1,0-0.1,0c-0.1,0-0.1-0.1-0.1-0.2l0,0l0,0c0-0.1,0-0.1-0.1-0.2c-0.2-0.1-0.2-0.2-0.2-0.2l0,0l0,0
	c0,0,0,0,0.1,0c0,0,0.2,0.1,0.2,0.1c0.1-0.1-0.1-0.1-0.1-0.1c0-0.1-0.1-0.2-0.2-0.3l0-0.1c0,0,0.1-0.1,0.1-0.2l0-0.1l0.1,0
	c0,0,0,0.1,0,0.1c0,0,0.1,0,0.2,0c0.1,0-0.1,0.4,0.1,0.4c0.1,0,0.3-0.1,0.4,0c0,0.1,0,0.3,0.1,0.3c0.2,0,0-0.3,0-0.3
	c0,0,0.1,0,0.1-0.1c0-0.3-0.3-0.3-0.3-0.3c0-0.1-0.1-0.2-0.2-0.1c0,0,0-0.2-0.1-0.3c0,0-0.1,0-0.1,0c0,0-0.1,0-0.1,0l0,0l0-0.1
	c0-0.1,0-0.2,0-0.2c0.2,0.1,0.2-0.1,0.2-0.3l0,0l0,0c0,0,0,0,0,0c0,0,0,0.1,0,0.2c0.1,0,0.1-0.1,0.1,0c0,0,0,0.2,0,0.2
	c0,0,0.1-0.1,0.1-0.1c0.1,0,0,0.2,0.1,0.2h0.1c0,0,0.1,0.1,0.1,0.1c0,0,0-0.2-0.1-0.2c-0.1-0.2-0.2-0.4-0.4-0.4
	c0.1-0.1-0.1-0.4-0.2-0.3l-0.1,0l0,0c-0.1-0.1-0.2,0-0.2-0.1c-0.1-0.2-0.1-1.3-0.2-1.5c0-0.1-0.1,0.8-0.1,1.1c0,0.2-0.1,0.3-0.1,0.7
	c0,0.3,0,0.4,0,0.5l0,0l-0.1,0c-0.1,0-0.2,0.1-0.2,0.1c-0.1,0-0.3,0-0.3,0.1c0,0-0.1,0.3-0.1,0.4c0,0.3,0.5-0.2,0.4-0.3
	c0.1,0,0.2,0,0.3-0.1l0,0l0,0c0,0,0,0,0,0.1c0,0.1-0.1,0.3-0.2,0.4l0,0.1l0,0c-0.1,0-0.1-0.1-0.2,0c-0.1,0.1-0.2,0.3,0,0.3
	c-0.1,0-0.2,0-0.2,0.1c-0.1,0.1,0,0.2,0,0.2c0,0-0.2,0.1-0.1,0.2c0.3,0.1,0.4-0.2,0.5-0.4l0.1-0.1l0,0c0.1,0.1,0.3,0.2,0.3,0.3
	c-0.1,0-0.1,0.1-0.2,0.1l0,0l0,0c-0.1,0-0.1,0.1-0.1,0.2h0c-0.1,0-0.3,0.1-0.3,0.2c-0.1,0-0.1,0.1,0,0.2c0.1,0.2-0.3-0.1-0.2,0.2
	c0,0.2,0.2,0.1,0.3,0.3c0.1,0.2,0,0.3,0.1,0c0.1-0.3,0-0.1,0.2-0.2c0,0,0,0,0,0l0,0l0,0c0.1,0.1,0.2,0.1,0.3,0.2c0,0,0,0,0,0l0,0
	l0,0c-0.1,0.1-0.2,0-0.3,0.1c0,0-0.1,0.2-0.1,0.3c0,0,0.1,0,0.1-0.1c0,0,0.1-0.1,0.1-0.1l0.1-0.1l0,0c-0.1,0.1-0.2,0.2-0.3,0.3
	l0,0.1l-0.1,0c-0.1,0-0.2,0-0.3,0c-0.1,0-0.2,0.1-0.3,0.3c0,0.1-0.1,0.1-0.1,0.2c-0.1,0.2,0,0.4,0,0.6c0,0.3,0.2,0.1,0.2-0.1
	c0,0,0-0.4,0.1-0.4c0,0.1,0.1,0.1,0.2,0l0,0l0,0c0,0.1,0,0.2,0,0.3c0,0.1,0,0.2,0,0.3l0,0l0,0.1c0,0,0,0.1,0,0.1
	c0,0.1-0.1,0-0.2-0.1c-0.1,0-0.3,0.2-0.2,0.3c-0.1,0-0.2,0.2-0.1,0.2c0.1,0,0.1-0.1,0.2-0.1c0.1,0,0.2,0,0.1-0.2
	c0,0,0.1,0.1,0.2,0.1c0,0,0.1,0,0.1-0.1l0,0l0,0.1c0,0.1,0,0.3,0.2,0.5l0,0l-0.1,0.1c0,0.1-0.1,0.2-0.1,0.2c0,0.1-0.3-0.2-0.4-0.1
	c-0.1,0.1-0.1,0.2-0.1,0.3c0,0.4,0.2,0.6,0.2,0.9c0.1-0.2,0.2-0.4,0.2-0.7c0,0.1,0,0.3,0.1,0.4c0.1,0,0.1-0.1,0.2-0.2l0-0.2l0,0.1
	c0,0.1,0,0.3,0,0.5l0,0.1l-0.1,0.1c-0.1,0.1-0.2,0.1-0.4,0.2l-0.1,0.1l0-0.1c-0.1-0.1-0.1-0.3-0.2-0.5c-0.1-0.1-0.2-0.1-0.2-0.3
	c0-0.2-0.1-0.4-0.1-0.5c0.2,0,0.1-0.2,0-0.3c-0.1-0.1,0-0.1-0.1-0.2c0,0,0,0-0.1,0.1c0,0.1-0.1,0.1-0.1,0.2c0,0.2-0.1,0.2-0.1,0.3
	c0,0.2-0.1,0.4-0.2,0.6c-0.1,0.2,0.1,0.2,0,0.4c0,0.1-0.1,0.1-0.2,0.1c-0.1,0.1,0,0.1,0,0.2c0,0.1,0.1,0.1,0,0.2
	c0,0-0.1,0.1-0.1,0.1l0,0l0-0.5c0-0.1-0.1-0.1-0.2-0.1c-0.1-0.1-0.1-0.1-0.1-0.2c0,0,0,0,0,0h0l0,0c0-0.2-0.3-0.2-0.4-0.4
	c0-0.1,0.1-0.2,0.1-0.3l0,0l0,0c0,0,0-0.1,0-0.1c0.1,0.1,0,0.6,0.3,0.4c0,0.1,0.2,0.6,0.3,0.4c0.1-0.2,0-0.6-0.1-0.7
	c0,0-0.1,0-0.1-0.1c0-0.1,0.1-0.2,0-0.2c0,0-0.1-0.1-0.2,0c0-0.2-0.1-0.3-0.2-0.3l-0.1,0l0,0c0.1,0,0.3,0,0.2-0.3
	c-0.1-0.2-0.1-0.3-0.2-0.3l0,0l0.1,0c0,0,0.1,0,0.1,0c0,0,0.1,0.4,0.1,0.5c0,0,0.1,0,0.1,0.1c0.1-0.5-0.2-1-0.5-1.2c0,0,0-0.1,0-0.1
	c-0.1-0.1-0.2-0.1-0.3-0.2l0,0l0-0.1c0,0,0-0.1,0-0.1c0-0.1,0.1-0.3,0.1-0.5l0,0l0,0c0,0,0.1,0,0.1,0c0.1,0-0.1,0.1-0.1,0.2
	c0,0.1,0,0.2,0,0.2c0,0.2,0.2,0,0.3-0.1c-0.1,0.4,0.4,0.3,0.3,0.2c0.3-0.3-0.3-0.5-0.4-0.7c0-0.1-0.1-0.2-0.1-0.2l-0.1,0l0,0l0,0
	l0,0c0.1,0,0.3-0.2,0.3-0.1c0,0.1,0.1,0.3,0.2,0.4c0,0,0.1,0,0.1,0c0.1-0.2-0.2-0.6-0.3-0.7c-0.1,0-0.2-0.1-0.3-0.1l-0.1,0l0,0
	c0-0.1-0.1-0.2-0.1-0.2l0,0l0,0c0-0.2,0-0.2,0-0.4c0-0.2-0.1-0.1-0.1-0.2c0-0.1,0.1-0.3,0-0.3c-0.1,0-0.1,0.2-0.1,0.2
	c0,0.1-0.1,0.1-0.1,0.2c-0.1,0.2,0.1,0.2,0.1,0.3l0,0.1l0,0c-0.1,0.2,0,0.3-0.1,0.4c-0.1,0.1-0.2,0.3-0.2,0.4l0,0l0,0
	c-0.1,0.1-0.2,0.3-0.2,0.4c0,0.1,0,0.5,0.1,0.3c0-0.1,0-0.2,0.1-0.2c0-0.1,0.2-0.1,0.2-0.2l0-0.1h0c0,0,0.1,0,0.1,0
	c-0.1,0.2-0.1,0.5-0.2,0.8l0,0.1l-0.1,0.1c-0.1,0.1-0.3,0.1-0.4,0.3c0,0.1,0.1,0.2,0,0.2c0,0-0.3,0.4-0.1,0.4c0.2,0,0.2-0.2,0.2-0.3
	c0,0,0.1,0.1,0.2,0.2c0.1,0,0-0.3,0-0.4c0,0,0,0,0.1,0.1l0,0l0,0c0,0.2,0.2,0.2,0.1,0.4c-0.2,0.3,0.1,0.1-0.1,0.4
	c0,0-0.1,0.1-0.1,0.2l0,0l0,0c0,0.1-0.1,0.1-0.1,0.1c-0.2,0-0.2,0.2-0.2,0.4c0,0.3,0,0.1-0.2,0.3c-0.1,0.1-0.2,0.2-0.2,0.3l-0.1,0
	l-0.1,0c0,0-0.1-0.1-0.1-0.2c0-0.2-0.1-0.4-0.1-0.6c0.2,0,0.1-0.2,0-0.3c-0.1-0.1,0-0.1-0.1-0.2c0,0-0.1,0-0.1,0.1
	c-0.1,0.1-0.1,0.1-0.1,0.3c0,0.2-0.1,0.2-0.1,0.3c0,0.3-0.1,0.5-0.2,0.7c-0.1,0.2,0.1,0.2,0,0.4c-0.1,0.2-0.1,0.1-0.2,0.1
	c-0.1,0.1,0,0.1,0,0.2c0,0.1,0.1,0.1,0,0.2c0,0.1-0.4,0.2-0.2,0.4c0.1,0.1,0.2,0.1,0.3,0.1c0.1,0.1-0.1,0.2-0.2,0.3
	c-0.1,0.1-0.1,0.3-0.2,0.4c-0.2,0.2-0.5,0.4,0,0.4c-0.1,0-0.3,0.2-0.1,0.2c0.1,0,0.3,0,0.4,0c-0.2,0-0.9,0.2-0.6,0.4
	c0,0.1-0.2,0.2-0.3,0.2c0,0-0.2,0-0.2,0c0,0.1,0.1,0.1,0.1,0.1c0,0-0.2,0.2-0.2,0.3c0.3,0,0.6-0.1,0.9-0.1c-0.3,0-0.4,0.6-0.7,0.6
	c0,0,0,0.1,0,0.1l0,0l-0.3,0l-0.3-0.1l-0.1-0.1l-0.1,0l0,0c0,0,0,0,0,0c0.1-0.1,0.5,0.1,0.4-0.1c-0.2-0.4-0.3-0.7-0.6-1l0,0l0.1,0.1
	c0.1,0.1,0.1,0.2,0.2,0.2c0,0,0.1,0,0.1,0c0-0.1,0.1-0.1,0.1-0.2c0-0.1,0-0.2,0-0.3c0-0.4-0.2-0.3-0.4-0.5c0-0.1-0.1-0.2-0.1-0.2
	c-0.1-0.1-0.2,0-0.3,0l0,0l0-0.1c0-0.1,0-0.2,0-0.3c0,0-0.4,0-0.2-0.2c0,0,0.1,0,0.1,0c0,0,0,0,0,0l0,0l0,0c0,0,0,0,0.1,0
	c0.1,0.1,0.1,0.2,0.2,0.3c0.2,0,0,0,0.2-0.1c0.1-0.1,0.3-0.1,0.4,0l0,0l0,0.1c0,0,0.1,0,0-0.1l0,0l0,0c0-0.2-0.1-0.4-0.2-0.6
	c-0.1-0.2-0.5-0.6-0.7-0.4c0,0-0.1-0.1-0.1-0.1c0,0-0.1,0-0.1-0.1l-0.1-0.1l0,0c0,0,0,0,0,0c-0.1-0.1-0.2,0-0.3-0.2
	c0-0.1,0.2-0.2,0.2-0.4c0,0,0-0.1,0-0.1l0,0l0,0c0,0.4,0.3,0.6,0.3,0.1c0,0.1,0.1,0.3,0.2,0.4c0,0,0-0.1,0.1-0.1c0,0,0,0.2,0.1,0.2
	c0.1-0.1,0.1-0.1,0-0.2l0,0l0,0c0.1,0.1,0-0.4,0-0.4c-0.1-0.1-0.1-0.1-0.2-0.2l0,0l0-0.1c0,0,0,0-0.1,0l-0.1,0l0,0
	c0,0-0.1-0.1-0.1-0.1l0,0l0-0.1c0-0.1,0-0.1-0.1-0.1l0,0l0,0l0,0c0-0.1,0-0.1-0.1-0.2l-0.1,0l0,0c0-0.1-0.1-0.2-0.1-0.3
	c0-0.1,0.4-0.1,0.4-0.2c0-0.1-0.2-0.1-0.3-0.2c-0.1-0.1-0.2-0.4-0.2-0.6c0.4,0.1,0.2-0.3,0-0.5c-0.1-0.1-0.1-0.2-0.1-0.3l0,0l0,0
	c0,0,0.1,0,0-0.1c0-0.1-0.1-0.5-0.2-0.5c0,0,0,0.1,0,0.2c0,0.1,0.1,0.1,0.1,0.2c0,0-0.1,0-0.1,0.1c0,0,0,0.1,0,0.1l0,0l0,0
	c-0.1,0.1-0.1,0.2-0.1,0.4c0,0.3-0.2,0.3-0.2,0.5c0,0,0.1,0.3,0,0.4c-0.1,0.1-0.3,0-0.3,0.2l0,0l-0.1,0c-0.2,0-0.4,0.1-0.3,0.3
	c-0.1,0.1-0.1,0.1,0,0.2c0,0,0.1-0.2,0.1-0.2c0,0,0.1,0.1,0.1,0.1c0.1,0.1,0.1-0.2,0.2-0.1c0.1,0,0.1,0.1,0.2,0l0-0.1l0,0
	c0.1,0,0.1,0.1,0.1,0.1c-0.1,0.2-0.8,0.3-0.6,0.3c0.4,0.1,0.3,0.1,0.2,0.4c-0.1,0.2-0.2,0.1-0.3,0.2c-0.1,0.1,0,0.2-0.1,0.4
	c0,0.2,0.1,0.2,0.1,0.3c0,0.1-0.4,0.3-0.3,0.5l0,0l0,0c-0.1,0.1-0.2,0.1-0.1,0.3c0,0.1,0.1,0.1,0,0.2c-0.1,0.1,0,0.1,0,0.2
	c0,0.1,0.2-0.2,0.2-0.3c0-0.1,0.1-0.3,0.1-0.1c0,0.1,0.1,0.1,0.2,0.1l0,0l0,0c-0.1,0.1-0.2,0.2-0.3,0.4c0,0,0,0.1-0.1,0.2l0,0.1l0,0
	c-0.1-0.1-0.3,0-0.4,0.2c-0.1-0.1-0.2-0.1-0.3,0c-0.1,0.1-0.2,0.4-0.4,0.5c0,0.1-0.2,0.2,0,0.3c0,0,0.1,0,0.1,0c0.1,0,0.2,0,0.3-0.1
	c0,0,0.1-0.2,0.1-0.1l0,0l0,0c0,0,0,0,0,0l0,0l0,0.1c0,0.1,0,0.2,0.1,0.2c0.1,0.1,0.1,0.1,0.2,0.1l0.1,0l0.1,0c0.1,0,0.2,0,0.3,0.1
	c-0.3,0-1.3,0.3-0.9,0.6c-0.1,0.1-0.3,0.3-0.4,0.4c0,0-0.2,0.1-0.2,0.1c0,0,0,0.1,0,0.1l0,0l-0.3,0l0,0l-0.1,0c-0.1,0-0.1,0-0.2,0
	c0,0,0,0,0,0c0,0,0.1,0,0.1,0l0.1,0l0.1,0c0.1,0,0.1,0,0.2-0.1c0,0,0-0.1,0-0.1l0-0.1l0,0c0,0,0,0,0,0l0,0l0,0c0,0,0,0,0.1,0.1
	c0.1,0.1,0.1,0.1,0.2,0.1c0,0,0,0,0.1,0c0.2-0.1,0-0.1,0-0.2c-0.1-0.1-0.2-0.3-0.3-0.4c-0.1-0.1-0.2-0.1-0.2,0
	c0-0.1-0.2-0.2-0.3-0.1l0,0l0-0.1c0,0,0-0.1-0.1-0.1c-0.1-0.1-0.2-0.2-0.2-0.2l0,0l0,0c0.1,0,0.1,0,0.1,0c0-0.1,0.1,0.1,0.1,0.1
	c0,0,0.1,0.2,0.2,0.2c0-0.1,0.1-0.1,0-0.1c0,0,0-0.1,0-0.1c0-0.1,0-0.1-0.1-0.2l0,0l0,0c0.1-0.1-0.2-0.2-0.2-0.3
	c0-0.1,0.1-0.1,0-0.2c0-0.1,0-0.2-0.1-0.2c-0.1-0.1-0.1,0-0.2-0.1c-0.1-0.2-0.1-0.2,0.1-0.3c0.1,0-0.4-0.1-0.4-0.2c0,0,0,0,0.1-0.1
	l0,0l0,0c0,0,0.1,0,0.1,0c0,0,0,0.1,0.1,0.1c0,0,0-0.1,0.1-0.1c0,0,0.1,0.2,0.1,0.1c0-0.1,0.1-0.1,0-0.1c0.1-0.1-0.1-0.2-0.2-0.2
	l0,0l0,0c0-0.1-0.1,0-0.2-0.1c0,0,0-0.2,0-0.3c0-0.1-0.1-0.1-0.1-0.3c0-0.1,0-0.2-0.1-0.3c0,0-0.1-0.1-0.1-0.1
	c-0.1,0.1,0,0.2-0.1,0.2c-0.1,0.1-0.2,0.4,0.1,0.3c0,0.1-0.1,0.3-0.1,0.4c-0.1,0.1-0.2,0-0.2,0.1c0,0.1,0.2,0.1,0.2,0.2
	c0,0.1,0,0.1,0,0.2l0,0l0,0c0,0-0.1,0.1,0,0.1l0,0l0,0l0,0c-0.1,0-0.1,0-0.1,0.1l0,0l0,0c0,0,0,0.1-0.1,0.1l0,0l0,0c0,0,0,0,0,0
	l0,0.1l0,0c0,0-0.1,0.1-0.1,0.1c0,0-0.1,0.3,0,0.3l0,0l0,0c0,0.1,0,0.1,0,0.1C119,26.1,119,26,119,26c0,0,0,0.1,0,0.1
	c0.1,0,0.1-0.1,0.1-0.2c0,0.4,0.2,0.2,0.2,0l0,0l0,0c0,0,0,0,0,0.1c0,0.1,0.2,0.2,0.1,0.3c0,0.1-0.1,0-0.2,0.1c0,0,0,0,0,0l0,0l0,0
	c0,0,0,0-0.1,0c0,0-0.1,0.1-0.1,0c-0.1-0.1-0.4,0.1-0.4,0.3c0,0.1-0.1,0.2-0.1,0.4l0,0l0,0c0,0,0,0,0,0l0,0l0,0c0.1,0,0.2,0,0.3,0
	c0.1,0.1,0,0.1,0.1,0.1c0.1,0,0.1-0.1,0.1-0.2c0,0,0,0,0,0l0,0l0,0c0,0,0,0,0,0h0.1c0.1,0.1-0.1,0.1-0.1,0.2c0,0,0,0.1,0,0.2l0,0
	l0,0c-0.1,0-0.1,0-0.2,0c0,0,0,0.1-0.1,0.1c0-0.1,0-0.1,0-0.1c0-0.1-0.1-0.1-0.1-0.1l0,0l0-0.1c0,0,0,0,0,0l0,0l0,0c0,0,0,0-0.1-0.1
	l0,0l0,0c0,0,0-0.1-0.1-0.1l0,0l0,0l0,0c0,0,0-0.1,0-0.1l0,0l0,0c0-0.1,0-0.1,0-0.2c0-0.1,0.3-0.1,0.2-0.2c0-0.1-0.1,0-0.2-0.1
	c-0.1-0.1-0.1-0.3-0.1-0.4c0.2,0,0.1-0.2,0.1-0.3c-0.1-0.1,0-0.1-0.1-0.2c0,0-0.1,0-0.1,0.1c-0.1,0.1-0.1,0.1-0.1,0.3
	c0,0.2-0.1,0.2-0.1,0.3c0,0,0,0.2,0,0.3c-0.1,0.1-0.2,0-0.2,0.1l0,0l0,0c-0.1,0-0.3,0.1-0.2,0.2c-0.1,0-0.1,0.1,0,0.1
	c0,0,0.1-0.1,0.1-0.1c0,0,0,0.1,0.1,0.1c0.1,0,0.1-0.1,0.1-0.1c0,0,0.1,0.1,0.1,0l0,0l0,0c0,0,0.1,0,0.1,0.1
	c-0.1,0.2-0.5,0.2-0.4,0.2c0.2,0.1,0.2,0.1,0.1,0.3c-0.1,0.2-0.1,0.1-0.2,0.1c-0.1,0.1,0,0.1-0.1,0.2c0,0.1,0.1,0.1,0,0.2
	c0,0.1-0.3,0.2-0.2,0.3l0,0l0,0l0,0c-0.1-0.1-0.1-0.1-0.1-0.1c0,0,0.1,0,0.2-0.1c0.1-0.1-0.1-0.2-0.1-0.2c0,0,0-0.1,0-0.1
	c0-0.1,0-0.1,0-0.1c0,0-0.1,0-0.1-0.1c-0.1-0.1,0-0.1,0-0.2c0,0-0.2-0.1-0.2-0.1c0-0.1,0.2,0,0.2,0c0,0-0.1-0.1-0.2-0.1
	c0,0,0-0.1,0-0.2c0-0.1-0.1,0-0.1-0.2c0-0.1,0-0.1-0.1-0.2c0,0,0-0.1,0,0c0,0.1,0,0.1,0,0.1c0,0.1-0.1,0.2,0,0.2c0,0,0,0.1-0.1,0.2
	c0,0,0.1,0.1,0,0.2c0,0-0.1,0-0.1,0l0,0l0,0c0,0-0.1-0.1-0.1-0.1c0,0,0-0.1,0-0.1c0-0.1-0.1,0-0.1-0.2c0-0.1,0-0.1,0-0.1
	c0,0,0-0.1,0,0c0,0.1,0,0.1,0,0.1c0,0.1-0.1,0.2,0,0.2c0,0,0,0.1-0.1,0.2c0,0,0,0.1,0,0.2c0,0-0.2,0.1-0.3,0.2l0,0l0,0
	c0,0,0-0.1,0-0.1c0,0,0.1,0,0.1,0c0,0,0,0,0,0c0,0,0-0.1,0-0.1c0.1,0,0,0,0-0.1c0,0,0,0,0-0.1c0,0,0,0,0,0c0,0,0,0,0,0.1
	c0,0,0,0,0,0.1c0,0,0,0,0,0.1c0,0,0,0,0,0c0,0,0.1,0,0.1,0.1c0,0-0.1,0-0.1,0c0.1,0,0,0,0,0.1c0,0,0,0,0,0c0,0,0,0,0,0.1
	c0,0,0,0,0,0c0,0-0.1,0,0,0.1c0,0,0,0,0.1,0c0,0,0,0,0,0.1c0,0,0,0.1,0,0.1c0,0-0.1,0.1,0,0.1c0,0-0.1,0,0,0c0,0,0.1,0,0.1,0
	c0,0-0.2,0-0.1,0.1c0,0,0,0-0.1,0.1c0,0,0,0,0,0c0,0,0,0,0,0c0,0,0,0,0,0.1c0.1,0,0.1,0,0.2,0c-0.1,0-0.1,0.1-0.1,0.1l0,0.1
	l-0.7,0.4c-0.1,0-0.1,0-0.2,0c2.7,0.4,5.1,2.2,7.6,2.3l13.2,1.9h3.6v-1.4c-0.1,0-0.1,0-0.2,0l-0.4,0.1l-0.4,0l-0.1-0.2l0,0l0.1,0
	c0.1,0,0.1,0.1,0.1,0.2c0,0,0,0,0.1,0c0,0,0-0.1,0-0.1c0-0.1,0-0.1,0-0.2c0-0.2-0.1-0.2-0.2-0.3c0,0,0-0.1-0.1-0.2c0,0-0.1,0-0.2,0
	l0,0l0,0c0-0.1,0-0.1,0-0.2c0,0-0.2,0-0.1-0.2h0.1c0,0,0,0,0,0l0,0l0,0c0,0,0,0,0,0c0.1,0,0.1,0.1,0.1,0.2c0.1,0,0,0,0.1-0.1
	c0.1-0.1,0.2,0,0.3,0l0,0l0,0c0,0,0,0,0,0l0,0l0,0c0-0.1-0.1-0.3-0.1-0.4c0-0.1-0.3-0.4-0.4-0.3c0,0-0.1,0-0.1,0c0,0,0,0-0.1,0l0,0
	l0,0c0,0,0,0,0,0c-0.1-0.1-0.1,0-0.2-0.1c0-0.1,0.1-0.2,0.1-0.3c0,0,0,0,0-0.1l0,0l0,0c0,0.2,0.2,0.4,0.2,0c0,0.1,0,0.2,0.1,0.2
	c0,0,0,0,0-0.1c0,0,0,0.2,0.1,0.1c0,0,0-0.1,0-0.1l0,0l0,0c0.1,0,0-0.2,0-0.3c0-0.1-0.1-0.1-0.1-0.1l0,0l0-0.1c0,0,0,0,0,0l0,0l0,0
	c0,0,0,0-0.1-0.1l0,0l0,0c0,0,0-0.1-0.1-0.1l0,0l0,0l0,0c0,0,0-0.1,0-0.1l0,0l0,0c0-0.1,0-0.1,0-0.2c0-0.1,0.3-0.1,0.2-0.2
	c0-0.1-0.1,0-0.2-0.1c-0.1-0.1-0.1-0.3-0.1-0.4c0.2,0,0.1-0.2,0.1-0.3c-0.1-0.1,0-0.1-0.1-0.2c0,0-0.1,0-0.1,0.1
	c-0.1,0.1-0.1,0.1-0.1,0.3c0,0.2-0.1,0.2-0.1,0.3c0,0,0,0.2,0,0.3c-0.1,0.1-0.2,0-0.2,0.1l0,0l0,0c-0.1,0-0.3,0.1-0.2,0.2
	c-0.1,0-0.1,0.1,0,0.1c0,0,0.1-0.1,0.1-0.1c0,0,0,0.1,0.1,0.1c0.1,0,0.1-0.1,0.1-0.1c0,0,0.1,0.1,0.1,0l0,0l0,0c0,0,0.1,0,0.1,0.1
	c-0.1,0.2-0.5,0.2-0.4,0.2c0.2,0.1,0.2,0.1,0.1,0.3c-0.1,0.2-0.1,0.1-0.2,0.1c-0.1,0.1,0,0.1-0.1,0.2c0,0.1,0.1,0.1,0,0.2
	c0,0-0.1,0.1-0.2,0.2l-0.4,0l-0.1-0.2l0,0l0.1,0c0.1,0,0.1,0.1,0.1,0.2c0,0,0,0,0.1,0c0,0,0-0.1,0-0.1c0-0.1,0-0.1,0-0.2
	c0-0.2-0.1-0.2-0.2-0.3c0,0,0-0.1-0.1-0.2c0,0-0.1,0-0.2,0l0,0l0,0c0-0.1,0-0.1,0-0.2c0,0-0.2,0-0.1-0.2h0.1c0,0,0,0,0,0l0,0l0,0
	c0,0,0,0,0,0c0.1,0,0.1,0.1,0.1,0.2c0.1,0,0,0,0.1-0.1c0.1-0.1,0.2,0,0.3,0l0,0l0,0c0,0,0,0,0,0l0,0l0,0c0-0.1-0.1-0.3-0.1-0.4
	c0-0.1-0.3-0.4-0.4-0.3c0,0-0.1,0-0.1,0c0,0,0,0-0.1,0l0,0l0,0c0,0,0,0,0,0c-0.1-0.1-0.1,0-0.2-0.1c0-0.1,0.1-0.2,0.1-0.3
	c0,0,0,0,0-0.1l0,0l0,0c0,0.2,0.2,0.4,0.2,0c0,0.1,0,0.2,0.1,0.2c0,0,0,0,0-0.1c0,0,0,0.2,0.1,0.1c0,0,0-0.1,0-0.1l0,0l0,0
	c0.1,0,0-0.2,0-0.3c0-0.1-0.1-0.1-0.1-0.1l0,0l0-0.1c0,0,0,0,0,0l0,0l0,0c0,0,0,0-0.1-0.1l0,0l0,0c0,0,0-0.1-0.1-0.1l0,0l0,0l0,0
	c0,0,0-0.1,0-0.1l0,0l0,0c0-0.1,0-0.1,0-0.2c0-0.1,0.3-0.1,0.2-0.2c0-0.1-0.1,0-0.2-0.1c-0.1-0.1-0.1-0.3-0.1-0.4
	c0.2,0,0.1-0.2,0.1-0.3c-0.1-0.1,0-0.1-0.1-0.2c0,0-0.1,0-0.1,0.1c-0.1,0.1-0.1,0.1-0.1,0.3c0,0.2-0.1,0.2-0.1,0.3c0,0,0,0.2,0,0.3
	c-0.1,0.1-0.2,0-0.2,0.1l0,0l0,0c-0.1,0-0.3,0.1-0.2,0.2c-0.1,0-0.1,0.1,0,0.1c0,0,0.1-0.1,0.1-0.1c0,0,0,0.1,0.1,0.1
	c0.1,0,0.1-0.1,0.1-0.1c0,0,0.1,0.1,0.1,0l0,0l0,0c0,0,0.1,0,0.1,0.1c-0.1,0.2-0.5,0.2-0.4,0.2c0.2,0.1,0.2,0.1,0.1,0.3
	c-0.1,0.2-0.1,0.1-0.2,0.1c-0.1,0.1,0,0.1-0.1,0.2c0,0.1,0.1,0.1,0,0.2c0,0.1-0.3,0.2-0.2,0.3l0,0l0,0c0,0.1-0.1,0.1-0.1,0.2
	c0,0,0,0.1,0,0.1c-0.1,0.1,0,0.1,0,0.1c0,0.1,0.1-0.1,0.2-0.2c0,0,0.1-0.2,0.1-0.1c0,0,0.1,0.1,0.1,0l0,0l0,0c0,0.1-0.1,0.1-0.2,0.2
	c0,0,0,0.1-0.1,0.1l0,0.1l0,0c-0.1-0.1-0.2,0-0.3,0.1c0-0.1-0.1-0.1-0.2,0l-0.2-0.1l-0.1-0.2c-0.1-0.2-0.1-0.3-0.2-0.5
	c0.1,0.1,0.2,0.1,0.3,0.1c0,0,0.1,0,0.1,0c0.2-0.1,0-0.2,0-0.3c-0.2-0.1-0.3-0.4-0.4-0.5C133.7,26.8,133.7,26.8,133.6,26.8z
	 M116.2,28.2L116.2,28.2L116.2,28.2L116.2,28.2C116.2,28.2,116.2,28.2,116.2,28.2C116.2,28.2,116.2,28.2,116.2,28.2L116.2,28.2z"/>
<path class="st7" d="M56.5,24.9L56.5,24.9c-0.1-0.2-0.1-0.3-0.2-0.4l-0.1-0.2l0.2-0.2c0.1-0.1,0.2-0.1,0.3-0.2
	c0.2-0.1,0.2,0.3,0.3,0c0-0.1,0.1-0.4,0.1-0.5c0.1-0.1,0.2,0.1,0.3,0.2l0,0l0,0.1l0,0.1l0,0.1c-0.1,0.2-0.2,0.1-0.4,0.1
	c-0.1,0.1-0.4,0.4-0.3,0.6C56.8,24.8,56.7,24.8,56.5,24.9L56.5,24.9z M60.4,25.6L60.4,25.6c-0.1-0.2-0.2-0.4,0.1-0.4
	c0.2,0,0.2,0.2,0.3,0.2l0.1,0l0,0.1C60.7,25.5,60.5,25.4,60.4,25.6L60.4,25.6z M61.2,25.7l0-0.1c0-0.1,0-0.1,0-0.2
	c0-0.1,0.2,0,0.2,0.1c0,0,0,0,0.1,0l0,0l-0.1,0.1C61.3,25.6,61.3,25.6,61.2,25.7L61.2,25.7z M60.6,26l-0.1-0.1l0-0.1
	c0,0,0.1,0,0.1,0.1L60.6,26z M59.4,26.4l-0.2-0.5c-0.2-0.3-0.4-0.5-0.4-0.7l0,0l0.1,0c0.1,0,0.1,0.1,0.1,0.1c0,0.1,0.1,0.1,0.2,0.2
	l0.1,0.2l0,0c0,0,0,0.1,0.1,0.1c0.1,0.1,0.2,0.1,0.3,0.1C59.7,26,59.6,26.2,59.4,26.4L59.4,26.4z M60.6,26.5v-0.1l0,0L60.6,26.5
	L60.6,26.5L60.6,26.5z M60.6,26.6L60.6,26.6c0-0.1,0-0.1,0-0.1h0.1L60.6,26.6z M60.7,27.3L60.7,27.3c-0.1,0-0.1-0.1-0.1-0.2l0,0
	l0.1,0c0.1,0,0.1,0,0.2,0C60.8,27.2,60.8,27.2,60.7,27.3L60.7,27.3z M56.3,27.5l-0.1-0.1c-0.1,0-0.1-0.1-0.1-0.2c0,0,0.3,0,0.4,0
	c-0.1-0.1-0.1-0.2-0.2-0.3c0-0.1,0-0.2,0-0.2c0,0-0.3,0-0.2-0.2h0.1c0,0,0-0.1,0-0.2c0.1-0.1,0.4,0.1,0.4-0.1c0-0.3-0.4-0.3-0.4-0.5
	c0-0.1,0-0.2,0-0.2c-0.1-0.1-0.2,0-0.2-0.1c-0.1-0.2-0.2-0.5,0.1-0.5c0.2,0,0.2,0.2,0.4,0.3l0.1,0l0,0.1c0,0.1,0,0.4,0,0.4
	c0.1,0,0.2-0.1,0.3-0.2c0.1-0.1,0.1-0.1,0.2-0.2l0.1-0.2l0,0c0,0.2,0.1,0.1,0.1,0.5c0,0.3-0.4,0.2-0.3,0.4c0,0.1,0,0.2,0,0.3
	c0,0.1,0.1-0.1,0.2,0c0.2,0.3-0.3,0.3-0.3,0.4c-0.1,0.1,0,0.3-0.1,0.4C56.5,27.2,56.4,27.3,56.3,27.5L56.3,27.5z M56.7,28l-0.1-0.2
	l-0.1-0.1l0.1,0c0.2,0,0.3,0,0.3,0c0,0.1,0,0.1,0,0.2L56.7,28z M61.3,28.1l-0.1-0.2h0c0.1,0,0.3,0.1,0.4,0.1c0,0-0.1,0-0.2,0
	L61.3,28.1z M42.9,28.8L42.9,28.8C42.9,28.8,42.8,28.8,42.9,28.8L42.9,28.8L42.9,28.8c0-0.1,0.3-0.1,0.2-0.1
	C43.1,28.8,43,28.8,42.9,28.8z M42.8,29.1L42.8,29.1C42.8,29,42.8,29,42.8,29.1C42.8,29,42.8,29,42.8,29.1c-0.1-0.1-0.1-0.1-0.1-0.1
	c0,0,0,0,0-0.1c0,0,0,0,0,0c0,0,0,0,0.1,0l0,0l0,0c0,0,0,0,0,0c0,0,0,0,0,0l0,0c0,0,0,0,0,0l0,0l0,0c0.1,0,0.2,0.1,0.2,0.2
	C43.1,29,43,29,42.8,29.1L42.8,29.1z M42.9,29.5L42.9,29.5c0,0,0-0.1-0.1-0.1c0,0,0,0,0,0c0,0-0.1,0-0.1-0.1h0.1c0,0,0,0,0-0.1
	c0,0,0,0,0,0c0,0-0.1,0,0,0h0c0,0,0,0,0,0v0l0,0c0.2,0,0.3,0,0.3,0.1c0,0.1-0.1,0-0.1,0.1C43,29.4,43,29.4,42.9,29.5
	C43,29.5,43,29.5,42.9,29.5L42.9,29.5z M44.3,29.6c0,0,0.1-0.1,0.1-0.1c0,0,0.1-0.2,0.1-0.1c0,0,0.1,0.1,0.1,0l0,0l0,0
	c0,0.1-0.1,0.1-0.2,0.2c0,0,0,0.1-0.1,0.1l0,0L44.3,29.6z M44.2,29.4C44.2,29.4,44.2,29.4,44.2,29.4c0,0.1,0,0.1,0,0.2
	C44.2,29.5,44.1,29.4,44.2,29.4C44.2,29.4,44.2,29.4,44.2,29.4z M46.2,29.8C46.2,29.8,46.2,29.7,46.2,29.8c0.1-0.1,0.1-0.2,0.1-0.2
	l0.1-0.1l0,0L46.2,29.8L46.2,29.8z M43.4,28.4c0,0-0.1,0-0.1,0C43.4,28.3,43.5,28.4,43.4,28.4L43.4,28.4L43.4,28.4
	C43.5,28.4,43.5,28.4,43.4,28.4z M43.6,28.6C43.6,28.6,43.6,28.6,43.6,28.6c0-0.1,0.1-0.1,0.1,0C43.7,28.6,43.6,28.6,43.6,28.6z
	 M64.8,29.6V30l-0.2-0.1l-0.1-0.2c-0.1-0.3-0.2-0.6-0.3-0.9c0-0.1-0.1-0.2-0.1-0.3c-0.1-0.1-0.2-0.3-0.3-0.4c0,0,0-0.2,0-0.2
	c-0.1-0.1-0.5-0.3-0.5-0.7c0-0.1,0.5,0,0.6,0c-0.1-0.3-0.2-0.4-0.3-0.8c-0.1-0.2,0-0.4-0.1-0.5c0-0.1-0.4,0-0.3-0.5c0,0,0,0,0,0l0,0
	v0c0,0,0,0,0,0c0,0.1,0,0.3,0.2,0.3c0.2,0,0.4-0.1,0.6-0.2c-0.1,0.2-0.1,0.5,0,0.7c0.1,0.1,0.2,0,0.3,0.1c0,0.1,0.1,0.3,0.2,0.2
	c0.3-0.2,0.2-0.4,0-0.8c0-0.1-0.2,0-0.2,0c0-0.2,0-0.3-0.1-0.5c-0.1-0.1-0.2-0.2-0.2-0.4c0-0.1,0-0.2-0.1-0.3l0,0l0,0
	c-0.1-0.4-0.5-0.5-0.6-0.9l0,0l0.1,0c0.1,0,0.1,0.1,0.1,0.2c0,0.2,0.2,0.3,0.3,0.1c0.1,0.1,0.1,0.3,0.2,0.3c0,0,0.3,0,0.3-0.1
	c-0.1-0.2-0.3-0.3-0.5-0.4c0,0,0-0.3-0.1-0.3c-0.1,0-0.2,0.1-0.2,0c0-0.2-0.1-0.3-0.2-0.3h0v0c0,0,0-0.1,0-0.1
	c-0.1-0.2-0.3,0-0.3-0.3c0-0.1,0-0.1,0-0.2l0,0l0.1,0.1c0.1,0,0.5,0.6,0.3,0c0,0,0,0,0-0.1c-0.1-0.1-0.2-0.1-0.2-0.2
	c0-0.1-0.1-0.2-0.2-0.2l-0.1-0.1l0-0.1c0-0.2,0.1-0.4,0.3-0.4c0.3,0,0,0.7,0.3,0.6l0,0l0,0.1c0,0,0,0.1,0.1,0.1
	c0.1,0,0.2-0.1,0.2-0.1c-0.1,0.1-0.1,0.2-0.1,0.4c0,0.2,0.2-0.1,0.2,0c0.1,0.3-0.3,0.5,0.1,0.5c0.1,0,0.1-0.2,0.1-0.3
	c0-0.1,0.1-0.1,0.2-0.2c0.1-0.1,0-0.6-0.1-0.7H64c-0.1-0.1,0.1-0.5-0.1-0.6l0,0l0,0c-0.1-0.1-0.2-0.2-0.3-0.3l-0.1-0.1l0.1,0
	c0.2,0.1,0.4,0.1,0.6,0.2c0.1,0.1,0-0.2,0-0.2c-0.1-0.3-0.4,0-0.5-0.2c-0.1-0.2-0.2-0.2-0.4-0.2c0,0-0.1,0-0.1,0l0,0l0,0
	c-0.1-0.2-0.2-0.3-0.3-0.5c0-0.1,0-0.2,0-0.4l0,0l0,0c0.1,0.1,0.3-0.1,0.3-0.1c0.1-0.1,0.1,1.1,0.4,0.3c0,0.1,0.3,0.8,0.3,0.3
	c0-0.1,0-0.3,0-0.4c-0.1-0.1-0.2-0.1-0.3-0.2c-0.1-0.2,0-0.3-0.2-0.4c-0.1,0-0.1,0-0.1,0c-0.1,0-0.1-0.1-0.1-0.2l0,0l0,0
	c0-0.1,0-0.2-0.1-0.2c-0.2-0.1-0.3-0.2-0.3-0.3l0,0l0,0c0,0,0.1,0,0.1,0c0,0,0.2,0.1,0.2,0.1c0.1-0.1-0.1-0.1-0.1-0.2
	c-0.1-0.1-0.1-0.2-0.2-0.4l0-0.1c0.1-0.1,0.1-0.1,0.1-0.2l0-0.1l0.1,0c0,0,0,0.1,0,0.2c0,0,0.2,0,0.2,0c0.1,0-0.1,0.5,0.1,0.5
	c0.1,0,0.4-0.1,0.4,0c0,0.1,0,0.3,0.1,0.3c0.3,0-0.1-0.3,0-0.4c0,0,0.2,0,0.2-0.1c0-0.4-0.4-0.3-0.4-0.4c0-0.1-0.1-0.2-0.2-0.2
	c0,0-0.1-0.3-0.2-0.3c-0.1,0-0.1,0-0.2,0.1c-0.1,0-0.1,0-0.2-0.1l-0.1,0l0-0.1c0-0.1,0-0.2-0.1-0.3c0.2,0.1,0.3-0.2,0.2-0.4l0,0l0,0
	c0,0,0,0,0,0.1c0,0.1,0,0.2,0,0.2c0.1,0,0.2-0.1,0.2,0c0,0,0,0.2,0,0.2c0.1,0,0.1-0.1,0.2-0.1c0.2,0,0.1,0.2,0.1,0.3h0.1
	c0,0,0.1,0.1,0.2,0.2c0,0,0-0.2-0.1-0.3c-0.1-0.3-0.3-0.5-0.5-0.5c0.1-0.1-0.2-0.5-0.3-0.4l-0.1,0l0,0c-0.1-0.2-0.2-0.1-0.3-0.2
	c-0.1-0.3-0.1-1.5-0.2-1.8c-0.1-0.1-0.1,1-0.1,1.3c0,0.3-0.2,0.4-0.2,0.8c0,0.3,0,0.5,0,0.6l0,0l-0.1,0c-0.1,0-0.2,0.2-0.3,0.2
	c-0.1,0-0.3,0-0.4,0.1c0,0-0.1,0.4-0.1,0.4c0,0.3,0.6-0.2,0.5-0.3c0.1,0.1,0.3-0.1,0.4-0.1l0,0l0,0.1c0,0,0,0,0,0.1
	c0,0.2-0.2,0.4-0.3,0.5l-0.1,0.1l0,0c-0.1,0-0.1-0.1-0.2-0.1c-0.1,0.1-0.3,0.3,0,0.4c-0.1,0-0.2,0-0.3,0.1c-0.1,0.1,0,0.3,0,0.3
	c0,0-0.3,0.2-0.1,0.2c0.4,0.1,0.5-0.3,0.6-0.5l0.1-0.1l0,0c0.1,0.1,0.3,0.2,0.3,0.3c-0.1,0-0.2,0.1-0.2,0.2l0,0l0,0
	c-0.1,0-0.1,0.1-0.2,0.2h0c-0.1,0-0.4,0.2-0.3,0.3c-0.1,0-0.1,0.1,0,0.2c0.1,0.2-0.3-0.1-0.3,0.2c0,0.2,0.3,0.1,0.4,0.3
	c0.1,0.2,0,0.4,0.1,0c0.1-0.4,0.1-0.1,0.3-0.2c0,0,0,0,0,0l0,0l0,0c0.1,0.1,0.2,0.1,0.4,0.3c0,0,0,0,0,0l0,0l-0.1,0.1
	c-0.1,0.1-0.2,0-0.3,0.1c0,0-0.1,0.3-0.1,0.4c0,0.1,0.1,0,0.2-0.1c0,0,0.1-0.1,0.1-0.1l0.1-0.1l0,0c-0.1,0.1-0.2,0.2-0.3,0.4l0,0.1
	l-0.1,0c-0.1,0-0.2,0-0.4,0c-0.2,0-0.3,0.2-0.3,0.3c0,0.1-0.1,0.1-0.2,0.2c-0.1,0.2,0,0.5,0,0.7c0.1,0.4,0.2,0.1,0.2-0.1
	c0-0.1,0-0.5,0.1-0.5c0.1,0.1,0.1,0.1,0.2,0l0,0l0,0c0,0.1,0,0.3,0,0.4c0,0.2,0,0.3,0,0.4l0,0l-0.1,0.1c0,0,0,0.1,0,0.1
	c0,0.1-0.2-0.1-0.3-0.1c-0.2,0-0.3,0.2-0.2,0.4c-0.1,0-0.2,0.3-0.1,0.3c0.1,0,0.1-0.2,0.2-0.2c0.1,0,0.2,0,0.1-0.2
	c0,0.1,0.1,0.2,0.2,0.1c0,0,0.1,0,0.1-0.1l0,0l0,0.1c0,0.2,0,0.3,0.2,0.6l0,0l-0.1,0.1c0,0.1-0.1,0.2-0.1,0.3
	c-0.1,0.1-0.4-0.3-0.5-0.1c-0.1,0.1-0.1,0.2-0.1,0.3c0,0.4,0.2,0.7,0.2,1.1c0.2-0.3,0.2-0.5,0.2-0.9c0,0.1,0.1,0.4,0.1,0.5
	c0.1,0.1,0.1-0.1,0.2-0.3l0.1-0.2l0,0.1c0,0.2,0,0.4,0,0.6l0,0.1l-0.2,0.1c-0.2,0.1-0.3,0.2-0.4,0.3L61,25.2l0-0.1
	c-0.1-0.2-0.2-0.4-0.3-0.6c-0.1-0.2-0.2-0.1-0.3-0.4c0-0.2-0.1-0.4-0.1-0.6c0.3,0.1,0.1-0.2,0-0.3c-0.1-0.1,0-0.1-0.1-0.3
	c0,0-0.1,0-0.1,0.1c-0.1,0.1-0.1,0.1-0.1,0.3c0,0.2-0.1,0.2-0.1,0.3c-0.1,0.3-0.2,0.5-0.2,0.7c-0.1,0.2,0.1,0.2,0,0.5
	c-0.1,0.2-0.1,0.1-0.2,0.1c-0.1,0.1,0,0.2-0.1,0.3c0,0.1,0.1,0.1,0.1,0.2c0,0.1-0.1,0.1-0.2,0.2l0,0l0-0.6c0-0.1-0.2-0.1-0.2-0.1
	C59,24.9,59,24.8,59,24.7c0,0,0,0,0,0h0l0,0c0-0.2-0.4-0.3-0.4-0.5c0-0.1,0.1-0.2,0.1-0.3l0,0l0,0c0,0,0-0.1,0-0.1
	c0.1,0.2,0,0.7,0.3,0.5c0,0.1,0.2,0.7,0.3,0.4c0.1-0.2,0-0.8-0.1-0.9c0,0-0.1,0-0.1-0.1c0-0.1,0.1-0.2,0-0.3c-0.1-0.1-0.2-0.1-0.2,0
	c0-0.3-0.1-0.3-0.3-0.4l-0.1,0l0,0c0.1-0.1,0.4-0.1,0.3-0.3c-0.1-0.3-0.2-0.3-0.3-0.4l0,0l0.1,0c0.1,0,0.1,0,0.2,0
	c0,0,0.1,0.5,0.2,0.6c0,0.1,0.1,0,0.1,0.2c0.2-0.6-0.2-1.2-0.6-1.5c0,0,0-0.1,0-0.1c-0.1-0.1-0.2-0.2-0.3-0.2l0,0l0-0.1
	c0,0,0-0.1,0-0.1c0-0.1,0.1-0.4,0.2-0.6l0,0l0,0c0,0,0.1,0.1,0.1,0.1c0.1,0-0.1,0.1-0.1,0.2c0,0.1,0,0.2,0,0.3c0,0.2,0.3,0,0.3-0.1
	c-0.1,0.5,0.5,0.3,0.3,0.2c0.3-0.3-0.4-0.7-0.4-0.8c0-0.1-0.1-0.3-0.1-0.3l-0.1,0l0-0.1l0,0l0,0c0.2,0,0.3-0.2,0.4-0.1
	c0,0.1,0.1,0.4,0.2,0.4c0,0,0.1,0,0.1,0c0.1-0.3-0.2-0.8-0.4-0.8c-0.2,0-0.2-0.1-0.3-0.1L58,19.2l0-0.1c0-0.1-0.1-0.2-0.1-0.3l0,0
	l0-0.1c0-0.2,0-0.2,0-0.5c0-0.2-0.1-0.1-0.1-0.3c0-0.1,0.1-0.4,0-0.3c-0.1,0-0.1,0.2-0.1,0.3c0,0.1-0.1,0.1-0.1,0.2
	c-0.2,0.3,0.1,0.2,0.1,0.4l0,0.1l0,0c-0.1,0.2,0,0.3-0.2,0.5c-0.1,0.1-0.2,0.3-0.2,0.5l0,0l0,0c-0.1,0.1-0.3,0.4-0.3,0.5
	c0,0.1,0,0.6,0.2,0.4c0.1-0.1,0-0.2,0.1-0.3c0-0.2,0.2-0.1,0.2-0.3l0-0.1h0c0,0,0.1,0,0.1,0c-0.1,0.3-0.2,0.7-0.2,1l0,0.1l-0.1,0.1
	c-0.1,0.1-0.4,0.1-0.5,0.3c0,0.1,0.1,0.2,0,0.3c0,0-0.4,0.5-0.1,0.5c0.2,0,0.2-0.2,0.3-0.4c0,0,0.2,0.2,0.2,0.2c0.1,0,0-0.4,0-0.5
	c0,0,0.1,0.1,0.1,0.1l0,0l0,0c0,0.3,0.3,0.2,0.1,0.5c-0.2,0.4,0.1,0.1-0.1,0.5c0,0-0.1,0.1-0.1,0.2l0,0l0,0.1c0,0.1-0.1,0.1-0.1,0.1
	c-0.2,0-0.3,0.2-0.3,0.4c0,0.3,0,0.2-0.3,0.3c-0.1,0.1-0.2,0.2-0.2,0.4l-0.1,0.1L56,24c-0.1,0-0.1-0.1-0.1-0.3
	c0-0.2-0.1-0.5-0.2-0.7c0.3,0.1,0.2-0.2,0-0.4c-0.1-0.1,0-0.2-0.1-0.3c0-0.1-0.1,0-0.1,0.1c-0.1,0.1-0.1,0.1-0.1,0.3
	c0,0.3-0.1,0.2-0.2,0.4c-0.1,0.3-0.2,0.6-0.3,0.8c-0.1,0.2,0.1,0.3,0,0.5c-0.1,0.2-0.1,0.1-0.2,0.2c-0.1,0.1,0,0.2-0.1,0.3
	c0,0.1,0.1,0.2,0.1,0.3c0,0.1-0.4,0.3-0.2,0.5c0.1,0.1,0.3,0.1,0.4,0.1c0.1,0.1-0.1,0.2-0.2,0.4c-0.1,0.1-0.1,0.4-0.2,0.5
	c-0.2,0.3-0.6,0.5,0,0.5c-0.1,0-0.3,0.3-0.1,0.3c0.2,0,0.4,0,0.5,0.1c-0.2,0-1.1,0.2-0.7,0.5c0,0.1-0.3,0.3-0.3,0.3
	c0,0-0.2,0-0.2,0.1c0,0.1,0.1,0.1,0.1,0.2c0,0.1-0.2,0.2-0.3,0.4c0.4,0,0.7-0.1,1.1-0.1c-0.4,0-0.5,0.8-0.8,0.8c0,0.1,0.1,0.1,0,0.2
	l0,0.1l-0.3,0l-0.4-0.1L53,29.6l-0.1,0l0,0c0,0,0,0,0,0c0.1-0.2,0.7,0.1,0.5-0.1c-0.3-0.4-0.3-0.8-0.7-1.2l0,0l0.1,0.1
	c0.1,0.1,0.1,0.3,0.3,0.3c0.1,0,0.1,0,0.1,0c0.1-0.1,0.1-0.1,0.1-0.3c0-0.1,0-0.2,0-0.4c0-0.5-0.3-0.3-0.4-0.6
	c0-0.1-0.1-0.2-0.2-0.3c-0.1-0.1-0.2,0-0.3,0l-0.1,0l0-0.1c-0.1-0.1,0-0.2-0.1-0.3c0,0-0.4,0-0.2-0.3c0,0,0.1,0.1,0.2,0
	c0,0,0,0,0-0.1l0,0l0,0c0,0,0,0,0.1,0c0.1,0.1,0.2,0.3,0.3,0.3c0.2,0.1,0-0.1,0.2-0.2c0.2-0.1,0.3-0.1,0.5,0l0.1,0l0,0.1
	c0.1,0,0.1,0,0-0.1l0,0l0,0c0-0.2-0.1-0.5-0.2-0.7c-0.1-0.3-0.6-0.8-0.8-0.5c0,0-0.1-0.1-0.1-0.1c0,0-0.1-0.1-0.1-0.1L52.1,25l0-0.1
	c0,0,0,0,0-0.1c-0.1-0.1-0.3,0-0.3-0.2c0-0.2,0.2-0.3,0.2-0.5c0,0,0-0.1,0-0.1l0,0l0.1,0c0,0.4,0.3,0.8,0.3,0.1
	c0,0.2,0.1,0.3,0.2,0.4c0,0,0-0.1,0.1-0.1c0.1,0,0,0.3,0.2,0.2c0.1-0.1,0.1-0.2,0-0.3l0-0.1l0,0c0.1,0.1,0-0.4,0-0.5
	c-0.1-0.1-0.1-0.2-0.2-0.2l0,0l0-0.1c0,0,0-0.1-0.1-0.1l-0.1,0l0,0c0,0-0.1-0.1-0.1-0.1l0,0l0-0.1c0-0.1,0-0.1-0.1-0.1l0,0l0,0l0,0
	c0-0.1,0-0.1-0.1-0.2l-0.1,0l0-0.1c-0.1-0.1-0.1-0.3-0.1-0.4c0-0.2,0.5-0.1,0.4-0.3c0-0.1-0.2-0.1-0.4-0.2c-0.2-0.2-0.2-0.5-0.3-0.7
	c0.5,0.1,0.2-0.3,0.1-0.6c-0.1-0.1-0.1-0.2-0.1-0.3l0,0l0,0c0,0,0.1,0,0-0.1c0-0.1-0.1-0.6-0.2-0.6c0,0,0,0.2,0,0.2
	c0,0.1,0.1,0.2,0.1,0.2c0,0-0.1,0.1-0.1,0.1c0,0,0,0.1,0,0.1l0,0l0,0c-0.1,0.1-0.2,0.2-0.2,0.5c0,0.4-0.2,0.3-0.2,0.6
	c0,0,0.1,0.4,0,0.5c-0.1,0.1-0.4,0-0.3,0.2l0,0l-0.1,0c-0.2,0-0.5,0.1-0.4,0.4c-0.1,0.1-0.1,0.1,0,0.3c0,0,0.1-0.3,0.2-0.3
	c0,0,0.1,0.1,0.1,0.1c0.2,0.1,0.1-0.2,0.2-0.2c0.1,0,0.2,0.1,0.3,0.1l0.1-0.1l0,0c0.1,0,0.1,0.1,0.1,0.1c-0.1,0.3-1,0.3-0.8,0.4
	c0.4,0.1,0.4,0.1,0.3,0.5c-0.1,0.3-0.2,0.1-0.4,0.2c-0.1,0.1,0,0.3-0.1,0.5c-0.1,0.2,0.1,0.3,0.1,0.4c0,0.2-0.5,0.3-0.4,0.6l0,0l0,0
	c-0.1,0.1-0.2,0.2-0.1,0.4c0,0.1,0.1,0.1,0,0.2c-0.1,0.1,0,0.1,0,0.3c0.1,0.1,0.3-0.3,0.3-0.3c0.1-0.1,0.1-0.3,0.2-0.2
	c0,0.1,0.1,0.1,0.2,0.1l0,0l0,0c-0.1,0.1-0.2,0.3-0.3,0.5c0,0.1-0.1,0.1-0.1,0.2l-0.1,0.2l0,0c-0.2-0.1-0.4,0-0.5,0.2
	c-0.1-0.1-0.2-0.1-0.4,0c-0.2,0.2-0.3,0.5-0.5,0.6c0,0.1-0.2,0.2,0,0.4c0,0,0.1,0,0.1,0c0.2,0,0.3-0.1,0.4-0.2
	c0.1-0.1,0.1-0.2,0.1-0.1l0,0.1l0,0c0,0,0,0,0,0l0,0l0,0.2c0,0.1,0,0.2,0.1,0.3c0.1,0.1,0.2,0.1,0.3,0.1l0.2,0l0.1,0
	c0.1,0,0.3,0,0.4,0.1c-0.3,0-1.6,0.3-1.1,0.7c-0.1,0.1-0.4,0.4-0.5,0.5c0,0-0.3,0.1-0.3,0.1c0,0.1,0,0.1,0.1,0.1l0,0l-0.3,0l0,0
	l-0.1,0c-0.1,0-0.3-0.1-0.3-0.1c0.1,0,0.2,0,0.2,0l0.1,0l0.1,0c0.1,0,0.1,0,0.2-0.1c0,0,0-0.1,0-0.2l0-0.1l0,0c0,0,0,0,0,0l0,0l0,0
	c0-0.1,0,0,0.1,0.1c0.1,0.1,0.2,0.1,0.3,0.1c0,0,0.1,0,0.1,0c0.2-0.1,0-0.2,0-0.2c-0.2-0.1-0.2-0.3-0.4-0.4c-0.1-0.1-0.2-0.1-0.2,0
	c0-0.1-0.2-0.2-0.3-0.1l0,0l0-0.1c0,0,0-0.1-0.1-0.1c-0.1-0.1-0.2-0.2-0.2-0.3l0,0l0,0c0.1,0,0.1,0,0.2-0.1c0-0.1,0.1,0.1,0.1,0.1
	c0,0,0.2,0.3,0.2,0.2c0-0.1,0.1-0.1,0-0.2c0,0,0-0.1,0-0.1c0-0.1-0.1-0.2-0.1-0.2l0,0l0,0c0.1-0.2-0.3-0.3-0.3-0.4
	c0-0.1,0.1-0.1,0-0.3c0-0.1,0-0.2-0.1-0.3c-0.1-0.1-0.2,0-0.2-0.2c-0.1-0.3-0.1-0.3,0.2-0.4c0.1,0-0.5-0.1-0.5-0.3c0,0,0,0,0.1-0.1
	l0,0l0,0.1c0.1,0,0.1,0,0.2,0c0.1,0,0,0.2,0.1,0.1c0,0,0.1-0.1,0.1-0.1c0,0,0.1,0.2,0.1,0.2c0.1-0.1,0.1-0.1,0-0.2
	c0.1-0.2-0.1-0.2-0.3-0.2l-0.1,0l0,0c0.1-0.1-0.1,0-0.2-0.1c0-0.1,0-0.3,0-0.3c0-0.2-0.2-0.1-0.2-0.4c0-0.2,0-0.2-0.1-0.3
	c0-0.1-0.1-0.1-0.1-0.1c-0.1,0.1,0,0.2-0.1,0.3c-0.1,0.2-0.2,0.4,0.1,0.4c0,0.1-0.1,0.4-0.2,0.5c-0.1,0.1-0.2,0-0.2,0.1
	c0,0.1,0.3,0.1,0.3,0.2c0,0.1,0,0.2,0,0.2l0,0l0,0c0,0-0.1,0.1-0.1,0.1l0,0l0,0l0,0c-0.1,0-0.1,0-0.1,0.1l0,0l0,0c0,0,0,0.1-0.1,0.1
	l0,0l0,0c0,0,0,0,0,0l0,0.1l0,0c0,0-0.1,0.1-0.1,0.1c0,0-0.1,0.4,0,0.3l0,0l0,0c0,0.1,0,0.1,0,0.2c0.1,0.1,0.1-0.2,0.1-0.1
	c0,0,0,0.1,0,0.1c0.1-0.1,0.1-0.2,0.1-0.3c0,0.4,0.2,0.2,0.2-0.1l0,0l0,0c0,0,0,0,0,0.1c0,0.1,0.2,0.2,0.2,0.3
	c0,0.1-0.1,0.1-0.2,0.1c0,0,0,0,0,0l0,0l-0.1,0c0,0,0,0-0.1,0.1c0,0-0.1,0.1-0.1,0.1c-0.2-0.2-0.5,0.2-0.5,0.3
	c0,0.1-0.1,0.3-0.1,0.5l0,0l0,0c0,0,0,0,0,0l0,0l0,0c0.1,0,0.2,0,0.3,0c0.1,0.1,0,0.1,0.1,0.1c0.1,0,0.1-0.1,0.2-0.2c0,0,0,0,0.1,0
	l0,0l0,0c0,0,0,0,0,0h0.1c0.1,0.2-0.1,0.2-0.1,0.2c0,0.1,0,0.1,0,0.2l0,0l0,0c-0.1,0-0.2,0-0.2,0c0,0-0.1,0.1-0.1,0.2
	c-0.1,0.2-0.3,0.1-0.3,0.4c0,0,0,0,0,0.1c-0.1-0.1-0.2-0.2-0.3-0.1c0,0-0.1,0-0.1,0c0,0,0,0-0.1,0l0,0l0,0c0,0,0,0,0,0
	c-0.1-0.1-0.1,0-0.2-0.1c0-0.1,0.1-0.2,0.1-0.3c0,0,0,0,0-0.1l0,0l0,0c0,0.2,0.2,0.4,0.2,0c0,0.1,0,0.2,0.1,0.2c0,0,0,0,0-0.1
	c0,0,0,0.2,0.1,0.1c0,0,0-0.1,0-0.1l0,0l0,0c0.1,0,0-0.2,0-0.3c0-0.1-0.1-0.1-0.1-0.1l0,0l0-0.1c0,0,0,0,0,0l0,0l0,0
	c0,0,0,0-0.1-0.1l0,0l0,0c0,0,0-0.1-0.1-0.1l0,0l0,0l0,0c0,0,0-0.1,0-0.1l0,0l0,0c0-0.1,0-0.1,0-0.2c0-0.1,0.3-0.1,0.2-0.2
	c0-0.1-0.1,0-0.2-0.1c-0.1-0.1-0.1-0.3-0.1-0.4c0.2,0,0.1-0.2,0.1-0.3c-0.1-0.1,0-0.1-0.1-0.2c0,0-0.1,0-0.1,0.1
	c-0.1,0.1-0.1,0.1-0.1,0.3c0,0.2-0.1,0.2-0.1,0.3c0,0,0,0.2,0,0.3c-0.1,0.1-0.2,0-0.2,0.1l0,0l0,0c-0.1,0-0.3,0.1-0.2,0.2
	c-0.1,0-0.1,0.1,0,0.1c0,0,0.1-0.1,0.1-0.1c0,0,0,0.1,0.1,0.1c0.1,0,0.1-0.1,0.1-0.1c0,0,0.1,0.1,0.1,0l0,0l0,0c0,0,0.1,0,0.1,0.1
	C45,27.9,44.5,28,44.6,28c0.2,0.1,0.2,0.1,0.1,0.3c-0.1,0.2-0.1,0.1-0.2,0.1c-0.1,0.1,0,0.1-0.1,0.2c0,0.1,0.1,0.1,0,0.2
	c0,0.1-0.2,0.1-0.2,0.2c0,0-0.1,0-0.1-0.1c0-0.1,0.1-0.1,0-0.2c0-0.1,0-0.1,0-0.2c-0.1-0.1-0.1,0-0.1-0.1c-0.1-0.2,0.1-0.2,0-0.3
	c0,0-0.2-0.1-0.2-0.1c0-0.1,0.2,0,0.2,0c0,0-0.1-0.2-0.2-0.1c0,0,0-0.1,0-0.2c0-0.1-0.1-0.1-0.1-0.2c0-0.1,0-0.1-0.1-0.2
	c0,0,0-0.1-0.1,0c0,0.1,0,0.1,0,0.2c-0.1,0.1-0.1,0.2,0,0.2c0,0,0,0.1-0.1,0.3c0,0,0.1,0.2,0.1,0.2c0,0-0.1,0-0.1,0l0,0l0,0
	c0,0-0.1-0.1-0.2-0.1c0,0,0-0.1,0-0.2c0-0.1-0.1-0.1-0.1-0.2c0-0.1,0-0.1-0.1-0.2c0,0,0-0.1-0.1,0c0,0.1,0,0.1-0.1,0.2
	c-0.1,0.1-0.1,0.2,0,0.2c0,0,0,0.1-0.1,0.3c0,0,0.1,0.2,0,0.2c0,0-0.3,0.1-0.3,0.2l0,0l0,0c0,0-0.1-0.1-0.1-0.1c0,0,0.1,0,0.1,0
	c0,0,0,0-0.1,0c0,0,0-0.1,0-0.1c0.1,0,0,0,0-0.1c0,0,0,0,0-0.1c0,0,0,0,0,0c0,0,0,0,0,0.1c0,0.1,0,0,0,0.1c0,0,0,0.1,0,0.1
	c0,0-0.1,0,0,0c0,0,0.1,0.1,0.1,0.1c0,0-0.1,0-0.1,0.1c0.1,0,0.1,0,0,0.1c0,0,0,0-0.1,0c0,0,0,0,0,0.1c0,0,0,0,0,0.1
	c0,0-0.1,0.1,0,0.1c0,0,0.1,0,0.1,0c0,0,0,0,0,0.1c0,0,0,0.1,0,0.1c-0.1,0.1-0.1,0.1,0,0.1c0,0-0.1,0.1,0,0.1c0,0,0.1,0,0.1,0
	c0,0-0.2,0-0.2,0.1c0,0-0.1,0.1-0.1,0.1c0,0,0,0,0,0c0,0,0,0,0,0c0,0,0,0.1-0.1,0.1c0.1,0,0.1,0,0.2,0c-0.1,0-0.1,0.2-0.2,0.2l0,0.1
	l-0.9,0.5c-0.1,0-0.3,0-0.6-0.1c-0.1,0-0.2,0.1-0.3,0.1c-0.1,0-0.2-0.1-0.3-0.1c-0.1,0-0.2,0-0.3,0.1c-0.1,0-0.1,0.3-0.2,0.3
	c-0.7,0.3-1.6,0.5-1.8,0.7c-0.1,0.1-0.1,0.2-0.3,0.2l-2.6,1.5l30.8-0.4v-1.1h3.3v-0.3c-0.1-0.1-0.2-0.1-0.3-0.2
	c-0.1-0.2,0-0.2-0.1-0.3c-0.1-0.1-0.2-0.2-0.2-0.3c0-0.1,0.1-0.2,0-0.2c-0.1-0.1-0.1,0.2-0.3,0c-0.1-0.1,0.1-0.1,0.1-0.2
	c0-0.1-0.1-0.1-0.2-0.1c-0.1,0-0.2,0-0.2-0.1l0,0l0,0c0,0,0,0,0,0l0,0l0,0l0,0l0,0l0,0l0,0l0,0l-0.1-0.2l0,0l0.1,0.1
	c0.1,0,0.1,0.1,0.1,0.2c0,0,0.1,0,0.1,0c0,0,0-0.1,0-0.1c0-0.1,0-0.2,0-0.2c0-0.3-0.2-0.2-0.3-0.4C68,29.1,68,29,68,29
	c0,0-0.1,0-0.2,0l0,0l0,0c0-0.1,0-0.2,0-0.2c0,0-0.3,0-0.1-0.2h0.1c0,0,0,0,0,0l0,0l0,0c0,0,0,0,0.1,0c0.1,0.1,0.1,0.2,0.2,0.2
	c0.1,0,0,0,0.1-0.1c0.1-0.1,0.2,0,0.3,0l0,0l0,0c0,0,0,0,0,0l0,0l0,0c0-0.2-0.1-0.3-0.1-0.5c-0.1-0.2-0.4-0.5-0.5-0.3
	c0,0-0.1-0.1-0.1-0.1c0,0,0,0-0.1-0.1l-0.1,0l0,0c0,0,0,0,0,0c-0.1-0.1-0.2,0-0.2-0.1c0-0.1,0.1-0.2,0.2-0.3c0,0,0,0,0-0.1l0,0l0,0
	c0,0.3,0.2,0.5,0.2,0.1c0,0.1,0,0.2,0.1,0.3c0,0,0-0.1,0-0.1c0,0,0,0.2,0.1,0.1c0.1,0,0.1-0.1,0-0.2l0,0l0,0c0.1,0,0-0.3,0-0.3
	c0-0.1-0.1-0.1-0.1-0.1l0,0l0-0.1c0,0,0,0,0,0l0,0l0,0c0,0,0-0.1-0.1-0.1l0,0l0,0c0-0.1,0-0.1-0.1-0.1l0,0l0,0l0,0
	c0-0.1,0-0.1-0.1-0.1l0,0l0,0c0-0.1,0-0.2,0-0.2c0-0.1,0.3-0.1,0.3-0.2c0-0.1-0.2,0-0.2-0.1c-0.1-0.1-0.1-0.4-0.2-0.5
	c0.3,0.1,0.2-0.2,0.1-0.4c-0.1-0.1,0-0.2-0.1-0.3c0-0.1-0.1,0-0.1,0.1c-0.1,0.1-0.1,0.1-0.1,0.3c0,0.3-0.1,0.2-0.2,0.4
	c0,0,0.1,0.3,0,0.3c-0.1,0.1-0.3,0-0.2,0.1l0,0l-0.1,0c-0.1,0-0.3,0.1-0.3,0.2c-0.1,0-0.1,0.1,0,0.2c0,0,0.1-0.2,0.1-0.2
	c0,0,0,0.1,0.1,0.1c0.1,0,0.1-0.1,0.1-0.1c0,0,0.1,0.1,0.2,0l0-0.1l0,0c0,0,0.1,0.1,0.1,0.1c-0.1,0.2-0.7,0.2-0.5,0.3
	c0.3,0.1,0.3,0.1,0.2,0.4c-0.1,0.2-0.2,0.1-0.2,0.2c-0.1,0.1,0,0.2-0.1,0.3c0,0.1,0.1,0.2,0,0.3c0,0.1-0.4,0.2-0.3,0.4l0,0l0,0
	c-0.1,0.1-0.1,0.1-0.1,0.2c0,0,0.1,0.1,0,0.1c-0.1,0.1,0,0.1,0,0.2c0,0.1,0.2-0.2,0.2-0.2c0,0,0.1-0.2,0.1-0.1
	c0,0.1,0.1,0.1,0.2,0.1l0,0l0,0c0,0.1-0.2,0.2-0.2,0.3c0,0,0,0.1-0.1,0.1l0,0.1l0,0c-0.1-0.1-0.3,0-0.3,0.1c-0.1-0.1-0.2-0.1-0.2,0
	c-0.1,0.1-0.2,0.3-0.4,0.4c0,0.1-0.2,0.2,0,0.2c0,0,0.1,0,0.1,0c0.1,0,0.2,0,0.3-0.1c0,0,0.1-0.1,0.1-0.1l0,0l0,0c0,0,0,0,0,0l0,0
	l0,0.1c0,0.1,0,0.1,0,0.2c0,0.1,0.1,0.1,0.2,0.1l0.1,0l0.1,0c0.1,0,0.2,0,0.2,0c-0.1,0-0.2,0-0.3,0.1l-0.1,0l0,0l-0.3,0l0,0
	c0,0,0.1-0.1,0.1-0.1c0,0-0.3-0.1-0.3-0.1c-0.1,0-0.2-0.2-0.3-0.3c0.1,0.1,0.1,0.3,0.1,0.5C65.1,29.8,65,29.7,64.8,29.6z M42.9,29.8
	L42.9,29.8L42.9,29.8L42.9,29.8C42.9,29.7,42.9,29.8,42.9,29.8C42.9,29.8,42.9,29.8,42.9,29.8L42.9,29.8z"/>
<path class="st3" d="M34,33.4c0.9,0.2,23.9-0.8,15,2.1c-17,5.6,14.7-1,18.8-1c4,0-1.5,3.7-1.4,5.1c0.1,0.5,11.5-1.9,12.6-2
	c8.6-0.9,17.4-2.8,28-2c3.4,0.2,6.6,0.7,9.6,1.4c5.7,1.5,15.9,2.2,9.5,0.3c-3.5-1.1-8.3-3.1-6.3-3.4c2.8-0.5,3.4,0.2,6.3,0.4
	c3.3,0.2,8.8-0.2,12.1-0.9c4.5-0.9,8.5-2.9,8.3-3.3c-0.4-1.3-9.5,3.2-24.2,1c-2.8-0.4-5.5-2.3-8.7-2.4c-12.9-0.5-23.2,2.2-35.1,2.9
	C73,31.8,67,31.7,60.3,30.5C49.6,28.5,40.2,32.5,34,33.4"/>
<path class="st8" d="M126,33.4c-9.3-2.7-14.8-3.1-19-3.1c-6.2,0.1-10.9,1.9-18,1.5c9.6-1.5,19-3.2,28.1-1.2L126,33.4z"/>
<path class="st4" d="M43.8,32c1.2,0.3,11.9-0.1,12,1.2c0,0.3-3,1.4-3.1,1.6c1-0.2,2-0.3,3-0.5c2.4-0.4,4.8-0.8,7.2-1.2
	c0.5-0.1,1-0.1,1.5-0.2C58.5,31,51.6,31.3,43.8,32 M65.4,32.2c0.2,0.2,16.1,1.4,16.3,1.8c0.4,1.1-10.8,2.4-11.4,3.3
	c0.7-0.1,1.5-0.3,2.2-0.4c1.3-0.2,2.7-0.5,4-0.7c0.8-0.1,1.6-0.3,2.4-0.4c9.5-1,18.7-2.7,28.3-2c3.3,0.2,6.7,0.6,10,1.5
	c0.3,0.1,0.5,0.1,0.8,0.2c-0.4-0.5-11.3-3-11.1-3.7c0.2-1,18.3,1.9,19.1,1.7c-10.1-3.8-21-3.5-31.5-2.1
	C84.9,32.5,75.1,32.6,65.4,32.2z"/>
<path class="st8" d="M118.8,35.7c-10.7-3.2-19.2-3-26.4-2c-3.7,0.5-7.3,1-11,1.5c-3.2,0.4-6.3,1.1-9.5,1.8l-0.5,0.1l0,0l-0.5,0.1
	l0.8-0.1c3.1,0,6.3-0.5,9.7-1.2l8.1-1.3c7.1-0.8,14.3-1.1,20.6-0.2L118.8,35.7z"/>
<path class="st8" d="M78.7,31.5c-0.9,0.1-1.8,0-2.6,0.1c-9.8,0.3-16.4-2-23.6-1.6c-3.9,0.2-7.3,0.6-10.5,1.5
	c-2.5,0.6-6.9,1.6-9.9,2.4c6.1-1,12.5-2.9,18.6-3.3C60.2,29.8,70.2,33.2,78.7,31.5"/>
</svg>
