<?xml version="1.0" encoding="utf-8"?>
<!-- Generator: Adobe Illustrator 19.2.1, SVG Export Plug-In . SVG Version: 6.00 Build 0)  -->
<svg version="1.1" id="Layer_1" xmlns="http://www.w3.org/2000/svg" xmlns:xlink="http://www.w3.org/1999/xlink" x="0px" y="0px"
	 viewBox="0 0 1440 630" style="enable-background:new 0 0 1440 630;" xml:space="preserve">
<style type="text/css">
	.st0{fill:#2B698C;}
	.st1{fill:#244161;}
	.st2{fill:#256183;}
	.st3{fill-rule:evenodd;clip-rule:evenodd;fill:#8AD2D3;}
	.st4{fill-rule:evenodd;clip-rule:evenodd;fill:#2B698C;}
	.st5{fill:#FFFFFF;}
	.st6{fill:#214E69;}
	.st7{fill-rule:evenodd;clip-rule:evenodd;fill:#244161;}
	.st8{fill-rule:evenodd;clip-rule:evenodd;fill:#FFFFFF;}
</style>
<path class="st0" d="M1277.3,437.3c0,16.3,0,30.3-0.9,37.8c-0.7,5.1-1.6,9-5.1,9.8c-1.6,0.4-3.7,0.7-6.4,0.7c-2.1,0-2.8,0.5-2.8,1.4
	c0,1.2,1.2,1.8,3.5,1.8c3.5,0,8.2-0.4,12.2-0.4c4.3-0.2,8.2-0.2,10.1-0.2c5.3,0,10.8,0.2,18.5,0.6c7.6,0.2,17.4,0.5,30.7,0.5
	c6.7,0,8.3,0,9.6-4.6c0.9-3.5,2.3-15.6,2.3-19.7c0-1.8,0-3.2-1.4-3.2c-1.2,0-1.6,0.7-2,2.7c-1.2,7.3-3.4,11-8,13.1
	c-4.6,2.1-12.1,2.1-16.7,2.1c-18.1,0-20.9-2.7-21.3-14.9c-0.2-5.1,0-21.5,0-27.5v-14c0-1.1,0.2-1.8,1.1-1.8c4.3,0,21.8,0.2,25.2,0.5
	c6.6,0.7,9,3.4,9.9,6.9c0.5,2.3,0.5,4.6,0.7,6.4c0,0.9,0.4,1.6,1.6,1.6c1.6,0,1.6-2,1.6-3.4c0-1.2,0.5-8.3,0.7-11.9
	c0.7-9.1,1.4-11.9,1.4-13c0-1.1-0.5-1.4-1.2-1.4c-0.9,0-1.6,0.9-2.8,2.3c-1.6,1.8-4.3,2.3-8.5,2.7c-4.1,0.4-24.5,0.4-28.4,0.4
	c-1.1,0-1.2-0.7-1.2-2v-44.9c0-1.2,0.4-1.8,1.2-1.8c3.5,0,22.2,0.4,25.2,0.7c8.9,1.1,10.6,3.2,11.9,6.4c0.9,2.1,1.1,5.1,1.1,6.4
	c0,1.6,0.4,2.5,1.6,2.5s1.6-1.1,1.8-2c0.4-2.1,0.7-9.9,0.9-11.7c0.5-8.2,1.4-10.3,1.4-11.5c0-0.9-0.2-1.6-1.1-1.6
	c-0.9,0-2,0.5-2.8,0.7c-1.4,0.4-4.3,0.7-7.6,1.1c-3.4,0.2-38.7,0.2-44.4,0.2c-2.5,0-6.6-0.2-11.2-0.4c-4.4,0-9.6-0.2-14.4-0.2
	c-2.7,0-3.9,0.4-3.9,1.6c0,1.2,1.1,1.6,3,1.6c2.5,0,5.5,0.2,6.9,0.5c5.9,1.2,7.3,4.1,7.6,10.1c0.4,5.7,0.4,10.6,0.4,37.6V437.3z
	 M1166.7,482.3c-34.1,0-54.5-29.3-54.5-66.2c0-44.2,23.2-55.5,43.7-55.5c29.1,0,52,24.7,52,64.4
	C1207.9,476.3,1179.2,482.3,1166.7,482.3z M1159.3,491.2c45.1,0,73.5-32.1,73.5-72.8c0-40.6-27.5-66.4-71.7-66.4
	c-53.2,0-73.3,39.2-73.3,69.6C1087.8,453,1108.4,491.2,1159.3,491.2z M952.2,411c-0.5,0-1.1-0.4-1.1-1.2V406c0-27,0-31.9,0.4-37.6
	c0.4-6.2,1.8-9.2,6.6-10.1c2.1-0.4,3.7-0.5,5.1-0.5c2.1,0,3.2-0.4,3.2-1.6c0-1.2-1.2-1.6-3.7-1.6c-6.9,0-18.1,0.5-22.4,0.5
	c-4.8,0-16-0.5-25.6-0.5c-2.5,0-3.7,0.4-3.7,1.6c0,1.2,1.1,1.6,3,1.6c2.5,0,5.5,0.2,6.9,0.5c5.9,1.2,7.3,4.1,7.6,10.1
	c0.4,5.7,0.4,10.6,0.4,37.6v31.2c0,16.3,0,30.3-0.9,37.8c-0.7,5.1-1.6,9-5.1,9.8c-1.6,0.4-3.7,0.7-6.4,0.7c-2.1,0-2.8,0.5-2.8,1.4
	c0,1.2,1.2,1.8,3.5,1.8c7.1,0,18.3-0.5,22.4-0.5c5,0,16.1,0.5,27.7,0.5c2.1,0,3.5-0.6,3.5-1.8c0-0.9-0.9-1.4-2.8-1.4
	c-2.7,0-6.6-0.4-9-0.7c-5.3-0.7-6.4-4.6-6.9-9.6c-0.9-7.6-0.9-21.6-0.9-38v-15.6c0-0.9,0.5-1.1,1.1-1.1h67.8c0.5,0,1.1,0.4,1.1,1.1
	v15.6c0,16.3,0,30.3-0.9,37.8c-0.7,5.1-1.6,9-5.1,9.8c-1.6,0.4-3.7,0.7-6.4,0.7c-2.1,0-2.8,0.5-2.8,1.4c0,1.2,1.2,1.8,3.7,1.8
	c6.9,0,18.1-0.5,22.2-0.5c5,0,16.1,0.5,27.7,0.5c2.1,0,3.5-0.6,3.5-1.8c0-0.9-0.9-1.4-2.8-1.4c-2.7,0-6.6-0.4-9-0.7
	c-5.3-0.7-6.4-4.6-6.9-9.6c-0.9-7.6-0.9-21.6-0.9-38V406c0-27,0-31.9,0.4-37.6c0.4-6.2,1.8-9.2,6.6-10.1c2.1-0.4,3.7-0.5,5.1-0.5
	c2.1,0,3.2-0.4,3.2-1.6c0-1.2-1.2-1.6-3.7-1.6c-6.9,0-18.1,0.5-22.4,0.5c-4.8,0-16-0.5-25.6-0.5c-2.5,0-3.7,0.4-3.7,1.6
	c0,1.2,1.1,1.6,3,1.6c2.5,0,5.5,0.2,6.9,0.5c5.9,1.2,7.3,4.1,7.6,10.1c0.4,5.7,0.4,10.6,0.4,37.6v3.7c0,0.9-0.5,1.2-1.1,1.2H952.2z
	 M807.9,433.5c-0.7,0-0.9-0.5-0.7-1.2l16.3-43.7c0.2-0.7,0.5-1.6,1.1-1.6s0.7,0.9,0.9,1.6l16,43.8c0.2,0.5,0,1.1-0.9,1.1H807.9z
	 M844,442.4c0.9,0,1.4,0.4,1.8,1.2l14.2,37.6c0.9,2.1-0.4,3.7-1.6,4.1c-1.8,0.2-2.5,0.5-2.5,1.6c0,1.2,2.1,1.2,5.3,1.5
	c14.2,0.4,27.1,0.4,33.5,0.4c6.6,0,8.2-0.4,8.2-1.8c0-1.2-0.9-1.4-2.3-1.4c-2.1,0-4.8-0.2-7.5-0.7c-3.7-1.1-8.9-3.5-15.6-19.4
	c-11.4-26.9-39.7-99.3-44-109c-1.8-4.1-2.8-5.7-4.4-5.7c-1.8,0-2.8,2-5,7.1l-44.5,111.4c-3.5,8.9-6.9,14.9-15.1,16
	c-1.4,0.2-3.9,0.4-5.5,0.4c-1.4,0-2.1,0.4-2.1,1.4c0,1.5,1.1,1.8,3.4,1.8c9.3,0,19-0.5,21-0.5c5.5,0,13.1,0.5,18.8,0.5
	c2,0,3-0.4,3-1.8c0-1.1-0.5-1.4-2.7-1.4h-2.7c-5.5,0-7.1-2.3-7.1-5.5c0-2.1,0.9-6.4,2.7-10.8l9.6-25.4c0.4-1.1,0.7-1.4,1.6-1.4H844z
	 M698.1,437.3c0,16.3,0,30.3-0.9,37.8c-0.5,5.1-1.6,9-5.1,9.8c-1.6,0.4-3.7,0.7-6.4,0.7c-2.1,0-2.8,0.5-2.8,1.4
	c0,1.2,1.2,1.8,3.5,1.8c7.1,0,18.3-0.5,22.4-0.5c5,0,16.1,0.5,27.9,0.5c2,0,3.4-0.6,3.4-1.8c0-0.9-0.9-1.4-2.8-1.4
	c-2.7,0-6.6-0.4-9-0.7c-5.3-0.7-6.4-4.6-6.9-9.6c-0.9-7.6-0.9-21.6-0.9-38v-72.8l22.4,0.5c15.8,0.4,20.6,5.3,20.9,9.9l0.2,2
	c0.2,2.7,0.5,3.5,2,3.5c1.1,0,1.4-1.1,1.6-2.8c0-4.6,0.5-16.9,0.5-20.6c0-2.7-0.2-3.7-1.4-3.7c-0.7,0-2.1,0.4-4.8,0.9
	c-2.7,0.4-6.6,0.9-12.2,0.9h-70.3c-5.9,0-12.6-0.4-17.7-0.9c-4.4-0.4-6.2-2.1-7.6-2.1c-1.1,0-1.6,1.1-2.1,3.4
	c-0.4,1.4-3.7,17.6-3.7,20.4c0,2,0.4,2.8,1.6,2.8c1.1,0,1.6-0.7,2-2.1c0.4-1.4,1.2-3.5,3-6.2c2.7-3.9,6.9-4.8,17.2-5.1l26.4-0.7
	V437.3z M501.6,437.3c0,16.3,0,30.3-0.9,37.8c-0.7,5.1-1.6,9-5.1,9.8c-1.6,0.4-3.7,0.7-6.4,0.7c-2.1,0-2.8,0.5-2.8,1.4
	c0,1.2,1.2,1.8,3.5,1.8c3.5,0,8.2-0.4,12.2-0.4c4.3-0.2,8.2-0.2,10.1-0.2c5.3,0,10.8,0.2,18.5,0.6c7.6,0.2,17.4,0.5,30.7,0.5
	c6.7,0,8.3,0,9.6-4.6c0.9-3.5,2.3-15.6,2.3-19.7c0-1.8,0-3.2-1.4-3.2c-1.2,0-1.6,0.7-2,2.7c-1.2,7.3-3.4,11-8,13.1
	c-4.6,2.1-12.1,2.1-16.7,2.1c-18.1,0-20.9-2.7-21.3-14.9c-0.2-5.1,0-21.5,0-27.5v-14c0-1.1,0.2-1.8,1.1-1.8c4.3,0,21.8,0.2,25.2,0.5
	c6.6,0.7,9,3.4,9.9,6.9c0.5,2.3,0.5,4.6,0.7,6.4c0,0.9,0.4,1.6,1.6,1.6c1.6,0,1.6-2,1.6-3.4c0-1.2,0.5-8.3,0.7-11.9
	c0.7-9.1,1.4-11.9,1.4-13c0-1.1-0.5-1.4-1.2-1.4c-0.9,0-1.6,0.9-2.8,2.3c-1.6,1.8-4.3,2.3-8.5,2.7c-4.1,0.4-24.5,0.4-28.4,0.4
	c-1.1,0-1.2-0.7-1.2-2v-44.9c0-1.2,0.4-1.8,1.2-1.8c3.5,0,22.2,0.4,25.2,0.7c8.9,1.1,10.6,3.2,11.9,6.4c0.9,2.1,1.1,5.1,1.1,6.4
	c0,1.6,0.4,2.5,1.6,2.5c1.2,0,1.6-1.1,1.8-2c0.4-2.1,0.7-9.9,0.9-11.7c0.5-8.2,1.4-10.3,1.4-11.5c0-0.9-0.2-1.6-1.1-1.6
	c-0.9,0-2,0.5-2.8,0.7c-1.4,0.4-4.3,0.7-7.6,1.1c-3.4,0.2-38.7,0.2-44.4,0.2c-2.5,0-6.6-0.2-11.2-0.4c-4.4,0-9.6-0.2-14.4-0.2
	c-2.7,0-3.9,0.4-3.9,1.6c0,1.2,1.1,1.6,3,1.6c2.5,0,5.5,0.2,6.9,0.5c5.9,1.2,7.3,4.1,7.6,10.1c0.4,5.7,0.4,10.6,0.4,37.6V437.3z
	 M379.6,406c0-27,0-31.9,0.4-37.6c0.4-6.2,1.8-9.2,6.6-10.1c2.1-0.4,3.2-0.5,5-0.5c1.4,0,2.5-0.4,2.5-1.6c0-1.2-1.2-1.6-3.7-1.6
	c-6,0-17.2,0.5-21.5,0.5c-4.3,0-15.4-0.5-24.8-0.5c-2.7,0-3.9,0.4-3.9,1.6c0,1.2,1.1,1.6,3,1.6c2.5,0,5.5,0.2,6.9,0.5
	c5.9,1.2,7.3,4.1,7.6,10.1c0.4,5.7,0.4,10.6,0.4,37.6v31.2c0,16.3,0,30.3-0.9,37.8c-0.7,5.1-1.6,9-5.1,9.8c-1.6,0.4-3.7,0.7-6.4,0.7
	c-2.1,0-2.8,0.5-2.8,1.4c0,1.2,1.2,1.8,3.5,1.8c7.1,0,18.3-0.5,22.4-0.5c4.4,0,15.6,0.5,25.6,0.5c2,0,3.4-0.6,3.4-1.8
	c0-0.9-0.9-1.4-2.3-1.4c-2.3,0-6.2-0.4-8.7-0.7c-4.4-0.7-6-4.6-6.4-9.6c-0.5-7.6-0.5-21.6-0.5-38v-16.1h0.9l2,2.7
	c3.7,5.1,38.7,46.1,46.5,53.1c7.6,6.7,12.4,10.6,22,11.6c3.7,0.4,6.9,0.4,12.2,0.4h15.4c3.4,0,4.3-0.6,4.3-1.8
	c0-1.1-1.1-1.4-2.3-1.4c-2.1,0-5.7-0.5-11-2.7c-9.6-3.7-17.6-11.7-25.4-19.2c-6.9-6.6-41.7-44-48.1-52.3c6-6.4,32.8-33,38.3-38.3
	c7.6-7.5,13.7-11.2,19.2-13.3c3.4-1.2,7.8-2,10.3-2c1.8,0,2.7-0.4,2.7-1.6c0-1.2-1.2-1.6-3-1.6c-5.5,0-15.3,0.5-20.8,0.5
	c-4.8,0-14.6-0.5-18.3-0.5c-2,0-2.8,0.4-2.8,1.6c0,1.1,0.7,1.4,2.3,1.8c1.8,0.4,2.5,1.6,2.5,3.5c0,3-3.9,7.5-8.9,13.3
	c-5.1,6-31.1,32.5-37.1,39h-0.9V406z M236.9,433.5c-0.7,0-0.9-0.5-0.7-1.2l16.3-43.7c0.2-0.7,0.5-1.6,1.1-1.6c0.5,0,0.7,0.9,0.9,1.6
	l16,43.8c0.2,0.5,0,1.1-0.9,1.1H236.9z M272.9,442.4c0.9,0,1.4,0.4,1.8,1.2l14.2,37.6c0.9,2.1-0.4,3.7-1.6,4.1
	c-1.8,0.2-2.5,0.5-2.5,1.6c0,1.2,2.1,1.2,5.3,1.5c14.2,0.4,27.1,0.4,33.5,0.4c6.6,0,8.2-0.4,8.2-1.8c0-1.2-0.9-1.4-2.3-1.4
	c-2.1,0-4.8-0.2-7.5-0.7c-3.7-1.1-8.9-3.5-15.6-19.4c-11.4-26.9-39.7-99.3-44-109c-1.8-4.1-2.8-5.7-4.4-5.7c-1.8,0-2.8,2-5,7.1
	l-44.5,111.4c-3.5,8.9-6.9,14.9-15.1,16c-1.4,0.2-3.9,0.4-5.5,0.4c-1.4,0-2.1,0.4-2.1,1.4c0,1.5,1.1,1.8,3.4,1.8
	c9.3,0,19-0.5,21-0.5c5.5,0,13.1,0.5,18.8,0.5c2,0,3-0.4,3-1.8c0-1.1-0.5-1.4-2.7-1.4h-2.7c-5.5,0-7.1-2.3-7.1-5.5
	c0-2.1,0.9-6.4,2.7-10.8l9.6-25.4c0.4-1.1,0.7-1.4,1.6-1.4H272.9z M130,406c0-27,0-31.9,0.4-37.6c0.4-6.2,1.8-9.2,6.6-10.1
	c2.1-0.4,5-0.5,6.9-0.5c2.1,0,3.2-0.4,3.2-1.6c0-1.2-1.2-1.6-3.7-1.6c-6.9,0-19.9,0.5-24.1,0.5c-4.8,0-16-0.5-24.3-0.5
	c-2.7,0-3.9,0.4-3.9,1.6c0,1.2,1.1,1.6,3,1.6c2.3,0,4.4,0.2,5.9,0.5c5.9,1.2,7.3,4.1,7.6,10.1c0.4,5.7,0.4,10.6,0.4,37.6v31.2
	c0,16.3,0,30.3-0.9,37.8c-0.7,5.1-1.6,9-5.1,9.8c-1.6,0.4-3.7,0.7-6.4,0.7c-2.1,0-2.8,0.5-2.8,1.4c0,1.2,1.2,1.8,3.5,1.8
	c3.5,0,8.2-0.4,12.2-0.4c4.3-0.2,8.2-0.2,10.1-0.2c7.3,0,13.7,0.2,21.6,0.6c8,0.2,17.2,0.5,30,0.5c9.2,0,10.1-0.9,11.2-4.8
	c1.4-5.1,2.7-18.5,2.7-20.4c0-2.1-0.2-3-1.4-3c-1.4,0-1.8,1.1-2,2.7c-0.4,3.4-2.5,8.3-4.6,10.6c-4.4,4.8-11.4,5-20.8,5
	c-13.8,0-18.5-1.2-21.5-3.9c-3.7-3.2-3.7-15.4-3.7-38.2V406z"/>
<path class="st1" d="M1030.2,552.1c0-15,0-17.7,0.2-20.9c0.2-3.5,1-5.1,3.6-5.6c1.2-0.2,2.8-0.3,3.8-0.3c1.2,0,1.8-0.2,1.8-0.9
	c0-0.7-0.7-0.9-2.1-0.9c-3.8,0-11,0.3-13.4,0.3c-2.7,0-8.9-0.3-13.5-0.3c-1.5,0-2.2,0.2-2.2,0.9c0,0.7,0.6,0.9,1.7,0.9
	c1.3,0,2.5,0.1,3.3,0.3c3.3,0.7,4,2.3,4.2,5.6c0.2,3.2,0.2,5.9,0.2,20.9v17.4c0,9.1,0,16.9-0.5,21c-0.4,2.9-0.9,5-2.9,5.4
	c-0.9,0.2-2.1,0.4-3.5,0.4c-1.2,0-1.6,0.3-1.6,0.8c0,0.7,0.7,1,2,1c2,0,4.5-0.2,6.8-0.2c2.4-0.1,4.5-0.1,5.6-0.1c4,0,7.6,0.1,12,0.3
	c4.4,0.1,9.6,0.3,16.7,0.3c5.1,0,5.6-0.5,6.2-2.7c0.8-2.9,1.5-10.3,1.5-11.3c0-1.2-0.1-1.7-0.8-1.7c-0.8,0-1,0.6-1.1,1.5
	c-0.2,1.9-1.4,4.6-2.6,5.9c-2.5,2.7-6.3,2.8-11.5,2.8c-7.7,0-10.3-0.7-11.9-2.2c-2.1-1.8-2.1-8.6-2.1-21.2V552.1z M905.2,567.4
	c-0.4,0-0.5-0.3-0.4-0.7l9.1-24.2c0.1-0.4,0.3-0.9,0.6-0.9c0.3,0,0.4,0.5,0.5,0.9l8.9,24.3c0.1,0.3,0,0.6-0.5,0.6H905.2z
	 M925.2,572.3c0.5,0,0.8,0.2,1,0.7l7.9,20.9c0.5,1.2-0.2,2.1-0.9,2.3c-1,0.1-1.4,0.3-1.4,0.9c0,0.7,1.2,0.7,3,0.8
	c7.9,0.2,15.1,0.2,18.6,0.2c3.6,0,4.5-0.2,4.5-1c0-0.7-0.5-0.8-1.3-0.8c-1.2,0-2.7-0.1-4.1-0.4c-2.1-0.6-4.9-2-8.7-10.8
	c-6.3-14.9-22.1-55.2-24.4-60.6c-1-2.3-1.6-3.2-2.5-3.2c-1,0-1.6,1.1-2.8,3.9l-24.7,61.9c-2,4.9-3.8,8.3-8.4,8.9
	c-0.8,0.1-2.2,0.2-3.1,0.2c-0.8,0-1.2,0.2-1.2,0.8c0,0.8,0.6,1,1.9,1c5.1,0,10.6-0.3,11.6-0.3c3.1,0,7.3,0.3,10.5,0.3
	c1.1,0,1.7-0.2,1.7-1c0-0.6-0.3-0.8-1.5-0.8h-1.5c-3.1,0-3.9-1.3-3.9-3.1c0-1.2,0.5-3.5,1.5-6l5.3-14.1c0.2-0.6,0.4-0.8,0.9-0.8
	H925.2z M798.7,569.5c0,9.1,0,16.9-0.5,21c-0.3,2.9-0.9,5-2.9,5.4c-0.9,0.2-2.1,0.4-3.5,0.4c-1.2,0-1.6,0.3-1.6,0.8c0,0.7,0.7,1,2,1
	c3.9,0,10.2-0.3,12.4-0.3c2.8,0,9,0.3,15.5,0.3c1.1,0,1.9-0.3,1.9-1c0-0.5-0.5-0.8-1.6-0.8c-1.5,0-3.6-0.2-5-0.4
	c-3-0.4-3.5-2.6-3.8-5.3c-0.5-4.2-0.5-12-0.5-21.1V529l12.4,0.3c8.8,0.2,11.4,3,11.6,5.5l0.1,1.1c0.1,1.5,0.3,2,1.1,2
	c0.6,0,0.8-0.6,0.9-1.6c0-2.6,0.3-9.4,0.3-11.4c0-1.5-0.1-2.1-0.8-2.1c-0.4,0-1.2,0.2-2.7,0.5c-1.5,0.2-3.6,0.5-6.8,0.5h-39
	c-3.3,0-7-0.2-9.9-0.5c-2.5-0.2-3.4-1.2-4.2-1.2c-0.6,0-0.9,0.6-1.2,1.9c-0.2,0.8-2.1,9.8-2.1,11.3c0,1.1,0.2,1.6,0.9,1.6
	c0.6,0,0.9-0.4,1.1-1.2c0.2-0.8,0.7-2,1.7-3.5c1.5-2.2,3.8-2.7,9.6-2.9l14.7-0.4V569.5z M647,543.2h0.3c1.8,1.9,12.7,14.2,23.5,24.8
	c10.3,10.2,22.9,23.1,29.1,29c1.1,1.1,2.3,2.2,3.4,2.2c0.9,0,1.3-0.9,1.3-3.1l1.1-62.2c0.1-5.5,0.9-7.6,3.6-8.4c1.2-0.3,2-0.3,3-0.3
	c1.2,0,1.8-0.3,1.8-0.9c0-0.8-1-0.9-2.3-0.9c-4.8,0-8.6,0.3-9.7,0.3c-2.1,0-6.8-0.3-11.9-0.3c-1.5,0-2.6,0.1-2.6,0.9
	c0,0.6,0.4,0.9,1.6,0.9c1.4,0,3.7,0,5.2,0.6c2.4,1,3.3,2.9,3.4,8.9l1,44.3h-0.5c-1.7-1.6-15-15.8-21.7-22.5
	c-14.4-14.3-29.4-30.4-30.6-31.6c-1.7-1.8-2.6-3.1-3.6-3.1c-1,0-1.3,1.4-1.3,3.4l-0.9,58.4c-0.1,8.6-0.5,11.4-3.1,12.2
	c-1.4,0.4-3.2,0.5-4.4,0.5c-1,0-1.6,0.2-1.6,0.8c0,0.9,0.9,1,2.2,1c5.1,0,9.8-0.3,10.6-0.3c1.9,0,5.8,0.3,12.2,0.3
	c1.4,0,2.3-0.2,2.3-1c0-0.6-0.6-0.8-1.7-0.8c-1.6,0-3.4-0.1-5.1-0.7c-2-0.7-3.3-3.3-3.4-10.9L647,543.2z M530.7,569.5
	c0,9.1,0,16.9-0.5,21c-0.4,2.9-0.9,5-2.9,5.4c-0.9,0.2-2.1,0.4-3.5,0.4c-1.2,0-1.6,0.3-1.6,0.8c0,0.7,0.7,1,2,1c2,0,4.5-0.2,6.8-0.2
	c2.4-0.1,4.5-0.1,5.6-0.1c3,0,6,0.1,10.3,0.3c4.2,0.1,9.7,0.3,17.1,0.3c3.7,0,4.6,0,5.3-2.6c0.5-2,1.3-8.7,1.3-10.9
	c0-1,0-1.8-0.8-1.8c-0.7,0-0.9,0.4-1.1,1.5c-0.7,4-1.9,6.1-4.4,7.3c-2.6,1.2-6.7,1.2-9.3,1.2c-10.1,0-11.6-1.5-11.8-8.3
	c-0.1-2.9,0-11.9,0-15.3v-7.8c0-0.6,0.1-1,0.6-1c2.4,0,12.1,0.1,14,0.3c3.6,0.4,5,1.9,5.5,3.8c0.3,1.3,0.3,2.6,0.4,3.5
	c0,0.5,0.2,0.9,0.9,0.9c0.9,0,0.9-1.1,0.9-1.9c0-0.7,0.3-4.6,0.4-6.6c0.4-5,0.8-6.6,0.8-7.2c0-0.6-0.3-0.8-0.7-0.8
	c-0.5,0-0.9,0.5-1.6,1.3c-0.9,1-2.4,1.3-4.7,1.5c-2.3,0.2-13.6,0.2-15.8,0.2c-0.6,0-0.7-0.4-0.7-1.1v-24.9c0-0.7,0.2-1,0.7-1
	c2,0,12.3,0.2,14,0.4c4.9,0.6,5.9,1.8,6.6,3.5c0.5,1.2,0.6,2.9,0.6,3.5c0,0.9,0.2,1.4,0.9,1.4c0.7,0,0.9-0.6,1-1.1
	c0.2-1.2,0.4-5.5,0.5-6.5c0.3-4.5,0.8-5.7,0.8-6.4c0-0.5-0.1-0.9-0.6-0.9c-0.5,0-1.1,0.3-1.6,0.4c-0.8,0.2-2.4,0.4-4.2,0.6
	c-1.9,0.1-21.5,0.1-24.6,0.1c-1.4,0-3.6-0.1-6.2-0.2c-2.5,0-5.3-0.1-8-0.1c-1.5,0-2.2,0.2-2.2,0.9c0,0.7,0.6,0.9,1.7,0.9
	c1.4,0,3.1,0.1,3.8,0.3c3.3,0.7,4,2.3,4.2,5.6c0.2,3.2,0.2,5.9,0.2,20.9V569.5z M402.1,550.5c0-7.8,0-16.4,0.1-19.7
	c0-1.1,0.3-1.6,1.2-2c0.8-0.4,4.4-0.7,6.4-0.7c7.7,0,18.9,1.2,28,9.9c4.2,4,9.5,12.1,9.5,24.6c0,10.2-2,19.1-8.3,24.5
	c-5.9,5.1-12.6,7.1-22.7,7.1c-7.8,0-11.6-2.1-12.9-3.9c-0.8-1.1-1-5-1.1-7.5c-0.1-1.9-0.2-9.5-0.2-19.9V550.5z M389.8,569.5
	c0,9.1,0,16.9-0.5,21c-0.4,2.9-0.9,5-2.9,5.4c-0.9,0.2-2.1,0.4-3.5,0.4c-1.2,0-1.6,0.3-1.6,0.8c0,0.7,0.7,1,2,1c2,0,4.5-0.2,6.8-0.2
	c2.4-0.1,4.5-0.1,5.6-0.1c2.5,0,5.9,0.3,9.7,0.6c3.7,0.3,7.8,0.6,11.3,0.6c18.2,0,28.5-7,33-11.6c5.5-5.6,10.7-15.1,10.7-27.5
	c0-11.7-4.6-19.9-9.6-25c-10.7-11.2-27.2-11.2-39.5-11.2c-5.9,0-12.1,0.3-15.2,0.3c-2.8,0-9-0.3-14.2-0.3c-1.5,0-2.2,0.2-2.2,0.9
	c0,0.7,0.6,0.9,1.7,0.9c1.4,0,3.1,0.1,3.8,0.3c3.3,0.7,4,2.3,4.2,5.6c0.2,3.2,0.2,5.9,0.2,20.9V569.5z"/>
<path class="st2" d="M1011.8,203.5l17.2-5.4c0,0,22.9,9.6,33,12.7c10,3.1,16.2,3,24.3,5.3c8.1,2.4,8.6-3.8,15.4,7.7l6.8,11.5
	c0,0-23.8-5.5-31.9-8.5c-8.1-3-1.6-4.1-4.9-3.5c-3.2,0.6-39.7-10.1-39.7-10.1l-25.1-7.7L1011.8,203.5z"/>
<path class="st3" d="M546.1,88.9c98.7,1,213.7-66.3,197.1-54.3c-53.6,38.9-25.6,34.5,10.9,22.7c112.6-36.5,7.2,23.3,7.8,23.2
	c26.5-0.5,95.2-17.9,202-49.8c4.8-1.4-84.4,54.4-40.7,54.4c14.2,0,192.7-18.6,75.5,4c-10.5,2,114.6-2.7,104.5,0.7
	c-21,7.1-348.8,26.2-223.8,48.6c39.3,7,320.3-30.9,141.3,5.7c-133.5,27.3-251.1,56.5-372.5,75.5c-39.6-1.9-112.3-11.7-122.2-12.2
	c-13-0.6-56.7,7.1-59.9,8.3c-2.6,1,11.2-7.4,16.6-10.6c38-9.5,68-17.9,58.8-21c-32.3-10.8-87.9,1.8-123.8-1
	c-41.8-3.3,119.8-27.7,140-35.2c45.5-16.9-62-11.4-70.5-11.4c-27.1,0,105.4-26.1,122.9-32.4C662.6,85.1,527.1,106.1,546.1,88.9"/>
<path class="st4" d="M881.4,117.9l10.7,2.6l3.7,0.7l0.5,0.3l0.3,0.1l0.3,0.3c8.6,5.7,19.9,18.7,37.4,22.8l59.4,13.7l86.2,51.1
	l-20.3,3.8l22.5,5l-11.2,2.1l40.4,14.3c0,0,46.2,4.3,40.6,4.3c-1.8,0-18.6,7.3-45.6,9.6c-57.2,4.8-147.3,6.8-147.3,6.8l37.2,9.9
	c0,0-60.1-3.1-131.6-6.6c-200-9.7-252.3-0.9-421.5-0.9c-64.2,0-108.9,2.9-134.7,4.2c-29.6,1.4-36.1,1.8-26.7-0.7
	c11.6-3.1,52-13.3,73.6-23.2c12.1-5.5,13.1-9.8,10.6-11.9c-5.5-4.5-34-1.6-40.1-0.8l32.4-8.2c10.9-1.6,21.9-2.8,33-3.8
	c7.6-0.7,15.1-1.2,22.8-1.6l-11.6-8.4l-26,5.1c-0.2-0.7,1.6-2.2,4.5-5c7.1-4.9,15.8-6.1,24.1-7.7c33.8-6.4,107.8-15.9,123.6-17.1
	l52.7-13.7l51-30.9c9.3-1.1,17.6-2.5,26.6-4.7c4.8-1.2,8.9-1.2,13.4-3.9c0.7-0.4,1.4-0.8,2.1-1.2c3.3-2,39.9-23.9,39.5-23.5
	c1.6-1,3-1.8,4.1-2.4c2.9-1.7,3.2-1.6,6.5-1.5l12.1,0.7l8.3-3.2l30.6-14.2c5.2-2.4,4.8-2.6,9.5,0.6l3.3,2.3l11.3,8.6l0.5,0.4l6-0.4
	l17.4,16.7l17.5,1.6l6.2-2.7C860.4,110.7,868.8,112.2,881.4,117.9"/>
<path class="st0" d="M817.9,206.2c0,0-4.2-13.7-6.3-24.3c-2.1-10.6-1.4-24.1-1.4-24.1l25.7,50.8L817.9,206.2z"/>
<path class="st5" d="M1036,192.5c0.1,0.1,0.2,0.1,0.4,0.2C1036.3,192.6,1036.2,192.6,1036,192.5 M1035.7,192.3
	c0.1,0,0.2,0.1,0.3,0.2C1035.9,192.4,1035.8,192.4,1035.7,192.3z M1035.3,192.2c0.1,0,0.2,0.1,0.3,0.1
	C1035.5,192.3,1035.4,192.2,1035.3,192.2z M1035,192.1c0.1,0,0.2,0,0.3,0.1C1035.2,192.2,1035.1,192.1,1035,192.1z M1034.7,192.1
	c0.1,0,0.2,0,0.3,0C1034.9,192.1,1034.8,192.1,1034.7,192.1z M1034.4,192c0.1,0,0.2,0,0.2,0C1034.6,192,1034.5,192,1034.4,192z
	 M1034.2,192c0.1,0,0.1,0,0.2,0C1034.3,192,1034.2,192,1034.2,192z M1033.7,192.2c0.1-0.1,0.3-0.1,0.4-0.1
	C1034,192.1,1033.8,192.1,1033.7,192.2z M1033.5,192.3c0.1,0,0.1-0.1,0.2-0.1C1033.6,192.2,1033.6,192.2,1033.5,192.3z
	 M1033.3,192.4c0,0,0.1-0.1,0.2-0.1C1033.4,192.3,1033.4,192.4,1033.3,192.4z M1033.2,192.6c0-0.1,0.1-0.1,0.1-0.1
	C1033.3,192.5,1033.2,192.5,1033.2,192.6z M1033,192.8c0-0.1,0.1-0.1,0.1-0.2C1033.1,192.7,1033.1,192.7,1033,192.8z M1032.8,193.2
	c0.1-0.2,0.1-0.3,0.2-0.4C1032.9,192.9,1032.9,193.1,1032.8,193.2z M1032.5,194.1c0.1-0.3,0.1-0.6,0.3-0.8
	C1032.7,193.5,1032.6,193.8,1032.5,194.1z M1032.5,194.4c0-0.1,0-0.2,0.1-0.3C1032.5,194.2,1032.5,194.3,1032.5,194.4z M1032,201.4
	c0.2-2.4,0.1-5.1,0.4-7C1032.1,196.3,1032.3,199.1,1032,201.4z M1002.9,198.3c-0.1-0.1-0.2-0.2-0.3-0.3
	C1002.7,198.1,1002.8,198.2,1002.9,198.3z M1006.6,205.9c1.1-1.6-0.7-4.4-3.6-7.4C1006,201.5,1007.7,204.3,1006.6,205.9z
	 M376.1,208.5l40.2-7.9l12.3-3.5l9.3-0.7l6.2-1.2l98.9-10.7l32.8-8.6l27.7-14.6l31-19.9l-23.6,27.3l19.2-4.4
	c-11.2,24.3-36.8,42.4-80.3,38.9l45.4,7c9.5-0.7,19.3-0.9,26.7-0.9c36.9,0,67.5-10.6,104-10.6c17.2,0,47.6,5.1,78.3,9.4l0,0
	c11.2,1.6,22.5,3,33.2,4.1c21.9-2.6,41.9-6.4,54.4-6.4c24.8,0-9.8-23.8,3.7-17l0,0l0.5,0.3c0.7,0.3,6.8,5.9,14.1,11.9
	c1.5,1.2,2.8,2.4,4.3,3.6c9.7,7.5,19.8,13.9,21.7,9.4c6.9-15.6-23.4-31.1-8.1-31.1c3,0,6.6,1.4,10.2,3.3c3.6,1.8,7.2,3.9,10.5,5.6
	c1.2,0.6,2.4,1.1,3.5,1.5c19.7,6.6,33.5,13.2,49.2,14.1c3,0.2,4.7-0.3,5.3-1.3c-3.9-2.3-0.3-1.8-15.6-8.6
	c-1.3-6.5-10.9-12.4-22.6-17.6c-16.3-0.1-38.7-5.6-53-12.1c-11.5-5.2-10.3-9.9-5.4,4.6c1.4,4.1,5.7,10,0.8,4.8
	c-3.6-3.9-8.9-7-11.1-11.5l-8.3-17.7c-2.2-4.6-4.1-6.4-5.7-6.8c-2.3-0.6-2.8,1.1-3,3c-0.2,1.8-0.1,8.4,1.9,8.4
	c1.5,0,21.7,28.5,24.5,32.7c2.4,3.6,13.5,16.4,13.3,16.4c-3.9,0-16.4-16.3-19.1-19.4c-8.4-9.9-16-12.6-26.9-19.1
	c-0.4-0.2-0.7-0.4-1.1-0.6c-0.5-0.3-3.7-2.4-3.8-2.9c-0.7-2.8-4.2-4-7.4-5.6c-4.2-2-5.3-3-7.1-7.4c-1.2-3-2.2-6.2-4-9
	c-0.9-1.5-1.9-2.5-2.9-2.5c-2.1,0-2.8,1.6-2.5,3.9c0.7,6.3,5.1,13.6,8.2,19.4c0.4,0.7,0.7,1.2,1,1.8c4.2,4.9,10.3,5.5,15.7,10.9
	c1.6,1.6,12.9,10.7,10.1,9c-6.6-4-10.3-3.6-16.2-9.3c-8.2-8-8.8,5-13.8-0.5c-4.5-5-1.4-7.3-6.4-1.6c-3.2,3.7-6,3.3-8.2,1.2
	c-1.4-1.3-2-2.1-3.8-3c-3.6-1.7-7.5-2.2-11.1,4.3c-3.1,5.6-6.4,10.4-9.5,15.2c-12.2,18.3-5.6-2.3-5.6-19.4c0-15.2-7.7,8.7-11.9-1.4
	c-1.2-3,0.9-11-3.3-11.4c-5.6-0.5-14.7,13.8-18,18c-5.4,6.8-14.5,10.7-20.9,17.1c0.1-2.9,2.5-4.5,3.3-9c1.7-9,7.8-20.4,13.8-27
	c3-3.4,5.9-14.7,9.5-19.8l-0.5,0.4l13.4-23.4l8.4-9.8l6.7,0.1l3.9,3.3l4,2.7l-2.8,9l8.1-1.9l21.3,4.7l2.3-0.7l3.7-1.4l0.6,0.1
	c6.8,1.1,11,1.8,18.6,3.1l5.7,2.4l0,0.4l9.7,4.3l15.2,3.8l0.6,0.6l-0.6-0.9c0,0,51.9,31.8,68.2,42.4c7.3,4.7,9.8,9.3,35.1,25
	c-4.3-4.2-10.5-8.5-14.3-10.5c-0.3-0.1-0.5-0.3-0.8-0.4c-0.4-0.1-0.4-0.2,0-0.1c-0.2-0.1-0.4-0.2-0.5-0.2
	c-2.7-1.1,15.6,5.6,24.7,10.1l0.1,0c2.1,1,3.8,2,4.7,2.7c3.6,2.9,6.4,4.8,8.6,5.9c5.3,2.5,6.9,0.4,7.4-2.8l-14.8-3.5l-62.8-40.9
	l40.3,5.8l55.2,36.8c17,7.6,47.5,15.5,47.5,15.7l0,0.1c0.4,0.1,0.6,0.2,0.6,0.2c0.6,3.4,5.9,6.8,12.1,9.9c6.8,3.4,9.7,6.1,14.3,8.4
	c0.5,0.2,0.9,0.4,1.3,0.7c-6.7,0-13.1-0.2-19.6-0.1c-45.7,1-99.4,4.2-139.5-7.6c-29-8.5-72.4-11.6-112.4-12.7
	c-1.4,0.1-2.8,0.1-4.1,0.2l-0.5,0l-0.5,0l-0.5,0c-10.5,0.3-21.3,0.1-32-0.4c-0.4,0-0.8,0-1.2-0.1h0c-0.5,0-0.9,0-1.4-0.1
	c-0.9,0-1.7-0.1-2.6-0.1h0l-1.6-0.1l-11-0.7c-33-2.2-64.4-6.6-87.5-6c-40.4,1-66.6,6.4-55.4,7c6.9,0.4,14.9,1.1,22.9,2.1l0,0
	c5.8,0.7,11.8,1.6,17.4,2.7l0.6,0.1l0,0l1.6,0.3l0.2,0l0.4,0.1l0.9,0.2l0.2,0l0.4,0.1l0.2,0l0.5,0.1l0.2,0l0.4,0.1l0.5,0.1l0,0l0,0
	l1.6,0.4l0.1,0l0.9,0.2l0.1,0l0.5,0.1l0.5,0.1l0.5,0.1l0.1,0l0.4,0.1l0.4,0.1l0.1,0l1,0.3l0.5,0.1l0.1,0l0.7,0.2l0.1,0l0.1,0
	l0.5,0.1l0.2,0.1l0.3,0.1l0.2,0.1l0.8,0.2l0,0l0.3,0.1l0.1,0c0.5,0.1,0.9,0.3,1.4,0.4c26.7,8.6-7.3,3.4-19.8,3.5
	c-22.3,0.2-64.8-5.8-94-9.7l-0.5,0l-0.5,0l-0.3,0l-0.2,0l-0.5,0l-0.5,0l-0.1,0l-0.5,0l-0.5,0l-0.4,0l-0.1,0l-0.5,0l-4.8-0.4l0,0
	l-2.7-0.2l-0.4,0l-1.6-0.1l-0.5,0l-0.2,0l-0.4,0l-0.5,0l-0.5,0l0,0l-0.5,0l-0.5,0l-0.3,0l-0.3,0c-5.3-0.5-10.6-0.9-15.9-1.3l0,0
	c-17.8-1.4-35.6-2.6-53.3-3.4c-28.7-1.3-59.4-1.7-87.9-0.5c-14.7,0.6-29.4,1.7-44,3.2l-0.7,0.1l0,0l-0.1,0
	c-4.5,0.5-8.6,0.6-13.8,1.6c-10.7,2.1-23,5.6-32.2,7.3L376.1,208.5z M626.3,176l25.2-22.3l-20.9,7.8c0,0,14.6-16.9,24.6-21.1
	c7.2-3.1,13.1-2.1,19.6-6.1l49.4-30.5l11.3,2.5l4.7,0.3l0.3-0.1l6.2-2.8l36.4-17l4.1,2.1l-3,29.5l-9.2,3.5
	c-14.6,32.3-7.2-9.6-34,26.9l4.2-14.2c-2.6-0.5-4.3-1.5-5.4-2.8l-9.4,6.3l0-0.1l-34.2,22.9l12.7-14.9l-13.5,3.5l17.7-17.7
	c-10.5,1.5-23.6,2.3-25.3,4.1c-5.3,5.9-16.4,23.2-18.9,26.4c-1.8,2.3,2.1-6,2.5-10.9c0.2-2.9-0.2-4.9-0.9-6.8
	c-8.4,8.8-24.5,24.6-26.9,25.3C638.8,171.3,626.3,176,626.3,176z"/>
<path class="st6" d="M501.6,210.4c0.6,0,1.2-0.1,1.8-0.1c-0.6,0-0.9-0.2-0.9-0.6c0.8-0.2,1.6-0.3,2.3-0.5L501.6,210.4z"/>
<path class="st7" d="M1017.8,193l-0.2-0.4c-0.4-0.5-0.7-1.2-0.9-1.9l-0.4-1l1.5-1.3c0.5-0.5,1-0.9,1.5-1.2c1.2-0.5,1.4,1.6,1.8,0.3
	c0.2-0.7,0.5-2.5,0.9-3c0.4-0.4,1.1,0.9,1.7,1.1l0.2,0l-0.1,0.5l-0.2,0.7l-0.1,0.3c-0.5,1.3-1.3,0.3-2.3,0.9
	c-0.9,0.4-2.4,2.5-2.1,3.7c0.1,0.3-0.4,0.6-0.9,1L1017.8,193z M1041.5,197L1041.5,197c-0.4-1.2-1-2.7,0.4-2.7c0.9,0,1.3,1.1,2.1,1.4
	l0.4,0l-0.3,0.3c-0.3,0.4-1.6-0.2-2.3,0.4L1041.5,197z M1046.5,197.8l-0.1-0.9c0-0.4,0-0.9,0.1-1.3c0.1-0.8,1,0.1,1.2,0.3
	c0.1,0.1,0.3,0.1,0.4,0.2l0.2,0l-0.4,0.5c-0.4,0.4-0.8,0.8-1.2,1.1L1046.5,197.8z M1043.2,199.5l-0.5-0.7l-0.2-0.9
	c0.2,0,0.4,0.1,0.5,0.6L1043.2,199.5z M1035.8,202l-1.2-2.9c-1-1.8-2.7-3.3-2.6-4.1l0-0.1l0.3-0.1c0.3-0.1,0.5,0.5,0.6,0.7
	c0.3,0.5,0.8,0.9,1.2,1.3l0.8,1.1l-0.1,0.1c0,0.2,0.1,0.5,0.4,0.8c0.5,0.4,1.4,0.4,1.9,0.7c0.6,0.4-0.5,1.1-1.1,2.2L1035.8,202z
	 M1043.2,202.7v-0.8l0.3-0.1l0,0.3l-0.1,0.2L1043.2,202.7z M1042.8,203.5l-0.2-0.2c0-0.1,0-0.3,0.2-0.5h0.5L1042.8,203.5z
	 M1043.5,207.8L1043.5,207.8c-0.5-0.3-0.8-0.6-0.6-1.1l0.3-0.1l0.4,0.1c0.3,0.1,0.7,0.1,1.2,0.1c-0.4,0-0.7,0.3-1.1,0.7
	L1043.5,207.8z M1016.5,208.7l-0.7-0.4c-0.5-0.3-0.8-0.7-0.7-1.2c0-0.2,2.1,0,2.3,0c-0.5-0.7-0.9-1-1.4-2c-0.2-0.5,0.1-1-0.2-1.3
	c-0.1-0.1-1.8-0.1-1-1.2h0.6c0.2-0.3-0.2-0.8,0-1c0.3-0.6,2.2,0.7,2.2-0.3c0-1.6-2.3-1.7-2.7-3.2c-0.1-0.5,0-1.1-0.2-1.3
	c-0.5-0.5-1.1,0-1.3-0.8c-0.3-1.3-1-3,0.6-3c1.1,0,1.5,1.3,2.4,1.6l0.4,0l-0.3,0.3c-0.2,0.4-0.1,2.4,0,2.4c0.5-0.2,1.1-0.8,1.6-1.1
	c0.4-0.3,0.6-0.6,1-0.9l0.7-1l0,0.2c0,1.2,0.9,0.6,0.9,3c0,1.9-2.2,1.3-1.6,2.3c0.3,0.5-0.3,1.4,0,1.9c0.2,0.4,0.9-0.4,1.1,0
	c1.4,2-1.6,1.9-1.8,2.2c-0.6,0.7-0.1,1.6-0.5,2.5c-0.4,0.9-0.8,1.5-1.2,2.1L1016.5,208.7z M1019,211.9l-0.7-1.1l-0.9-0.9l0.4,0
	c1,0,2,0,2.1,0.1c0.1,0.5,0,0.9-0.2,1.3L1019,211.9z M1047,212.2l-0.6-1.1h0c0.8,0.1,1.7,0.3,2.4,0.7c-0.3,0-0.6,0.1-1,0.2
	L1047,212.2z M937.1,214.6L937.1,214.6c-0.3-0.1-0.6-0.3-0.5-0.4c0.1-0.4,0.8-0.1,1.1,0l0,0l-0.2,0.1
	C937.4,214.4,937.3,214.5,937.1,214.6L937.1,214.6z M937.6,215.9l0.1-0.3c0-0.1,0-0.1,0-0.2l0,0h0c0.6,0,1.1,0,1,0.3
	c-0.1,0.1-0.5,0.1-0.9,0.3L937.6,215.9z M938.7,217.3c-0.1,0-0.3-0.1-0.6,0l0,0l-0.2,0c-0.1,0-0.3-0.1-0.4-0.4
	c0-0.1-0.1-0.2-0.1-0.3v-0.2l0.1,0C938.2,216.5,938.9,216.9,938.7,217.3z M943.2,223.3c0.2-0.4,0.5-0.9,0.5-0.4
	c0,0.3,0.4,0.4,0.9,0.4l0.2,0l0,0.1c-0.2,0-0.4,0.1-0.7,0.1L943.2,223.3L943.2,223.3z M953.1,221.9c-0.2,0-0.3,0.1-0.4,0.3
	c-0.1,0.1-0.4-0.3-0.5-0.4c-0.1-0.1-0.3-0.2-0.4-0.3l-0.3-0.3l0-0.2c0-0.1-0.1-0.2-0.1-0.2c-0.5-0.5-1.1,0-1.3-0.8
	c-0.2-0.7,0.9-1.3,1-1.9c0-0.1,0-0.2-0.1-0.4l0,0l0.2-0.2c-0.1,1.8,1.2,3.1,1.4,0.4c0.1,0.5,0.2,1,0.4,1.4c-0.1,0.2-0.1,0.5-0.1,0.9
	c0.1,0.5,0.2,1,0.3,1.5C953.1,221.7,953.1,221.8,953.1,221.9z M954.5,222.4c-0.1-0.1-0.2-0.1-0.3-0.2c0.2-0.3,0.4-0.7,0.6-0.9
	l0.6-0.3l-0.1,0.1L954.5,222.4z M938.4,219.2L938.4,219.2L938.4,219.2c0-0.3,0.3-0.4,0.2-0.8l0-0.1l0.1,0.1c0.1,0.1,0.1,0.3,0.1,0.5
	C938.7,219.1,938.6,219.1,938.4,219.2L938.4,219.2z M934.6,218.9v1.1c0,0-0.1,0-0.1,0.1c-0.1,0.1-0.1,0.5-0.1,0.7
	c0,0.1-0.1,0.2-0.1,0.3l0,0l0-0.1c-0.1-0.2-0.2-0.4-0.5-0.6c0,0,0-0.1,0-0.1c-0.1-0.1-0.5-0.2-0.4-0.4h0.5c-0.1-0.1-0.2-0.2-0.3-0.4
	c0-0.1,0-0.2-0.1-0.3c0,0-0.4,0-0.2-0.3h0.1c0,0,0-0.1,0-0.1v0l0.1,0C933.9,218.8,934.3,218.8,934.6,218.9z M934.6,217.4v0.7
	c-0.3,0-0.6,0.1-0.9,0.2l-0.1,0l-0.2-0.1c-0.1-0.1-0.1-0.1-0.1-0.2c0-0.1,0-0.2-0.1-0.3c-0.1-0.1-0.2,0-0.3-0.2
	c0-0.2,0.2-0.3,0.2-0.4c0-0.1-0.2-0.2-0.1-0.2c0.2,0,0.2-0.1,0.5,0.1l0.1,0.1l0,0c0,0,0,0,0,0c0,0,0,0,0.1,0l0.2,0.1
	c0,0,0.1,0,0.1,0l0-0.1l0.1,0C934.2,217.3,934.4,217.3,934.6,217.4z M934.6,216.3v0.5c-0.2,0.1-0.5,0.1-0.7,0.2l0-0.1
	c-0.1-0.2-0.3-0.2-0.4-0.4l-0.1-0.1l0,0C933.6,216.3,934.1,216.3,934.6,216.3z M1064.8,212.3v3.3c-0.5-1.1-1.2-2.2-2.1-3.4
	c-0.2-0.2,0.2-1.1,0-1.2c-0.6-0.6-3.4-2.1-2.9-4.6c0.1-0.4,3.4,0,3.7,0c-0.8-1.6-1.4-2.5-2.1-5c-0.3-1.2,0.1-2.4-0.4-3.3
	c-0.2-0.3-2.8-0.3-1.5-2.9c0.1-0.1,0.1-0.1,0.2-0.1l0,0v0c0,0.1,0,0.2,0,0.2c0.1,0.9,0.1,1.9,1.1,1.9c1.5,0,2.2-0.4,3.4-0.9
	c-0.5,1-0.6,3.2,0.1,4.2c0.7,0.9,1.5-0.3,1.8,0.6c0.2,0.8,0.6,1.9,1.5,1.3c1.6-1.2,1.4-2.6-0.1-4.7c-0.3-0.4-1.1,0.1-1.1-0.2
	c0-1.2,0.1-1.9-0.5-3c-0.4-0.7-1.5-1.4-1.4-2.2c0.1-0.8-0.1-1.5-0.6-1.9l-0.2-0.1l-0.1-0.2c-0.8-2.2-3-2.9-3.8-5.5l0-0.1l0.3,0.1
	c0.5,0.2,0.8,0.6,0.8,1c0.1,1.5,1.5,2,2,0.6c0.4,0.8,0.4,1.5,1.4,1.6c0.2,0,2-0.3,1.9-0.6c-0.6-1.3-1.9-1.9-3.1-2.3
	c-0.2-0.1-0.1-1.7-0.8-1.9c-0.3-0.1-1.3,0.3-1.4,0c-0.3-1.2-0.6-1.7-1.4-1.9h0v0c0-0.3-0.1-0.5-0.2-0.6c-0.8-1.2-1.8,0-2.1-2.1
	c-0.1-0.4-0.1-0.8-0.2-1.2l-0.1-0.3l0.9,0.4c0.5,0.2,2.9,3.4,1.8,0.1c0-0.1-0.1-0.2-0.2-0.3c-0.3-0.8-1.1-0.6-1.3-1.1
	c-0.1-0.3-0.5-1-1-1.5l-0.6-0.6l0-0.5c0-1.5,0.4-2.6,1.6-2.6c2.1,0-0.1,4.4,2,3.8l0.1,0l0.1,0.6c0.1,0.3,0.2,0.4,0.5,0.5
	c0.7,0.1,1-0.5,1.5-0.9c-0.3,0.8-0.7,1.4-0.6,2.5c0.1,0.9,1.2-0.4,1.3,0c0.5,1.6-1.6,3.2,0.8,3.2c0.6,0,0.5-1.5,0.5-2
	c0-0.8,0.7-0.7,1-1c0.7-0.6,0.1-4-0.7-4.3h-0.6c-0.4-0.3,0.3-3.2-0.7-3.8l-0.1,0l-0.1-0.1c-0.5-0.6-1.1-1.3-1.8-2l-0.8-0.8l0.6,0.2
	c1.1,0.4,2.2,0.8,3.5,1.4c0.8,0.4,0.2-1.2,0.2-1.4c-0.4-1.5-2.5,0-3-1c-0.6-1.1-1.5-1.1-2.6-1.3c-0.2,0-0.5-0.1-0.7-0.3l-0.1-0.1
	l0,0c-0.8-1.1-1.3-2-1.8-3.2c-0.3-0.7-0.2-1.5,0.1-2.2l0.1-0.2l0.1,0.2c0.4,0.4,1.6-0.4,1.9-0.6c0.5-0.5,0.5,6.8,2.5,2
	c0.2,0.3,2.1,5,2.1,1.7c0-0.7,0.2-1.8-0.3-2.3c-0.4-0.4-1.5-0.4-1.8-1c-0.6-1.1-0.3-2-1.3-2.7c-0.4-0.3-0.4,0.2-0.8,0.1
	c-0.5-0.2-0.4-0.9-0.6-1.3l0,0l0-0.2c0.1-0.5-0.2-1-0.9-1.2c-1.3-0.5-1.6-1.2-1.7-1.9l0-0.2l0.1,0c0.2,0,0.4,0.1,0.6,0.1
	c0.2,0.1,1.4,0.8,1.5,0.6c0.5-0.8-0.6-0.8-0.8-1c-0.3-0.4-0.7-1.5-1.2-2.4l-0.3-0.5c0.3-0.3,0.5-0.8,0.6-1.2l0.1-0.4l0.4,0.1
	c0.3,0.2,0,0.7,0.2,1c0.1,0.2,1-0.1,1.2,0c0.7,0.3-0.8,3.2,0.8,3.3c0.7,0.1,2.5-0.7,2.7,0.2c0.1,0.5,0.1,2.2,0.7,2.2
	c1.7,0-0.3-2.1,0.1-2.4c0.3-0.2,1.1-0.3,1.1-0.6c0.3-2.3-2.5-2-2.6-2.4c-0.1-0.4-0.8-1.2-1.2-1.1c-0.3,0.1-0.4-1.6-1-1.9
	c-0.3-0.2-0.7,0.3-0.9,0.3c-0.3,0.1-0.6-0.2-1-0.3l-0.4-0.1l-0.1-0.6c-0.1-0.6-0.3-1.2-0.3-1.6c1.3,0.4,1.6-1,1.5-2.6l0-0.1l0.1,0
	c0.1,0,0.1,0.1,0.1,0.4c0,0.3-0.1,1.1,0.2,1.3c0.4,0.2,1.1-0.4,0.9,0.1c-0.1,0.3-0.2,1.3,0.3,1.2c0.3-0.1,0.8-0.9,1-0.9
	c0.9,0.2,0.4,1.4,0.7,1.6h0.8c0.2,0.1,0.9,0.9,1,1.1c-0.3-0.3-0.2-1.4-0.4-1.8c-0.5-1.6-1.7-3.1-3.2-3.1c0.7-0.8-1-2.8-1.8-2.6
	l-0.5,0.2l-0.1-0.1c-0.4-1-1.3-0.4-1.6-1.1c-0.8-1.7-0.5-9.4-1.2-11.4c-0.3-0.8-0.9,6.2-0.5,8.1c0.3,1.7-1.1,2.2-1.1,4.9
	c0,2.1,0,3.1-0.1,3.9l0,0.1l-0.8,0.1c-0.8,0.1-1.2,1.1-1.6,1.1c-0.7,0-2.2,0-2.5,0.5c-0.2,0.2-0.6,2.4-0.7,2.7
	c-0.3,2.1,3.5-1.4,3-1.9c0.9,0.4,1.6-0.4,2.2-0.7l0.2-0.1l0,0.4c0,0.1,0,0.3-0.1,0.4c-0.1,1.1-1,2.2-1.7,3.3l-0.4,0.6l-0.1,0
	c-0.4-0.2-0.8-0.8-1.4-0.4c-0.8,0.6-1.8,1.9-0.3,2.4c-0.7,0-1.3-0.1-1.7,0.4c-0.5,0.7,0.2,1.6-0.3,1.8c-0.2,0.1-1.8,1.1-0.8,1.3
	c2.5,0.5,2.9-1.7,3.7-3l0.4-0.6l0.1,0.1c0.6,0.7,1.9,1.5,2,2.1c-0.6,0-1,0.4-1.2,1l-0.1,0.2l-0.2,0c-0.4,0.1-0.6,0.5-1.1,1.3h0.1
	c-0.7,0-2.3,1-2.1,1.6c-0.7,0-0.4,0.8-0.3,1.2c0.6,1.4-2.1-0.5-1.8,1.2c0.3,1.4,1.6,0.9,2.2,1.9c0.7,1.3,0.3,2.2,0.8,0
	c0.6-2.6,0.4-0.7,1.6-1.4c0.1,0,0.1-0.1,0.2-0.2l0-0.2l0.2,0.2c0.4,0.4,1.2,0.9,2.3,1.6c0,0.1,0,0.1,0.1,0.2l0,0l-0.3,0.3
	c-0.7,0.5-1.5-0.2-2.1,0.5c-0.2,0.3-0.8,1.8-0.6,2.3c0.2,0.4,0.9-0.3,1-0.4c0.2-0.2,0.5-0.5,0.9-0.7l0.8-0.6l-0.1,0.2
	c-0.6,0.7-1.5,1.3-1.9,2.3l-0.1,0.4l-0.8-0.1c-0.7-0.1-1.5-0.1-2.2,0c-0.9,0.1-1.6,1.1-2.1,1.9c-0.2,0.4-0.9,0.6-1.1,1.3
	c-0.4,1.2,0.1,3,0.3,4.3c0.3,2.2,1.2,0.6,1.5-0.4c0.1-0.4,0.1-3.1,0.4-2.8c0.3,0.4,0.8,0.4,1.2,0.2l0,0l0,0.2c0,0.8,0,1.6-0.1,2.5
	c-0.2,1,0,1.7,0.2,2.3l0.1,0.2l-0.4,0.6c-0.1,0.2-0.2,0.5-0.2,0.7c-0.1,0.5-1.1-0.3-1.8-0.4c-1-0.1-1.9,1.4-1.2,2.5
	c-0.8,0-1.3,1.6-0.6,1.8c0.8,0.3,0.8-1,1.2-1c0.6,0,1.4-0.2,0.8-1.5c0.3,0.4,0.9,0.9,1.4,0.8c0.3-0.1,0.5-0.3,0.8-0.6l0.1-0.2l0,0.4
	c0,1.1,0.2,2.1,1.4,3.9l0.2,0.3l-0.6,0.7c-0.3,0.6-0.4,1.3-0.7,1.8c-0.3,0.7-2.2-1.6-2.9-0.8c-0.4,0.5-0.5,1.3-0.5,2
	c-0.2,2.7,1.4,4.2,1.4,6.9c1-1.6,1.5-3.1,1.5-5.5c0.3,0.7,0.3,2.5,0.8,2.8c0.4,0.3,0.9-0.6,1.2-1.7l0.4-1.2l0.1,0.5
	c0.1,1,0.1,2.2,0,3.4l-0.1,0.7l-1,0.4c-1,0.4-1.9,1-2.7,1.7l-0.8,0.9l-0.3-0.7c-0.7-0.9-0.9-2.4-1.6-3.5c-0.6-1-1.4-0.5-1.7-2.3
	c-0.2-1.2-0.5-2.6-0.8-3.8c1.6,0.3,0.8-1.2,0.2-2c-0.4-0.6-0.1-0.9-0.5-1.6c-0.2-0.3-0.3,0.2-0.5,0.4c-0.3,0.5-0.5,0.8-0.5,1.8
	c0,1.5-0.7,1.2-0.9,2c-0.3,1.7-1,3.1-1.4,4.4c-0.4,1.3,0.7,1.4,0.2,2.9c-0.4,1.1-0.8,0.4-1.3,0.9c-0.4,0.4-0.1,1-0.3,1.6
	c-0.2,0.7,0.4,0.9,0.3,1.5c-0.1,0.3-0.6,0.7-1.1,1.1l0,0.1l-0.1-3.6c0-0.7-1-0.4-1.3-0.7c-0.5-0.4-0.7-1.1-0.9-1.7
	c0-0.1-0.1-0.2-0.2-0.2h0l0,0c0-1.2-2.5-1.7-2.7-2.8c-0.1-0.8,0.4-1.3,0.7-1.9l0.1-0.2l0,0c0.1-0.2,0.2-0.4,0.2-0.7
	c0.5,1.1,0,4.5,2.1,3.3c0,0.6,1.1,4.2,1.9,2.7c0.7-1.4,0-4.7-0.9-5.5c-0.2-0.2-0.8,0-0.7-0.4c0.1-0.5,0.5-1.3,0-1.7
	c-0.4-0.3-1-0.6-1.3-0.2c0-1.7-0.7-2.2-1.8-2.4l-0.4-0.1l0.1-0.1c0.5-0.3,2.2-0.4,1.6-2.1c-0.5-1.6-1-2-1.5-2.4l-0.1-0.1l0.8,0.2
	c0.4,0,0.8,0,1.1-0.1c0.1,0,0.8,3.1,1.1,3.5c0.2,0.3,0.9-0.1,0.9,0.9c1-3.5-1.5-7.4-3.6-9c0,0-0.1-0.8-0.1-0.9
	c-0.4-0.7-1.3-1-2.1-1.2l-0.1,0l-0.1-0.4c-0.1-0.2-0.1-0.5-0.2-0.7c-0.3-0.8,0.5-2.2,1-3.4l0,0l0.1,0.1c0.2,0.2,0.5,0.4,0.9,0.4
	c0.5,0-0.5,0.8-0.6,1.3c-0.2,0.6-0.1,1.2,0,1.6c0.3,1.2,1.6-0.1,2-0.6c-0.9,2.9,3.2,1.9,1.9,1.2c1.9-2.2-2.4-4.1-2.7-5.2
	c-0.1-0.4-0.6-1.7-0.9-1.7l-0.6-0.1l-0.3-0.3l-0.2-0.3l0.1,0c0.9-0.3,2-1.3,2.3-0.5c0.3,0.8,0.6,2.4,1.3,2.7
	c0.3,0.2,0.5,0.1,0.6-0.1c0.7-1.6-1.4-4.8-2.5-4.9c-0.9-0.1-1.5-0.4-2.1-0.9l-0.5-0.4l-0.1-0.3c-0.1-0.7-0.4-1.2-0.7-1.7l-0.1-0.2
	l0.1-0.3c0.2-1.3-0.2-1.4,0.1-3c0.2-1.2-0.7-0.9-0.9-1.7c-0.1-0.6,0.7-2.3,0-2c-0.5,0.2-0.7,1.2-0.5,1.7c0.3,0.8-0.5,0.8-0.9,1.4
	c-0.9,1.8,0.9,1.1,0.9,2.2l0,0.7l-0.1,0.2c-0.7,1.3-0.1,2-1,3.2c-0.6,0.8-1.3,2-1.5,2.9l0,0.2l-0.1,0.1c-0.7,0.9-1.7,2.5-1.8,3.1
	c-0.1,0.9,0,3.5,1,2.3c0.3-0.4,0.3-1.2,0.4-1.9c0.1-0.9,1.3-0.6,1.5-1.7l0.1-0.5h0c0.2,0,0.5,0,0.8-0.1c-0.5,1.8-1.1,4-1.5,6.1
	l-0.1,0.4l-0.9,0.4c-0.9,0.4-2.5,0.8-2.8,2c-0.1,0.7,0.6,1.2,0.1,1.7c-0.1,0.1-2.3,3.2-0.8,3.2c1.2,0,1.3-1.4,1.6-2.5
	c0,0,1.1,1,1.5,1.2c0.5,0.2,0.1-2.6,0.1-3.3c0.2,0.2,0.3,0.3,0.5,0.4l0.2,0l0,0.1c0.3,1.8,1.6,1.2,0.6,3c-1.4,2.4,0.7,0.8-0.8,2.8
	c-0.2,0.2-0.4,0.7-0.6,1.3l-0.1,0.3l-0.2,0.3c-0.3,0.4-0.5,0.8-0.7,0.8c-1.2,0.2-1.7,1.3-1.7,2.7c0,2-0.3,0.9-1.7,1.9
	c-0.9,0.6-1.2,1.1-1.4,2.3l-0.5,0.4l-0.5-0.3c-0.4-0.3-0.7-0.6-0.8-1.7c-0.2-1.4-0.6-3.1-1-4.4c1.8,0.4,0.9-1.4,0.2-2.3
	c-0.5-0.7-0.1-1.1-0.6-1.8c-0.2-0.3-0.4,0.2-0.6,0.5c-0.4,0.5-0.6,0.9-0.6,2c0,1.7-0.8,1.4-1,2.4c-0.4,2-1.1,3.6-1.6,5
	c-0.5,1.5,0.8,1.6,0.2,3.4c-0.4,1.2-0.9,0.5-1.5,1c-0.5,0.5-0.2,1.1-0.4,1.8c-0.2,0.8,0.5,1,0.4,1.7c-0.1,0.8-2.7,1.6-1.2,2.9
	c0.6,0.5,1.6,0.5,2.2,0.8c0.7,0.4-0.6,1.3-1.2,2.5c-0.5,0.9-0.8,2.4-1.3,3c-1.5,1.7-3.5,3-0.2,3c-0.9,0-2,1.7-0.6,1.7
	c1.1,0,2.2,0,3.2,0.3c-1.3,0-6.7,1.4-4.3,3c-0.3,0.4-1.6,1.5-2.1,1.8c-0.2,0.1-1.2,0.3-1.2,0.3c-0.1,0.5,0.5,0.5,0.6,1
	c0.1,0.3-1.4,1.4-1.6,2.2c2.4,0,4.2-0.8,6.7-0.8c-2.4,0-3.2,4.9-5.1,4.9c0.3,0.4,0.3,0.7,0.3,1.1l-0.1,0.3l-2.1,0l-2.3-0.5l-0.7-0.9
	l-0.4-0.2l0.2-0.2c0.1-0.1,0.1-0.2,0.2-0.3c0.7-1.1,4.1,0.7,3.2-0.8c-1.6-2.7-2.1-4.9-4.3-7.2l-0.1-0.1l0.9,0.5
	c0.6,0.5,0.9,1.6,1.6,1.8c0.3,0.1,0.5-0.1,0.7,0.1c0.4-0.4,0.5-0.8,0.4-1.6c0.1-0.7,0.3-1.5,0.3-2.2c0.2-2.8-1.7-2-2.7-3.8
	c-0.3-0.5-0.6-1.4-1-1.8c-0.5-0.4-1.3-0.1-1.9-0.1l-0.3-0.1l-0.2-0.4c-0.3-0.7,0.1-1.5-0.4-2c-0.2-0.2-2.7-0.2-1.5-1.8
	c0.2-0.3,0.7,0.3,0.9,0c0.1-0.1,0.1-0.2,0.1-0.3l0,0l0.2,0.1c0.1,0.1,0.3,0.2,0.5,0.3c0.8,0.5,0.9,1.7,1.7,1.9
	c1.4,0.4,0.2-0.4,1.3-1c1-0.6,1.9-0.4,3.1-0.2l0.4,0.1l-0.1,0.4c0.3-0.1,0.4-0.3,0.1-0.4l-0.1,0l0-0.1c0.1-1.4-0.8-3-1.2-4.2
	c-0.6-1.7-3.6-4.7-5-3.1c-0.1,0.1-0.7-0.5-0.8-0.6c-0.2-0.1-0.4-0.3-0.6-0.5l-0.5-0.4l0-0.3c0-0.2-0.1-0.3-0.2-0.4
	c-0.8-0.7-1.7,0-2-1.3c-0.3-1.1,1.3-1.9,1.4-2.8c0-0.2-0.1-0.4-0.2-0.6l0-0.1l0.3-0.3c0,2.7,2.1,4.6,2.1,0.6c0.3,1,0.4,2.2,1.3,2.7
	c0.2,0.1,0.1-0.5,0.4-0.7c0.4-0.2,0.2,1.9,1.1,1.2c0.5-0.4,0.5-1,0.3-1.7l-0.2-0.3l0.1,0c0.8,0.4,0.2-2.7-0.2-3.2
	c-0.4-0.6-0.9-1-1.4-1.4l-0.1-0.1l-0.2-0.6c-0.1-0.2-0.3-0.3-0.5-0.4l-0.4,0l-0.1-0.1c-0.2-0.2-0.5-0.5-0.7-0.8l-0.2-0.2l0-0.4
	c0-0.5-0.1-0.8-0.7-0.8l-0.1,0l-0.1-0.2l0.2-0.3c0.1-0.5-0.2-0.9-0.6-1.1l-0.4-0.2l-0.2-0.4c-0.3-0.8-0.5-1.6-0.4-2.2
	c0.2-1,2.9-0.7,2.7-1.9c-0.1-0.9-1.5-0.5-2.3-1.2c-1-1.1-1.5-3.3-1.8-4.5c2.8,0.5,1.4-2.1,0.4-3.6c-0.6-0.8-0.4-1.3-0.6-2l-0.1-0.3
	l0.1,0c0.2-0.1,0.4-0.1,0.3-0.5c-0.3-0.6-0.7-3.6-1.3-3.4c-0.1,0-0.2,1.1-0.2,1.2c-0.1,0.8,0.4,1,0.4,1.3c0,0.2-0.5,0.3-0.5,0.6
	c0,0.2,0,0.4,0.1,0.7l0.1,0.3l-0.1,0.1c-0.6,0.8-0.9,1.4-0.9,3.1c0,2.6-1.2,2-1.5,3.6c0,0.2,0.7,2.5,0.3,3c-0.7,0.9-2.5,0.1-1.9,1.2
	l0,0l-0.5,0.1c-1.3,0.3-3.1,0.8-2.4,2.3c-0.8,0.5-0.6,0.9,0,1.6c0.2,0.3,0.8-1.6,1.1-1.6c0.1,0,0.4,0.7,0.7,0.8
	c1,0.4,0.7-1.2,1.2-1.1c0.5,0.1,1,0.8,1.5,0.3l0.4-0.5l0.1,0.1c0.4,0.3,0.7,0.5,0.6,0.7c-0.5,1.7-6,2.1-4.8,2.5
	c2.7,0.9,2.5,0.7,1.7,3.3c-0.6,1.9-1.4,0.7-2.2,1.5c-0.7,0.7-0.3,1.7-0.6,2.8c-0.3,1.3,0.7,1.6,0.6,2.6c-0.2,1-3.2,2.1-2.4,3.6
	l0.1,0.1l0,0c-0.5,0.8-1.2,0.9-0.9,2.2c0.1,0.5,0.6,0.9,0.2,1.3c-0.6,0.7-0.3,0.9,0.1,1.7c0.3,0.6,1.6-1.6,1.8-2
	c0.3-0.4,0.9-2,1.1-1.1c0.1,0.5,0.7,0.6,1.4,0.6l0.3,0l-0.1,0.2c-0.4,0.7-1.3,1.7-2,2.8c-0.2,0.3-0.3,0.7-0.5,1.1l-0.4,1l-0.3-0.3
	c-1-0.6-2.6,0.2-2.9,1.2c-0.5-0.8-1.5-0.8-2.2,0c-1,1.1-1.7,3.2-3.1,4c0.3,0.7-1.5,1.5,0.3,2.2c0.3,0.1,0.5,0.2,0.9,0.2
	c1.1,0.1,1.7-0.3,2.5-1.1c0.4-0.4,0.8-1.2,0.8-0.7l0,0.4l0,0c0,0.1,0,0.2,0,0.3l0,0.1l0,1.1c0,0.6,0.2,1.1,0.5,1.6
	c0.5,0.7,1.1,0.9,1.9,0.8l1.1-0.3l0.7,0c0.8,0.1,1.6,0.2,2.3,0.4c-2,0-10.1,2.1-6.5,4.6c-0.5,0.6-2.3,2.3-3.2,2.8
	c-0.2,0.1-1.8,0.4-1.9,0.5c-0.1,0.3,0.1,0.6,0.4,0.8l0.1,0.2l-2.1,0.2l-0.1,0l-0.4-0.2c-0.5-0.1-0.9-0.2-1.3-0.3
	c0-0.1,0-0.2-0.1-0.3c0.3,0,0.5-0.1,0.8-0.1l0.5,0l0.7,0.2c0.5,0,0.9-0.1,1.2-0.6c0.2-0.3,0.2-0.7,0.3-1.1l0-0.7l0-0.1
	c0-0.1,0-0.1,0-0.2l0,0l0-0.2c0-0.4,0.3,0.2,0.5,0.4c0.6,0.5,1,0.8,1.7,0.7c0.2,0,0.4-0.1,0.6-0.1c1.2-0.5-0.1-1,0.1-1.5
	c-0.9-0.5-1.5-1.9-2.2-2.7c-0.5-0.5-1.2-0.6-1.5,0c-0.3-0.7-1.4-1.3-2-0.8l-0.2,0.2l-0.3-0.7c-0.1-0.3-0.2-0.5-0.4-0.8
	c-0.5-0.8-1.1-1.4-1.4-1.9l-0.1-0.1l0.2,0c0.5,0,0.9,0,0.9-0.4c0.1-0.6,0.5,0.4,0.8,0.7c0.2,0.3,1.1,1.7,1.3,1.3
	c0.2-0.5,0.4-0.7,0-1.1c-0.3-0.3,0-0.6,0.1-0.9c0.2-0.9-0.3-0.9-0.7-1.5l0,0l0-0.1c0.4-1-1.6-1.7-1.8-2.4c-0.2-0.7,0.6-0.8,0.3-1.7
	c-0.2-0.7,0-1.4-0.5-1.9c-0.6-0.6-1.1,0.2-1.5-1c-0.7-1.8-0.8-1.6,1-2.2c0.8-0.3-2.8-0.5-3.3-1.6c0-0.1,0.1-0.3,0.4-0.5l0.1-0.1
	l0.3,0.3c0.4,0.3,0.7-0.2,1-0.2c0.3,0,0.1,1,0.8,0.7c0.2-0.1,0.3-0.5,0.4-0.5c0.2,0,0.6,1.2,0.8,1c0.3-0.4,0.5-0.7-0.1-1
	c0.4-1-0.8-1.3-1.7-1.5l-0.3-0.1l0,0c0.3-0.7-0.9-0.3-1.3-0.8c-0.3-0.3,0.1-1.8,0.1-2c-0.2-1-1-0.6-1.1-2.4c-0.1-1.1-0.3-1.5-0.7-2
	c-0.2-0.3-0.5-0.9-0.6-0.5c-0.4,0.8,0,1.2-0.5,1.9c-0.7,1-1.5,2.7,0.4,2.4c-0.2,0.8-0.4,2.3-1,3c-0.5,0.5-1.4,0.2-1.5,0.8
	c-0.1,0.8,1.7,0.6,1.9,1.2c0.1,0.4,0,0.9-0.2,1.5l-0.1,0.2l-0.3,0.1c-0.3,0.2-0.5,0.4-0.3,0.8l0.1,0.2l-0.1,0.2l-0.1,0
	c-0.4,0-0.4,0.2-0.4,0.5l0,0.3l-0.1,0.2c-0.1,0.2-0.3,0.4-0.4,0.5l-0.1,0.1l-0.3,0c-0.1,0-0.2,0.1-0.3,0.2l-0.1,0.4l-0.1,0.1
	c-0.3,0.2-0.6,0.5-0.8,0.9c-0.2,0.3-0.5,2.4,0,2.1l0,0l-0.1,0.2c-0.1,0.4-0.1,0.8,0.2,1.1c0.6,0.4,0.4-0.9,0.7-0.8
	c0.2,0.1,0.1,0.5,0.3,0.4c0.6-0.3,0.6-1.1,0.7-1.8c0.1,2.7,1.5,1.4,1.4-0.4l0.2,0.2l0,0c-0.1,0.1-0.1,0.3-0.1,0.4
	c0.1,0.6,1.2,1.2,1,1.9c-0.2,0.8-0.8,0.3-1.3,0.8c-0.1,0.1-0.1,0.1-0.1,0.2l0,0.2l-0.3,0.3c-0.1,0.1-0.3,0.2-0.4,0.3
	c-0.1,0-0.4,0.4-0.5,0.4c-1-1.1-2.9,1-3.2,2.1c-0.2,0.8-0.7,1.9-0.6,2.8l0,0.1l0,0c-0.2,0.1-0.1,0.2,0.1,0.3l-0.1-0.3l0.2-0.1
	c0.8-0.1,1.4-0.2,2.1,0.2c0.7,0.4,0,0.9,0.9,0.7c0.5-0.1,0.6-0.9,1.1-1.2c0.1-0.1,0.2-0.1,0.3-0.2l0.1,0l0,0c0,0.1,0,0.2,0.1,0.2
	h0.6c0.8,1.1-0.8,1.1-0.9,1.2c-0.3,0.4,0,0.9-0.2,1.4l-0.1,0.3l-0.2,0c-0.4,0-1-0.2-1.3,0.1c-0.2,0.2-0.3,0.6-0.5,1
	c-0.1-0.4-0.2-0.8-0.2-0.9c-0.3-0.4-0.6-0.7-0.8-0.9l-0.1-0.1l-0.1-0.4c-0.1-0.1-0.2-0.2-0.3-0.2l-0.3,0l-0.1-0.1
	c-0.1-0.2-0.3-0.3-0.4-0.5l-0.1-0.2l0-0.3c0-0.4,0-0.5-0.4-0.5l-0.1,0l-0.1-0.2l0.1-0.2c0.1-0.3-0.1-0.6-0.3-0.8l-0.3-0.1l-0.1-0.2
	c-0.2-0.5-0.3-1-0.2-1.5c0.2-0.7,1.9-0.5,1.9-1.2c-0.1-0.6-1-0.3-1.5-0.8c-0.6-0.7-0.9-2.2-1-3c1.8,0.4,1-1.4,0.4-2.4
	c-0.5-0.7-0.1-1.1-0.5-1.9c-0.2-0.3-0.4,0.2-0.6,0.5c-0.4,0.5-0.7,0.9-0.7,2c-0.1,1.7-0.9,1.4-1.1,2.4c0,0.1,0.3,1.6,0.1,2
	c-0.5,0.6-1.6,0.1-1.3,0.8l0,0l-0.3,0.1c-0.9,0.2-2.1,0.5-1.7,1.5c-0.6,0.3-0.4,0.6-0.1,1c0.1,0.2,0.6-1.1,0.8-1
	c0.1,0,0.2,0.4,0.4,0.5c0.7,0.3,0.5-0.8,0.8-0.7c0.3,0,0.7,0.5,1,0.2l0.3-0.3l0.1,0.1c0.3,0.2,0.4,0.4,0.4,0.5
	c-0.4,1.1-4.1,1.4-3.3,1.6c1.8,0.6,1.7,0.5,1,2.2c-0.5,1.2-0.9,0.5-1.5,1c-0.5,0.5-0.2,1.1-0.5,1.9c-0.3,0.8,0.4,1,0.3,1.7
	c-0.2,0.7-2.2,1.4-1.8,2.4l0,0.1l0,0l0,0c-0.4-0.5-0.8-0.9-0.5-1.1c0.3-0.2,0.9-0.2,1.2-0.5c0.8-0.7-0.7-1.2-0.8-1.6
	c-0.1-0.4,0.3-0.5,0.2-0.9c-0.1-0.4,0-0.8-0.3-1c-0.3-0.3-0.6,0.1-0.9-0.6c-0.4-1,0.4-1,0-1.9c-0.1-0.2-1.3-0.6-1.2-0.8
	c0.1-0.6,1.4,0.1,1.3-0.1c-0.1-0.2-0.8-1-1.2-0.8c-0.3-0.3,0.2-0.8,0.1-1.1c-0.1-0.6-0.6-0.4-0.6-1.3c0-0.6-0.2-0.8-0.4-1.1
	c-0.1-0.2-0.3-0.5-0.4-0.3c-0.2,0.4,0,0.6-0.3,1c-0.4,0.5-0.8,1.5,0.2,1.3c-0.1,0.3,0.1,0.6-0.4,1.8c-0.1,0.2,0.4,1.1,0.3,1.4
	c-0.1-0.1-0.5,0-0.8,0.2l0,0l0-0.1c-0.2-0.3-0.7-0.8-1.1-0.7c-0.2-0.3,0.2-0.8,0.2-1.1c-0.1-0.5-0.5-0.3-0.5-1.3
	c0-0.6-0.1-0.8-0.3-1.1c-0.1-0.2-0.2-0.5-0.3-0.3c-0.3,0.4-0.1,0.6-0.3,1c-0.4,0.5-0.8,1.4,0.1,1.3c-0.1,0.3,0,0.5-0.5,1.7
	c-0.1,0.2,0.4,1,0.3,1.3c-0.3-0.3-1.8,0.7-2,1.3l0,0.1l0,0c-0.1-0.2-0.4-0.6-0.3-0.8c0-0.1,0.4-0.1,0.4-0.3c0-0.1-0.2-0.1-0.3-0.2
	c-0.1-0.2-0.2-0.5-0.3-0.6c0.4,0.1,0.2-0.3,0.1-0.5c-0.1-0.1,0-0.2-0.1-0.4c0-0.1-0.1,0-0.1,0.1c-0.1,0.1-0.1,0.2-0.1,0.4
	c0,0.4-0.2,0.3-0.2,0.5c0,0,0.1,0.4,0,0.4c-0.1,0.1-0.3,0-0.3,0.2c0.1,0.2,0.4,0.3,0.4,0.4c-0.1,0.2-0.8,0.3-0.7,0.3
	c0.4,0.1,0.4,0.1,0.2,0.5c-0.1,0.3-0.2,0.1-0.3,0.2c-0.1,0.1,0,0.2-0.1,0.4c0,0.2,0.1,0.2,0.1,0.4c0,0.2-0.6,0.3-0.3,0.6
	c0.1,0.1,0.3,0.1,0.5,0.2c0.1,0.1-0.1,0.3-0.3,0.5c-0.1,0.2-0.2,0.5-0.3,0.6c-0.3,0.4-0.7,0.6,0,0.6c-0.2,0-0.4,0.4-0.1,0.4
	c0.2,0,0.5,0,0.7,0.1c-0.3,0-1.4,0.3-0.9,0.6c-0.1,0.1-0.3,0.3-0.4,0.4c0,0-0.3,0.1-0.3,0.1c0,0.1,0.1,0.1,0.1,0.2
	c0,0.1-0.3,0.3-0.3,0.5c0.5,0,0.9-0.2,1.4-0.2c-0.5,0-0.7,1-1.1,1l0,0.4l-5.4,3.4c-0.5,0-1.1,0-1.8-0.1
	c20.5,3.2,38.2,16.5,57.2,17.6l99,14.4h27.2v-10.2c-0.4-0.1-0.8-0.2-1.3-0.3l-2.8,0.8l-3.1-0.2l-1.1-1.7l-0.1-0.1l0.6,0.3
	c0.4,0.3,0.5,1,1,1.2c0.2,0.1,0.3-0.1,0.4,0.1c0.2-0.3,0.4-0.5,0.3-1c0.1-0.5,0.2-1,0.3-1.5c0.2-1.9-1-1.3-1.7-2.5
	c-0.2-0.3-0.3-0.9-0.6-1.2c-0.3-0.3-0.8-0.1-1.3-0.1l-0.2,0l-0.1-0.3c-0.2-0.5,0.1-1-0.2-1.4c-0.1-0.1-1.8-0.1-0.9-1.2h0.6
	c0-0.1,0.1-0.1,0.1-0.2l0,0l0.1,0c0.1,0,0.2,0.1,0.3,0.2c0.5,0.3,0.6,1.1,1.1,1.2c0.9,0.2,0.1-0.2,0.9-0.7c0.7-0.4,1.3-0.3,2.1-0.2
	l0.2,0.1l-0.1,0.3c0.2-0.1,0.3-0.2,0.1-0.3l0,0l0-0.1c0.1-0.9-0.4-2-0.6-2.8c-0.3-1.1-2.2-3.1-3.2-2.1c-0.1,0.1-0.4-0.3-0.5-0.4
	c-0.1-0.1-0.3-0.2-0.4-0.3l-0.3-0.3l0-0.2c0-0.1-0.1-0.2-0.1-0.2c-0.5-0.5-1.1,0-1.3-0.8c-0.2-0.7,0.9-1.3,1-1.9
	c0-0.1,0-0.2-0.1-0.4l0,0l0.2-0.2c-0.1,1.8,1.2,3.1,1.4,0.4c0.2,0.7,0.2,1.4,0.7,1.8c0.2,0.1,0.1-0.4,0.3-0.4
	c0.2-0.1,0.1,1.2,0.7,0.8c0.4-0.3,0.4-0.7,0.2-1.1l-0.1-0.2l0,0c0.5,0.2,0.2-1.8,0-2.1c-0.3-0.4-0.6-0.7-0.8-0.9l-0.1-0.1l-0.1-0.4
	c-0.1-0.1-0.2-0.2-0.3-0.2l-0.3,0l-0.1-0.1c-0.1-0.2-0.3-0.3-0.4-0.5l-0.1-0.2l0-0.3c0-0.4,0-0.5-0.4-0.5l-0.1,0l-0.1-0.2l0.1-0.2
	c0.1-0.3-0.1-0.6-0.3-0.8l-0.3-0.1l-0.1-0.2c-0.2-0.5-0.3-1-0.2-1.5c0.2-0.7,1.9-0.5,1.9-1.2c-0.1-0.6-1-0.3-1.5-0.8
	c-0.6-0.7-0.9-2.2-1-3c1.8,0.4,1-1.4,0.4-2.4c-0.5-0.7-0.1-1.1-0.5-1.9c-0.2-0.3-0.4,0.2-0.6,0.5c-0.4,0.5-0.7,0.9-0.7,2
	c-0.1,1.7-0.9,1.4-1.1,2.4c0,0.1,0.3,1.6,0.1,2c-0.5,0.6-1.6,0.1-1.3,0.8l0,0l-0.3,0.1c-0.9,0.2-2.1,0.5-1.7,1.5
	c-0.6,0.3-0.4,0.6-0.1,1c0.1,0.2,0.6-1.1,0.8-1c0.1,0,0.2,0.4,0.4,0.5c0.7,0.3,0.5-0.8,0.8-0.7c0.3,0,0.7,0.5,1,0.2l0.3-0.3l0.1,0.1
	c0.3,0.2,0.4,0.4,0.4,0.5c-0.4,1.1-4.1,1.4-3.3,1.6c1.8,0.6,1.7,0.5,1,2.2c-0.5,1.2-0.9,0.5-1.5,1c-0.5,0.5-0.2,1.1-0.5,1.9
	c-0.3,0.8,0.4,1,0.3,1.7c-0.1,0.4-0.7,0.8-1.2,1.2l-2.7-0.2l-1.1-1.7l-0.1-0.1l0.6,0.3c0.4,0.3,0.5,1,1,1.2c0.2,0.1,0.3-0.1,0.4,0.1
	c0.3-0.3,0.4-0.5,0.3-1c0.1-0.5,0.2-1,0.3-1.5c0.2-1.9-1-1.3-1.7-2.5c-0.2-0.3-0.3-0.9-0.6-1.2c-0.3-0.3-0.8-0.1-1.3-0.1l-0.2,0
	l-0.1-0.3c-0.2-0.5,0.1-1-0.2-1.4c-0.1-0.1-1.8-0.1-0.9-1.2h0.6c0-0.1,0.1-0.1,0.1-0.2l0,0l0.1,0c0.1,0,0.2,0.1,0.3,0.2
	c0.5,0.3,0.6,1.1,1.1,1.2c0.9,0.2,0.1-0.2,0.9-0.7c0.7-0.4,1.3-0.3,2.1-0.2l0.2,0.1l-0.1,0.3c0.2-0.1,0.3-0.2,0.1-0.3l0,0l0-0.1
	c0.1-0.9-0.4-2-0.6-2.8c-0.3-1.1-2.2-3.1-3.2-2.1c-0.1,0.1-0.4-0.3-0.5-0.4c-0.1-0.1-0.3-0.2-0.4-0.3l-0.3-0.3l0-0.2
	c0-0.1-0.1-0.2-0.1-0.2c-0.5-0.5-1.1,0-1.3-0.8c-0.2-0.7,0.9-1.3,1-1.9c0-0.1,0-0.2-0.1-0.4l0,0l0.2-0.2c-0.1,1.8,1.2,3.1,1.4,0.4
	c0.2,0.7,0.2,1.4,0.7,1.8c0.2,0.1,0.1-0.4,0.3-0.4c0.2-0.1,0.1,1.2,0.7,0.8c0.4-0.3,0.4-0.7,0.2-1.1l-0.1-0.2l0,0
	c0.5,0.2,0.2-1.8,0-2.1c-0.3-0.4-0.6-0.7-0.8-0.9l-0.1-0.1l-0.1-0.4c-0.1-0.1-0.2-0.2-0.3-0.2l-0.3,0l-0.1-0.1
	c-0.1-0.2-0.3-0.3-0.4-0.5l-0.1-0.2l0-0.3c0-0.4,0-0.5-0.4-0.5l-0.1,0l-0.1-0.2l0.1-0.2c0.1-0.3-0.1-0.6-0.3-0.8l-0.3-0.1l-0.1-0.2
	c-0.2-0.5-0.3-1-0.2-1.5c0.2-0.7,1.9-0.5,1.9-1.2c-0.1-0.6-1-0.3-1.5-0.8c-0.6-0.7-0.9-2.2-1-3c1.8,0.4,1-1.4,0.4-2.4
	c-0.5-0.7-0.1-1.1-0.5-1.9c-0.2-0.3-0.4,0.2-0.6,0.5c-0.4,0.5-0.7,0.9-0.7,2c-0.1,1.7-0.9,1.4-1.1,2.4c0,0.1,0.3,1.6,0.1,2
	c-0.5,0.6-1.6,0.1-1.3,0.8l0,0l-0.3,0.1c-0.9,0.2-2.1,0.5-1.7,1.5c-0.6,0.3-0.4,0.6-0.1,1c0.1,0.2,0.6-1.1,0.8-1
	c0.1,0,0.2,0.4,0.4,0.5c0.7,0.3,0.5-0.8,0.8-0.7c0.3,0,0.7,0.5,1,0.2l0.3-0.3l0.1,0.1c0.3,0.2,0.4,0.4,0.4,0.5
	c-0.4,1.1-4.1,1.4-3.3,1.6c1.8,0.6,1.7,0.5,1,2.2c-0.5,1.2-0.9,0.5-1.5,1c-0.5,0.5-0.2,1.1-0.5,1.9c-0.3,0.8,0.4,1,0.3,1.7
	c-0.2,0.7-2.2,1.4-1.8,2.4l0,0.1l0,0c-0.3,0.5-0.8,0.6-0.7,1.5c0.1,0.3,0.3,0.6,0.1,0.9c-0.4,0.4-0.2,0.6,0,1.1
	c0.2,0.4,1.1-1.1,1.3-1.3c0.2-0.3,0.7-1.3,0.7-0.7c0,0.3,0.4,0.4,0.9,0.4l0.2,0l-0.1,0.1c-0.3,0.5-1,1.1-1.4,1.9
	c-0.1,0.2-0.3,0.5-0.4,0.8l-0.3,0.7l-0.2-0.2c-0.6-0.4-1.7,0.1-2,0.8c-0.3-0.5-0.9-0.5-1.4-0.1l-1.8-1l-0.5-1.4
	c-0.4-1.2-0.7-2.4-1.2-3.6c0.7,0.7,1.3,1,2.3,0.9c0.3,0,0.6-0.1,0.9-0.2c1.8-0.7,0-1.5,0.3-2.2c-1.4-0.8-2-2.9-3.1-4
	C1065.8,212.3,1065.3,212.1,1064.8,212.3z M934.1,222.9L934.1,222.9l-0.2-0.2h0c0.1,0,0.1,0,0.2,0.1
	C934.1,222.8,934.1,222.8,934.1,222.9L934.1,222.9z"/>
<path class="st7" d="M485.1,198.1l-0.2-0.5c-0.5-0.7-0.8-1.5-1.1-2.4l-0.5-1.2l1.8-1.6c0.6-0.6,1.2-1.1,1.9-1.4
	c1.5-0.6,1.7,2,2.2,0.4c0.2-0.8,0.6-3.1,1.1-3.7c0.5-0.5,1.4,1.1,2.1,1.3l0.3,0l-0.1,0.6l-0.2,0.8l-0.2,0.4c-0.6,1.6-1.6,0.4-2.8,1
	c-1.1,0.5-2.9,3.1-2.5,4.5c0.1,0.4-0.5,0.7-1.1,1.2L485.1,198.1z M514,203l-0.1-0.1c-0.4-1.3-1.1-3.2,0.7-3.2c1.1,0,1.6,1.3,2.6,1.8
	l0.4,0l-0.4,0.4c-0.3,0.5-1.9-0.2-2.8,0.5L514,203z M520.1,204l-0.1-1.1c0-0.5,0-1.1,0.1-1.6c0.2-1,1.2,0.2,1.5,0.4
	c0.2,0.1,0.3,0.2,0.5,0.2l0.2,0l-0.5,0.6c-0.5,0.5-1,0.9-1.5,1.4L520.1,204z M516.1,206.1l-0.6-0.9l-0.2-1.1c0.3,0,0.5,0.2,0.7,0.8
	L516.1,206.1z M507,209.2l-1.5-3.6c-1.2-2.2-3.3-4-3.2-5.1l0-0.1l0.4-0.1c0.4-0.2,0.6,0.6,0.7,0.8c0.4,0.6,0.9,1.1,1.4,1.6l0.9,1.3
	l-0.1,0.2c0,0.3,0.1,0.6,0.5,0.9c0.6,0.5,1.7,0.5,2.3,0.9c0.7,0.4-0.6,1.4-1.3,2.7L507,209.2z M516.1,209.9v-1l0.3-0.1l0.1,0.4
	l-0.1,0.2L516.1,209.9z M515.5,211l-0.3-0.3c-0.1-0.2,0-0.4,0.2-0.7h0.6L515.5,211z M516.5,216.2L516.5,216.2
	c-0.6-0.4-0.9-0.8-0.8-1.3l0.3-0.1l0.5,0.1c0.4,0.1,0.9,0.1,1.5,0.1c-0.4,0-0.9,0.3-1.3,0.8L516.5,216.2z M483.5,217.4l-0.8-0.5
	c-0.6-0.4-1-0.9-0.8-1.5c0.1-0.2,2.6,0,2.8,0c-0.6-0.8-1.1-1.3-1.6-2.5c-0.3-0.6,0.1-1.2-0.3-1.6c-0.1-0.2-2.1-0.1-1.2-1.4h0.7
	c0.2-0.3-0.2-0.9,0-1.2c0.4-0.7,2.7,0.8,2.7-0.4c0-1.9-2.8-2.1-3.3-3.9c-0.2-0.6,0-1.3-0.3-1.6c-0.6-0.6-1.4,0-1.6-1
	c-0.4-1.5-1.2-3.7,0.7-3.7c1.3,0,1.9,1.5,3,2l0.5,0l-0.4,0.4c-0.2,0.4-0.1,2.9,0,2.9c0.6-0.2,1.4-0.9,1.9-1.4
	c0.5-0.4,0.8-0.7,1.2-1.2l0.8-1.2l0,0.2c-0.1,1.5,1.1,0.8,1.1,3.7c0,2.3-2.7,1.6-2,2.8c0.4,0.6-0.4,1.7,0,2.3c0.3,0.5,1.1-0.4,1.4,0
	c1.8,2.4-1.9,2.4-2.2,2.7c-0.7,0.8-0.1,2-0.6,3c-0.5,1.1-1,1.9-1.5,2.6L483.5,217.4z M486.5,221.2l-0.9-1.3l-1.1-1.1l0.5,0
	c1.2,0,2.5,0,2.5,0.1c0.2,0.6,0,1.1-0.3,1.5L486.5,221.2z M520.7,221.6l-0.7-1.4h0c1,0.1,2,0.4,2.9,0.9c-0.3,0-0.7,0.1-1.3,0.2
	L520.7,221.6z M382.6,227.4l0-0.1c-0.1-0.2-0.3-0.3-0.5-0.4l-0.1-0.1l0.1,0c0.5-0.1,2.5-0.4,2.4,0.2
	C384.4,227,383.3,227.1,382.6,227.4z M382.3,229.1l-0.2-0.2c-0.1-0.1-0.1-0.1-0.2-0.2c0-0.1,0-0.3-0.1-0.3c-0.1-0.1-0.3,0-0.4-0.2
	c-0.1-0.2,0.2-0.3,0.2-0.5c0-0.1-0.3-0.3-0.1-0.3c0.3,0,0.3-0.1,0.6,0.1l0.1,0.1l0,0c0,0,0,0,0,0.1c0,0,0,0,0.1,0l0.2,0.2
	c0,0,0.1,0,0.1,0l0-0.1l0.1,0c0.7,0.2,1.7,0.7,1.4,1.2c-0.2-0.1-1.2,0-1.9,0.2L382.3,229.1z M383,232.5l-0.1-0.1
	c-0.1-0.2-0.3-0.4-0.6-0.7c0,0,0-0.1,0-0.1c-0.1-0.1-0.6-0.2-0.5-0.5h0.6c-0.1-0.2-0.2-0.3-0.4-0.5c-0.1-0.1,0-0.3-0.1-0.4
	c0,0-0.5,0-0.3-0.3h0.2c0,0,0-0.1,0-0.1v0l0.1,0c1.4-0.2,2.3,0.3,2.1,1c-0.1,0.5-0.6,0.2-0.9,0.5c-0.2,0.2-0.1,0.6-0.2,0.9
	C383.2,232.2,383.1,232.3,383,232.5L383,232.5z M393.2,233.5c0.3-0.4,0.6-0.9,0.7-1c0.2-0.3,0.7-1.3,0.7-0.7c0,0.3,0.4,0.4,0.9,0.4
	l0.2,0l-0.1,0.1c-0.3,0.5-1,1.1-1.4,1.9c-0.1,0.2-0.3,0.5-0.4,0.8l0,0L393.2,233.5z M392.5,231.5c0,0.1,0,0.2,0,0.3
	c0.1,0.3,0.3,0.6,0.1,0.9c-0.4-0.5-0.7-0.8-0.4-1C392.3,231.6,392.4,231.5,392.5,231.5z M407.2,234.5c0-0.1-0.1-0.2-0.1-0.4
	c0.5-0.2,0.7-1.1,1.2-1.4l0.7-0.4l-0.1,0.1l-1.3,2.1L407.2,234.5z M386.8,224.4c-0.2-0.2-0.5-0.3-0.8-0.4c0.1-0.5,0.9-0.2,1.3,0l0,0
	l-0.3,0.2C387,224.3,386.9,224.3,386.8,224.4z M387.9,225.9c-0.1-0.2-0.2-0.4-0.4-0.6c0.6,0,1.2,0,1.2,0.3
	C388.6,225.7,388.3,225.8,387.9,225.9z M547.6,233.5v2.6l-1.9-1l-0.6-1.7c-0.7-2.3-1.3-4.5-2.3-6.6c-0.4-0.7-0.7-1.4-1-2
	c-0.6-1.1-1.2-2.1-2.1-3.2c-0.2-0.3,0.2-1.3,0-1.5c-0.7-0.8-4.1-2.5-3.5-5.6c0.1-0.5,4.1,0,4.5,0c-0.9-2-1.7-3.1-2.6-6.1
	c-0.4-1.4,0.1-3-0.5-4.1c-0.2-0.4-3.4-0.3-1.9-3.6c0.1-0.1,0.2-0.2,0.3-0.2l0,0v0c0,0.1,0,0.2,0,0.3c0.2,1.1,0.2,2.3,1.3,2.3
	c1.8,0,2.7-0.5,4.2-1.1c-0.6,1.3-0.7,3.9,0.2,5.2c0.8,1.1,1.8-0.4,2.2,0.8c0.3,0.9,0.8,2.3,1.8,1.5c2-1.5,1.7-3.1-0.2-5.7
	c-0.4-0.5-1.3,0.2-1.3-0.2c0-1.5,0.1-2.4-0.7-3.6c-0.5-0.8-1.8-1.7-1.7-2.7c0.2-1-0.1-1.8-0.7-2.3l-0.3-0.1l-0.1-0.3
	c-1-2.6-3.7-3.6-4.6-6.7l0-0.1l0.4,0.2c0.6,0.3,1,0.7,1,1.3c0.1,1.8,1.8,2.5,2.4,0.8c0.4,1,0.5,1.9,1.7,2c0.3,0,2.5-0.4,2.3-0.8
	c-0.7-1.6-2.3-2.3-3.8-2.8c-0.3-0.1-0.1-2.1-1-2.4c-0.4-0.1-1.6,0.4-1.7,0c-0.3-1.4-0.8-2.1-1.7-2.3h0v0c0-0.3-0.1-0.6-0.2-0.7
	c-1-1.5-2.2,0-2.6-2.5c-0.1-0.5-0.2-1-0.3-1.5l-0.1-0.4l1.1,0.5c0.6,0.3,3.5,4.2,2.2,0.1c0-0.1-0.2-0.3-0.2-0.4
	c-0.4-1-1.3-0.7-1.6-1.3c-0.2-0.4-0.7-1.2-1.2-1.8l-0.7-0.7l0-0.6c0-1.8,0.5-3.1,2-3.1c2.6,0-0.1,5.3,2.4,4.6l0.1,0l0.1,0.7
	c0.1,0.3,0.3,0.5,0.6,0.6c0.9,0.1,1.2-0.6,1.8-1c-0.4,1-0.8,1.7-0.7,3c0.1,1.1,1.4-0.5,1.6,0c0.6,2-1.9,3.9,1,3.9
	c0.7,0,0.6-1.8,0.6-2.5c0-1,0.8-0.8,1.3-1.2c0.9-0.7,0.1-4.8-0.8-5.3h-0.7c-0.5-0.4,0.4-4-0.8-4.6l-0.1,0l-0.1-0.2
	c-0.6-0.8-1.4-1.6-2.3-2.4l-1-1l0.8,0.3c1.4,0.5,2.7,1,4.2,1.8c1,0.5,0.3-1.5,0.2-1.7c-0.5-1.9-3,0-3.7-1.2
	c-0.7-1.4-1.8-1.3-3.2-1.6c-0.3,0-0.6-0.2-0.9-0.3l-0.1-0.1l0,0c-1-1.3-1.6-2.4-2.2-3.9c-0.3-0.9-0.2-1.8,0.1-2.7l0.1-0.2l0.1,0.3
	c0.5,0.5,2-0.5,2.3-0.8c0.6-0.6,0.6,8.2,3.1,2.5c0.2,0.4,2.5,6.1,2.5,2.1c0-0.9,0.2-2.3-0.3-2.8c-0.5-0.5-1.8-0.5-2.2-1.2
	c-0.7-1.4-0.3-2.4-1.6-3.3c-0.5-0.3-0.5,0.3-0.9,0.1c-0.6-0.2-0.5-1-0.8-1.6l0,0l0-0.2c0.1-0.7-0.2-1.2-1-1.5
	c-1.6-0.6-2-1.5-2.1-2.3l0-0.3l0.1,0c0.2,0,0.4,0.1,0.7,0.2c0.3,0.1,1.7,1,1.8,0.8c0.6-1-0.7-1-0.9-1.2c-0.4-0.5-0.8-1.8-1.4-2.9
	l-0.4-0.6c0.4-0.4,0.6-0.9,0.7-1.5l0.1-0.5l0.5,0.1c0.3,0.2,0,0.9,0.2,1.2c0.2,0.2,1.2-0.1,1.5,0c0.8,0.3-1,3.9,0.9,4.1
	c0.8,0.1,3.1-0.8,3.3,0.3c0.1,0.6,0.1,2.6,0.8,2.6c2.1,0-0.4-2.5,0.1-2.9c0.3-0.3,1.3-0.4,1.4-0.8c0.4-2.8-3.1-2.4-3.2-2.9
	c-0.1-0.5-1-1.4-1.5-1.3c-0.3,0.1-0.4-2-1.3-2.4c-0.4-0.2-0.8,0.3-1.1,0.4c-0.4,0.1-0.8-0.2-1.2-0.4l-0.4-0.1l-0.1-0.8
	c-0.1-0.8-0.3-1.4-0.4-2c1.5,0.5,2-1.2,1.8-3.1l0-0.2l0.1,0c0.1,0,0.2,0.2,0.2,0.4c0,0.4-0.1,1.4,0.2,1.6c0.5,0.3,1.4-0.5,1.1,0.1
	c-0.1,0.4-0.2,1.6,0.3,1.4c0.4-0.1,1-1.1,1.3-1c1.1,0.3,0.4,1.7,0.8,2h1c0.2,0.1,1.1,1.1,1.3,1.3c-0.3-0.4-0.3-1.6-0.5-2.2
	c-0.6-2-2.1-3.8-3.9-3.8c0.8-0.9-1.3-3.4-2.2-3.2l-0.6,0.2l-0.1-0.2c-0.5-1.2-1.6-0.5-2-1.3c-1-2.1-0.6-11.5-1.5-13.9
	c-0.4-1-1,7.6-0.7,9.9c0.3,2-1.4,2.6-1.4,6c0,2.6,0,3.8-0.1,4.8l0,0.1l-1,0.1c-1,0.1-1.5,1.3-1.9,1.3c-0.8,0-2.6-0.1-3.1,0.7
	c-0.2,0.3-0.8,3-0.8,3.3c-0.4,2.5,4.3-1.7,3.7-2.4c1.1,0.4,2-0.4,2.7-0.8l0.3-0.1l-0.1,0.4c0,0.2,0,0.3-0.1,0.5
	c-0.2,1.3-1.2,2.7-2.1,4.1l-0.4,0.7l-0.1,0c-0.5-0.2-1-0.9-1.7-0.4c-1,0.7-2.1,2.4-0.3,2.9c-0.8,0-1.6-0.2-2.1,0.5
	c-0.6,0.9,0.2,1.9-0.3,2.2c-0.3,0.2-2.2,1.3-0.9,1.6c3.1,0.6,3.5-2.1,4.5-3.7l0.5-0.7l0.1,0.1c0.7,0.9,2.3,1.9,2.4,2.6
	c-0.7,0-1.2,0.5-1.5,1.2l-0.1,0.2l-0.2,0c-0.5,0.2-0.8,0.6-1.3,1.5h0.1c-0.8,0-2.8,1.2-2.5,2c-0.8,0-0.5,1-0.3,1.5
	c0.8,1.7-2.6-0.6-2.2,1.4c0.4,1.7,1.9,1.1,2.6,2.4c0.9,1.6,0.3,2.7,0.9,0c0.7-3.1,0.4-0.8,1.9-1.7c0.1-0.1,0.2-0.2,0.2-0.3l0.1-0.3
	l0.2,0.2c0.5,0.5,1.4,1.1,2.9,1.9c0,0.1,0.1,0.1,0.1,0.2l0,0l-0.4,0.4c-0.9,0.7-1.9-0.3-2.5,0.7c-0.2,0.3-1,2.2-0.7,2.8
	c0.3,0.4,1.1-0.3,1.3-0.5c0.3-0.3,0.6-0.6,1.1-0.9l1-0.8l-0.1,0.2c-0.7,0.9-1.8,1.6-2.3,2.8l-0.1,0.5l-1-0.1c-0.9-0.1-1.8-0.1-2.6,0
	c-1.1,0.1-2,1.4-2.5,2.4c-0.3,0.5-1.1,0.7-1.4,1.6c-0.5,1.5,0.1,3.7,0.3,5.3c0.4,2.7,1.4,0.8,1.8-0.5c0.2-0.5,0.2-3.8,0.5-3.4
	c0.4,0.5,1,0.5,1.5,0.3l0,0l0,0.2c0,0.9,0,2-0.2,3.1c-0.2,1.3,0,2,0.3,2.8l0.1,0.2l-0.4,0.7c-0.1,0.3-0.2,0.6-0.3,0.8
	c-0.1,0.6-1.4-0.4-2.2-0.5c-1.2-0.1-2.3,1.8-1.5,3c-1,0-1.6,1.9-0.7,2.2c1,0.4,1-1.2,1.5-1.2c0.7,0,1.7-0.2,1-1.8
	c0.4,0.4,1.1,1.2,1.7,0.9c0.3-0.1,0.7-0.4,0.9-0.7l0.2-0.3l0,0.5c0,1.3,0.3,2.6,1.8,4.8l0.2,0.3l-0.7,0.8c-0.3,0.7-0.5,1.5-0.8,2.3
	c-0.4,0.9-2.6-1.9-3.5-1c-0.5,0.6-0.6,1.6-0.7,2.5c-0.2,3.3,1.7,5.1,1.7,8.4c1.2-2,1.8-3.8,1.8-6.7c0.3,0.9,0.4,3,1,3.4
	c0.5,0.4,1.1-0.8,1.5-2.1l0.4-1.5l0.1,0.6c0.2,1.2,0.2,2.7,0,4.2l-0.1,0.9l-1.3,0.5c-1.2,0.5-2.3,1.3-3.3,2.1l-1,1.1l-0.4-0.9
	c-0.8-1.1-1.1-2.9-1.9-4.3c-0.7-1.2-1.8-0.6-2.1-2.9c-0.2-1.4-0.7-3.2-1-4.6c1.9,0.4,1-1.5,0.3-2.5c-0.5-0.7-0.1-1.1-0.6-2
	c-0.2-0.4-0.4,0.2-0.6,0.5c-0.4,0.6-0.7,1-0.7,2.1c0,1.8-0.8,1.4-1,2.5c-0.4,2.1-1.2,3.8-1.7,5.3c-0.5,1.6,0.9,1.7,0.3,3.6
	c-0.4,1.3-1,0.5-1.6,1.1c-0.5,0.5-0.2,1.2-0.4,2c-0.2,0.9,0.5,1.1,0.4,1.8c-0.1,0.4-0.8,0.8-1.3,1.3l0,0.1l-0.1-4.4
	c0-0.8-1.2-0.5-1.6-0.8c-0.6-0.5-0.8-1.3-1.1-2.1c0-0.1-0.1-0.2-0.3-0.2h0l0-0.1c0-1.5-3-2.1-3.2-3.4c-0.2-1,0.5-1.5,0.8-2.4
	l0.1-0.2l0,0c0.1-0.2,0.2-0.5,0.3-0.8c0.6,1.4,0,5.5,2.5,4c0,0.7,1.4,5.1,2.3,3.3c0.9-1.7-0.1-5.8-1.1-6.7c-0.3-0.3-1,0-0.9-0.5
	c0.1-0.6,0.6-1.6,0-2.1c-0.5-0.4-1.2-0.7-1.6-0.2c0-2.1-0.8-2.6-2.1-2.9l-0.5-0.1l0.1-0.1c0.6-0.4,2.6-0.5,1.9-2.6
	c-0.7-2-1.3-2.5-1.9-2.9l-0.2-0.1l1,0.2c0.5,0,0.9,0,1.4-0.1c0.1,0,1,3.8,1.3,4.3c0.2,0.4,1.1-0.1,1.1,1.2c1.2-4.3-1.9-9-4.4-11
	c0,0-0.1-1-0.1-1c-0.5-0.8-1.6-1.2-2.6-1.4l-0.1,0l-0.1-0.5c-0.1-0.3-0.1-0.6-0.2-0.9c-0.3-1,0.6-2.7,1.3-4.2l0,0l0.1,0.1
	c0.3,0.3,0.6,0.4,1.1,0.4c0.6,0-0.6,0.9-0.8,1.6c-0.2,0.7-0.1,1.5,0,1.9c0.3,1.5,2-0.2,2.5-0.7c-1,3.6,3.9,2.3,2.3,1.4
	c2.3-2.6-2.9-4.9-3.2-6.4c-0.1-0.5-0.8-2-1.1-2.1l-0.8-0.1l-0.4-0.4l-0.3-0.3l0.1,0c1.2-0.3,2.4-1.6,2.8-0.6c0.4,1,0.7,2.9,1.5,3.4
	c0.3,0.2,0.6,0.2,0.8-0.2c0.9-2-1.7-5.8-3.1-6c-1.1-0.1-1.8-0.5-2.5-1l-0.6-0.5l-0.1-0.4c-0.2-0.9-0.5-1.5-0.9-2.1l-0.2-0.2l0.1-0.4
	c0.2-1.6-0.2-1.7,0.1-3.6c0.2-1.5-0.9-1.1-1.1-2.1c-0.1-0.7,0.8-2.8,0-2.5c-0.6,0.2-0.8,1.5-0.6,2.1c0.4,1-0.7,0.9-1.1,1.8
	c-1.2,2.2,1.1,1.4,1.1,2.6l0,0.8l-0.1,0.2c-0.8,1.6-0.1,2.4-1.2,3.9c-0.7,1-1.6,2.4-1.8,3.6l0,0.2l-0.1,0.1
	c-0.9,1.1-2.1,3.1-2.2,3.7c-0.1,1.1,0,4.3,1.2,2.8c0.4-0.5,0.4-1.5,0.5-2.3c0.1-1.2,1.6-0.7,1.8-2.1l0.1-0.6h0c0.3,0,0.6,0,1-0.1
	c-0.6,2.2-1.3,4.9-1.8,7.5l-0.1,0.5l-1.1,0.5c-1.1,0.5-3.1,1-3.4,2.5c-0.2,0.8,0.7,1.5,0.2,2.1c-0.2,0.2-2.8,3.9-0.9,3.9
	c1.4,0,1.6-1.7,2-3c0-0.1,1.3,1.2,1.9,1.4c0.6,0.3,0.2-3.2,0.2-4.1c0.2,0.3,0.4,0.4,0.6,0.5l0.3,0l0,0.2c0.3,2.2,2,1.5,0.7,3.6
	c-1.8,2.9,0.8,1-0.9,3.4c-0.2,0.3-0.5,0.9-0.8,1.6l-0.1,0.3l-0.3,0.4c-0.3,0.5-0.6,0.9-0.8,1c-1.5,0.3-2.1,1.6-2.1,3.3
	c0,2.4-0.4,1.2-2.1,2.3c-1.1,0.7-1.5,1.4-1.7,2.8l-0.6,0.4l-0.6-0.4c-0.4-0.3-0.8-0.8-1-2.1c-0.2-1.7-0.8-3.7-1.2-5.3
	c2.2,0.4,1.1-1.7,0.3-2.9c-0.6-0.8-0.2-1.3-0.7-2.3c-0.3-0.4-0.5,0.2-0.7,0.6c-0.5,0.7-0.7,1.1-0.7,2.5c0,2.1-1,1.7-1.2,2.9
	c-0.4,2.4-1.4,4.4-1.9,6.1c-0.6,1.8,1,2,0.3,4.1c-0.5,1.5-1.1,0.6-1.8,1.2c-0.6,0.6-0.2,1.4-0.4,2.3c-0.3,1,0.6,1.3,0.4,2
	c-0.2,0.9-3.3,1.9-1.5,3.5c0.7,0.6,2,0.6,2.7,1c0.8,0.5-0.7,1.6-1.5,3.1c-0.6,1.1-1,2.9-1.6,3.7c-1.8,2.1-4.2,3.7-0.3,3.7
	c-1.1,0-2.5,2-0.7,2c1.4,0,2.7,0,3.9,0.4c-1.6,0-8.2,1.7-5.2,3.7c-0.4,0.5-1.9,1.9-2.5,2.3c-0.2,0.1-1.5,0.3-1.5,0.4
	c-0.1,0.6,0.6,0.7,0.7,1.2c0.1,0.4-1.7,1.8-1.9,2.7c2.9,0,5.1-1,8.2-1c-2.9,0-3.9,5.9-6.3,5.9c0.3,0.5,0.4,0.9,0.3,1.3L465,235
	l-2.6,0l-2.8-0.6l-0.8-1.1l-0.5-0.3l0.3-0.3c0.1-0.1,0.2-0.2,0.2-0.4c0.8-1.3,4.9,0.9,3.9-0.9c-2-3.3-2.6-6-5.3-8.8l-0.1-0.1l1,0.6
	c0.8,0.6,1.1,1.9,2,2.2c0.4,0.1,0.6-0.1,0.8,0.1c0.4-0.5,0.6-0.9,0.5-1.9c0.1-0.9,0.3-1.8,0.4-2.7c0.2-3.4-2-2.5-3.3-4.6
	c-0.4-0.6-0.7-1.7-1.2-2.2c-0.6-0.5-1.5-0.1-2.3-0.1l-0.4-0.1l-0.2-0.5c-0.4-0.9,0.1-1.8-0.5-2.5c-0.2-0.2-3.2-0.2-1.8-2.2
	c0.3-0.4,0.9,0.4,1.1,0c0.1-0.1,0.1-0.3,0.1-0.4l0,0l0.2,0.1c0.2,0.1,0.4,0.2,0.6,0.3c0.9,0.6,1.1,2.1,2.1,2.3
	c1.7,0.4,0.2-0.5,1.5-1.2c1.2-0.7,2.4-0.5,3.8-0.3l0.4,0.1l-0.1,0.5c0.4-0.1,0.5-0.4,0.2-0.5l-0.1,0l0-0.2c0.1-1.7-0.9-3.7-1.4-5.1
	c-0.7-2-4.4-5.7-6.1-3.8c-0.1,0.1-0.8-0.6-0.9-0.7c-0.3-0.2-0.5-0.4-0.8-0.6l-0.6-0.5l0-0.4c0-0.2-0.1-0.3-0.2-0.5
	c-0.9-0.9-2.1,0-2.5-1.6c-0.4-1.3,1.6-2.3,1.7-3.4c0-0.2-0.1-0.5-0.2-0.7l0-0.1l0.4-0.3c0,3.3,2.6,5.6,2.6,0.7
	c0.4,1.2,0.5,2.6,1.5,3.2c0.3,0.2,0.2-0.6,0.5-0.8c0.4-0.3,0.2,2.3,1.3,1.5c0.6-0.5,0.6-1.3,0.3-2l-0.2-0.4l0.1,0
	c1,0.5,0.2-3.3-0.2-3.9c-0.5-0.7-1.1-1.2-1.7-1.7l-0.2-0.1l-0.3-0.7c-0.1-0.2-0.3-0.4-0.6-0.4l-0.5,0l-0.1-0.1
	c-0.3-0.3-0.5-0.6-0.8-1l-0.2-0.3l0-0.5c0-0.7-0.1-0.9-0.8-1l-0.2,0l-0.2-0.3l0.2-0.3c0.2-0.6-0.2-1-0.7-1.4l-0.5-0.2l-0.2-0.4
	c-0.4-1-0.6-1.9-0.5-2.7c0.3-1.2,3.5-0.8,3.3-2.3c-0.2-1.1-1.9-0.6-2.8-1.5c-1.2-1.3-1.8-4-2.2-5.4c3.4,0.7,1.8-2.6,0.5-4.3
	c-0.7-1-0.5-1.6-0.7-2.5l-0.1-0.3l0.1-0.1c0.2-0.1,0.5-0.1,0.3-0.6c-0.3-0.8-0.9-4.4-1.5-4.2c-0.1,0-0.2,1.4-0.2,1.5
	c-0.1,1,0.5,1.2,0.5,1.6c0,0.2-0.6,0.4-0.6,0.7c0,0.2,0,0.5,0.1,0.8l0.1,0.3l-0.1,0.1c-0.7,1-1.1,1.7-1.1,3.7c0,3.2-1.5,2.5-1.8,4.3
	c0,0.3,0.8,3,0.4,3.6c-0.8,1-3,0.2-2.4,1.5l0,0L441,176c-1.6,0.4-3.8,0.9-3,2.8c-1,0.6-0.7,1.1,0,1.9c0.3,0.3,1-2,1.3-1.9
	c0.2,0,0.5,0.8,0.8,1c1.3,0.5,0.8-1.5,1.4-1.4c0.6,0.1,1.2,1,1.9,0.4l0.4-0.6l0.1,0.1c0.5,0.4,0.8,0.6,0.8,0.8
	c-0.7,2.1-7.3,2.5-5.8,3c3.3,1.1,3.1,0.9,2,4.1c-0.8,2.3-1.7,0.8-2.7,1.9c-0.9,0.8-0.3,2.1-0.7,3.4c-0.4,1.6,0.9,1.9,0.7,3.1
	c-0.2,1.2-3.9,2.6-3,4.4l0.1,0.1l0,0c-0.6,1-1.5,1.1-1.1,2.7c0.2,0.6,0.7,1.1,0.2,1.6c-0.7,0.8-0.4,1.1,0.1,2c0.4,0.8,1.9-2,2.2-2.4
	c0.4-0.5,1.1-2.5,1.3-1.3c0.1,0.6,0.8,0.7,1.8,0.7l0.4,0l-0.1,0.2c-0.5,0.9-1.6,2.1-2.4,3.4c-0.2,0.4-0.4,0.9-0.6,1.4l-0.5,1.2
	l-0.4-0.4c-1.2-0.8-3.2,0.2-3.6,1.5c-0.7-1-1.8-0.9-2.7,0c-1.3,1.4-2.1,3.9-3.8,4.9c0.4,0.9-1.9,1.9,0.4,2.7
	c0.4,0.1,0.7,0.3,1.1,0.3c1.3,0.1,2.1-0.4,3.1-1.4c0.5-0.4,0.9-1.5,0.9-0.8l0,0.4l0,0.1c0,0.1,0,0.2,0,0.3l0,0.1l0,1.4
	c0.1,0.7,0.2,1.4,0.6,1.9c0.6,0.8,1.4,1.1,2.3,1l1.3-0.3l0.9,0c1,0.1,1.9,0.2,2.8,0.5c-2.4,0-12.4,2.5-7.9,5.6
	c-0.6,0.8-2.9,2.8-3.9,3.4c-0.3,0.2-2.2,0.5-2.3,0.6c-0.1,0.4,0.2,0.7,0.4,0.9l0.2,0.2l-2.5,0.2l-0.1,0l-0.5-0.2
	c-1.1-0.3-2.1-0.5-2.5-0.5c0.6-0.2,1.2-0.3,1.9-0.4l0.6,0l0.9,0.2c0.6,0.1,1.1-0.1,1.5-0.7c0.2-0.4,0.3-0.8,0.3-1.3l0-0.9l0-0.1
	c0-0.1,0-0.1,0-0.2l0,0l0-0.3c0-0.5,0.3,0.2,0.7,0.5c0.7,0.6,1.2,0.9,2.1,0.9c0.3,0,0.5-0.1,0.7-0.2c1.4-0.6-0.1-1.2,0.1-1.8
	c-1.1-0.6-1.8-2.3-2.7-3.2c-0.6-0.6-1.4-0.7-1.8,0c-0.3-0.9-1.7-1.5-2.4-1l-0.2,0.3l-0.4-0.8c-0.1-0.3-0.3-0.7-0.5-0.9
	c-0.6-0.9-1.4-1.7-1.7-2.3l-0.1-0.2l0.2,0c0.6,0,1.1,0,1.1-0.4c0.1-0.7,0.6,0.5,0.9,0.9c0.2,0.3,1.4,2.1,1.6,1.6
	c0.3-0.6,0.5-0.8,0-1.4c-0.3-0.3,0-0.7,0.1-1.1c0.2-1-0.4-1.1-0.8-1.8l0,0l0-0.1c0.5-1.3-1.9-2.1-2.1-3c-0.2-0.8,0.7-1,0.3-2.1
	c-0.3-0.9,0-1.7-0.6-2.3c-0.7-0.7-1.3,0.3-1.9-1.2c-0.8-2.1-1-2,1.2-2.7c1-0.3-3.4-0.6-4-2c0-0.1,0.2-0.3,0.5-0.6l0.1-0.1l0.3,0.4
	c0.4,0.4,0.9-0.2,1.2-0.3c0.4-0.1,0.2,1.3,1,0.9c0.2-0.1,0.4-0.6,0.5-0.6c0.2-0.1,0.8,1.5,0.9,1.3c0.4-0.5,0.6-0.9-0.1-1.3
	c0.5-1.2-1-1.6-2.1-1.9l-0.4-0.1l0,0c0.4-0.9-1.1-0.3-1.6-1c-0.3-0.4,0.1-2.2,0.1-2.4c-0.3-1.2-1.3-0.8-1.4-2.9
	c-0.1-1.4-0.4-1.8-0.9-2.5c-0.3-0.4-0.6-1-0.8-0.6c-0.5,1-0.1,1.4-0.6,2.3c-0.8,1.2-1.8,3.3,0.5,2.9c-0.2,0.9-0.5,2.8-1.3,3.6
	c-0.6,0.6-1.7,0.3-1.8,1c-0.1,0.9,2.1,0.7,2.3,1.5c0.1,0.5,0,1.1-0.2,1.8l-0.1,0.3l-0.3,0.2c-0.3,0.2-0.6,0.5-0.4,0.9l0.1,0.2
	l-0.1,0.2l-0.1,0c-0.5,0-0.5,0.2-0.5,0.7l0,0.4l-0.1,0.2c-0.2,0.3-0.3,0.5-0.5,0.7l-0.1,0.1l-0.3,0c-0.2,0-0.3,0.1-0.4,0.3l-0.2,0.5
	l-0.1,0.1c-0.4,0.3-0.7,0.6-1,1.1c-0.3,0.4-0.7,2.9,0,2.6l0,0l-0.1,0.3c-0.1,0.5-0.2,1,0.3,1.4c0.7,0.5,0.5-1.2,0.8-1
	c0.2,0.1,0.2,0.7,0.3,0.5c0.7-0.4,0.7-1.3,0.9-2.2c0.2,3.3,1.8,1.7,1.7-0.4l0.3,0.2l0,0c-0.1,0.2-0.1,0.3-0.1,0.5
	c0.1,0.8,1.5,1.4,1.3,2.3c-0.2,1-1,0.4-1.6,1c-0.1,0.1-0.1,0.2-0.1,0.3l0,0.3l-0.4,0.4c-0.2,0.2-0.3,0.3-0.5,0.4
	c-0.1,0.1-0.5,0.5-0.6,0.5c-1.2-1.3-3.6,1.2-3.9,2.5c-0.3,1-0.9,2.3-0.8,3.4l0,0.1l0,0c-0.2,0.1-0.1,0.2,0.1,0.4l-0.1-0.4l0.3-0.1
	c0.9-0.2,1.7-0.3,2.5,0.2c0.9,0.5,0,1.1,1.1,0.8c0.6-0.2,0.7-1.1,1.3-1.5c0.2-0.1,0.3-0.2,0.4-0.2l0.2-0.1l0,0c0,0.1,0,0.2,0.1,0.3
	h0.8c1,1.3-1,1.3-1.1,1.4c-0.4,0.4,0,1.1-0.2,1.7l-0.1,0.3l-0.3,0.1c-0.5,0-1.2-0.3-1.6,0.1c-0.3,0.3-0.5,1-0.7,1.4
	c-0.8,1.4-2.3,0.8-2,3.1c0,0.1,0,0.3,0.1,0.4c-0.7-0.7-1.7-1.2-2.3-0.6c-0.1,0.1-0.4-0.3-0.5-0.4c-0.1-0.1-0.3-0.2-0.4-0.3l-0.3-0.3
	l0-0.2c0-0.1-0.1-0.2-0.1-0.2c-0.5-0.5-1.1,0-1.3-0.8c-0.2-0.7,0.9-1.3,1-1.9c0-0.1,0-0.2-0.1-0.4l0,0l0.2-0.2
	c-0.1,1.8,1.2,3.1,1.4,0.4c0.2,0.7,0.2,1.4,0.7,1.8c0.2,0.1,0.1-0.4,0.3-0.4c0.2-0.1,0.1,1.2,0.7,0.8c0.4-0.3,0.4-0.7,0.2-1.1
	l-0.1-0.2l0,0c0.5,0.2,0.2-1.8,0-2.1c-0.3-0.4-0.6-0.7-0.8-0.9l-0.1-0.1l-0.1-0.4c-0.1-0.1-0.2-0.2-0.3-0.2l-0.3,0l-0.1-0.1
	c-0.1-0.2-0.3-0.3-0.4-0.5l-0.1-0.2l0-0.3c0-0.4,0-0.5-0.4-0.5l-0.1,0l-0.1-0.2l0.1-0.2c0.1-0.3-0.1-0.6-0.3-0.8l-0.3-0.1l-0.1-0.2
	c-0.2-0.5-0.3-1-0.2-1.5c0.2-0.7,1.9-0.5,1.9-1.2c-0.1-0.6-1-0.3-1.5-0.8c-0.6-0.7-0.9-2.2-1-3c1.8,0.4,1-1.4,0.4-2.4
	c-0.5-0.7-0.1-1.1-0.5-1.9c-0.2-0.3-0.4,0.2-0.6,0.5c-0.4,0.5-0.7,0.9-0.7,2c-0.1,1.7-0.9,1.4-1.1,2.4c0,0.1,0.3,1.6,0.1,2
	c-0.5,0.6-1.6,0.1-1.3,0.8l0,0l-0.3,0.1c-0.9,0.2-2.1,0.5-1.7,1.5c-0.6,0.3-0.4,0.6-0.1,1c0.1,0.2,0.6-1.1,0.8-1
	c0.1,0,0.2,0.4,0.4,0.5c0.7,0.3,0.5-0.8,0.8-0.7c0.3,0,0.7,0.5,1,0.2l0.3-0.3l0.1,0.1c0.3,0.2,0.4,0.4,0.4,0.5
	c-0.4,1.1-4.1,1.4-3.3,1.6c1.8,0.6,1.7,0.5,1,2.2c-0.5,1.2-0.9,0.5-1.5,1c-0.5,0.5-0.2,1.1-0.5,1.9c-0.3,0.8,0.4,1,0.3,1.7
	c-0.1,0.5-1.4,1.1-1.7,1.8c-0.2-0.2-0.4-0.3-0.4-0.5c-0.1-0.4,0.4-0.6,0.2-1.1c-0.2-0.5,0-1-0.3-1.3c-0.4-0.4-0.7,0.2-1-0.7
	c-0.5-1.2,0.4-1.3,0-2.3c-0.1-0.3-1.6-0.7-1.5-1c0.1-0.7,1.7,0.2,1.6-0.1c-0.1-0.3-0.9-1.2-1.5-1c-0.3-0.4,0.2-1,0.1-1.4
	c-0.2-0.7-0.7-0.4-0.8-1.6c0-0.8-0.2-1-0.5-1.4c-0.2-0.2-0.3-0.6-0.4-0.3c-0.3,0.5,0,0.8-0.3,1.3c-0.4,0.7-1,1.9,0.3,1.6
	c-0.1,0.3,0.1,0.7-0.5,2.2c-0.1,0.3,0.5,1.3,0.4,1.7c-0.2-0.1-0.5,0-1,0.2l0,0l0-0.1c-0.2-0.3-0.8-1-1.3-0.8c-0.3-0.3,0.3-1,0.2-1.3
	c-0.1-0.6-0.6-0.4-0.6-1.5c0-0.7-0.1-1-0.4-1.3c-0.2-0.2-0.3-0.6-0.4-0.3c-0.3,0.5-0.1,0.8-0.4,1.2c-0.5,0.6-1,1.8,0.2,1.5
	c-0.1,0.3,0.1,0.7-0.6,2.1c-0.1,0.3,0.4,1.3,0.3,1.6c-0.3-0.3-2.2,0.8-2.4,1.6l0,0.1l0,0c-0.1-0.2-0.5-0.7-0.4-1
	c0-0.2,0.5-0.1,0.5-0.3c0-0.2-0.3-0.1-0.4-0.2c-0.2-0.2-0.3-0.6-0.3-0.8c0.5,0.1,0.3-0.4,0.1-0.6c-0.1-0.2,0-0.3-0.2-0.5
	c-0.1-0.1-0.1,0-0.2,0.1c-0.1,0.1-0.2,0.2-0.2,0.5c0,0.4-0.2,0.4-0.3,0.6c0,0,0.1,0.4,0,0.5c-0.1,0.1-0.4,0-0.3,0.2
	c0.1,0.2,0.5,0.4,0.5,0.5c-0.1,0.3-1,0.4-0.8,0.4c0.5,0.2,0.4,0.1,0.3,0.6c-0.1,0.3-0.2,0.1-0.4,0.3c-0.1,0.1,0,0.3-0.1,0.5
	c-0.1,0.2,0.1,0.3,0.1,0.4c0,0.2-0.7,0.4-0.3,0.7c0.2,0.1,0.4,0.1,0.6,0.2c0.2,0.1-0.2,0.3-0.3,0.7c-0.1,0.2-0.2,0.6-0.4,0.8
	c-0.4,0.5-0.9,0.8-0.1,0.8c-0.2,0-0.5,0.4-0.2,0.4c0.3,0,0.6,0,0.8,0.1c-0.3,0-1.8,0.4-1.1,0.8c-0.1,0.1-0.4,0.4-0.5,0.5
	c0,0-0.3,0.1-0.3,0.1c0,0.1,0.1,0.1,0.2,0.3c0,0.1-0.4,0.4-0.4,0.6c0.6,0,1.1-0.2,1.8-0.2c-0.6,0-0.8,1.3-1.3,1.3l0,0.5l-6.6,4.1
	c-1.1,0-2.6-0.2-4.2-0.4c-0.7-0.1-1.5,0.8-2.3,0.8c-0.8,0-1.5-0.8-2.3-0.7c-0.7,0.2-1.4,0.3-2.1,0.5c-1,0.3-0.6,2-1.6,2.4
	c-5.3,2-11.9,3.5-13.4,4.9c-0.4,0.6-1.1,1.1-2,1.6l-19.6,11.1l231.8-3.3v-7.9h24.9v-2.2c-0.7-0.4-1.6-0.7-2.1-1.5
	c-0.8-1.2,0.3-1.3-0.7-2.2c-0.6-0.6-1.6-1.3-1.2-2.1c0.2-0.6,0.9-1.3-0.1-1.7c-1.1-0.6-1.1,1.7-2.3,0.2c-0.4-0.6,0.6-0.8,0.6-1.4
	c0-0.8-0.7-0.7-1.3-0.6c-0.9,0.1-1.4-0.2-1.6-0.5l0,0l0-0.1c-0.1-0.1-0.1-0.2-0.2-0.2l0,0l0,0l0,0l0,0l0,0l0,0l0,0l-1.1-1.7
	l-0.1-0.1l0.7,0.4c0.4,0.3,0.6,1,1,1.3c0.3,0,0.7,0,1,0c0.2-0.2,0.2-0.5,0.2-1c0.1-0.6,0.3-1.2,0.3-1.8c0.2-2.3-1.3-1.6-2-3.1
	c-0.2-0.4-0.4-1.1-0.7-1.4c-0.4-0.3-1-0.1-1.6-0.1l-0.3-0.1l-0.1-0.3c-0.2-0.6,0.2-1.2-0.2-1.7c-0.1-0.2-2.2-0.1-1.1-1.4h0.8
	c0.1-0.1,0.1-0.2,0.1-0.3l0,0l0.2,0.1c0.1,0.1,0.2,0.1,0.4,0.2c0.6,0.4,0.7,1.4,1.3,1.5c1.1,0.3,0.1-0.3,1.1-0.8
	c0.9-0.5,1.6-0.4,2.5-0.2l0.3,0.1l-0.1,0.4c0.3-0.1,0.3-0.2,0.1-0.4l0,0l0-0.1c0.1-1.1-0.5-2.4-0.8-3.4c-0.4-1.3-2.7-3.8-3.9-2.5
	c-0.1,0.1-0.5-0.4-0.6-0.5c-0.2-0.1-0.3-0.3-0.5-0.4l-0.4-0.4l0-0.3c0-0.1-0.1-0.2-0.1-0.3c-0.6-0.6-1.4,0-1.6-1
	c-0.2-0.9,1.1-1.5,1.3-2.3c0-0.1,0-0.3-0.1-0.5l0,0l0.3-0.2c-0.1,2.2,1.5,3.8,1.7,0.4c0.2,0.8,0.2,1.8,0.9,2.2
	c0.2,0.1,0.1-0.4,0.3-0.5c0.3-0.2,0.1,1.5,0.8,1c0.4-0.3,0.4-0.9,0.3-1.4l-0.1-0.3l0,0c0.6,0.3,0.2-2.2,0-2.6
	c-0.3-0.5-0.7-0.8-1-1.1l-0.1-0.1l-0.2-0.5c-0.1-0.1-0.2-0.3-0.4-0.3l-0.3,0l-0.1-0.1c-0.2-0.2-0.3-0.4-0.5-0.7l-0.1-0.2l0-0.4
	c0-0.4,0-0.6-0.5-0.7l-0.1,0l-0.1-0.2l0.1-0.2c0.1-0.4-0.1-0.7-0.4-0.9l-0.3-0.2l-0.1-0.3c-0.2-0.6-0.4-1.3-0.2-1.8
	c0.2-0.8,2.4-0.6,2.3-1.5c-0.1-0.7-1.2-0.4-1.8-1c-0.8-0.9-1-2.7-1.3-3.6c2.2,0.4,1.3-1.7,0.5-2.9c-0.6-0.9-0.1-1.3-0.6-2.3
	c-0.2-0.4-0.5,0.2-0.8,0.6c-0.5,0.7-0.8,1.1-0.9,2.5c-0.1,2.1-1.1,1.7-1.4,2.9c0,0.2,0.4,2,0.1,2.4c-0.6,0.7-2,0.1-1.6,1l0,0
	l-0.4,0.1c-1.1,0.2-2.5,0.6-2.1,1.9c-0.7,0.4-0.5,0.7-0.1,1.3c0.2,0.2,0.7-1.3,0.9-1.3c0.1,0,0.3,0.5,0.5,0.6c0.8,0.4,0.6-1,1-0.9
	c0.4,0.1,0.8,0.6,1.2,0.3l0.3-0.4l0.1,0.1c0.3,0.2,0.5,0.4,0.5,0.6c-0.5,1.4-5,1.7-4,2c2.2,0.7,2,0.6,1.2,2.7
	c-0.6,1.5-1.1,0.6-1.9,1.2c-0.6,0.6-0.3,1.4-0.6,2.3c-0.3,1,0.5,1.3,0.3,2.1c-0.2,0.8-2.7,1.7-2.1,3l0,0.1l0,0
	c-0.4,0.7-1,0.8-0.8,1.8c0.1,0.4,0.4,0.7,0.1,1.1c-0.5,0.5-0.3,0.7,0,1.4c0.2,0.5,1.3-1.3,1.6-1.6c0.3-0.4,0.8-1.6,0.9-0.9
	c0,0.4,0.5,0.5,1.1,0.4l0.2,0l-0.1,0.2c-0.3,0.6-1.2,1.4-1.7,2.3c-0.2,0.3-0.3,0.6-0.5,0.9l-0.4,0.8l-0.2-0.3
	c-0.7-0.5-2.1,0.1-2.4,1c-0.4-0.7-1.2-0.6-1.8,0c-0.9,0.9-1.5,2.6-2.7,3.2c0.2,0.6-1.3,1.2,0.1,1.8c0.2,0.1,0.4,0.2,0.7,0.2
	c0.9,0,1.4-0.3,2.1-0.9c0.3-0.3,0.7-1,0.7-0.5l0,0.3l0,0c0,0.1,0,0.1,0,0.2l0,0.1l0,0.9c0,0.5,0.1,0.9,0.3,1.3
	c0.3,0.6,0.9,0.7,1.5,0.7l0.9-0.2l0.6,0c0.7,0.1,1.3,0.2,1.9,0.4c-0.5,0-1.5,0.2-2.5,0.5L556,234l-0.1,0l-2.5-0.2l0.2-0.2
	c0.3-0.3,0.5-0.5,0.4-0.9c0-0.1-2-0.5-2.3-0.6c-0.6-0.3-1.6-1.2-2.4-2c0.4,1,1.1,2,0.9,3.4C550,234.7,548.7,234.2,547.6,233.5z
	 M382.9,234.6L382.9,234.6l-0.3-0.3h0c0.1,0,0.2,0,0.2,0.1C382.9,234.5,382.9,234.5,382.9,234.6L382.9,234.6z"/>
<path class="st3" d="M316,261.5c6.8,1.7,180-6.2,112.6,15.8c-128,41.8,110.4-7.4,141.1-7.4c30.3,0-11.5,27.6-10.3,38.7
	c0.4,3.5,86.3-14.1,95.1-15.1c64.6-7,130.5-20.9,210.7-15.3c25.4,1.8,49.9,4.9,72.3,10.8c42.6,11.1,119.5,16.7,71.4,2.1
	c-26.2-7.9-62.2-23.4-47.7-25.9c21.3-3.7,25.9,1.7,47.5,3c24.5,1.4,66-1.3,90.7-6.5c33.7-7,63.6-21.6,62.6-24.5
	c-3.4-9.7-71.3,23.9-181.8,7.2c-21.1-3.2-41.2-17.4-65.1-18.4c-96.7-3.9-174.8,16.8-264.1,21.7c-42.3,2.3-87,1-137.5-8
	C432.7,225,362.4,254.6,316,261.5"/>
<path class="st8" d="M1007.3,261.6c-69.6-20-111.1-23.5-143.2-23c-46.9,0.7-82.3,14.2-135.5,11.5c72-11.6,142.6-24,211.6-9.1
	L1007.3,261.6z"/>
<path class="st4" d="M389.8,251.3c9.3,1.9,89.3-0.5,90.6,9.4c0.3,1.9-22.7,10.2-23.1,11.8c7.6-1.2,15.1-2.4,22.6-3.7
	c18-2.9,36.1-5.9,54.1-8.7c3.7-0.6,7.3-1.1,11-1.6C500.3,243.9,448.1,245.6,389.8,251.3 M552.2,252.8c1.8,1.7,121.4,10.8,122.4,13.5
	c3.1,8.2-81.2,18.2-86,24.9c5.5-1,11-1.9,16.5-3c10-1.8,20-3.7,29.9-5.6c5.8-1.1,12.2-2.5,18.1-3.1c71.4-7.8,140.9-20.4,213.2-15.4
	c25.1,1.7,50.5,4.8,74.9,11.2c2,0.5,4.1,1,6.1,1.5c-2.8-3.8-85-22.9-83.8-28c1.8-7.4,137.5,14,143.9,12.7
	c-75.8-28.4-157.8-26.2-236.8-16C698.9,254.9,624.7,255.9,552.2,252.8z"/>
<path class="st8" d="M953.5,279.4c-80.6-24-144.5-22.7-198.9-14.7c-27.5,4-55.1,7.8-82.7,11.3c-24.1,3.1-47.7,8.5-71.5,13.3
	l-3.7,0.5l0.4,0l-3.9,0.6l5.8-0.6c23.4,0.2,47.2-3.9,72.7-9.1l60.5-9.9c53.2-6,107.2-8.6,155.2-1.4L953.5,279.4z"/>
<path class="st8" d="M652,247.6c-6.5,0.5-13.3,0.4-19.5,0.6c-73.6,2.2-123.2-14.7-177.5-12.4c-29.2,1.2-54.9,4.8-78.7,11
	c-18.6,4.8-51.6,11.9-74.1,18.3c45.9-7.5,93.9-21.4,139.6-24.9C513.1,234.7,587.7,260.1,652,247.6"/>
</svg>
