<?xml version="1.0" encoding="utf-8"?>
<!-- Generator: Adobe Illustrator 19.2.1, SVG Export Plug-In . SVG Version: 6.00 Build 0)  -->
<svg version="1.1" id="Layer_1" xmlns="http://www.w3.org/2000/svg" xmlns:xlink="http://www.w3.org/1999/xlink" x="0px" y="0px"
	 viewBox="0 0 330 80" style="enable-background:new 0 0 330 80;" xml:space="preserve">
<style type="text/css">
	.st0{fill:#2B698C;}
	.st1{fill:#244161;}
	.st2{fill:#256183;}
	.st3{fill-rule:evenodd;clip-rule:evenodd;fill:#8AD2D3;}
	.st4{fill-rule:evenodd;clip-rule:evenodd;fill:#2B698C;}
	.st5{fill:#FFFFFF;}
	.st6{fill:#214E69;}
	.st7{fill-rule:evenodd;clip-rule:evenodd;fill:#244161;}
	.st8{fill-rule:evenodd;clip-rule:evenodd;fill:#FFFFFF;}
</style>
<g>
	<path class="st0" d="M311,34c0,2.6,0,4.8-0.1,6c-0.1,0.8-0.3,1.4-0.8,1.5c-0.3,0.1-0.6,0.1-1,0.1c-0.3,0-0.4,0.1-0.4,0.2
		c0,0.2,0.2,0.3,0.6,0.3c0.6,0,1.3-0.1,1.9-0.1c0.7,0,1.3,0,1.6,0c0.8,0,1.7,0,2.9,0.1c1.2,0,2.7,0.1,4.9,0.1c1.1,0,1.3,0,1.5-0.7
		c0.1-0.6,0.4-2.5,0.4-3.1c0-0.3,0-0.5-0.2-0.5c-0.2,0-0.3,0.1-0.3,0.4c-0.2,1.1-0.5,1.7-1.3,2.1s-1.9,0.3-2.6,0.3
		c-2.9,0-3.3-0.4-3.4-2.4c0-0.8,0-3.4,0-4.3v-2.2c0-0.2,0-0.3,0.2-0.3c0.7,0,3.5,0,4,0.1c1,0.1,1.4,0.5,1.6,1.1
		c0.1,0.4,0.1,0.7,0.1,1c0,0.1,0.1,0.3,0.3,0.3c0.3,0,0.3-0.3,0.3-0.5c0-0.2,0.1-1.3,0.1-1.9c0.1-1.4,0.2-1.9,0.2-2
		c0-0.2-0.1-0.2-0.2-0.2c-0.1,0-0.3,0.1-0.4,0.4c-0.3,0.3-0.7,0.4-1.3,0.4c-0.6,0.1-3.9,0.1-4.5,0.1c-0.2,0-0.2-0.1-0.2-0.3v-7.1
		c0-0.2,0.1-0.3,0.2-0.3c0.6,0,3.5,0.1,4,0.1c1.4,0.2,1.7,0.5,1.9,1c0.1,0.3,0.2,0.8,0.2,1c0,0.3,0.1,0.4,0.3,0.4
		c0.2,0,0.3-0.2,0.3-0.3c0.1-0.3,0.1-1.6,0.1-1.9c0.1-1.3,0.2-1.6,0.2-1.8c0-0.1,0-0.3-0.2-0.3c-0.1,0-0.3,0.1-0.4,0.1
		c-0.2,0.1-0.7,0.1-1.2,0.2c-0.5,0-6.1,0-7,0c-0.4,0-1,0-1.8-0.1c-0.7,0-1.5,0-2.3,0c-0.4,0-0.6,0.1-0.6,0.3c0,0.2,0.2,0.3,0.5,0.3
		c0.4,0,0.9,0,1.1,0.1c0.9,0.2,1.1,0.6,1.2,1.6c0.1,0.9,0.1,1.7,0.1,5.9V34z M295.6,41.2c-5.4,0-8.6-4.6-8.6-10.5
		c0-7,3.7-8.8,6.9-8.8c4.6,0,8.2,3.9,8.2,10.2C302.1,40.2,297.5,41.2,295.6,41.2z M294.4,42.6c7.1,0,11.6-5.1,11.6-11.5
		c0-6.4-4.3-10.5-11.3-10.5c-8.4,0-11.6,6.2-11.6,11C283.1,36.5,286.3,42.6,294.4,42.6z M263.7,29.9c-0.1,0-0.2-0.1-0.2-0.2v-0.6
		c0-4.3,0-5,0.1-5.9c0.1-1,0.3-1.5,1-1.6c0.3-0.1,0.6-0.1,0.8-0.1c0.3,0,0.5-0.1,0.5-0.3c0-0.2-0.2-0.3-0.6-0.3
		c-1.1,0-2.9,0.1-3.5,0.1c-0.8,0-2.5-0.1-4-0.1c-0.4,0-0.6,0.1-0.6,0.3c0,0.2,0.2,0.3,0.5,0.3c0.4,0,0.9,0,1.1,0.1
		c0.9,0.2,1.1,0.6,1.2,1.6c0.1,0.9,0.1,1.7,0.1,5.9V34c0,2.6,0,4.8-0.1,6c-0.1,0.8-0.3,1.4-0.8,1.5c-0.3,0.1-0.6,0.1-1,0.1
		c-0.3,0-0.4,0.1-0.4,0.2c0,0.2,0.2,0.3,0.6,0.3c1.1,0,2.9-0.1,3.5-0.1c0.8,0,2.6,0.1,4.4,0.1c0.3,0,0.6-0.1,0.6-0.3
		c0-0.1-0.1-0.2-0.4-0.2c-0.4,0-1-0.1-1.4-0.1c-0.8-0.1-1-0.7-1.1-1.5c-0.1-1.2-0.1-3.4-0.1-6v-2.5c0-0.1,0.1-0.2,0.2-0.2h10.7
		c0.1,0,0.2,0.1,0.2,0.2V34c0,2.6,0,4.8-0.1,6c-0.1,0.8-0.3,1.4-0.8,1.5c-0.3,0.1-0.6,0.1-1,0.1c-0.3,0-0.5,0.1-0.5,0.2
		c0,0.2,0.2,0.3,0.6,0.3c1.1,0,2.9-0.1,3.5-0.1c0.8,0,2.6,0.1,4.4,0.1c0.3,0,0.6-0.1,0.6-0.3c0-0.1-0.1-0.2-0.4-0.2
		c-0.4,0-1-0.1-1.4-0.1c-0.8-0.1-1-0.7-1.1-1.5c-0.1-1.2-0.1-3.4-0.1-6v-4.9c0-4.3,0-5,0.1-5.9c0.1-1,0.3-1.5,1-1.6
		c0.3-0.1,0.6-0.1,0.8-0.1c0.3,0,0.5-0.1,0.5-0.3c0-0.2-0.2-0.3-0.6-0.3c-1.1,0-2.9,0.1-3.5,0.1c-0.8,0-2.5-0.1-4-0.1
		c-0.4,0-0.6,0.1-0.6,0.3c0,0.2,0.2,0.3,0.5,0.3c0.4,0,0.9,0,1.1,0.1c0.9,0.2,1.2,0.6,1.2,1.6c0.1,0.9,0.1,1.7,0.1,5.9v0.6
		c0,0.1-0.1,0.2-0.2,0.2H263.7z M240.9,33.4c-0.1,0-0.1-0.1-0.1-0.2l2.6-6.9c0-0.1,0.1-0.3,0.2-0.3c0.1,0,0.1,0.1,0.1,0.3l2.5,6.9
		c0,0.1,0,0.2-0.1,0.2H240.9z M246.5,34.9c0.1,0,0.2,0.1,0.3,0.2l2.2,5.9c0.1,0.3-0.1,0.6-0.3,0.6c-0.3,0-0.4,0.1-0.4,0.3
		c0,0.2,0.3,0.2,0.8,0.2c2.2,0.1,4.3,0.1,5.3,0.1c1,0,1.3-0.1,1.3-0.3c0-0.2-0.1-0.2-0.4-0.2c-0.3,0-0.8,0-1.2-0.1
		c-0.6-0.2-1.4-0.6-2.5-3.1c-1.8-4.3-6.3-15.7-7-17.2c-0.3-0.6-0.4-0.9-0.7-0.9c-0.3,0-0.4,0.3-0.8,1.1l-7,17.6
		c-0.6,1.4-1.1,2.4-2.4,2.5c-0.2,0-0.6,0.1-0.9,0.1c-0.2,0-0.3,0.1-0.3,0.2c0,0.2,0.2,0.3,0.5,0.3c1.5,0,3-0.1,3.3-0.1
		c0.9,0,2.1,0.1,3,0.1c0.3,0,0.5-0.1,0.5-0.3c0-0.2-0.1-0.2-0.4-0.2h-0.4c-0.9,0-1.1-0.4-1.1-0.9c0-0.3,0.1-1,0.4-1.7l1.5-4
		c0.1-0.2,0.1-0.2,0.3-0.2H246.5z M223.5,34c0,2.6,0,4.8-0.1,6c-0.1,0.8-0.3,1.4-0.8,1.5c-0.3,0.1-0.6,0.1-1,0.1
		c-0.3,0-0.4,0.1-0.4,0.2c0,0.2,0.2,0.3,0.6,0.3c1.1,0,2.9-0.1,3.5-0.1c0.8,0,2.6,0.1,4.4,0.1c0.3,0,0.5-0.1,0.5-0.3
		c0-0.1-0.1-0.2-0.5-0.2c-0.4,0-1-0.1-1.4-0.1c-0.8-0.1-1-0.7-1.1-1.5c-0.1-1.2-0.1-3.4-0.1-6V22.5l3.5,0.1c2.5,0.1,3.3,0.8,3.3,1.6
		l0,0.3c0,0.4,0.1,0.6,0.3,0.6c0.2,0,0.2-0.2,0.3-0.4c0-0.7,0.1-2.7,0.1-3.3c0-0.4,0-0.6-0.2-0.6c-0.1,0-0.3,0.1-0.8,0.1
		c-0.4,0.1-1,0.1-1.9,0.1h-11.1c-0.9,0-2-0.1-2.8-0.1c-0.7-0.1-1-0.3-1.2-0.3c-0.2,0-0.3,0.2-0.3,0.5c-0.1,0.2-0.6,2.8-0.6,3.2
		c0,0.3,0.1,0.4,0.3,0.4c0.2,0,0.3-0.1,0.3-0.3c0.1-0.2,0.2-0.6,0.5-1c0.4-0.6,1.1-0.8,2.7-0.8l4.2-0.1V34z M192.4,34
		c0,2.6,0,4.8-0.1,6c-0.1,0.8-0.3,1.4-0.8,1.5c-0.3,0.1-0.6,0.1-1,0.1c-0.3,0-0.4,0.1-0.4,0.2c0,0.2,0.2,0.3,0.6,0.3
		c0.6,0,1.3-0.1,1.9-0.1c0.7,0,1.3,0,1.6,0c0.8,0,1.7,0,2.9,0.1c1.2,0,2.7,0.1,4.9,0.1c1.1,0,1.3,0,1.5-0.7c0.1-0.6,0.4-2.5,0.4-3.1
		c0-0.3,0-0.5-0.2-0.5c-0.2,0-0.3,0.1-0.3,0.4c-0.2,1.1-0.5,1.7-1.3,2.1c-0.7,0.3-1.9,0.3-2.6,0.3c-2.9,0-3.3-0.4-3.4-2.4
		c0-0.8,0-3.4,0-4.3v-2.2c0-0.2,0-0.3,0.2-0.3c0.7,0,3.5,0,4,0.1c1,0.1,1.4,0.5,1.6,1.1c0.1,0.4,0.1,0.7,0.1,1
		c0,0.1,0.1,0.3,0.3,0.3c0.3,0,0.3-0.3,0.3-0.5c0-0.2,0.1-1.3,0.1-1.9c0.1-1.4,0.2-1.9,0.2-2c0-0.2-0.1-0.2-0.2-0.2
		c-0.1,0-0.3,0.1-0.4,0.4c-0.3,0.3-0.7,0.4-1.3,0.4c-0.6,0.1-3.9,0.1-4.5,0.1c-0.2,0-0.2-0.1-0.2-0.3v-7.1c0-0.2,0.1-0.3,0.2-0.3
		c0.6,0,3.5,0.1,4,0.1c1.4,0.2,1.7,0.5,1.9,1c0.1,0.3,0.2,0.8,0.2,1c0,0.3,0.1,0.4,0.3,0.4c0.2,0,0.3-0.2,0.3-0.3
		c0.1-0.3,0.1-1.6,0.1-1.9c0.1-1.3,0.2-1.6,0.2-1.8c0-0.1,0-0.3-0.2-0.3c-0.1,0-0.3,0.1-0.4,0.1c-0.2,0.1-0.7,0.1-1.2,0.2
		c-0.5,0-6.1,0-7,0c-0.4,0-1,0-1.8-0.1c-0.7,0-1.5,0-2.3,0c-0.4,0-0.6,0.1-0.6,0.3c0,0.2,0.2,0.3,0.5,0.3c0.4,0,0.9,0,1.1,0.1
		c0.9,0.2,1.2,0.6,1.2,1.6c0.1,0.9,0.1,1.7,0.1,5.9V34z M173.1,29.1c0-4.3,0-5,0.1-5.9c0.1-1,0.3-1.5,1-1.6c0.3-0.1,0.5-0.1,0.8-0.1
		c0.2,0,0.4-0.1,0.4-0.3c0-0.2-0.2-0.3-0.6-0.3c-1,0-2.7,0.1-3.4,0.1c-0.7,0-2.4-0.1-3.9-0.1c-0.4,0-0.6,0.1-0.6,0.3
		c0,0.2,0.2,0.3,0.5,0.3c0.4,0,0.9,0,1.1,0.1c0.9,0.2,1.2,0.6,1.2,1.6c0.1,0.9,0.1,1.7,0.1,5.9V34c0,2.6,0,4.8-0.1,6
		c-0.1,0.8-0.3,1.4-0.8,1.5c-0.3,0.1-0.6,0.1-1,0.1c-0.3,0-0.4,0.1-0.4,0.2c0,0.2,0.2,0.3,0.6,0.3c1.1,0,2.9-0.1,3.5-0.1
		c0.7,0,2.5,0.1,4,0.1c0.3,0,0.5-0.1,0.5-0.3c0-0.1-0.1-0.2-0.4-0.2c-0.4,0-1-0.1-1.4-0.1c-0.7-0.1-1-0.7-1-1.5
		c-0.1-1.2-0.1-3.4-0.1-6v-2.6h0.1l0.3,0.4c0.6,0.8,6.1,7.3,7.3,8.4c1.2,1.1,2,1.7,3.5,1.8c0.6,0.1,1.1,0.1,1.9,0.1h2.4
		c0.5,0,0.7-0.1,0.7-0.3c0-0.2-0.2-0.2-0.4-0.2c-0.3,0-0.9-0.1-1.7-0.4c-1.5-0.6-2.8-1.9-4-3c-1.1-1-6.6-7-7.6-8.3
		c1-1,5.2-5.2,6.1-6.1c1.2-1.2,2.2-1.8,3-2.1c0.5-0.2,1.2-0.3,1.6-0.3c0.3,0,0.4-0.1,0.4-0.3c0-0.2-0.2-0.3-0.5-0.3
		c-0.9,0-2.4,0.1-3.3,0.1c-0.8,0-2.3-0.1-2.9-0.1c-0.3,0-0.4,0.1-0.4,0.3c0,0.2,0.1,0.2,0.4,0.3c0.3,0.1,0.4,0.3,0.4,0.6
		c0,0.5-0.6,1.2-1.4,2.1c-0.8,1-4.9,5.1-5.9,6.2h-0.1V29.1z M150.6,33.4c-0.1,0-0.1-0.1-0.1-0.2l2.6-6.9c0-0.1,0.1-0.3,0.2-0.3
		c0.1,0,0.1,0.1,0.1,0.3l2.5,6.9c0,0.1,0,0.2-0.1,0.2H150.6z M156.3,34.9c0.1,0,0.2,0.1,0.3,0.2l2.2,5.9c0.1,0.3-0.1,0.6-0.3,0.6
		c-0.3,0-0.4,0.1-0.4,0.3c0,0.2,0.3,0.2,0.8,0.2c2.2,0.1,4.3,0.1,5.3,0.1c1,0,1.3-0.1,1.3-0.3c0-0.2-0.1-0.2-0.4-0.2
		c-0.3,0-0.8,0-1.2-0.1c-0.6-0.2-1.4-0.6-2.5-3.1c-1.8-4.3-6.3-15.7-7-17.2c-0.3-0.6-0.4-0.9-0.7-0.9c-0.3,0-0.4,0.3-0.8,1.1
		l-7,17.6c-0.6,1.4-1.1,2.4-2.4,2.5c-0.2,0-0.6,0.1-0.9,0.1c-0.2,0-0.3,0.1-0.3,0.2c0,0.2,0.2,0.3,0.5,0.3c1.5,0,3-0.1,3.3-0.1
		c0.9,0,2.1,0.1,3,0.1c0.3,0,0.5-0.1,0.5-0.3c0-0.2-0.1-0.2-0.4-0.2h-0.4c-0.9,0-1.1-0.4-1.1-0.9c0-0.3,0.1-1,0.4-1.7l1.5-4
		c0.1-0.2,0.1-0.2,0.3-0.2H156.3z M133.7,29.1c0-4.3,0-5,0.1-5.9c0.1-1,0.3-1.5,1-1.6c0.3-0.1,0.8-0.1,1.1-0.1
		c0.3,0,0.5-0.1,0.5-0.3c0-0.2-0.2-0.3-0.6-0.3c-1.1,0-3.1,0.1-3.8,0.1c-0.8,0-2.5-0.1-3.8-0.1c-0.4,0-0.6,0.1-0.6,0.3
		c0,0.2,0.2,0.3,0.5,0.3c0.4,0,0.7,0,0.9,0.1c0.9,0.2,1.2,0.6,1.2,1.6c0.1,0.9,0.1,1.7,0.1,5.9V34c0,2.6,0,4.8-0.1,6
		c-0.1,0.8-0.3,1.4-0.8,1.5c-0.3,0.1-0.6,0.1-1,0.1c-0.3,0-0.4,0.1-0.4,0.2c0,0.2,0.2,0.3,0.6,0.3c0.6,0,1.3-0.1,1.9-0.1
		c0.7,0,1.3,0,1.6,0c1.2,0,2.2,0,3.4,0.1c1.3,0,2.7,0.1,4.7,0.1c1.5,0,1.6-0.1,1.8-0.8c0.2-0.8,0.4-2.9,0.4-3.2c0-0.3,0-0.5-0.2-0.5
		c-0.2,0-0.3,0.2-0.3,0.4c-0.1,0.5-0.4,1.3-0.7,1.7c-0.7,0.8-1.8,0.8-3.3,0.8c-2.2,0-2.9-0.2-3.4-0.6c-0.6-0.5-0.6-2.4-0.6-6V29.1z"
		/>
	<path class="st1" d="M276,52.2c0-2.4,0-2.8,0-3.3c0-0.5,0.2-0.8,0.6-0.9c0.2,0,0.4,0,0.6,0c0.2,0,0.3,0,0.3-0.1
		c0-0.1-0.1-0.1-0.3-0.1c-0.6,0-1.7,0-2.1,0c-0.4,0-1.4,0-2.1,0c-0.2,0-0.3,0-0.3,0.1c0,0.1,0.1,0.1,0.3,0.1c0.2,0,0.4,0,0.5,0
		c0.5,0.1,0.6,0.4,0.7,0.9c0,0.5,0,0.9,0,3.3v2.7c0,1.4,0,2.7-0.1,3.3c-0.1,0.5-0.1,0.8-0.5,0.9c-0.1,0-0.3,0.1-0.6,0.1
		c-0.2,0-0.2,0-0.2,0.1c0,0.1,0.1,0.2,0.3,0.2c0.3,0,0.7,0,1.1,0c0.4,0,0.7,0,0.9,0c0.6,0,1.2,0,1.9,0c0.7,0,1.5,0,2.6,0
		c0.8,0,0.9-0.1,1-0.4c0.1-0.5,0.2-1.6,0.2-1.8c0-0.2,0-0.3-0.1-0.3c-0.1,0-0.2,0.1-0.2,0.2c0,0.3-0.2,0.7-0.4,0.9
		c-0.4,0.4-1,0.4-1.8,0.4c-1.2,0-1.6-0.1-1.9-0.3c-0.3-0.3-0.3-1.4-0.3-3.4V52.2z M256.2,54.6c-0.1,0-0.1,0-0.1-0.1l1.4-3.8
		c0-0.1,0-0.1,0.1-0.1c0,0,0.1,0.1,0.1,0.1l1.4,3.9c0,0,0,0.1-0.1,0.1H256.2z M259.4,55.4c0.1,0,0.1,0,0.2,0.1l1.2,3.3
		c0.1,0.2,0,0.3-0.1,0.4c-0.2,0-0.2,0-0.2,0.1c0,0.1,0.2,0.1,0.5,0.1c1.2,0,2.4,0,2.9,0c0.6,0,0.7,0,0.7-0.2c0-0.1-0.1-0.1-0.2-0.1
		c-0.2,0-0.4,0-0.7-0.1c-0.3-0.1-0.8-0.3-1.4-1.7c-1-2.4-3.5-8.7-3.9-9.6c-0.2-0.4-0.2-0.5-0.4-0.5c-0.2,0-0.2,0.2-0.4,0.6l-3.9,9.8
		c-0.3,0.8-0.6,1.3-1.3,1.4c-0.1,0-0.3,0-0.5,0c-0.1,0-0.2,0-0.2,0.1c0,0.1,0.1,0.2,0.3,0.2c0.8,0,1.7,0,1.8,0c0.5,0,1.2,0,1.7,0
		c0.2,0,0.3,0,0.3-0.2c0-0.1,0-0.1-0.2-0.1h-0.2c-0.5,0-0.6-0.2-0.6-0.5c0-0.2,0.1-0.6,0.2-1l0.8-2.2c0-0.1,0.1-0.1,0.1-0.1H259.4z
		 M239.4,54.9c0,1.4,0,2.7-0.1,3.3c0,0.5-0.1,0.8-0.5,0.9c-0.1,0-0.3,0.1-0.6,0.1c-0.2,0-0.2,0-0.2,0.1c0,0.1,0.1,0.2,0.3,0.2
		c0.6,0,1.6,0,2,0c0.4,0,1.4,0,2.4,0c0.2,0,0.3,0,0.3-0.2c0-0.1-0.1-0.1-0.2-0.1c-0.2,0-0.6,0-0.8-0.1c-0.5-0.1-0.6-0.4-0.6-0.8
		c-0.1-0.7-0.1-1.9-0.1-3.3v-6.4l2,0c1.4,0,1.8,0.5,1.8,0.9l0,0.2c0,0.2,0,0.3,0.2,0.3c0.1,0,0.1-0.1,0.1-0.2c0-0.4,0-1.5,0-1.8
		c0-0.2,0-0.3-0.1-0.3c-0.1,0-0.2,0-0.4,0.1c-0.2,0-0.6,0.1-1.1,0.1h-6.2c-0.5,0-1.1,0-1.6-0.1c-0.4,0-0.5-0.2-0.7-0.2
		c-0.1,0-0.1,0.1-0.2,0.3c0,0.1-0.3,1.5-0.3,1.8c0,0.2,0,0.2,0.1,0.2c0.1,0,0.1-0.1,0.2-0.2c0-0.1,0.1-0.3,0.3-0.5
		c0.2-0.3,0.6-0.4,1.5-0.5l2.3-0.1V54.9z M215.4,50.8L215.4,50.8c0.3,0.3,2.1,2.2,3.8,3.9c1.6,1.6,3.6,3.6,4.6,4.6
		c0.2,0.2,0.4,0.3,0.5,0.3c0.1,0,0.2-0.1,0.2-0.5l0.2-9.8c0-0.9,0.1-1.2,0.6-1.3c0.2,0,0.3,0,0.5,0c0.2,0,0.3,0,0.3-0.1
		c0-0.1-0.2-0.1-0.4-0.1c-0.8,0-1.4,0-1.5,0c-0.3,0-1.1,0-1.9,0c-0.2,0-0.4,0-0.4,0.1c0,0.1,0.1,0.1,0.2,0.1c0.2,0,0.6,0,0.8,0.1
		c0.4,0.2,0.5,0.5,0.5,1.4l0.2,7h-0.1c-0.3-0.2-2.4-2.5-3.4-3.6c-2.3-2.3-4.6-4.8-4.8-5c-0.3-0.3-0.4-0.5-0.6-0.5
		c-0.2,0-0.2,0.2-0.2,0.5l-0.1,9.2c0,1.4-0.1,1.8-0.5,1.9c-0.2,0.1-0.5,0.1-0.7,0.1c-0.2,0-0.2,0-0.2,0.1c0,0.1,0.1,0.2,0.3,0.2
		c0.8,0,1.5,0,1.7,0c0.3,0,0.9,0,1.9,0c0.2,0,0.4,0,0.4-0.2c0-0.1-0.1-0.1-0.3-0.1c-0.2,0-0.5,0-0.8-0.1c-0.3-0.1-0.5-0.5-0.5-1.7
		L215.4,50.8z M197,54.9c0,1.4,0,2.7-0.1,3.3c-0.1,0.5-0.1,0.8-0.5,0.9c-0.1,0-0.3,0.1-0.6,0.1c-0.2,0-0.2,0-0.2,0.1
		c0,0.1,0.1,0.2,0.3,0.2c0.3,0,0.7,0,1.1,0c0.4,0,0.7,0,0.9,0c0.5,0,1,0,1.6,0c0.7,0,1.5,0,2.7,0c0.6,0,0.7,0,0.8-0.4
		c0.1-0.3,0.2-1.4,0.2-1.7c0-0.2,0-0.3-0.1-0.3c-0.1,0-0.1,0.1-0.2,0.2c-0.1,0.6-0.3,1-0.7,1.2c-0.4,0.2-1.1,0.2-1.5,0.2
		c-1.6,0-1.8-0.2-1.9-1.3c0-0.5,0-1.9,0-2.4v-1.2c0-0.1,0-0.2,0.1-0.2c0.4,0,1.9,0,2.2,0c0.6,0.1,0.8,0.3,0.9,0.6
		c0,0.2,0,0.4,0.1,0.6c0,0.1,0,0.1,0.1,0.1c0.1,0,0.1-0.2,0.1-0.3c0-0.1,0-0.7,0.1-1c0.1-0.8,0.1-1,0.1-1.1c0-0.1,0-0.1-0.1-0.1
		c-0.1,0-0.1,0.1-0.2,0.2c-0.1,0.2-0.4,0.2-0.7,0.2c-0.4,0-2.2,0-2.5,0c-0.1,0-0.1-0.1-0.1-0.2v-3.9c0-0.1,0-0.2,0.1-0.2
		c0.3,0,1.9,0,2.2,0.1c0.8,0.1,0.9,0.3,1,0.6c0.1,0.2,0.1,0.5,0.1,0.6c0,0.1,0,0.2,0.1,0.2c0.1,0,0.1-0.1,0.2-0.2
		c0-0.2,0.1-0.9,0.1-1c0-0.7,0.1-0.9,0.1-1c0-0.1,0-0.1-0.1-0.1c-0.1,0-0.2,0-0.2,0.1c-0.1,0-0.4,0.1-0.7,0.1c-0.3,0-3.4,0-3.9,0
		c-0.2,0-0.6,0-1,0c-0.4,0-0.8,0-1.3,0c-0.2,0-0.3,0-0.3,0.1c0,0.1,0.1,0.1,0.3,0.1c0.2,0,0.5,0,0.6,0c0.5,0.1,0.6,0.4,0.7,0.9
		c0,0.5,0,0.9,0,3.3V54.9z M176.7,52c0-1.2,0-2.6,0-3.1c0-0.2,0-0.2,0.2-0.3c0.1-0.1,0.7-0.1,1-0.1c1.2,0,3,0.2,4.4,1.6
		c0.7,0.6,1.5,1.9,1.5,3.9c0,1.6-0.3,3-1.3,3.9c-0.9,0.8-2,1.1-3.6,1.1c-1.2,0-1.8-0.3-2-0.6c-0.1-0.2-0.2-0.8-0.2-1.2
		c0-0.3,0-1.5,0-3.1V52z M174.7,54.9c0,1.4,0,2.7-0.1,3.3c-0.1,0.5-0.1,0.8-0.5,0.9c-0.1,0-0.3,0.1-0.6,0.1c-0.2,0-0.2,0-0.2,0.1
		c0,0.1,0.1,0.2,0.3,0.2c0.3,0,0.7,0,1.1,0c0.4,0,0.7,0,0.9,0c0.4,0,0.9,0,1.5,0.1c0.6,0,1.2,0.1,1.8,0.1c2.9,0,4.5-1.1,5.2-1.8
		c0.9-0.9,1.7-2.4,1.7-4.3c0-1.9-0.7-3.1-1.5-4c-1.7-1.8-4.3-1.8-6.2-1.8c-0.9,0-1.9,0-2.4,0c-0.4,0-1.4,0-2.2,0
		c-0.2,0-0.3,0-0.3,0.1c0,0.1,0.1,0.1,0.3,0.1c0.2,0,0.5,0,0.6,0c0.5,0.1,0.6,0.4,0.7,0.9c0,0.5,0,0.9,0,3.3V54.9z"/>
</g>
<g>
	<path class="st2" d="M107.8,44.8l2.4-0.8c0,0,3.2,1.3,4.6,1.8c1.4,0.4,2.3,0.4,3.4,0.7c1.1,0.3,1.2-0.5,2.1,1.1l0.9,1.6
		c0,0-3.3-0.8-4.5-1.2c-1.1-0.4-0.2-0.6-0.7-0.5c-0.5,0.1-5.5-1.4-5.5-1.4l-3.5-1.1L107.8,44.8z"/>
	<path class="st3" d="M42.8,28.8c13.8,0.1,29.8-9.3,27.5-7.6c-7.5,5.4-3.6,4.8,1.5,3.2c15.7-5.1,1,3.2,1.1,3.2
		c3.7-0.1,13.3-2.5,28.2-7c0.7-0.2-11.8,7.6-5.7,7.6c2,0,26.9-2.6,10.5,0.6c-1.5,0.3,16-0.4,14.6,0.1c-2.9,1-48.7,3.7-31.2,6.8
		c5.5,1,44.7-4.3,19.7,0.8c-18.6,3.8-35.1,7.9-52,10.5c-5.5-0.3-15.7-1.6-17.1-1.7c-1.8-0.1-7.9,1-8.4,1.2c-0.4,0.1,1.6-1,2.3-1.5
		c5.3-1.3,9.5-2.5,8.2-2.9c-4.5-1.5-12.3,0.3-17.3-0.1c-5.8-0.5,16.7-3.9,19.5-4.9c6.4-2.4-8.7-1.6-9.8-1.6
		c-3.8,0,14.7-3.6,17.2-4.5C59.1,28.3,40.1,31.2,42.8,28.8"/>
	<path class="st4" d="M89.6,32.9l1.5,0.4l0.5,0.1l0.1,0l0,0l0,0c1.2,0.8,2.8,2.6,5.2,3.2l8.3,1.9l12,7.1l-2.8,0.5l3.1,0.7l-1.6,0.3
		l5.6,2c0,0,6.5,0.6,5.7,0.6c-0.3,0-2.6,1-6.4,1.3c-8,0.7-20.6,0.9-20.6,0.9l5.2,1.4c0,0-8.4-0.4-18.4-0.9
		c-27.9-1.4-35.2-0.1-58.8-0.1c-9,0-15.2,0.4-18.8,0.6c-4.1,0.2-5,0.3-3.7-0.1c1.6-0.4,7.3-1.9,10.3-3.2c1.7-0.8,1.8-1.4,1.5-1.7
		c-0.8-0.6-4.7-0.2-5.6-0.1l4.5-1.1c1.5-0.2,3.1-0.4,4.6-0.5c1.1-0.1,2.1-0.2,3.2-0.2l-1.6-1.2l-3.6,0.7c0-0.1,0.2-0.3,0.6-0.7
		c1-0.7,2.2-0.9,3.4-1.1c4.7-0.9,15-2.2,17.3-2.4l7.4-1.9l7.1-4.3c1.3-0.2,2.5-0.3,3.7-0.7c0.7-0.2,1.2-0.2,1.9-0.5
		c0.1-0.1,0.2-0.1,0.3-0.2c0.5-0.3,5.6-3.3,5.5-3.3c0.2-0.1,0.4-0.2,0.6-0.3c0.4-0.2,0.4-0.2,0.9-0.2l1.7,0.1l1.2-0.4l4.3-2
		c0.7-0.3,0.7-0.4,1.3,0.1l0.5,0.3l1.6,1.2l0.1,0.1l0.8-0.1l2.4,2.3l2.4,0.2l0.9-0.4C86.7,31.9,87.9,32.1,89.6,32.9"/>
	<path class="st0" d="M80.7,45.2c0,0-0.6-1.9-0.9-3.4c-0.3-1.5-0.2-3.4-0.2-3.4l3.6,7.1L80.7,45.2z"/>
	<path class="st5" d="M111.2,43.3C111.2,43.3,111.2,43.3,111.2,43.3C111.2,43.3,111.2,43.3,111.2,43.3 M111.2,43.3
		C111.2,43.3,111.2,43.3,111.2,43.3C111.2,43.3,111.2,43.3,111.2,43.3z M111.1,43.3C111.1,43.3,111.1,43.3,111.1,43.3
		C111.1,43.3,111.1,43.3,111.1,43.3z M111.1,43.2C111.1,43.2,111.1,43.2,111.1,43.2C111.1,43.2,111.1,43.2,111.1,43.2z M111,43.2
		C111,43.2,111,43.2,111,43.2C111,43.2,111,43.2,111,43.2z M111,43.2C111,43.2,111,43.2,111,43.2C111,43.2,111,43.2,111,43.2z
		 M110.9,43.2C111,43.2,111,43.2,110.9,43.2C111,43.2,111,43.2,110.9,43.2z M110.9,43.2C110.9,43.2,110.9,43.2,110.9,43.2
		C110.9,43.2,110.9,43.2,110.9,43.2z M110.9,43.3C110.9,43.3,110.9,43.3,110.9,43.3C110.9,43.3,110.9,43.3,110.9,43.3z M110.8,43.3
		C110.8,43.3,110.8,43.3,110.8,43.3C110.8,43.3,110.8,43.3,110.8,43.3z M110.8,43.3C110.8,43.3,110.8,43.3,110.8,43.3
		C110.8,43.3,110.8,43.3,110.8,43.3z M110.8,43.3C110.8,43.3,110.8,43.3,110.8,43.3C110.8,43.3,110.8,43.3,110.8,43.3z M110.8,43.4
		C110.8,43.4,110.8,43.4,110.8,43.4C110.8,43.4,110.8,43.4,110.8,43.4z M110.7,43.5c0,0,0-0.1,0-0.1
		C110.7,43.4,110.7,43.5,110.7,43.5z M110.7,43.6C110.7,43.5,110.7,43.5,110.7,43.6C110.7,43.5,110.7,43.5,110.7,43.6z M110.6,44.5
		c0-0.3,0-0.7,0.1-1C110.7,43.8,110.7,44.2,110.6,44.5z M106.6,44.1C106.6,44.1,106.5,44.1,106.6,44.1
		C106.5,44.1,106.6,44.1,106.6,44.1z M107.1,45.2c0.2-0.2-0.1-0.6-0.5-1C107,44.5,107.2,44.9,107.1,45.2z M19.1,45.5l5.6-1.1
		l1.7-0.5l1.3-0.1l0.9-0.2l13.8-1.5l4.6-1.2l3.9-2l4.3-2.8L51.8,40l2.7-0.6c-1.6,3.4-5.1,5.9-11.2,5.4l6.3,1
		c1.3-0.1,2.7-0.1,3.7-0.1c5.1,0,9.4-1.5,14.5-1.5c2.4,0,6.6,0.7,10.9,1.3h0c1.6,0.2,3.1,0.4,4.6,0.6c3.1-0.4,5.9-0.9,7.6-0.9
		c3.5,0-1.4-3.3,0.5-2.4l0,0l0.1,0c0.1,0,0.9,0.8,2,1.7c0.2,0.2,0.4,0.3,0.6,0.5c1.3,1,2.8,1.9,3,1.3c1-2.2-3.3-4.3-1.1-4.3
		c0.4,0,0.9,0.2,1.4,0.5c0.5,0.2,1,0.6,1.5,0.8c0.2,0.1,0.3,0.2,0.5,0.2c2.8,0.9,4.7,1.8,6.9,2c0.4,0,0.7,0,0.7-0.2
		c-0.5-0.3,0-0.2-2.2-1.2c-0.2-0.9-1.5-1.7-3.2-2.5c-2.3,0-5.4-0.8-7.4-1.7c-1.6-0.7-1.4-1.4-0.8,0.6c0.2,0.6,0.8,1.4,0.1,0.7
		c-0.5-0.5-1.2-1-1.5-1.6L91,37c-0.3-0.6-0.6-0.9-0.8-1c-0.3-0.1-0.4,0.2-0.4,0.4c0,0.2,0,1.2,0.3,1.2c0.2,0,3,4,3.4,4.6
		c0.3,0.5,1.9,2.3,1.9,2.3c-0.6,0-2.3-2.3-2.7-2.7c-1.2-1.4-2.2-1.8-3.8-2.7c-0.1,0-0.1-0.1-0.1-0.1c-0.1,0-0.5-0.3-0.5-0.4
		c-0.1-0.4-0.6-0.6-1-0.8c-0.6-0.3-0.7-0.4-1-1c-0.2-0.4-0.3-0.9-0.6-1.3c-0.1-0.2-0.3-0.3-0.4-0.3c-0.3,0-0.4,0.2-0.4,0.5
		c0.1,0.9,0.7,1.9,1.1,2.7c0,0.1,0.1,0.2,0.1,0.3c0.6,0.7,1.4,0.8,2.2,1.5c0.2,0.2,1.8,1.5,1.4,1.3c-0.9-0.6-1.4-0.5-2.3-1.3
		c-1.1-1.1-1.2,0.7-1.9-0.1c-0.6-0.7-0.2-1-0.9-0.2c-0.5,0.5-0.8,0.5-1.2,0.2c-0.2-0.2-0.3-0.3-0.5-0.4c-0.5-0.2-1-0.3-1.5,0.6
		c-0.4,0.8-0.9,1.5-1.3,2.1c-1.7,2.5-0.8-0.3-0.8-2.7c0-2.1-1.1,1.2-1.7-0.2c-0.2-0.4,0.1-1.5-0.5-1.6c-0.8-0.1-2,1.9-2.5,2.5
		c-0.8,1-2,1.5-2.9,2.4c0-0.4,0.3-0.6,0.5-1.3c0.2-1.3,1.1-2.9,1.9-3.8c0.4-0.5,0.8-2.1,1.3-2.8l-0.1,0l1.9-3.3l1.2-1.4l0.9,0
		l0.5,0.5l0.6,0.4l-0.4,1.3l1.1-0.3l3,0.7l0.3-0.1l0.5-0.2l0.1,0c0.9,0.2,1.5,0.3,2.6,0.4l0.8,0.3l0,0.1l1.3,0.6l2.1,0.5l0.1,0.1
		l-0.1-0.1c0,0,7.2,4.4,9.5,5.9c1,0.7,1.4,1.3,4.9,3.5c-0.6-0.6-1.5-1.2-2-1.5c0,0-0.1,0-0.1,0c-0.1,0-0.1,0,0,0c0,0-0.1,0-0.1,0
		c-0.4-0.2,2.2,0.8,3.4,1.4l0,0c0.3,0.1,0.5,0.3,0.7,0.4c0.5,0.4,0.9,0.7,1.2,0.8c0.7,0.4,1,0.1,1-0.4l-2.1-0.5l-8.8-5.7l5.6,0.8
		l7.7,5.1c2.4,1.1,6.6,2.2,6.6,2.2l0,0c0.1,0,0.1,0,0.1,0c0.1,0.5,0.8,1,1.7,1.4c1,0.5,1.4,0.9,2,1.2c0.1,0,0.1,0.1,0.2,0.1
		c-0.9,0-1.8,0-2.7,0c-6.4,0.1-13.9,0.6-19.5-1.1c-4-1.2-10.1-1.6-15.7-1.8c-0.2,0-0.4,0-0.6,0l-0.1,0l-0.1,0l-0.1,0
		c-1.5,0-3,0-4.5-0.1c-0.1,0-0.1,0-0.2,0h0c-0.1,0-0.1,0-0.2,0c-0.1,0-0.2,0-0.4,0h0l-0.2,0l-1.5-0.1c-4.6-0.3-9-0.9-12.2-0.8
		c-5.6,0.1-9.3,0.9-7.7,1c1,0.1,2.1,0.2,3.2,0.3h0c0.8,0.1,1.6,0.2,2.4,0.4l0.1,0l0,0l0.2,0l0,0l0,0l0.1,0l0,0l0.1,0l0,0l0.1,0l0,0
		l0.1,0l0.1,0h0l0,0l0.2,0l0,0l0.1,0l0,0l0.1,0l0.1,0l0.1,0l0,0l0.1,0l0.1,0l0,0l0.1,0l0.1,0l0,0l0.1,0l0,0l0,0l0.1,0l0,0l0,0l0,0
		l0.1,0l0,0l0,0l0,0c0.1,0,0.1,0,0.2,0.1c3.7,1.2-1,0.5-2.8,0.5c-3.1,0-9-0.8-13.1-1.3l-0.1,0l-0.1,0l0,0l0,0l-0.1,0l-0.1,0l0,0
		l-0.1,0l-0.1,0l-0.1,0l0,0l-0.1,0L49,46.7h0l-0.4,0l-0.1,0l-0.2,0l-0.1,0l0,0l0,0l-0.1,0l-0.1,0l0,0l-0.1,0l-0.1,0l0,0l0,0
		c-0.7-0.1-1.5-0.1-2.2-0.2l0,0c-2.5-0.2-5-0.4-7.4-0.5c-4-0.2-8.3-0.2-12.3-0.1c-2.1,0.1-4.1,0.2-6.1,0.4l-0.1,0h0h0
		c-0.6,0.1-1.2,0.1-1.9,0.2c-1.5,0.3-3.2,0.8-4.5,1L19.1,45.5z M54,41l3.5-3.1L54.6,39c0,0,2-2.4,3.4-2.9c1-0.4,1.8-0.3,2.7-0.9
		l6.9-4.3l1.6,0.3l0.7,0l0,0l0.9-0.4l5.1-2.4l0.6,0.3L76,32.9l-1.3,0.5c-2,4.5-1-1.3-4.7,3.8l0.6-2c-0.4-0.1-0.6-0.2-0.8-0.4
		l-1.3,0.9v0l-4.8,3.2l1.8-2.1l-1.9,0.5l2.5-2.5c-1.5,0.2-3.3,0.3-3.5,0.6c-0.7,0.8-2.3,3.2-2.6,3.7c-0.3,0.3,0.3-0.8,0.3-1.5
		c0-0.4,0-0.7-0.1-0.9c-1.2,1.2-3.4,3.4-3.8,3.5C55.8,40.3,54,41,54,41z"/>
	<path class="st6" d="M36.6,45.8c0.1,0,0.2,0,0.3,0c-0.1,0-0.1,0-0.1-0.1c0.1,0,0.2,0,0.3-0.1L36.6,45.8z"/>
	<path class="st7" d="M108.7,43.4L108.7,43.4c-0.1-0.1-0.1-0.2-0.2-0.3l-0.1-0.1l0.2-0.2c0.1-0.1,0.1-0.1,0.2-0.2
		c0.2-0.1,0.2,0.2,0.3,0c0-0.1,0.1-0.4,0.1-0.4c0.1-0.1,0.2,0.1,0.2,0.1l0,0l0,0.1l0,0.1l0,0c-0.1,0.2-0.2,0-0.3,0.1
		c-0.1,0.1-0.3,0.4-0.3,0.5C108.9,43.2,108.8,43.2,108.7,43.4L108.7,43.4z M112,43.9L112,43.9c-0.1-0.2-0.1-0.4,0.1-0.4
		c0.1,0,0.2,0.2,0.3,0.2l0,0l0,0C112.3,43.8,112.1,43.8,112,43.9L112,43.9z M112.7,44l0-0.1c0-0.1,0-0.1,0-0.2c0-0.1,0.1,0,0.2,0
		c0,0,0,0,0.1,0l0,0l-0.1,0.1C112.8,43.9,112.7,44,112.7,44L112.7,44z M112.2,44.3L112.2,44.3l-0.1-0.2c0,0,0.1,0,0.1,0.1
		L112.2,44.3z M111.2,44.6l-0.2-0.4c-0.1-0.3-0.4-0.5-0.4-0.6l0,0l0,0c0,0,0.1,0.1,0.1,0.1c0,0.1,0.1,0.1,0.2,0.2L111,44l0,0
		c0,0,0,0.1,0.1,0.1c0.1,0.1,0.2,0.1,0.3,0.1C111.4,44.3,111.3,44.4,111.2,44.6L111.2,44.6z M112.2,44.7v-0.1l0,0L112.2,44.7
		L112.2,44.7L112.2,44.7z M112.1,44.8L112.1,44.8c0,0,0-0.1,0-0.1h0.1L112.1,44.8z M112.3,45.4L112.3,45.4c-0.1,0-0.1-0.1-0.1-0.2
		l0,0l0.1,0c0,0,0.1,0,0.2,0C112.4,45.3,112.3,45.3,112.3,45.4L112.3,45.4z M108.5,45.6L108.5,45.6c-0.2-0.1-0.2-0.2-0.2-0.2
		c0,0,0.3,0,0.3,0c-0.1-0.1-0.1-0.1-0.2-0.3c0-0.1,0-0.1,0-0.2c0,0-0.2,0-0.1-0.2h0.1c0,0,0-0.1,0-0.1c0-0.1,0.3,0.1,0.3,0
		c0-0.2-0.3-0.2-0.4-0.4c0-0.1,0-0.2,0-0.2c-0.1-0.1-0.2,0-0.2-0.1c0-0.2-0.1-0.4,0.1-0.4c0.2,0,0.2,0.2,0.3,0.2l0.1,0l0,0
		c0,0,0,0.3,0,0.3c0.1,0,0.2-0.1,0.2-0.2c0.1,0,0.1-0.1,0.1-0.1l0.1-0.1l0,0c0,0.2,0.1,0.1,0.1,0.4c0,0.3-0.3,0.2-0.2,0.3
		c0,0.1,0,0.2,0,0.3c0,0.1,0.1,0,0.2,0c0.2,0.3-0.2,0.3-0.3,0.3c-0.1,0.1,0,0.2-0.1,0.3C108.6,45.3,108.6,45.4,108.5,45.6
		L108.5,45.6z M108.8,46l-0.1-0.2l-0.1-0.1l0.1,0c0.1,0,0.3,0,0.3,0C109,45.8,108.9,45.9,108.8,46L108.8,46z M112.7,46l-0.1-0.2h0
		c0.1,0,0.2,0,0.3,0.1c0,0-0.1,0-0.1,0L112.7,46z M97.4,46.4L97.4,46.4C97.4,46.4,97.3,46.3,97.4,46.4
		C97.3,46.3,97.4,46.3,97.4,46.4L97.4,46.4L97.4,46.4C97.4,46.4,97.4,46.4,97.4,46.4L97.4,46.4z M97.5,46.6L97.5,46.6
		C97.5,46.5,97.5,46.5,97.5,46.6L97.5,46.6L97.5,46.6c0.1-0.1,0.2-0.1,0.2,0C97.6,46.5,97.6,46.5,97.5,46.6L97.5,46.6z M97.6,46.7
		C97.6,46.7,97.6,46.7,97.6,46.7L97.6,46.7l-0.1,0c0,0,0,0-0.1-0.1c0,0,0,0,0,0v0l0,0C97.5,46.6,97.6,46.7,97.6,46.7z M98.2,47.6
		C98.3,47.5,98.3,47.5,98.2,47.6c0.1,0,0.1,0,0.2,0l0,0l0,0c0,0-0.1,0-0.1,0L98.2,47.6L98.2,47.6z M99.6,47.4
		C99.6,47.4,99.6,47.4,99.6,47.4c-0.1,0-0.1,0-0.1,0c0,0,0,0-0.1,0l0,0l0,0c0,0,0,0,0,0c-0.1-0.1-0.2,0-0.2-0.1
		c0-0.1,0.1-0.2,0.1-0.3c0,0,0,0,0-0.1l0,0l0,0c0,0.2,0.2,0.4,0.2,0.1c0,0.1,0,0.1,0.1,0.2c0,0,0,0.1,0,0.1
		C99.6,47.2,99.6,47.3,99.6,47.4C99.6,47.4,99.6,47.4,99.6,47.4z M99.8,47.5C99.8,47.5,99.8,47.4,99.8,47.5c0-0.1,0-0.1,0-0.1l0.1,0
		l0,0L99.8,47.5z M97.6,47L97.6,47L97.6,47c0,0,0-0.1,0-0.1l0,0l0,0C97.6,46.9,97.6,46.9,97.6,47C97.6,47,97.6,47,97.6,47L97.6,47z
		 M97,47v0.2c0,0,0,0,0,0c0,0,0,0.1,0,0.1c0,0,0,0,0,0l0,0l0,0c0,0,0-0.1-0.1-0.1c0,0,0,0,0,0c0,0-0.1,0-0.1-0.1h0.1c0,0,0,0,0-0.1
		c0,0,0,0,0,0c0,0-0.1,0,0,0h0c0,0,0,0,0,0v0l0,0C96.9,47,97,47,97,47z M97,46.8v0.1c0,0-0.1,0-0.1,0l0,0l0,0c0,0,0,0,0,0
		c0,0,0,0,0,0c0,0,0,0,0,0c0,0,0,0,0-0.1c0,0,0,0,0,0c0,0,0,0,0.1,0l0,0l0,0c0,0,0,0,0,0c0,0,0,0,0,0l0,0
		C96.9,46.8,96.9,46.8,97,46.8L97,46.8L97,46.8C97,46.7,97,46.8,97,46.8z M97,46.6L97,46.6C97,46.7,97,46.7,97,46.6l-0.1,0.1
		c0,0,0,0-0.1,0l0,0l0,0C96.9,46.6,97,46.6,97,46.6z M115.2,46v0.5c-0.1-0.2-0.2-0.3-0.3-0.5c0,0,0-0.1,0-0.2
		c-0.1-0.1-0.5-0.3-0.4-0.6c0-0.1,0.5,0,0.5,0c-0.1-0.2-0.2-0.4-0.3-0.7c0-0.2,0-0.3-0.1-0.5c0,0-0.4,0-0.2-0.4c0,0,0,0,0,0l0,0v0
		c0,0,0,0,0,0c0,0.1,0,0.3,0.2,0.3c0.2,0,0.3-0.1,0.5-0.1c-0.1,0.1-0.1,0.4,0,0.6c0.1,0.1,0.2,0,0.2,0.1c0,0.1,0.1,0.3,0.2,0.2
		c0.2-0.2,0.2-0.4,0-0.7c0-0.1-0.2,0-0.2,0c0-0.2,0-0.3-0.1-0.4c-0.1-0.1-0.2-0.2-0.2-0.3c0-0.1,0-0.2-0.1-0.3l0,0l0,0
		c-0.1-0.3-0.4-0.4-0.5-0.8l0,0l0,0c0.1,0,0.1,0.1,0.1,0.1c0,0.2,0.2,0.3,0.3,0.1c0,0.1,0.1,0.2,0.2,0.2c0,0,0.3,0,0.3-0.1
		c-0.1-0.2-0.3-0.3-0.4-0.3c0,0,0-0.2-0.1-0.3c0,0-0.2,0-0.2,0c0-0.2-0.1-0.2-0.2-0.3h0v0c0,0,0-0.1,0-0.1c-0.1-0.2-0.2,0-0.3-0.3
		c0-0.1,0-0.1,0-0.2l0,0l0.1,0.1c0.1,0,0.4,0.5,0.2,0c0,0,0,0,0,0c0-0.1-0.2-0.1-0.2-0.2c0,0-0.1-0.1-0.1-0.2l-0.1-0.1l0-0.1
		c0-0.2,0.1-0.4,0.2-0.4c0.3,0,0,0.6,0.3,0.5l0,0l0,0.1c0,0,0,0.1,0.1,0.1c0.1,0,0.1-0.1,0.2-0.1c0,0.1-0.1,0.2-0.1,0.3
		c0,0.1,0.2-0.1,0.2,0c0.1,0.2-0.2,0.5,0.1,0.5c0.1,0,0.1-0.2,0.1-0.3c0-0.1,0.1-0.1,0.1-0.1c0.1-0.1,0-0.6-0.1-0.6h-0.1
		c-0.1,0,0-0.5-0.1-0.5l0,0l0,0c-0.1-0.1-0.2-0.2-0.3-0.3l-0.1-0.1l0.1,0c0.2,0.1,0.3,0.1,0.5,0.2c0.1,0.1,0-0.2,0-0.2
		c-0.1-0.2-0.3,0-0.4-0.1c-0.1-0.2-0.2-0.2-0.4-0.2c0,0-0.1,0-0.1,0l0,0l0,0c-0.1-0.1-0.2-0.3-0.2-0.4c0-0.1,0-0.2,0-0.3l0,0l0,0
		c0.1,0.1,0.2-0.1,0.3-0.1c0.1-0.1,0.1,0.9,0.4,0.3c0,0,0.3,0.7,0.3,0.2c0-0.1,0-0.3,0-0.3c-0.1-0.1-0.2-0.1-0.2-0.1
		c-0.1-0.2,0-0.3-0.2-0.4c-0.1,0-0.1,0-0.1,0c-0.1,0-0.1-0.1-0.1-0.2v0l0,0c0-0.1,0-0.1-0.1-0.2c-0.2-0.1-0.2-0.2-0.2-0.3l0,0l0,0
		c0,0,0,0,0.1,0c0,0,0.2,0.1,0.2,0.1c0.1-0.1-0.1-0.1-0.1-0.1c0-0.1-0.1-0.2-0.2-0.3l0-0.1c0,0,0.1-0.1,0.1-0.2l0-0.1l0.1,0
		c0,0,0,0.1,0,0.1c0,0,0.1,0,0.2,0c0.1,0-0.1,0.4,0.1,0.5c0.1,0,0.4-0.1,0.4,0c0,0.1,0,0.3,0.1,0.3c0.2,0,0-0.3,0-0.3
		c0,0,0.2,0,0.2-0.1c0-0.3-0.4-0.3-0.4-0.3c0-0.1-0.1-0.2-0.2-0.1c0,0,0-0.2-0.1-0.3c0,0-0.1,0-0.1,0c0,0-0.1,0-0.1,0l-0.1,0l0-0.1
		c0-0.1,0-0.2,0-0.2c0.2,0.1,0.2-0.1,0.2-0.4l0,0l0,0c0,0,0,0,0,0.1c0,0,0,0.2,0,0.2c0.1,0,0.2-0.1,0.1,0c0,0,0,0.2,0,0.2
		c0,0,0.1-0.1,0.1-0.1c0.1,0,0.1,0.2,0.1,0.2h0.1c0,0,0.1,0.1,0.1,0.2c0,0,0-0.2-0.1-0.3c-0.1-0.2-0.2-0.4-0.4-0.4
		c0.1-0.1-0.1-0.4-0.2-0.4l-0.1,0l0,0c-0.1-0.1-0.2-0.1-0.2-0.2c-0.1-0.2-0.1-1.3-0.2-1.6c0-0.1-0.1,0.9-0.1,1.1
		c0,0.2-0.2,0.3-0.2,0.7c0,0.3,0,0.4,0,0.5l0,0l-0.1,0c-0.1,0-0.2,0.1-0.2,0.1c-0.1,0-0.3,0-0.4,0.1c0,0-0.1,0.3-0.1,0.4
		c0,0.3,0.5-0.2,0.4-0.3c0.1,0.1,0.2,0,0.3-0.1l0,0l0,0c0,0,0,0,0,0.1c0,0.2-0.1,0.3-0.2,0.5l-0.1,0.1l0,0c-0.1,0-0.1-0.1-0.2-0.1
		c-0.1,0.1-0.2,0.3,0,0.3c-0.1,0-0.2,0-0.2,0.1c-0.1,0.1,0,0.2,0,0.3c0,0-0.3,0.2-0.1,0.2c0.4,0.1,0.4-0.2,0.5-0.4l0.1-0.1l0,0
		c0.1,0.1,0.3,0.2,0.3,0.3c-0.1,0-0.1,0.1-0.2,0.1l0,0l0,0c-0.1,0-0.1,0.1-0.1,0.2h0c-0.1,0-0.3,0.1-0.3,0.2c-0.1,0-0.1,0.1,0,0.2
		c0.1,0.2-0.3-0.1-0.2,0.2c0,0.2,0.2,0.1,0.3,0.3c0.1,0.2,0,0.3,0.1,0c0.1-0.4,0.1-0.1,0.2-0.2c0,0,0,0,0,0l0,0l0,0
		c0.1,0.1,0.2,0.1,0.3,0.2c0,0,0,0,0,0l0,0l0,0c-0.1,0.1-0.2,0-0.3,0.1c0,0-0.1,0.3-0.1,0.3c0,0.1,0.1,0,0.1-0.1
		c0,0,0.1-0.1,0.1-0.1l0.1-0.1l0,0c-0.1,0.1-0.2,0.2-0.3,0.3l0,0.1l-0.1,0c-0.1,0-0.2,0-0.3,0c-0.1,0-0.2,0.2-0.3,0.3
		c0,0.1-0.1,0.1-0.2,0.2c-0.1,0.2,0,0.4,0,0.6c0,0.3,0.2,0.1,0.2-0.1c0-0.1,0-0.4,0.1-0.4c0,0.1,0.1,0.1,0.2,0l0,0v0
		c0,0.1,0,0.2,0,0.4c0,0.1,0,0.2,0,0.3l0,0l-0.1,0.1c0,0,0,0.1,0,0.1c0,0.1-0.2,0-0.2-0.1c-0.1,0-0.3,0.2-0.2,0.3
		c-0.1,0-0.2,0.2-0.1,0.3c0.1,0,0.1-0.1,0.2-0.1c0.1,0,0.2,0,0.1-0.2c0,0,0.1,0.1,0.2,0.1c0,0,0.1,0,0.1-0.1l0,0l0,0.1
		c0,0.2,0,0.3,0.2,0.5l0,0l-0.1,0.1c0,0.1-0.1,0.2-0.1,0.3c0,0.1-0.3-0.2-0.4-0.1c-0.1,0.1-0.1,0.2-0.1,0.3c0,0.4,0.2,0.6,0.2,1
		c0.1-0.2,0.2-0.4,0.2-0.8c0,0.1,0,0.3,0.1,0.4c0.1,0,0.1-0.1,0.2-0.2l0-0.2l0,0.1c0,0.1,0,0.3,0,0.5l0,0.1l-0.1,0.1
		c-0.1,0.1-0.3,0.1-0.4,0.2l-0.1,0.1l0-0.1c-0.1-0.1-0.1-0.3-0.2-0.5c-0.1-0.1-0.2-0.1-0.2-0.3c0-0.2-0.1-0.4-0.1-0.5
		c0.2,0,0.1-0.2,0-0.3c-0.1-0.1,0-0.1-0.1-0.2c0,0,0,0-0.1,0.1c0,0.1-0.1,0.1-0.1,0.2c0,0.2-0.1,0.2-0.1,0.3c0,0.2-0.1,0.4-0.2,0.6
		c-0.1,0.2,0.1,0.2,0,0.4c0,0.2-0.1,0.1-0.2,0.1c-0.1,0.1,0,0.1,0,0.2c0,0.1,0.1,0.1,0,0.2c0,0-0.1,0.1-0.1,0.2l0,0l0-0.5
		c0-0.1-0.1-0.1-0.2-0.1c-0.1-0.1-0.1-0.2-0.1-0.2c0,0,0,0,0,0h0v0c0-0.2-0.3-0.2-0.4-0.4c0-0.1,0.1-0.2,0.1-0.3l0,0l0,0
		c0,0,0-0.1,0-0.1c0.1,0.2,0,0.6,0.3,0.5c0,0.1,0.2,0.6,0.3,0.4c0.1-0.2,0-0.7-0.1-0.8c0,0-0.1,0-0.1-0.1c0-0.1,0.1-0.2,0-0.2
		c-0.1,0-0.1-0.1-0.2,0c0-0.2-0.1-0.3-0.2-0.3l-0.1,0l0,0c0.1,0,0.3-0.1,0.2-0.3c-0.1-0.2-0.1-0.3-0.2-0.3l0,0l0.1,0
		c0.1,0,0.1,0,0.2,0c0,0,0.1,0.4,0.1,0.5c0,0,0.1,0,0.1,0.1c0.1-0.5-0.2-1-0.5-1.3c0,0,0-0.1,0-0.1c-0.1-0.1-0.2-0.1-0.3-0.2l0,0
		l0-0.1c0,0,0-0.1,0-0.1c0-0.1,0.1-0.3,0.1-0.5l0,0l0,0c0,0,0.1,0.1,0.1,0.1c0.1,0-0.1,0.1-0.1,0.2c0,0.1,0,0.2,0,0.2
		c0,0.2,0.2,0,0.3-0.1c-0.1,0.4,0.4,0.3,0.3,0.2c0.3-0.3-0.3-0.6-0.4-0.7c0-0.1-0.1-0.2-0.1-0.2l-0.1,0l0,0l0,0h0
		c0.1,0,0.3-0.2,0.3-0.1c0,0.1,0.1,0.3,0.2,0.4c0,0,0.1,0,0.1,0c0.1-0.2-0.2-0.7-0.4-0.7c-0.1,0-0.2-0.1-0.3-0.1l-0.1-0.1l0,0
		c0-0.1-0.1-0.2-0.1-0.2l0,0l0,0c0-0.2,0-0.2,0-0.4c0-0.2-0.1-0.1-0.1-0.2c0-0.1,0.1-0.3,0-0.3c-0.1,0-0.1,0.2-0.1,0.2
		c0,0.1-0.1,0.1-0.1,0.2c-0.1,0.3,0.1,0.2,0.1,0.3l0,0.1l0,0c-0.1,0.2,0,0.3-0.1,0.4c-0.1,0.1-0.2,0.3-0.2,0.4l0,0l0,0
		c-0.1,0.1-0.2,0.4-0.3,0.4c0,0.1,0,0.5,0.1,0.3c0-0.1,0-0.2,0.1-0.3c0-0.1,0.2-0.1,0.2-0.2l0-0.1h0c0,0,0.1,0,0.1,0
		c-0.1,0.3-0.1,0.6-0.2,0.9l0,0.1l-0.1,0.1c-0.1,0.1-0.4,0.1-0.4,0.3c0,0.1,0.1,0.2,0,0.2c0,0-0.3,0.4-0.1,0.4
		c0.2,0,0.2-0.2,0.2-0.3c0,0,0.1,0.1,0.2,0.2c0.1,0,0-0.4,0-0.5c0,0,0,0,0.1,0.1l0,0l0,0c0,0.2,0.2,0.2,0.1,0.4
		c-0.2,0.3,0.1,0.1-0.1,0.4c0,0-0.1,0.1-0.1,0.2l0,0l0,0c0,0.1-0.1,0.1-0.1,0.1c-0.2,0-0.2,0.2-0.2,0.4c0,0.3,0,0.1-0.2,0.3
		c-0.1,0.1-0.2,0.2-0.2,0.3l-0.1,0l-0.1,0c-0.1,0-0.1-0.1-0.1-0.2c0-0.2-0.1-0.4-0.1-0.6c0.3,0,0.1-0.2,0-0.3
		c-0.1-0.1,0-0.1-0.1-0.3c0,0-0.1,0-0.1,0.1c-0.1,0.1-0.1,0.1-0.1,0.3c0,0.2-0.1,0.2-0.1,0.3c0,0.3-0.2,0.5-0.2,0.7
		c-0.1,0.2,0.1,0.2,0,0.5c-0.1,0.2-0.1,0.1-0.2,0.1c-0.1,0.1,0,0.2-0.1,0.3c0,0.1,0.1,0.1,0.1,0.2c0,0.1-0.4,0.2-0.2,0.4
		c0.1,0.1,0.2,0.1,0.3,0.1c0.1,0.1-0.1,0.2-0.2,0.4c-0.1,0.1-0.1,0.3-0.2,0.4c-0.2,0.2-0.5,0.4,0,0.4c-0.1,0-0.3,0.2-0.1,0.2
		c0.2,0,0.3,0,0.4,0c-0.2,0-0.9,0.2-0.6,0.4c0,0.1-0.2,0.2-0.3,0.3c0,0-0.2,0-0.2,0c0,0.1,0.1,0.1,0.1,0.1c0,0-0.2,0.2-0.2,0.3
		c0.3,0,0.6-0.1,0.9-0.1c-0.3,0-0.4,0.7-0.7,0.7c0,0.1,0,0.1,0,0.2l0,0l-0.3,0l-0.3-0.1l-0.1-0.1l-0.1,0l0,0c0,0,0,0,0,0
		c0.1-0.2,0.6,0.1,0.4-0.1c-0.2-0.4-0.3-0.7-0.6-1l0,0l0.1,0.1c0.1,0.1,0.1,0.2,0.2,0.2c0,0,0.1,0,0.1,0c0-0.1,0.1-0.1,0.1-0.2
		c0-0.1,0-0.2,0-0.3c0-0.4-0.2-0.3-0.4-0.5c0-0.1-0.1-0.2-0.1-0.2c-0.1-0.1-0.2,0-0.3,0l0,0l0-0.1c0-0.1,0-0.2-0.1-0.3
		c0,0-0.4,0-0.2-0.2c0,0,0.1,0,0.1,0c0,0,0,0,0,0l0,0l0,0c0,0,0,0,0.1,0c0.1,0.1,0.1,0.2,0.2,0.3c0.2,0,0-0.1,0.2-0.1
		c0.1-0.1,0.3-0.1,0.4,0l0.1,0l0,0.1c0,0,0.1,0,0-0.1l0,0l0,0c0-0.2-0.1-0.4-0.2-0.6c-0.1-0.2-0.5-0.7-0.7-0.4c0,0-0.1-0.1-0.1-0.1
		c0,0-0.1,0-0.1-0.1l-0.1-0.1l0,0c0,0,0,0,0-0.1c-0.1-0.1-0.2,0-0.3-0.2c0-0.2,0.2-0.3,0.2-0.4c0,0,0-0.1,0-0.1l0,0l0,0
		c0,0.4,0.3,0.6,0.3,0.1c0,0.1,0.1,0.3,0.2,0.4c0,0,0-0.1,0.1-0.1c0,0,0,0.3,0.1,0.2c0.1-0.1,0.1-0.1,0-0.2l0,0l0,0
		c0.1,0.1,0-0.4,0-0.4c-0.1-0.1-0.1-0.1-0.2-0.2l0,0l0-0.1c0,0,0,0-0.1,0l-0.1,0l0,0c0,0-0.1-0.1-0.1-0.1l0,0v-0.1
		c0-0.1,0-0.1-0.1-0.1l0,0l0,0l0,0c0-0.1,0-0.1-0.1-0.2l-0.1,0l0,0c0-0.1-0.1-0.2-0.1-0.3c0-0.1,0.4-0.1,0.4-0.3
		c0-0.1-0.2-0.1-0.3-0.2c-0.1-0.1-0.2-0.5-0.2-0.6c0.4,0.1,0.2-0.3,0.1-0.5c-0.1-0.1-0.1-0.2-0.1-0.3l0,0l0,0c0,0,0.1,0,0-0.1
		c0-0.1-0.1-0.5-0.2-0.5c0,0,0,0.2,0,0.2c0,0.1,0.1,0.1,0.1,0.2c0,0-0.1,0-0.1,0.1c0,0,0,0.1,0,0.1l0,0l0,0
		c-0.1,0.1-0.1,0.2-0.1,0.4c0,0.4-0.2,0.3-0.2,0.5c0,0,0.1,0.3,0,0.4c-0.1,0.1-0.3,0-0.3,0.2l0,0l-0.1,0c-0.2,0-0.4,0.1-0.3,0.3
		c-0.1,0.1-0.1,0.1,0,0.2c0,0,0.1-0.2,0.1-0.2c0,0,0.1,0.1,0.1,0.1c0.1,0.1,0.1-0.2,0.2-0.2c0.1,0,0.1,0.1,0.2,0l0.1-0.1l0,0
		c0.1,0,0.1,0.1,0.1,0.1c-0.1,0.2-0.8,0.3-0.7,0.3c0.4,0.1,0.4,0.1,0.2,0.5c-0.1,0.3-0.2,0.1-0.3,0.2c-0.1,0.1,0,0.2-0.1,0.4
		c0,0.2,0.1,0.2,0.1,0.4c0,0.1-0.4,0.3-0.3,0.5l0,0l0,0c-0.1,0.1-0.2,0.1-0.1,0.3c0,0.1,0.1,0.1,0,0.2c-0.1,0.1,0,0.1,0,0.2
		c0,0.1,0.2-0.2,0.3-0.3c0-0.1,0.1-0.3,0.1-0.2c0,0.1,0.1,0.1,0.2,0.1l0,0l0,0c-0.1,0.1-0.2,0.2-0.3,0.4c0,0,0,0.1-0.1,0.2l-0.1,0.1
		l0,0c-0.1-0.1-0.4,0-0.4,0.2c-0.1-0.1-0.2-0.1-0.3,0c-0.1,0.2-0.2,0.4-0.4,0.6c0,0.1-0.2,0.2,0,0.3c0,0,0.1,0,0.1,0
		c0.2,0,0.2,0,0.4-0.2c0.1,0,0.1-0.2,0.1-0.1l0,0l0,0c0,0,0,0,0,0l0,0v0.2c0,0.1,0,0.2,0.1,0.2c0.1,0.1,0.2,0.1,0.3,0.1l0.2,0l0.1,0
		c0.1,0,0.2,0,0.3,0.1c-0.3,0-1.4,0.3-0.9,0.6c-0.1,0.1-0.3,0.3-0.4,0.4c0,0-0.3,0.1-0.3,0.1c0,0,0,0.1,0.1,0.1l0,0l-0.3,0l0,0
		l-0.1,0c-0.1,0-0.1,0-0.2,0c0,0,0,0,0,0c0,0,0.1,0,0.1,0l0.1,0l0.1,0c0.1,0,0.1,0,0.2-0.1c0,0,0-0.1,0-0.1l0-0.1l0,0c0,0,0,0,0,0
		l0,0l0,0c0-0.1,0,0,0.1,0.1c0.1,0.1,0.1,0.1,0.2,0.1c0,0,0.1,0,0.1,0c0.2-0.1,0-0.1,0-0.2c-0.1-0.1-0.2-0.3-0.3-0.4
		c-0.1-0.1-0.2-0.1-0.2,0c0-0.1-0.2-0.2-0.3-0.1l0,0l0-0.1c0,0,0-0.1-0.1-0.1c-0.1-0.1-0.2-0.2-0.2-0.3l0,0l0,0c0.1,0,0.1,0,0.1-0.1
		c0-0.1,0.1,0.1,0.1,0.1c0,0,0.2,0.2,0.2,0.2c0-0.1,0.1-0.1,0-0.2c0,0,0-0.1,0-0.1c0-0.1,0-0.1-0.1-0.2l0,0l0,0
		c0.1-0.1-0.2-0.2-0.2-0.3c0-0.1,0.1-0.1,0-0.2c0-0.1,0-0.2-0.1-0.3c-0.1-0.1-0.1,0-0.2-0.1c-0.1-0.2-0.1-0.2,0.1-0.3
		c0.1,0-0.4-0.1-0.5-0.2c0,0,0,0,0.1-0.1l0,0l0,0c0.1,0,0.1,0,0.1,0c0,0,0,0.1,0.1,0.1c0,0,0-0.1,0.1-0.1c0,0,0.1,0.2,0.1,0.1
		c0-0.1,0.1-0.1,0-0.1c0.1-0.1-0.1-0.2-0.2-0.2l0,0l0,0c0-0.1-0.1,0-0.2-0.1c0,0,0-0.3,0-0.3c0-0.1-0.1-0.1-0.2-0.3
		c0-0.2,0-0.2-0.1-0.3c0,0-0.1-0.1-0.1-0.1c-0.1,0.1,0,0.2-0.1,0.3c-0.1,0.1-0.2,0.4,0.1,0.3c0,0.1-0.1,0.3-0.1,0.4
		c-0.1,0.1-0.2,0-0.2,0.1c0,0.1,0.2,0.1,0.3,0.2c0,0.1,0,0.1,0,0.2l0,0l0,0c0,0-0.1,0.1,0,0.1l0,0l0,0h0c-0.1,0-0.1,0-0.1,0.1l0,0
		l0,0c0,0,0,0.1-0.1,0.1l0,0l0,0c0,0,0,0,0,0l0,0.1l0,0c0,0-0.1,0.1-0.1,0.1c0,0-0.1,0.3,0,0.3l0,0l0,0c0,0.1,0,0.1,0,0.2
		c0.1,0.1,0.1-0.1,0.1-0.1c0,0,0,0.1,0,0.1c0.1,0,0.1-0.2,0.1-0.2c0,0.4,0.2,0.2,0.2-0.1l0,0l0,0c0,0,0,0,0,0.1
		c0,0.1,0.2,0.2,0.1,0.3c0,0.1-0.1,0-0.2,0.1c0,0,0,0,0,0l0,0l0,0c0,0,0,0-0.1,0c0,0-0.1,0.1-0.1,0.1c-0.1-0.1-0.4,0.1-0.5,0.3
		c0,0.1-0.1,0.3-0.1,0.4l0,0l0,0c0,0,0,0,0,0l0,0l0,0c0.1,0,0.2,0,0.3,0c0.1,0.1,0,0.1,0.1,0.1c0.1,0,0.1-0.1,0.2-0.2c0,0,0,0,0,0
		l0,0l0,0c0,0,0,0,0,0h0.1c0.1,0.1-0.1,0.1-0.1,0.2c0,0.1,0,0.1,0,0.2l0,0l0,0c-0.1,0-0.1,0-0.2,0c0,0,0,0.1-0.1,0.1
		c0-0.1,0-0.1,0-0.1c0-0.1-0.1-0.1-0.1-0.1l0,0l0-0.1c0,0,0,0,0,0l0,0l0,0c0,0,0,0-0.1-0.1l0,0l0,0c0,0,0-0.1-0.1-0.1h0l0,0l0,0
		c0,0,0-0.1,0-0.1l0,0l0,0c0-0.1,0-0.1,0-0.2c0-0.1,0.3-0.1,0.3-0.2c0-0.1-0.1,0-0.2-0.1c-0.1-0.1-0.1-0.3-0.1-0.4
		c0.3,0.1,0.1-0.2,0.1-0.3c-0.1-0.1,0-0.1-0.1-0.3c0,0-0.1,0-0.1,0.1C99,44.6,99,44.7,99,44.8c0,0.2-0.1,0.2-0.2,0.3
		c0,0,0,0.2,0,0.3c-0.1,0.1-0.2,0-0.2,0.1l0,0l0,0c-0.1,0-0.3,0.1-0.2,0.2c-0.1,0-0.1,0.1,0,0.1c0,0,0.1-0.2,0.1-0.1
		c0,0,0,0.1,0.1,0.1c0.1,0,0.1-0.1,0.1-0.1c0,0,0.1,0.1,0.1,0l0,0l0,0c0,0,0.1,0,0.1,0.1C98.9,46,98.3,46,98.5,46
		c0.2,0.1,0.2,0.1,0.1,0.3c-0.1,0.2-0.1,0.1-0.2,0.1c-0.1,0.1,0,0.2-0.1,0.3c0,0.1,0.1,0.1,0,0.2c0,0.1-0.3,0.2-0.2,0.3l0,0l0,0l0,0
		c-0.1-0.1-0.1-0.1-0.1-0.2c0,0,0.1,0,0.2-0.1c0.1-0.1-0.1-0.2-0.1-0.2c0-0.1,0-0.1,0-0.1c0-0.1,0-0.1,0-0.1c0,0-0.1,0-0.1-0.1
		c-0.1-0.1,0-0.1,0-0.3c0,0-0.2-0.1-0.2-0.1c0-0.1,0.2,0,0.2,0c0,0-0.1-0.1-0.2-0.1c0,0,0-0.1,0-0.2c0-0.1-0.1,0-0.1-0.2
		c0-0.1,0-0.1-0.1-0.2c0,0,0-0.1,0,0c0,0.1,0,0.1,0,0.1c-0.1,0.1-0.1,0.2,0,0.2c0,0,0,0.1-0.1,0.3c0,0,0.1,0.2,0,0.2
		c0,0-0.1,0-0.1,0l0,0l0,0c0,0-0.1-0.1-0.2-0.1c0,0,0-0.1,0-0.2c0-0.1-0.1,0-0.1-0.2c0-0.1,0-0.1,0-0.1c0,0,0-0.1,0,0
		c0,0.1,0,0.1,0,0.1c-0.1,0.1-0.1,0.2,0,0.2c0,0,0,0.1-0.1,0.2c0,0,0.1,0.1,0,0.2c0,0-0.3,0.1-0.3,0.2l0,0l0,0c0,0-0.1-0.1,0-0.1
		c0,0,0.1,0,0.1,0c0,0,0,0,0,0c0,0,0-0.1,0-0.1c0.1,0,0,0,0-0.1c0,0,0,0,0-0.1c0,0,0,0,0,0c0,0,0,0,0,0.1c0,0.1,0,0,0,0.1
		c0,0,0,0,0,0.1c0,0,0,0,0,0c0,0,0.1,0,0.1,0.1c0,0-0.1,0-0.1,0c0.1,0,0,0,0,0.1c0,0,0,0,0,0c0,0,0,0,0,0.1c0,0,0,0,0,0
		c0,0-0.1,0,0,0.1c0,0,0,0,0.1,0c0,0,0,0,0,0.1c0,0,0,0.1,0,0.1c0,0.1-0.1,0.1,0,0.1c0,0-0.1,0,0,0c0,0,0.1,0,0.1,0
		c0,0-0.2,0-0.1,0.1c0,0,0,0-0.1,0.1c0,0,0,0,0,0c0,0,0,0,0,0c0,0,0,0,0,0.1c0.1,0,0.1,0,0.2,0c-0.1,0-0.1,0.1-0.2,0.1l0,0.1
		l-0.8,0.5c-0.1,0-0.2,0-0.2,0c2.9,0.4,5.3,2.3,8,2.5l13.8,2h3.8v-1.4c-0.1,0-0.1,0-0.2,0l-0.4,0.1l-0.4,0l-0.2-0.2l0,0l0.1,0
		c0.1,0,0.1,0.1,0.1,0.2c0,0,0,0,0.1,0c0,0,0.1-0.1,0-0.1c0-0.1,0-0.1,0-0.2c0-0.3-0.1-0.2-0.2-0.3c0,0,0-0.1-0.1-0.2
		c0,0-0.1,0-0.2,0l0,0l0,0c0-0.1,0-0.1,0-0.2c0,0-0.2,0-0.1-0.2h0.1c0,0,0,0,0,0v0l0,0c0,0,0,0,0,0c0.1,0,0.1,0.2,0.2,0.2
		c0.1,0,0,0,0.1-0.1c0.1-0.1,0.2,0,0.3,0l0,0l0,0c0,0,0,0,0,0l0,0l0,0c0-0.1-0.1-0.3-0.1-0.4c0-0.2-0.3-0.4-0.5-0.3
		c0,0-0.1,0-0.1-0.1c0,0,0,0-0.1,0l0,0l0,0c0,0,0,0,0,0c-0.1-0.1-0.2,0-0.2-0.1c0-0.1,0.1-0.2,0.1-0.3c0,0,0,0,0-0.1l0,0l0,0
		c0,0.2,0.2,0.4,0.2,0.1c0,0.1,0,0.2,0.1,0.2c0,0,0,0,0-0.1c0,0,0,0.2,0.1,0.1c0.1,0,0-0.1,0-0.2l0,0l0,0c0.1,0,0-0.3,0-0.3
		c0-0.1-0.1-0.1-0.1-0.1l0,0l0-0.1c0,0,0,0,0,0l0,0l0,0c0,0,0,0-0.1-0.1l0,0l0,0c0,0,0-0.1-0.1-0.1h0l0,0l0,0c0,0,0-0.1,0-0.1l0,0
		l0,0c0-0.1,0-0.1,0-0.2c0-0.1,0.3-0.1,0.3-0.2c0-0.1-0.1,0-0.2-0.1c-0.1-0.1-0.1-0.3-0.1-0.4c0.3,0.1,0.1-0.2,0.1-0.3
		c-0.1-0.1,0-0.1-0.1-0.3c0,0-0.1,0-0.1,0.1c-0.1,0.1-0.1,0.1-0.1,0.3c0,0.2-0.1,0.2-0.2,0.3c0,0,0,0.2,0,0.3
		c-0.1,0.1-0.2,0-0.2,0.1l0,0l0,0c-0.1,0-0.3,0.1-0.2,0.2c-0.1,0-0.1,0.1,0,0.1c0,0,0.1-0.2,0.1-0.1c0,0,0,0.1,0.1,0.1
		c0.1,0,0.1-0.1,0.1-0.1c0,0,0.1,0.1,0.1,0l0,0l0,0c0,0,0.1,0,0.1,0.1c-0.1,0.2-0.6,0.2-0.5,0.2c0.2,0.1,0.2,0.1,0.1,0.3
		c-0.1,0.2-0.1,0.1-0.2,0.1c-0.1,0.1,0,0.2-0.1,0.3c0,0.1,0.1,0.1,0,0.2c0,0.1-0.1,0.1-0.2,0.2l-0.4,0l-0.2-0.2l0,0l0.1,0
		c0.1,0,0.1,0.1,0.1,0.2c0,0,0,0,0.1,0c0,0,0.1-0.1,0-0.1c0-0.1,0-0.1,0-0.2c0-0.3-0.1-0.2-0.2-0.4c0,0,0-0.1-0.1-0.2
		c0,0-0.1,0-0.2,0l0,0l0,0c0-0.1,0-0.1,0-0.2c0,0-0.2,0-0.1-0.2h0.1c0,0,0,0,0,0l0,0l0,0c0,0,0,0,0,0c0.1,0,0.1,0.2,0.2,0.2
		c0.1,0,0,0,0.1-0.1c0.1-0.1,0.2,0,0.3,0l0,0l0,0c0,0,0,0,0,0l0,0l0,0c0-0.1-0.1-0.3-0.1-0.4c0-0.2-0.3-0.4-0.5-0.3
		c0,0-0.1,0-0.1-0.1c0,0,0,0-0.1,0l0,0l0,0c0,0,0,0,0,0c-0.1-0.1-0.2,0-0.2-0.1c0-0.1,0.1-0.2,0.1-0.3c0,0,0,0,0-0.1l0,0l0,0
		c0,0.3,0.2,0.4,0.2,0.1c0,0.1,0,0.2,0.1,0.2c0,0,0,0,0-0.1c0,0,0,0.2,0.1,0.1c0.1,0,0-0.1,0-0.2l0,0l0,0c0.1,0,0-0.3,0-0.3
		c0-0.1-0.1-0.1-0.1-0.1l0,0l0-0.1c0,0,0,0,0,0l0,0l0,0c0,0,0,0-0.1-0.1l0,0l0,0c0,0,0-0.1-0.1-0.1l0,0l0,0l0,0c0,0,0-0.1,0-0.1l0,0
		l0,0c0-0.1,0-0.1,0-0.2c0-0.1,0.3-0.1,0.3-0.2c0-0.1-0.1,0-0.2-0.1c-0.1-0.1-0.1-0.3-0.1-0.4c0.3,0.1,0.1-0.2,0.1-0.3
		c-0.1-0.1,0-0.1-0.1-0.3c0,0-0.1,0-0.1,0.1c-0.1,0.1-0.1,0.1-0.1,0.3c0,0.2-0.1,0.2-0.2,0.3c0,0,0,0.2,0,0.3
		c-0.1,0.1-0.2,0-0.2,0.1l0,0l0,0c-0.1,0-0.3,0.1-0.2,0.2c-0.1,0-0.1,0.1,0,0.1c0,0,0.1-0.2,0.1-0.1c0,0,0,0.1,0.1,0.1
		c0.1,0,0.1-0.1,0.1-0.1c0,0,0.1,0.1,0.1,0l0,0l0,0c0,0,0.1,0,0.1,0.1c-0.1,0.2-0.6,0.2-0.5,0.2c0.2,0.1,0.2,0.1,0.1,0.3
		c-0.1,0.2-0.1,0.1-0.2,0.1c-0.1,0.1,0,0.2-0.1,0.3c0,0.1,0.1,0.1,0,0.2c0,0.1-0.3,0.2-0.2,0.3l0,0l0,0c0,0.1-0.1,0.1-0.1,0.2
		c0,0,0,0.1,0,0.1c-0.1,0.1,0,0.1,0,0.2c0,0.1,0.2-0.2,0.2-0.2c0,0,0.1-0.2,0.1-0.1c0,0,0.1,0.1,0.1,0.1l0,0l0,0
		c0,0.1-0.1,0.2-0.2,0.3c0,0,0,0.1-0.1,0.1l0,0.1l0,0c-0.1-0.1-0.2,0-0.3,0.1c0-0.1-0.1-0.1-0.2,0l-0.2-0.1l-0.1-0.2
		c-0.1-0.2-0.1-0.3-0.2-0.5c0.1,0.1,0.2,0.1,0.3,0.1c0,0,0.1,0,0.1,0c0.3-0.1,0-0.2,0-0.3c-0.2-0.1-0.3-0.4-0.4-0.6
		C115.4,46.1,115.3,46,115.2,46z M97,47.5L97,47.5L97,47.5L97,47.5C97,47.5,97,47.5,97,47.5C97,47.5,97,47.5,97,47.5L97,47.5z"/>
	<path class="st7" d="M34.3,44.1L34.3,44.1c-0.1-0.2-0.1-0.3-0.2-0.4L34,43.5l0.3-0.2c0.1-0.1,0.2-0.2,0.3-0.2
		c0.2-0.1,0.2,0.3,0.3,0c0-0.1,0.1-0.4,0.2-0.5c0.1-0.1,0.2,0.2,0.3,0.2l0,0l0,0.1l0,0.1l0,0.1c-0.1,0.2-0.2,0.1-0.4,0.1
		c-0.2,0.1-0.4,0.4-0.4,0.6C34.5,43.9,34.5,43.9,34.3,44.1L34.3,44.1z M38.3,44.8L38.3,44.8c-0.1-0.2-0.2-0.5,0.1-0.5
		c0.2,0,0.2,0.2,0.4,0.2l0.1,0l-0.1,0.1C38.7,44.7,38.5,44.6,38.3,44.8L38.3,44.8z M39.2,44.9l0-0.2c0-0.1,0-0.1,0-0.2
		c0-0.1,0.2,0,0.2,0.1c0,0,0,0,0.1,0l0,0l-0.1,0.1C39.3,44.7,39.3,44.8,39.2,44.9L39.2,44.9z M38.6,45.2l-0.1-0.1l0-0.2
		c0,0,0.1,0,0.1,0.1L38.6,45.2z M37.3,45.6l-0.2-0.5c-0.2-0.3-0.5-0.6-0.4-0.7l0,0l0.1,0c0.1,0,0.1,0.1,0.1,0.1
		c0.1,0.1,0.1,0.1,0.2,0.2l0.1,0.2l0,0c0,0,0,0.1,0.1,0.1c0.1,0.1,0.2,0.1,0.3,0.1C37.7,45.2,37.5,45.4,37.3,45.6L37.3,45.6z
		 M38.6,45.7v-0.1l0,0L38.6,45.7L38.6,45.7L38.6,45.7z M38.5,45.9L38.5,45.9c0-0.1,0-0.1,0-0.1h0.1L38.5,45.9z M38.7,46.6L38.7,46.6
		c-0.1,0-0.1-0.1-0.1-0.2l0,0l0.1,0c0.1,0,0.1,0,0.2,0C38.8,46.4,38.8,46.5,38.7,46.6L38.7,46.6z M34.1,46.8l-0.1-0.1
		c-0.1-0.1-0.1-0.1-0.1-0.2c0,0,0.4,0,0.4,0c-0.1-0.1-0.2-0.2-0.2-0.3c0-0.1,0-0.2,0-0.2c0,0-0.3,0-0.2-0.2h0.1c0,0,0-0.1,0-0.2
		c0.1-0.1,0.4,0.1,0.4-0.1c0-0.3-0.4-0.3-0.5-0.5c0-0.1,0-0.2,0-0.2c-0.1-0.1-0.2,0-0.2-0.1c-0.1-0.2-0.2-0.5,0.1-0.5
		c0.2,0,0.3,0.2,0.4,0.3l0.1,0l0,0.1c0,0.1,0,0.4,0,0.4c0.1,0,0.2-0.1,0.3-0.2c0.1-0.1,0.1-0.1,0.2-0.2l0.1-0.2l0,0
		c0,0.2,0.2,0.1,0.2,0.5c0,0.3-0.4,0.2-0.3,0.4c0,0.1,0,0.2,0,0.3c0,0.1,0.1-0.1,0.2,0c0.2,0.3-0.3,0.3-0.3,0.4
		c-0.1,0.1,0,0.3-0.1,0.4C34.2,46.5,34.2,46.6,34.1,46.8L34.1,46.8z M34.5,47.3l-0.1-0.2L34.2,47l0.1,0c0.2,0,0.3,0,0.4,0
		c0,0.1,0,0.2,0,0.2L34.5,47.3z M39.3,47.4l-0.1-0.2h0c0.1,0,0.3,0.1,0.4,0.1c0,0-0.1,0-0.2,0L39.3,47.4z M20,48.2L20,48.2
		C20,48.1,19.9,48.1,20,48.2L20,48.2L20,48.2c0-0.1,0.3-0.1,0.3-0.1C20.2,48.1,20.1,48.1,20,48.2z M19.9,48.4L19.9,48.4
		C19.9,48.4,19.9,48.4,19.9,48.4c-0.1-0.1-0.1-0.1-0.1-0.1c0,0,0,0,0,0c0,0,0,0,0-0.1c0,0,0,0,0,0c0,0,0,0,0.1,0l0,0l0,0
		c0,0,0,0,0,0c0,0,0,0,0,0l0,0c0,0,0,0,0,0v0l0,0c0.1,0,0.2,0.1,0.2,0.2C20.2,48.3,20,48.4,19.9,48.4L19.9,48.4z M20,48.9L20,48.9
		c0,0,0-0.1-0.1-0.1c0,0,0,0,0,0c0,0-0.1,0-0.1-0.1H20c0,0,0,0,0-0.1c0,0,0,0,0,0c0,0-0.1,0,0,0h0c0,0,0,0,0,0v0l0,0
		c0.2,0,0.3,0,0.3,0.1c0,0.1-0.1,0-0.1,0.1C20.1,48.7,20.1,48.8,20,48.9C20.1,48.8,20,48.9,20,48.9L20,48.9z M21.5,49
		c0-0.1,0.1-0.1,0.1-0.1c0,0,0.1-0.2,0.1-0.1c0,0,0.1,0.1,0.1,0.1l0,0l0,0c0,0.1-0.1,0.2-0.2,0.3c0,0,0,0.1-0.1,0.1l0,0L21.5,49z
		 M21.4,48.7C21.4,48.8,21.4,48.8,21.4,48.7c0,0.1,0,0.1,0,0.2C21.3,48.8,21.3,48.8,21.4,48.7C21.3,48.7,21.3,48.7,21.4,48.7z
		 M23.4,49.2C23.4,49.1,23.4,49.1,23.4,49.2c0.1-0.1,0.1-0.2,0.1-0.2l0.1-0.1l0,0L23.4,49.2L23.4,49.2z M20.6,47.7
		c0,0-0.1,0-0.1-0.1C20.5,47.6,20.6,47.7,20.6,47.7L20.6,47.7L20.6,47.7C20.6,47.7,20.6,47.7,20.6,47.7z M20.7,48
		C20.7,47.9,20.7,47.9,20.7,48c0-0.1,0.1-0.1,0.1,0C20.8,47.9,20.8,47.9,20.7,48z M43,49v0.4l-0.3-0.1L42.7,49
		c-0.1-0.3-0.2-0.6-0.3-0.9c-0.1-0.1-0.1-0.2-0.1-0.3c-0.1-0.1-0.2-0.3-0.3-0.4c0,0,0-0.2,0-0.2c-0.1-0.1-0.6-0.4-0.5-0.8
		c0-0.1,0.6,0,0.6,0c-0.1-0.3-0.2-0.4-0.4-0.9c-0.1-0.2,0-0.4-0.1-0.6c0-0.1-0.5,0-0.3-0.5c0,0,0,0,0,0l0,0v0c0,0,0,0,0,0
		c0,0.2,0,0.3,0.2,0.3c0.2,0,0.4-0.1,0.6-0.2c-0.1,0.2-0.1,0.5,0,0.7c0.1,0.2,0.3-0.1,0.3,0.1c0,0.1,0.1,0.3,0.3,0.2
		c0.3-0.2,0.2-0.4,0-0.8c0-0.1-0.2,0-0.2,0c0-0.2,0-0.3-0.1-0.5c-0.1-0.1-0.3-0.2-0.2-0.4c0-0.1,0-0.3-0.1-0.3l0,0l0,0
		c-0.1-0.4-0.5-0.5-0.6-0.9l0,0l0.1,0c0.1,0,0.1,0.1,0.1,0.2c0,0.3,0.3,0.4,0.3,0.1c0.1,0.1,0.1,0.3,0.2,0.3c0,0,0.3-0.1,0.3-0.1
		c-0.1-0.2-0.3-0.3-0.5-0.4c0,0,0-0.3-0.1-0.3c-0.1,0-0.2,0.1-0.2,0c0-0.2-0.1-0.3-0.2-0.3h0v0c0,0,0-0.1,0-0.1
		c-0.1-0.2-0.3,0-0.4-0.4c0-0.1,0-0.1,0-0.2l0,0l0.2,0.1c0.1,0,0.5,0.6,0.3,0c0,0,0,0,0-0.1c-0.1-0.1-0.2-0.1-0.2-0.2
		c0-0.1-0.1-0.2-0.2-0.3l-0.1-0.1l0-0.1c0-0.3,0.1-0.4,0.3-0.4c0.4,0,0,0.7,0.3,0.6l0,0l0,0.1c0,0,0,0.1,0.1,0.1
		c0.1,0,0.2-0.1,0.3-0.1c-0.1,0.1-0.1,0.2-0.1,0.4c0,0.2,0.2-0.1,0.2,0c0.1,0.3-0.3,0.6,0.1,0.6c0.1,0,0.1-0.3,0.1-0.3
		c0-0.1,0.1-0.1,0.2-0.2c0.1-0.1,0-0.7-0.1-0.7h-0.1c-0.1-0.1,0.1-0.6-0.1-0.6l0,0l0,0c-0.1-0.1-0.2-0.2-0.3-0.3l-0.1-0.1l0.1,0
		c0.2,0.1,0.4,0.1,0.6,0.2c0.1,0.1,0-0.2,0-0.2c-0.1-0.3-0.4,0-0.5-0.2c-0.1-0.2-0.2-0.2-0.4-0.2c0,0-0.1,0-0.1,0l0,0l0,0
		C41,39,41,38.8,40.9,38.6c0-0.1,0-0.3,0-0.4l0,0l0,0c0.1,0.1,0.3-0.1,0.3-0.1c0.1-0.1,0.1,1.2,0.4,0.3c0,0.1,0.4,0.8,0.4,0.3
		c0-0.1,0-0.3,0-0.4c-0.1-0.1-0.3-0.1-0.3-0.2c-0.1-0.2,0-0.3-0.2-0.5c-0.1,0-0.1,0-0.1,0c-0.1,0-0.1-0.1-0.1-0.2l0,0l0,0
		c0-0.1,0-0.2-0.1-0.2c-0.2-0.1-0.3-0.2-0.3-0.3l0,0l0,0c0,0,0.1,0,0.1,0c0,0,0.2,0.1,0.3,0.1C41.2,37,41.1,37,41,37
		c-0.1-0.1-0.1-0.3-0.2-0.4l0-0.1c0.1-0.1,0.1-0.1,0.1-0.2l0-0.1l0.1,0c0,0,0,0.1,0,0.2c0,0,0.2,0,0.2,0c0.1,0-0.1,0.5,0.1,0.6
		c0.1,0,0.4-0.1,0.5,0c0,0.1,0,0.4,0.1,0.4c0.3,0-0.1-0.4,0-0.4c0,0,0.2-0.1,0.2-0.1c0-0.4-0.4-0.3-0.4-0.4c0-0.1-0.1-0.2-0.2-0.2
		c0,0-0.1-0.3-0.2-0.3c-0.1,0-0.1,0-0.2,0.1c-0.1,0-0.1,0-0.2-0.1l-0.1,0l0-0.1c0-0.1,0-0.2-0.1-0.3c0.2,0.1,0.3-0.2,0.3-0.4l0,0
		l0,0c0,0,0,0,0,0.1c0,0.1,0,0.2,0,0.2c0.1,0,0.2-0.1,0.2,0c0,0.1,0,0.2,0,0.2c0.1,0,0.1-0.2,0.2-0.1c0.2,0,0.1,0.2,0.1,0.3h0.1
		c0,0,0.2,0.2,0.2,0.2c0-0.1,0-0.2-0.1-0.3c-0.1-0.3-0.3-0.5-0.5-0.5c0.1-0.1-0.2-0.5-0.3-0.4l-0.1,0l0,0c-0.1-0.2-0.2-0.1-0.3-0.2
		c-0.1-0.3-0.1-1.6-0.2-1.9c-0.1-0.1-0.1,1.1-0.1,1.4c0,0.3-0.2,0.4-0.2,0.8c0,0.4,0,0.5,0,0.7l0,0l-0.1,0c-0.1,0-0.2,0.2-0.3,0.2
		c-0.1,0-0.4,0-0.4,0.1c0,0-0.1,0.4-0.1,0.5c-0.1,0.4,0.6-0.2,0.5-0.3c0.2,0.1,0.3-0.1,0.4-0.1l0,0l0,0.1c0,0,0,0,0,0.1
		c0,0.2-0.2,0.4-0.3,0.6l-0.1,0.1l0,0c-0.1,0-0.1-0.1-0.2-0.1c-0.1,0.1-0.3,0.3,0,0.4c-0.1,0-0.2,0-0.3,0.1c-0.1,0.1,0,0.3,0,0.3
		c0,0-0.3,0.2-0.1,0.2c0.4,0.1,0.5-0.3,0.6-0.5l0.1-0.1l0,0c0.1,0.1,0.3,0.3,0.3,0.4c-0.1,0-0.2,0.1-0.2,0.2l0,0l0,0
		c-0.1,0-0.1,0.1-0.2,0.2h0c-0.1,0-0.4,0.2-0.4,0.3c-0.1,0-0.1,0.1,0,0.2c0.1,0.2-0.4-0.1-0.3,0.2c0.1,0.2,0.3,0.2,0.4,0.3
		c0.1,0.2,0,0.4,0.1,0c0.1-0.4,0.1-0.1,0.3-0.2c0,0,0,0,0,0l0,0l0,0c0.1,0.1,0.2,0.1,0.4,0.3c0,0,0,0,0,0l0,0l-0.1,0.1
		c-0.1,0.1-0.3,0-0.4,0.1c0,0-0.1,0.3-0.1,0.4c0,0.1,0.2,0,0.2-0.1c0,0,0.1-0.1,0.1-0.1l0.1-0.1l0,0c-0.1,0.1-0.3,0.2-0.3,0.4l0,0.1
		l-0.1,0c-0.1,0-0.2,0-0.4,0c-0.2,0-0.3,0.2-0.4,0.3c0,0.1-0.2,0.1-0.2,0.2c-0.1,0.2,0,0.5,0,0.7c0.1,0.4,0.2,0.1,0.3-0.1
		c0-0.1,0-0.5,0.1-0.5c0.1,0.1,0.1,0.1,0.2,0l0,0l0,0c0,0.1,0,0.3,0,0.4c0,0.2,0,0.3,0,0.4l0,0l-0.1,0.1c0,0,0,0.1,0,0.1
		c0,0.1-0.2-0.1-0.3-0.1c-0.2,0-0.3,0.2-0.2,0.4c-0.1,0-0.2,0.3-0.1,0.3c0.1,0.1,0.1-0.2,0.2-0.2c0.1,0,0.2,0,0.1-0.3
		c0.1,0.1,0.2,0.2,0.2,0.1c0,0,0.1-0.1,0.1-0.1l0,0l0,0.1c0,0.2,0,0.4,0.2,0.7l0,0l-0.1,0.1c0,0.1-0.1,0.2-0.1,0.3
		c-0.1,0.1-0.4-0.3-0.5-0.1c-0.1,0.1-0.1,0.2-0.1,0.3c0,0.5,0.2,0.7,0.2,1.2c0.2-0.3,0.3-0.5,0.3-0.9c0,0.1,0.1,0.4,0.1,0.5
		c0.1,0.1,0.1-0.1,0.2-0.3l0.1-0.2l0,0.1c0,0.2,0,0.4,0,0.6l0,0.1l-0.2,0.1c-0.2,0.1-0.3,0.2-0.5,0.3L39,44.4l0-0.1
		c-0.1-0.2-0.2-0.4-0.3-0.6c-0.1-0.2-0.2-0.1-0.3-0.4c0-0.2-0.1-0.4-0.1-0.6c0.3,0.1,0.1-0.2,0-0.3c-0.1-0.1,0-0.2-0.1-0.3
		c0,0-0.1,0-0.1,0.1C38,42.1,38,42.2,38,42.4c0,0.3-0.1,0.2-0.1,0.3c-0.1,0.3-0.2,0.5-0.2,0.7c-0.1,0.2,0.1,0.2,0,0.5
		c-0.1,0.2-0.1,0.1-0.2,0.1c-0.1,0.1,0,0.2-0.1,0.3c0,0.1,0.1,0.2,0.1,0.2c0,0.1-0.1,0.1-0.2,0.2l0,0l0-0.6c0-0.1-0.2-0.1-0.2-0.1
		c-0.1-0.1-0.1-0.2-0.2-0.3c0,0,0,0,0,0h0l0,0c0-0.2-0.4-0.3-0.5-0.5c0-0.1,0.1-0.2,0.1-0.3l0,0l0,0c0,0,0-0.1,0-0.1
		c0.1,0.2,0,0.8,0.4,0.6c0,0.1,0.2,0.7,0.3,0.5c0.1-0.2,0-0.8-0.2-0.9c0,0-0.1,0-0.1-0.1c0-0.1,0.1-0.2,0-0.3
		c-0.1-0.1-0.2-0.1-0.2,0c0-0.3-0.1-0.4-0.3-0.4l-0.1,0l0,0c0.1-0.1,0.4-0.1,0.3-0.4c-0.1-0.3-0.2-0.3-0.3-0.4l0,0l0.1,0
		c0.1,0,0.1,0,0.2,0c0,0,0.1,0.5,0.2,0.6c0,0.1,0.2,0,0.2,0.2c0.2-0.6-0.3-1.3-0.6-1.5c0,0,0-0.1,0-0.1c-0.1-0.1-0.2-0.2-0.4-0.2
		l0,0l0-0.1c0,0,0-0.1,0-0.1c0-0.1,0.1-0.4,0.2-0.6l0,0l0,0c0,0,0.1,0.1,0.1,0.1c0.1,0-0.1,0.1-0.1,0.2c0,0.1,0,0.2,0,0.3
		c0,0.2,0.3,0,0.3-0.1c-0.1,0.5,0.5,0.3,0.3,0.2c0.3-0.4-0.4-0.7-0.5-0.9c0-0.1-0.1-0.3-0.1-0.3l-0.1,0l0-0.1l0,0l0,0
		c0.2,0,0.3-0.2,0.4-0.1c0,0.1,0.1,0.4,0.2,0.5c0,0,0.1,0,0.1,0c0.1-0.3-0.2-0.8-0.4-0.8c-0.2,0-0.3-0.1-0.4-0.1l-0.1-0.1l0-0.1
		c0-0.1-0.1-0.2-0.1-0.3l0,0l0-0.1c0-0.2,0-0.2,0-0.5c0-0.2-0.1-0.1-0.2-0.3c0-0.1,0.1-0.4,0-0.3c-0.1,0-0.1,0.2-0.1,0.3
		c0,0.1-0.1,0.1-0.1,0.2c-0.2,0.3,0.1,0.2,0.1,0.4l0,0.1l0,0c-0.1,0.2,0,0.3-0.2,0.5c-0.1,0.1-0.2,0.3-0.3,0.5l0,0l0,0
		c-0.1,0.2-0.3,0.4-0.3,0.5c0,0.2,0,0.6,0.2,0.4c0.1-0.1,0.1-0.2,0.1-0.3c0-0.2,0.2-0.1,0.3-0.3l0-0.1h0c0,0,0.1,0,0.1,0
		c-0.1,0.3-0.2,0.7-0.3,1l0,0.1L34.9,40c-0.2,0.1-0.4,0.1-0.5,0.3c0,0.1,0.1,0.2,0,0.3c0,0-0.4,0.5-0.1,0.5c0.2,0,0.2-0.2,0.3-0.4
		c0,0,0.2,0.2,0.3,0.2c0.1,0,0-0.4,0-0.6c0,0,0.1,0.1,0.1,0.1l0,0l0,0c0,0.3,0.3,0.2,0.1,0.5c-0.2,0.4,0.1,0.1-0.1,0.5
		c0,0-0.1,0.1-0.1,0.2l0,0l0,0.1c0,0.1-0.1,0.1-0.1,0.1c-0.2,0-0.3,0.2-0.3,0.5c0,0.3,0,0.2-0.3,0.3c-0.2,0.1-0.2,0.2-0.2,0.4
		l-0.1,0.1l-0.1-0.1c-0.1,0-0.1-0.1-0.1-0.3c0-0.2-0.1-0.5-0.2-0.7c0.3,0.1,0.2-0.2,0-0.4c-0.1-0.1,0-0.2-0.1-0.3
		c0-0.1-0.1,0-0.1,0.1c-0.1,0.1-0.1,0.2-0.1,0.3c0,0.3-0.1,0.2-0.2,0.4c-0.1,0.3-0.2,0.6-0.3,0.9c-0.1,0.3,0.1,0.3,0,0.6
		c-0.1,0.2-0.2,0.1-0.3,0.2c-0.1,0.1,0,0.2-0.1,0.3c0,0.1,0.1,0.2,0.1,0.3c0,0.1-0.5,0.3-0.2,0.5c0.1,0.1,0.3,0.1,0.4,0.1
		c0.1,0.1-0.1,0.2-0.2,0.4c-0.1,0.1-0.1,0.4-0.2,0.5c-0.3,0.3-0.6,0.5,0,0.5c-0.2,0-0.3,0.3-0.1,0.3c0.2,0,0.4,0,0.5,0.1
		c-0.2,0-1.1,0.2-0.7,0.5c-0.1,0.1-0.3,0.3-0.4,0.3c0,0-0.2,0-0.2,0.1c0,0.1,0.1,0.1,0.1,0.2c0,0.1-0.2,0.2-0.3,0.4
		c0.4,0,0.7-0.1,1.1-0.1c-0.4,0-0.5,0.8-0.9,0.8c0,0.1,0.1,0.1,0,0.2l0,0.1h-0.4l-0.4-0.1L30.6,49l-0.1,0l0,0c0,0,0,0,0,0
		c0.1-0.2,0.7,0.1,0.5-0.1c-0.3-0.5-0.4-0.8-0.7-1.2l0,0l0.1,0.1c0.1,0.1,0.2,0.3,0.3,0.3c0.1,0,0.1,0,0.1,0
		c0.1-0.1,0.1-0.1,0.1-0.3c0-0.1,0-0.2,0-0.4c0-0.5-0.3-0.3-0.5-0.6c0-0.1-0.1-0.2-0.2-0.3c-0.1-0.1-0.2,0-0.3,0l-0.1,0l0-0.1
		c-0.1-0.1,0-0.3-0.1-0.3c0,0-0.5,0-0.3-0.3c0,0,0.1,0.1,0.2,0c0,0,0,0,0-0.1l0,0l0,0c0,0,0.1,0,0.1,0c0.1,0.1,0.2,0.3,0.3,0.3
		c0.2,0.1,0-0.1,0.2-0.2c0.2-0.1,0.3-0.1,0.5,0l0.1,0l0,0.1c0.1,0,0.1,0,0-0.1l0,0l0,0c0-0.2-0.1-0.5-0.2-0.7
		c-0.1-0.3-0.6-0.8-0.9-0.5c0,0-0.1-0.1-0.1-0.1c0,0-0.1-0.1-0.1-0.1l-0.1-0.1l0-0.1c0,0,0,0,0-0.1c-0.1-0.1-0.3,0-0.3-0.2
		c-0.1-0.2,0.2-0.3,0.2-0.5c0,0,0-0.1,0-0.1l0,0l0.1,0c0,0.5,0.4,0.8,0.4,0.1c0.1,0.2,0.1,0.4,0.2,0.5c0,0,0-0.1,0.1-0.1
		c0.1,0,0,0.3,0.2,0.2c0.1-0.1,0.1-0.2,0-0.3l0-0.1l0,0c0.1,0.1,0-0.5,0-0.5c-0.1-0.1-0.2-0.2-0.2-0.2l0,0l0-0.1c0,0,0-0.1-0.1-0.1
		l-0.1,0l0,0c0,0-0.1-0.1-0.1-0.1l0,0l0-0.1c0-0.1,0-0.1-0.1-0.1h0l0,0l0,0c0-0.1,0-0.1-0.1-0.2l-0.1,0l0-0.1
		c-0.1-0.1-0.1-0.3-0.1-0.4c0-0.2,0.5-0.1,0.5-0.3c0-0.1-0.3-0.1-0.4-0.2c-0.2-0.2-0.3-0.6-0.3-0.8c0.5,0.1,0.2-0.4,0.1-0.6
		c-0.1-0.1-0.1-0.2-0.1-0.3l0,0l0,0c0,0,0.1,0,0-0.1c0-0.1-0.1-0.6-0.2-0.6c0,0,0,0.2,0,0.2c0,0.1,0.1,0.2,0.1,0.2
		c0,0-0.1,0.1-0.1,0.1c0,0,0,0.1,0,0.1l0,0l0,0c-0.1,0.1-0.2,0.2-0.2,0.5c0,0.4-0.2,0.3-0.3,0.6c0,0,0.1,0.4,0,0.5
		c-0.1,0.1-0.4,0-0.3,0.2l0,0l-0.1,0c-0.2,0-0.5,0.1-0.4,0.4c-0.1,0.1-0.1,0.2,0,0.3c0,0,0.1-0.3,0.2-0.3c0,0,0.1,0.1,0.1,0.1
		c0.2,0.1,0.1-0.2,0.2-0.2c0.1,0,0.2,0.1,0.3,0.1l0.1-0.1l0,0c0.1,0,0.1,0.1,0.1,0.1c-0.1,0.3-1,0.4-0.8,0.4
		c0.5,0.1,0.4,0.1,0.3,0.6c-0.1,0.3-0.2,0.1-0.4,0.3c-0.1,0.1,0,0.3-0.1,0.5c-0.1,0.2,0.1,0.3,0.1,0.4c0,0.2-0.5,0.4-0.4,0.6l0,0
		l0,0c-0.1,0.1-0.2,0.2-0.1,0.4c0,0.1,0.1,0.2,0,0.2c-0.1,0.1,0,0.2,0,0.3c0.1,0.1,0.3-0.3,0.3-0.3c0.1-0.1,0.2-0.3,0.2-0.2
		c0,0.1,0.1,0.1,0.2,0.1l0.1,0l0,0c-0.1,0.1-0.2,0.3-0.3,0.5c0,0.1-0.1,0.1-0.1,0.2l-0.1,0.2l-0.1-0.1c-0.2-0.1-0.4,0-0.5,0.2
		c-0.1-0.1-0.3-0.1-0.4,0c-0.2,0.2-0.3,0.5-0.5,0.7c0.1,0.1-0.3,0.3,0,0.4c0.1,0,0.1,0,0.1,0c0.2,0,0.3-0.1,0.4-0.2
		c0.1-0.1,0.1-0.2,0.1-0.1v0.1l0,0c0,0,0,0,0,0l0,0l0,0.2c0,0.1,0,0.2,0.1,0.3c0.1,0.1,0.2,0.2,0.3,0.1l0.2,0l0.1,0
		c0.1,0,0.3,0,0.4,0.1c-0.3,0-1.7,0.4-1.1,0.8c-0.1,0.1-0.4,0.4-0.5,0.5c0,0-0.3,0.1-0.3,0.1c0,0.1,0,0.1,0.1,0.1l0,0l-0.4,0l0,0
		l-0.1,0c-0.1,0-0.3-0.1-0.4-0.1c0.1,0,0.2,0,0.3,0l0.1,0l0.1,0c0.1,0,0.2,0,0.2-0.1c0,0,0-0.1,0-0.2l0-0.1l0,0c0,0,0,0,0,0l0,0l0,0
		c0-0.1,0,0,0.1,0.1c0.1,0.1,0.2,0.1,0.3,0.1c0,0,0.1,0,0.1,0c0.2-0.1,0-0.2,0-0.3c-0.2-0.1-0.2-0.3-0.4-0.5c-0.1-0.1-0.2-0.1-0.3,0
		c0-0.1-0.2-0.2-0.3-0.1l0,0l0-0.1c0,0,0-0.1-0.1-0.1c-0.1-0.1-0.2-0.2-0.2-0.3l0,0l0,0c0.1,0,0.2,0,0.2-0.1c0-0.1,0.1,0.1,0.1,0.1
		c0,0,0.2,0.3,0.2,0.2c0-0.1,0.1-0.1,0-0.2c0,0,0-0.1,0-0.2c0-0.1-0.1-0.2-0.1-0.3l0,0l0,0c0.1-0.2-0.3-0.3-0.3-0.4
		c0-0.1,0.1-0.1,0-0.3c0-0.1,0-0.2-0.1-0.3c-0.1-0.1-0.2,0-0.3-0.2c-0.1-0.3-0.1-0.3,0.2-0.4c0.1,0-0.5-0.1-0.6-0.3c0,0,0,0,0.1-0.1
		l0,0l0,0.1c0.1,0.1,0.1,0,0.2,0c0.1,0,0,0.2,0.1,0.1c0,0,0.1-0.1,0.1-0.1c0,0,0.1,0.2,0.1,0.2c0.1-0.1,0.1-0.1,0-0.2
		c0.1-0.2-0.1-0.2-0.3-0.3l-0.1,0l0,0c0.1-0.1-0.1,0-0.2-0.1c0-0.1,0-0.3,0-0.3c0-0.2-0.2-0.1-0.2-0.4c0-0.2-0.1-0.3-0.1-0.3
		c0-0.1-0.1-0.1-0.1-0.1c-0.1,0.1,0,0.2-0.1,0.3c-0.1,0.2-0.2,0.5,0.1,0.4c0,0.1-0.1,0.4-0.2,0.5c-0.1,0.1-0.2,0-0.2,0.1
		c0,0.1,0.3,0.1,0.3,0.2c0,0.1,0,0.2,0,0.2l0,0l0,0c0,0-0.1,0.1-0.1,0.1l0,0l0,0l0,0c-0.1,0-0.1,0-0.1,0.1l0,0l0,0
		c0,0,0,0.1-0.1,0.1l0,0l0,0c0,0,0,0-0.1,0l0,0.1l0,0c0,0-0.1,0.1-0.1,0.2c0,0.1-0.1,0.4,0,0.4l0,0l0,0c0,0.1,0,0.1,0,0.2
		c0.1,0.1,0.1-0.2,0.1-0.1c0,0,0,0.1,0,0.1c0.1-0.1,0.1-0.2,0.1-0.3c0,0.5,0.3,0.2,0.2-0.1l0,0l0,0c0,0,0,0,0,0.1
		c0,0.1,0.2,0.2,0.2,0.3c0,0.1-0.1,0.1-0.2,0.1c0,0,0,0,0,0l0,0l-0.1,0c0,0,0,0-0.1,0.1c0,0-0.1,0.1-0.1,0.1
		c-0.2-0.2-0.5,0.2-0.5,0.4c0,0.1-0.1,0.3-0.1,0.5l0,0l0,0c0,0,0,0,0,0l0-0.1l0,0c0.1,0,0.2,0,0.4,0c0.1,0.1,0,0.2,0.1,0.1
		c0.1,0,0.1-0.2,0.2-0.2c0,0,0,0,0.1,0l0,0l0,0c0,0,0,0,0,0h0.1c0.1,0.2-0.1,0.2-0.2,0.2c-0.1,0.1,0,0.2,0,0.2l0,0l0,0
		c-0.1,0-0.2,0-0.2,0c0,0-0.1,0.1-0.1,0.2c-0.1,0.2-0.3,0.1-0.3,0.4c0,0,0,0,0,0.1c-0.1-0.1-0.2-0.2-0.3-0.1c0,0-0.1,0-0.1-0.1
		c0,0,0,0-0.1,0l0,0l0,0c0,0,0,0,0,0c-0.1-0.1-0.2,0-0.2-0.1c0-0.1,0.1-0.2,0.1-0.3c0,0,0,0,0-0.1l0,0l0,0c0,0.2,0.2,0.4,0.2,0.1
		c0,0.1,0,0.2,0.1,0.2c0,0,0,0,0-0.1c0,0,0,0.2,0.1,0.1c0.1,0,0-0.1,0-0.2l0,0l0,0c0.1,0,0-0.3,0-0.3c0-0.1-0.1-0.1-0.1-0.1l0,0
		l0-0.1c0,0,0,0,0,0l0,0l0,0c0,0,0,0-0.1-0.1l0,0l0,0c0,0,0-0.1-0.1-0.1h0l0,0l0,0c0,0,0-0.1,0-0.1l0,0l0,0c0-0.1,0-0.1,0-0.2
		c0-0.1,0.3-0.1,0.3-0.2c0-0.1-0.1,0-0.2-0.1c-0.1-0.1-0.1-0.3-0.1-0.4c0.3,0.1,0.1-0.2,0.1-0.3c-0.1-0.1,0-0.1-0.1-0.3
		c0,0-0.1,0-0.1,0.1c-0.1,0.1-0.1,0.1-0.1,0.3c0,0.2-0.1,0.2-0.2,0.3c0,0,0,0.2,0,0.3c-0.1,0.1-0.2,0-0.2,0.1l0,0l0,0
		c-0.1,0-0.3,0.1-0.2,0.2c-0.1,0-0.1,0.1,0,0.1c0,0,0.1-0.2,0.1-0.1c0,0,0,0.1,0.1,0.1C22,47.1,22,47,22,47c0,0,0.1,0.1,0.1,0l0,0
		l0,0c0,0,0.1,0,0.1,0.1c-0.1,0.2-0.6,0.2-0.5,0.2c0.2,0.1,0.2,0.1,0.1,0.3c-0.1,0.2-0.1,0.1-0.2,0.1c-0.1,0.1,0,0.2-0.1,0.3
		c0,0.1,0.1,0.1,0,0.2c0,0.1-0.2,0.2-0.2,0.2c0,0-0.1,0-0.1-0.1c0-0.1,0.1-0.1,0-0.2c0-0.1,0-0.1,0-0.2c-0.1-0.1-0.1,0-0.1-0.1
		c-0.1-0.2,0.1-0.2,0-0.3c0,0-0.2-0.1-0.2-0.1c0-0.1,0.2,0,0.2,0c0,0-0.1-0.2-0.2-0.1c0-0.1,0-0.1,0-0.2c0-0.1-0.1-0.1-0.1-0.2
		c0-0.1,0-0.1-0.1-0.2c0,0,0-0.1-0.1,0c0,0.1,0,0.1,0,0.2c-0.1,0.1-0.1,0.3,0,0.2c0,0,0,0.1-0.1,0.3c0,0,0.1,0.2,0.1,0.2
		c0,0-0.1,0-0.1,0l0,0l0,0c0,0-0.1-0.1-0.2-0.1c0,0,0-0.1,0-0.2c0-0.1-0.1-0.1-0.1-0.2c0-0.1,0-0.1-0.1-0.2c0,0,0-0.1-0.1,0
		c0,0.1,0,0.1-0.1,0.2c-0.1,0.1-0.1,0.2,0,0.2c0,0,0,0.1-0.1,0.3c0,0,0.1,0.2,0,0.2c0,0-0.3,0.1-0.3,0.2l0,0l0,0
		c0,0-0.1-0.1-0.1-0.1c0,0,0.1,0,0.1,0c0,0,0,0-0.1,0c0,0,0-0.1,0-0.1c0.1,0,0-0.1,0-0.1c0,0,0,0,0-0.1c0,0,0,0,0,0c0,0,0,0,0,0.1
		c0,0.1,0,0,0,0.1c0,0,0,0.1,0,0.1c0,0-0.1,0,0,0c0,0,0.1,0.1,0.1,0.1c0,0-0.1,0.1-0.1,0.1c0.1,0,0.1,0,0,0.1c0,0,0,0-0.1,0
		c0,0,0,0,0,0.1c0,0,0,0,0,0.1c0,0-0.1,0.1,0,0.1c0,0,0.1,0,0.1,0c0,0,0,0,0,0.1c0,0,0,0.1,0,0.1c-0.1,0.1-0.1,0.1,0,0.1
		c0,0-0.1,0.1,0,0.1c0,0,0.1,0,0.1,0c0,0-0.2,0.1-0.2,0.1c0,0-0.1,0.1-0.1,0.1c0,0,0,0,0,0c0,0,0,0,0,0c0,0-0.1,0.1-0.1,0.1
		c0.1,0,0.2,0,0.2,0c-0.1,0-0.1,0.2-0.2,0.2l0,0.1l-0.9,0.6c-0.2,0-0.4,0-0.6-0.1c-0.1,0-0.2,0.1-0.3,0.1c-0.1,0-0.2-0.1-0.3-0.1
		c-0.1,0-0.2,0-0.3,0.1c-0.1,0-0.1,0.3-0.2,0.3c-0.7,0.3-1.7,0.5-1.9,0.7c-0.1,0.1-0.2,0.2-0.3,0.2l-2.7,1.6l32.4-0.5v-1.1h3.5v-0.3
		c-0.1-0.1-0.2-0.1-0.3-0.2c-0.1-0.2,0-0.2-0.1-0.3c-0.1-0.1-0.2-0.2-0.2-0.3c0-0.1,0.1-0.2,0-0.2c-0.2-0.1-0.2,0.2-0.3,0
		c-0.1-0.1,0.1-0.1,0.1-0.2c0-0.1-0.1-0.1-0.2-0.1c-0.1,0-0.2,0-0.2-0.1h0l0,0c0,0,0,0,0,0v0l0,0l0,0l0,0l0,0l0,0l0,0l-0.2-0.2l0,0
		l0.1,0.1c0.1,0,0.1,0.1,0.1,0.2c0,0,0.1,0,0.1,0c0,0,0-0.1,0-0.1c0-0.1,0-0.2,0-0.3c0-0.3-0.2-0.2-0.3-0.4c0-0.1-0.1-0.2-0.1-0.2
		c0,0-0.1,0-0.2,0l0,0l0,0c0-0.1,0-0.2,0-0.2c0,0-0.3,0-0.2-0.2h0.1c0,0,0,0,0,0l0,0l0,0c0,0,0,0,0.1,0c0.1,0.1,0.1,0.2,0.2,0.2
		c0.2,0,0,0,0.1-0.1c0.1-0.1,0.2,0,0.4,0l0,0l0,0.1c0,0,0,0,0-0.1l0,0l0,0c0-0.2-0.1-0.3-0.1-0.5c-0.1-0.2-0.4-0.5-0.5-0.3
		c0,0-0.1-0.1-0.1-0.1c0,0,0,0-0.1-0.1l-0.1-0.1l0,0c0,0,0,0,0,0c-0.1-0.1-0.2,0-0.2-0.1c0-0.1,0.2-0.2,0.2-0.3c0,0,0,0,0-0.1l0,0
		l0,0c0,0.3,0.2,0.5,0.2,0.1c0,0.1,0,0.2,0.1,0.3c0,0,0-0.1,0-0.1c0,0,0,0.2,0.1,0.1c0.1,0,0.1-0.1,0-0.2l0,0l0,0c0.1,0,0-0.3,0-0.4
		c0-0.1-0.1-0.1-0.1-0.2l0,0l0-0.1c0,0,0,0-0.1,0l0,0l0,0c0,0,0-0.1-0.1-0.1l0,0l0,0c0-0.1,0-0.1-0.1-0.1l0,0l0,0l0,0
		c0-0.1,0-0.1-0.1-0.1l0,0l0,0c0-0.1,0-0.2,0-0.2c0-0.1,0.3-0.1,0.3-0.2c0-0.1-0.2-0.1-0.2-0.1c-0.1-0.1-0.1-0.4-0.2-0.5
		c0.3,0.1,0.2-0.2,0.1-0.4c-0.1-0.1,0-0.2-0.1-0.3c0-0.1-0.1,0-0.1,0.1c-0.1,0.1-0.1,0.2-0.1,0.3c0,0.3-0.1,0.2-0.2,0.4
		c0,0,0.1,0.3,0,0.3c-0.1,0.1-0.3,0-0.2,0.1l0,0l-0.1,0c-0.2,0-0.4,0.1-0.3,0.3c-0.1,0.1-0.1,0.1,0,0.2c0,0,0.1-0.2,0.1-0.2
		c0,0,0,0.1,0.1,0.1C45,45.2,45,45,45,45c0.1,0,0.1,0.1,0.2,0l0-0.1l0,0c0,0,0.1,0.1,0.1,0.1c-0.1,0.2-0.7,0.2-0.6,0.3
		c0.3,0.1,0.3,0.1,0.2,0.4c-0.1,0.2-0.2,0.1-0.3,0.2c-0.1,0.1,0,0.2-0.1,0.3c0,0.1,0.1,0.2,0,0.3c0,0.1-0.4,0.2-0.3,0.4l0,0l0,0
		c-0.1,0.1-0.1,0.1-0.1,0.3c0,0.1,0.1,0.1,0,0.1c-0.1,0.1,0,0.1,0,0.2c0,0.1,0.2-0.2,0.2-0.2c0,0,0.1-0.2,0.1-0.1
		c0,0.1,0.1,0.1,0.2,0.1l0,0l0,0c0,0.1-0.2,0.2-0.2,0.3c0,0,0,0.1-0.1,0.1l0,0.1l0,0c-0.1-0.1-0.3,0-0.3,0.1c-0.1-0.1-0.2-0.1-0.3,0
		c-0.1,0.1-0.2,0.4-0.4,0.5c0,0.1-0.2,0.2,0,0.3c0,0,0.1,0,0.1,0c0.1,0,0.2,0,0.3-0.1c0,0,0.1-0.1,0.1-0.1l0,0l0,0c0,0,0,0,0,0l0,0
		l0,0.1c0,0.1,0,0.1,0,0.2c0,0.1,0.1,0.1,0.2,0.1l0.1,0l0.1,0c0.1,0,0.2,0,0.3,0.1c-0.1,0-0.2,0-0.4,0.1l-0.1,0l0,0l-0.4,0l0,0
		c0,0,0.1-0.1,0.1-0.1c0,0-0.3-0.1-0.3-0.1c-0.1,0-0.2-0.2-0.3-0.3c0.1,0.1,0.1,0.3,0.1,0.5C43.3,49.2,43.2,49.1,43,49z M20,49.2
		L20,49.2L20,49.2L20,49.2C20,49.1,20,49.1,20,49.2C20,49.1,20,49.2,20,49.2L20,49.2z"/>
	<path class="st3" d="M10.7,52.9c1,0.2,25.1-0.9,15.7,2.2c-17.9,5.8,15.4-1,19.7-1c4.2,0-1.6,3.8-1.4,5.4c0.1,0.5,12-2,13.3-2.1
		c9-1,18.2-2.9,29.4-2.1c3.6,0.2,7,0.7,10.1,1.5c5.9,1.6,16.7,2.3,10,0.3c-3.7-1.1-8.7-3.3-6.7-3.6c3-0.5,3.6,0.2,6.6,0.4
		c3.4,0.2,9.2-0.2,12.7-0.9c4.7-1,8.9-3,8.7-3.4c-0.5-1.3-10,3.3-25.4,1c-2.9-0.4-5.8-2.4-9.1-2.6c-13.5-0.5-24.4,2.3-36.9,3
		c-5.9,0.3-12.2,0.1-19.2-1.1C27,47.8,17.1,52,10.7,52.9"/>
	<path class="st8" d="M107.2,52.9c-9.7-2.8-15.5-3.3-20-3.2c-6.6,0.1-11.5,2-18.9,1.6c10-1.6,19.9-3.4,29.5-1.3L107.2,52.9z"/>
	<path class="st4" d="M21,51.5c1.3,0.3,12.5-0.1,12.6,1.3c0,0.3-3.2,1.4-3.2,1.7c1.1-0.2,2.1-0.3,3.2-0.5c2.5-0.4,5-0.8,7.6-1.2
		c0.5-0.1,1-0.2,1.5-0.2C36.4,50.5,29.1,50.7,21,51.5 M43.6,51.7c0.3,0.2,16.9,1.5,17.1,1.9c0.4,1.1-11.3,2.5-12,3.5
		c0.8-0.1,1.5-0.3,2.3-0.4c1.4-0.3,2.8-0.5,4.2-0.8c0.8-0.2,1.7-0.3,2.5-0.4c10-1.1,19.7-2.8,29.8-2.1c3.5,0.2,7.1,0.7,10.5,1.6
		c0.3,0.1,0.6,0.1,0.9,0.2c-0.4-0.5-11.9-3.2-11.7-3.9c0.3-1,19.2,1.9,20.1,1.8c-10.6-4-22-3.7-33.1-2.2
		C64.1,52,53.8,52.1,43.6,51.7z"/>
	<path class="st8" d="M99.7,55.4c-11.3-3.4-20.2-3.2-27.8-2.1c-3.8,0.6-7.7,1.1-11.5,1.6c-3.4,0.4-6.7,1.2-10,1.9l-0.5,0.1l0.1,0
		L49.4,57l0.8-0.1c3.3,0,6.6-0.5,10.1-1.3l8.5-1.4c7.4-0.8,15-1.2,21.7-0.2L99.7,55.4z"/>
	<path class="st8" d="M57.6,51c-0.9,0.1-1.9,0.1-2.7,0.1c-10.3,0.3-17.2-2-24.8-1.7c-4.1,0.2-7.7,0.7-11,1.5
		c-2.6,0.7-7.2,1.7-10.3,2.6c6.4-1,13.1-3,19.5-3.5C38.2,49.2,48.6,52.7,57.6,51"/>
</g>
</svg>
